<?xml version="1.0" standalone="no"?>
<!DOCTYPE svg PUBLIC "-//W3C//DTD SVG 20010904//EN"
 "http://www.w3.org/TR/2001/REC-SVG-20010904/DTD/svg10.dtd">
<svg version="1.0" xmlns="http://www.w3.org/2000/svg"
 width="608.000000pt" height="608.000000pt" viewBox="0 0 608.000000 608.000000"
 preserveAspectRatio="xMidYMid meet">
<metadata>
Created by potrace 1.14, written by Peter Selinger 2001-2017
</metadata>
<g transform="translate(0.000000,608.000000) scale(0.100000,-0.100000)"
fill="#000000" stroke="none">
<path d="M3 4788 c2 -689 6 -1269 9 -1288 3 -19 9 -55 12 -79 6 -40 15 -93 20
-116 9 -40 30 -131 31 -135 0 -3 4 -11 8 -17 5 -7 6 -13 3 -13 -5 0 51 -171
74 -225 7 -16 19 -46 28 -65 38 -90 117 -238 177 -331 74 -115 208 -285 233
-298 10 -4 52 -16 95 -26 93 -21 101 -19 294 81 l122 63 53 -36 c156 -106 328
-154 533 -148 104 2 148 8 217 29 92 27 178 65 243 105 22 14 41 26 43 27 1 0
-15 28 -36 60 -37 56 -78 126 -109 186 -17 33 -29 42 -38 28 -9 -14 -162 -87
-200 -95 -69 -15 -180 -20 -239 -9 -120 20 -244 82 -324 161 -21 21 -32 23
-134 23 -109 0 -112 0 -162 -34 -28 -18 -84 -51 -125 -72 -65 -33 -74 -36 -82
-21 -5 9 -15 22 -22 29 -7 7 -35 47 -61 88 -27 41 -56 86 -66 100 -9 14 -26
44 -38 68 l-22 42 28 1 c15 0 36 2 47 4 11 2 38 6 60 10 97 15 220 67 322 136
40 27 73 46 73 42 0 -11 90 -70 157 -104 66 -34 171 -68 260 -85 113 -21 355
3 411 41 1 1 -4 22 -12 46 -7 24 -19 68 -26 97 -13 56 -15 57 -55 42 -73 -28
-236 -32 -330 -9 -118 29 -238 93 -313 166 -23 23 -43 26 -130 24 -29 0 -50
-8 -65 -22 -116 -111 -271 -177 -431 -184 -81 -4 -82 -3 -93 23 -33 81 -74
244 -99 397 -14 87 -13 429 2 520 20 121 19 118 43 217 165 676 709 1231 1389
1414 55 15 74 19 125 28 12 2 33 7 47 10 34 7 80 13 170 22 41 4 948 8 2015 8
l1940 1 0 163 0 162 -3038 0 -3038 0 4 -1252z m1067 923 l35 -2 -40 -24 c-22
-13 -45 -27 -50 -32 -6 -4 -33 -24 -60 -42 -28 -19 -52 -38 -55 -41 -3 -3 -20
-16 -37 -28 -143 -100 -380 -363 -502 -556 -27 -43 -31 -47 -32 -25 0 13 -2
185 -2 383 -2 328 -1 359 15 365 13 5 588 6 728 2z"/>
<path d="M4478 5356 c-18 -11 -34 -24 -36 -28 -2 -5 -10 -8 -17 -8 -7 0 -15
-3 -17 -7 -1 -5 -25 -26 -53 -48 -73 -58 -111 -93 -176 -160 -87 -91 -219
-261 -219 -283 0 -6 -4 -12 -9 -14 -12 -4 -94 -159 -131 -250 l-33 -78 -185
185 -185 185 -131 0 -131 -1 -41 -57 c-22 -31 -53 -79 -69 -107 -16 -27 -32
-52 -35 -55 -23 -19 -162 -345 -175 -413 -3 -10 -7 -28 -11 -40 -4 -12 -9 -29
-10 -37 -1 -8 -9 -49 -17 -90 -26 -125 -29 -159 -32 -330 -4 -306 52 -564 183
-840 32 -68 127 -233 152 -263 5 -6 36 -46 69 -87 32 -41 77 -95 99 -119 l40
-43 229 0 c289 0 283 0 283 12 0 6 -5 10 -10 10 -26 0 -230 167 -310 254 -62
67 -147 181 -196 263 -36 61 -113 222 -119 248 -2 11 -13 40 -25 70 -11 26
-47 185 -57 250 -10 63 -9 397 1 450 4 22 9 51 11 65 10 61 49 190 82 274 30
76 95 209 110 226 2 2 235 -227 517 -509 l514 -514 47 7 c72 11 82 14 179 42
162 47 183 4 -189 377 l-327 326 17 58 c80 286 279 575 519 756 27 20 53 37
56 37 4 0 11 -15 17 -32 19 -58 75 -213 79 -217 2 -2 32 13 66 35 35 21 100
57 144 79 l82 40 -40 110 c-21 61 -44 119 -49 130 -6 12 -11 27 -12 35 -2 8
-5 20 -8 25 -3 6 -11 29 -19 53 -7 23 -16 43 -19 43 -3 1 -88 3 -188 4 -168 1
-185 0 -215 -19z"/>
<path d="M2077 5202 c-197 -36 -362 -206 -393 -404 -14 -90 -21 -83 94 -85 56
-2 102 1 103 5 7 66 43 156 76 189 34 34 88 69 127 82 40 14 155 22 157 12 7
-48 1 -416 -7 -471 -17 -110 -69 -230 -126 -295 -64 -72 -75 -83 -118 -117
-182 -143 -457 -167 -672 -58 -58 30 -73 40 -141 100 -112 98 -208 303 -202
428 l2 34 -31 -34 c-56 -60 -136 -189 -136 -218 0 -30 63 -162 106 -223 56
-79 177 -191 254 -236 71 -40 199 -91 280 -109 48 -11 276 -9 325 3 17 4 35 8
40 9 64 13 179 65 255 113 55 36 220 195 220 212 0 5 6 16 13 23 44 44 107
198 135 328 9 43 14 720 5 721 -61 7 -311 1 -366 -9z"/>
<path d="M5576 4923 c-1 -1 -40 -2 -86 -3 -109 -2 -220 -18 -316 -46 -216 -62
-433 -210 -572 -389 -47 -61 -116 -172 -127 -205 -1 -3 -11 -25 -22 -50 -11
-25 -28 -69 -38 -99 l-18 -54 132 -131 c73 -72 136 -138 141 -146 13 -22 17
-12 24 65 31 367 331 676 701 722 56 6 323 11 342 5 9 -3 12 -134 11 -560 -1
-538 -5 -650 -32 -762 -3 -14 -8 -36 -10 -50 -21 -118 -118 -357 -189 -467
-15 -24 -27 -45 -27 -49 0 -11 -133 -184 -142 -184 -4 0 -8 -5 -8 -10 0 -6
-33 -43 -72 -82 -159 -156 -320 -264 -533 -359 -120 -53 -299 -99 -450 -116
-135 -16 -417 -4 -515 20 -62 16 -83 21 -145 40 -38 11 -72 21 -75 22 -5 2
-13 5 -105 42 -69 29 -221 108 -235 124 -3 3 -22 15 -43 28 -21 13 -43 28 -50
34 -7 7 -35 30 -62 51 -60 47 -185 172 -241 241 -164 200 -308 519 -340 750
-2 17 -6 35 -8 42 -3 6 -8 54 -11 105 -4 51 -9 96 -12 101 -2 4 -25 -8 -51
-25 -60 -42 -111 -70 -195 -110 l-67 -32 5 -46 c3 -25 7 -54 9 -65 2 -11 7
-40 11 -65 11 -65 12 -69 29 -135 41 -160 87 -274 186 -465 47 -90 180 -279
240 -341 8 -9 34 -36 56 -60 94 -101 209 -198 327 -278 90 -60 235 -141 253
-141 8 0 14 -4 14 -8 0 -4 21 -16 48 -26 133 -51 178 -67 192 -71 8 -2 42 -12
75 -21 75 -20 180 -43 220 -48 17 -2 57 -8 90 -12 75 -9 329 -10 415 -1 68 7
94 11 175 27 28 6 61 12 74 15 35 6 204 56 216 63 6 4 15 7 20 8 19 4 160 66
170 75 5 5 17 9 27 9 10 0 18 3 18 8 0 4 21 17 48 30 167 81 446 310 573 471
19 24 39 48 44 55 6 6 26 34 45 61 19 28 37 52 42 53 4 2 8 8 8 13 0 5 17 37
38 71 40 65 118 222 124 248 2 8 6 17 9 20 27 20 121 401 135 542 4 34 7 395
8 802 2 733 1 738 -19 746 -11 4 -24 6 -28 3 -7 -4 -219 -4 -380 0 -38 1 -70
1 -71 0z"/>
<path d="M1564 4562 c-125 -48 -213 -167 -218 -294 -4 -84 1 -103 27 -106 12
-1 30 -4 41 -5 32 -6 112 11 161 33 63 29 131 99 162 167 31 68 39 197 13 213
-22 15 -141 9 -186 -8z"/>
<path d="M5255 4176 c-52 -19 -81 -45 -107 -94 -69 -131 32 -287 181 -277 106
7 176 83 176 192 0 52 -4 68 -30 104 -50 71 -144 103 -220 75z"/>
<path d="M4752 3039 c-248 -63 -423 -265 -450 -519 -4 -41 -6 -82 -4 -91 3
-16 71 -41 147 -54 136 -24 321 20 432 101 36 26 110 99 143 140 61 77 108
221 106 325 l-1 73 -45 14 c-77 23 -83 24 -170 27 -59 2 -108 -3 -158 -16z"/>
<path d="M5943 2233 c-90 -123 -262 -301 -388 -402 -38 -31 -72 -58 -75 -61
-15 -17 -277 -181 -290 -182 -16 -1 -192 -109 -210 -129 -12 -13 -110 -68
-110 -61 0 4 -4 2 -8 -4 -6 -9 -194 -104 -206 -104 -5 0 -171 -74 -281 -125
-27 -12 -75 -33 -105 -46 -30 -12 -60 -27 -67 -32 -7 -5 -38 -9 -70 -9 -179
-2 -372 75 -503 199 -33 31 -39 33 -111 33 -69 0 -78 -2 -105 -28 -196 -186
-476 -251 -733 -171 -106 33 -223 103 -285 168 -28 29 -34 31 -107 31 -68 0
-81 -3 -101 -23 -38 -37 -105 -87 -117 -87 -6 0 -11 -4 -11 -8 0 -9 -112 -62
-172 -81 -35 -11 -44 -10 -120 25 -46 20 -112 50 -148 66 -36 16 -78 35 -95
43 -16 7 -50 23 -75 33 -69 30 -273 130 -295 144 -138 90 -215 146 -215 158 0
4 17 14 37 23 21 9 59 28 85 43 52 30 51 30 133 -21 52 -32 142 -75 158 -75 7
0 17 -4 22 -9 6 -5 24 -12 40 -15 17 -3 60 -12 96 -19 63 -13 230 -15 310 -3
101 14 239 67 336 128 l64 41 37 -21 c133 -76 234 -120 317 -138 6 -1 24 -5
40 -9 53 -11 238 -14 300 -4 33 5 86 17 117 26 l57 15 -63 34 c-87 45 -200
115 -204 125 -2 5 -9 9 -16 9 -7 0 -21 9 -31 20 -10 11 -22 20 -26 20 -5 0
-18 8 -30 18 -49 40 -59 48 -95 77 -21 17 -70 60 -108 97 l-71 67 -165 1 -166
0 -56 -48 c-63 -52 -135 -93 -200 -112 -4 -1 -28 -8 -53 -15 -38 -12 -171 -14
-255 -5 -56 7 -205 75 -230 105 -7 8 -16 15 -21 15 -5 0 -22 14 -38 31 -29 30
-30 30 -108 23 -43 -3 -97 -7 -119 -8 -28 -1 -53 -10 -74 -26 -59 -46 -235
-125 -300 -135 -64 -10 -67 -14 -101 -108 -19 -51 -34 -94 -34 -97 -1 -3 -7
-22 -14 -43 -13 -38 -13 -39 25 -79 72 -75 159 -156 214 -199 30 -24 57 -46
60 -50 3 -3 46 -33 97 -67 89 -59 271 -154 383 -201 30 -13 78 -34 105 -46
143 -65 187 -85 190 -85 3 0 35 -14 72 -31 38 -17 174 -78 303 -136 456 -203
611 -302 847 -540 l112 -113 121 0 121 0 47 52 c56 61 158 161 191 185 12 10
33 28 46 41 13 12 28 22 34 22 5 0 11 4 13 8 4 12 88 71 187 131 97 60 183
101 486 236 121 53 243 107 270 120 28 12 75 33 105 46 30 12 58 28 62 33 4 6
8 8 8 4 0 -4 33 8 73 26 39 19 101 46 137 62 146 65 402 209 430 243 3 3 23
19 45 36 103 76 255 228 346 345 73 93 159 223 159 238 0 6 3 12 8 14 21 9
180 373 168 385 -2 3 -17 -12 -33 -34z m-3600 -1181 c71 -53 152 -96 236 -126
69 -25 85 -29 161 -44 47 -9 273 -9 334 1 120 19 327 111 394 175 36 34 51 34
100 1 26 -18 49 -35 52 -39 9 -10 128 -70 166 -84 l37 -12 -85 -42 c-48 -23
-91 -42 -96 -42 -6 0 -12 -4 -14 -8 -1 -4 -34 -25 -73 -47 -141 -77 -313 -204
-448 -330 l-70 -66 -36 34 c-227 218 -461 371 -771 507 -52 23 -98 45 -102 49
-4 3 9 15 30 26 20 11 44 25 52 32 8 7 26 21 40 32 14 11 29 20 33 21 4 0 31
-17 60 -38z"/>
</g>
</svg>
