<?xml version="1.0" encoding="utf-8"?><svg xmlns="http://www.w3.org/2000/svg" xmlns:xlink="http://www.w3.org/1999/xlink"><symbol viewBox="0 0 24 24" id="arrow-bottom" xmlns="http://www.w3.org/2000/svg"><path d="M23 1v22m0 0H1m22 0L1 1"/></symbol><symbol viewBox="0 0 10 11" id="cross" xmlns="http://www.w3.org/2000/svg"><path d="M9.3.901L.433 9.768m0-8.867L9.3 9.768"/></symbol><symbol viewBox="0 0 9 16" id="shevron-left" xmlns="http://www.w3.org/2000/svg"><path d="M8.5 1l-7 7 7 7"/></symbol><symbol viewBox="0 0 24 24" id="tg" xmlns="http://www.w3.org/2000/svg"><g clip-path="url(#dclip0_1004_2993)"><path clip-rule="evenodd" d="M24 12c0 6.627-5.373 12-12 12S0 18.627 0 12 5.373 0 12 0s12 5.373 12 12zM12.43 8.859c-1.167.485-3.5 1.49-6.998 3.014-.568.226-.866.447-.893.663-.046.366.412.51 1.034.705.085.027.173.054.263.084.613.199 1.437.432 1.865.441.389.008.823-.152 1.302-.48 3.268-2.207 4.955-3.322 5.061-3.346.075-.017.179-.039.249.024.07.062.063.18.056.212-.046.193-1.84 1.862-2.77 2.726-.29.269-.495.46-.537.504-.094.097-.19.19-.282.279-.57.548-.996.96.024 1.632.49.323.882.59 1.273.856.427.291.853.581 1.405.943.14.092.274.187.405.28.497.355.944.673 1.496.623.32-.03.652-.331.82-1.23.397-2.126 1.179-6.73 1.36-8.628a2.112 2.112 0 00-.02-.472.506.506 0 00-.172-.325c-.143-.117-.365-.142-.465-.14-.451.008-1.143.249-4.476 1.635z"/></g><defs><clipPath id="dclip0_1004_2993"><path d="M0 0h24v24H0z"/></clipPath></defs></symbol><symbol viewBox="0 0 24 24" id="wt" xmlns="http://www.w3.org/2000/svg"><g clip-path="url(#eclip0_1004_2990)"><path d="M.928 23.077l1.56-5.732a11.485 11.485 0 01-1.565-5.806C.923 5.166 6.09 0 12.461 0 18.834 0 24 5.166 24 11.539c0 6.372-5.166 11.538-11.539 11.538a11.485 11.485 0 01-5.803-1.564l-5.73 1.564zm7.37-16.952c-.15.009-.295.048-.429.115-.125.07-.24.16-.339.263-.138.13-.217.244-.301.353a3.149 3.149 0 00-.652 1.936c.002.566.15 1.116.38 1.63.473 1.041 1.25 2.143 2.275 3.164.247.246.488.493.748.723a10.901 10.901 0 004.43 2.36l.657.101c.213.012.427-.005.642-.015.335-.017.664-.108.96-.267.152-.077.3-.162.442-.253 0 0 .05-.033.145-.104a2.65 2.65 0 00.38-.332c.096-.1.18-.216.243-.349.09-.188.18-.547.217-.846.027-.228.02-.353.016-.43-.005-.124-.107-.252-.22-.306l-.67-.301s-1.005-.437-1.617-.717a.573.573 0 00-.205-.047.556.556 0 00-.436.147v-.003c-.005 0-.083.066-.917 1.077a.403.403 0 01-.425.15 1.635 1.635 0 01-.22-.076c-.143-.06-.193-.083-.29-.126l-.007-.002a6.937 6.937 0 01-1.811-1.154c-.146-.127-.28-.266-.419-.4a7.265 7.265 0 01-1.177-1.463l-.068-.11a1.064 1.064 0 01-.118-.236c-.044-.17.07-.305.07-.305s.281-.307.411-.474c.109-.138.21-.281.304-.43.136-.22.179-.444.107-.618a95.754 95.754 0 00-1.001-2.355c-.068-.155-.27-.266-.454-.288-.062-.007-.124-.014-.187-.018a3.906 3.906 0 00-.465.004v.002z"/></g><defs><clipPath id="eclip0_1004_2990"><path d="M0 0h24v24H0z"/></clipPath></defs></symbol></svg>