<svg width="153" height="151" viewBox="0 0 153 151" fill="none" xmlns="http://www.w3.org/2000/svg">
<path d="M18.6318 56.1375C18.6318 57.7151 19.0897 59.2573 19.9476 60.569C20.8054 61.8807 22.0246 62.9031 23.4511 63.5068C24.8776 64.1105 26.4472 64.2685 27.9615 63.9607C29.4759 63.6529 30.8669 62.8932 31.9587 61.7777C33.0505 60.6622 33.794 59.2409 34.0952 57.6937C34.3965 56.1464 34.2419 54.5426 33.651 53.0851C33.0602 51.6276 32.0595 50.3819 30.7757 49.5054C29.4919 48.6289 27.9826 48.1611 26.4386 48.1611C24.3681 48.1611 22.3824 49.0015 20.9184 50.4973C19.4544 51.9932 18.6318 54.0221 18.6318 56.1375Z" stroke="#3CBBED" stroke-width="4" stroke-linejoin="bevel"/>
<path d="M45.4463 15.7371L50.423 2C59.5739 6.61883 67.5305 13.2793 73.6732 21.4627C79.8159 29.6461 83.9788 39.1314 85.8375 49.1797" stroke="#3CBBED" stroke-width="4" stroke-linejoin="bevel"/>
<path d="M56.1074 50.2116C53.2578 42.913 48.332 36.6103 41.9395 32.0833C35.547 27.5563 27.9682 25.0038 20.1408 24.7413H2.00463V73.4288C1.89486 83.2647 3.73637 93.0246 7.4225 102.143C11.1086 111.262 16.5662 119.559 23.4792 126.553C30.3921 133.547 38.6231 139.1 47.6956 142.889C56.7682 146.679 66.5019 148.63 76.3334 148.63C86.1648 148.63 95.8987 146.679 104.971 142.889C114.044 139.1 122.275 133.547 129.188 126.553C136.101 119.559 141.558 111.262 145.244 102.143C148.93 93.0246 150.772 83.2647 150.662 73.4288" stroke="#3CBBED" stroke-width="4" stroke-linejoin="bevel"/>
<path d="M55.9678 78.5235L109.638 25.0811C115.687 32.8111 120.044 41.7169 122.429 51.2255C124.814 60.7341 125.174 70.6348 123.486 80.2904C121.798 89.946 118.099 99.1426 112.627 107.288C107.156 115.434 100.033 122.348 91.7167 127.586" stroke="#3CBBED" stroke-width="4" stroke-linejoin="bevel"/>
</svg>
