<svg width="76" height="75" viewBox="0 0 76 75" fill="none" xmlns="http://www.w3.org/2000/svg">
<path d="M68.865 25.5653C68.865 26.0422 68.7235 26.5084 68.4584 26.9049C68.1934 27.3014 67.8166 27.6104 67.3759 27.7927C66.9352 27.975 66.4503 28.0225 65.9826 27.9291C65.5149 27.8357 65.0854 27.6057 64.7485 27.2681C64.4115 26.9306 64.1823 26.5007 64.0898 26.0328C63.9973 25.5649 64.0457 25.0801 64.2288 24.6397C64.4119 24.1994 64.7215 23.8232 65.1185 23.5589C65.5155 23.2945 65.982 23.1539 66.4589 23.1548C67.0975 23.156 67.7094 23.4104 68.1605 23.8624C68.6116 24.3143 68.865 24.9267 68.865 25.5653Z" fill="white"/>
<path d="M18.0046 19.4611C17.4957 19.9715 17.127 20.6044 16.9341 21.2988C16.7413 21.9932 16.7308 22.7257 16.9036 23.4253C17.6039 23.5961 18.3364 23.5834 19.0303 23.3884C19.7243 23.1933 20.3561 22.8226 20.8649 22.312C21.3737 21.8015 21.7422 21.1683 21.9348 20.4737C22.1274 19.7791 22.1375 19.0466 21.9643 18.3469C21.2642 18.1769 20.532 18.1902 19.8385 18.3853C19.1449 18.5805 18.5133 18.951 18.0046 19.4611Z" fill="white"/>
<path d="M61.0251 44.5115C62.0701 43.767 62.9052 42.7653 63.4496 41.6034C63.994 40.4415 64.2292 39.1588 64.1325 37.8793C62.9536 37.3727 61.664 37.1785 60.3882 37.3157C59.1124 37.4529 57.8935 37.9167 56.8493 38.6624C55.805 39.4081 54.9707 40.4104 54.4269 41.5727C53.8831 42.7349 53.6482 44.0177 53.7448 45.2972C54.9235 45.803 56.2127 45.9964 57.488 45.8587C58.7632 45.7211 59.9814 45.2571 61.0251 44.5115Z" fill="white"/>
<path d="M27.0564 10.3301H27.0209C25.3919 10.3764 23.8456 11.0581 22.7125 12.2293C21.5794 13.4006 20.9493 14.9686 20.9569 16.5982H23.5539C23.55 15.6444 23.9193 14.7269 24.5829 14.0417C25.2465 13.3566 26.1518 12.9581 27.1052 12.9314H28.033V17.6858C28.0371 19.7909 27.2048 21.8114 25.7192 23.3028C24.2336 24.7943 22.2164 25.6345 20.1113 25.6386C18.0062 25.6427 15.9857 24.8104 14.4942 23.3248C13.0028 21.8392 12.1626 19.822 12.1585 17.7169C11.3089 18.6583 10.5988 19.7167 10.0499 20.8598C10.8224 23.2404 12.417 25.2683 14.5482 26.5806C16.6794 27.8929 19.208 28.4038 21.6815 28.022C24.1551 27.6402 26.4119 26.3905 28.0482 24.4967C29.6845 22.6029 30.5934 20.1885 30.6122 17.6858V10.3301H27.0564Z" fill="white"/>
<path d="M68.3764 13.9966H68.3054C65.2427 14.0799 62.2895 15.1536 59.8885 17.0568C57.4875 18.96 55.768 21.5901 54.9878 24.553L58.5969 28.162C58.6048 25.5402 59.6301 23.0238 61.4569 21.1432C63.2837 19.2626 65.7693 18.1646 68.3897 18.0806H71.8567V30.8788C71.7833 36.2983 69.5803 41.4713 65.724 45.2799C61.8676 49.0884 56.6675 51.2266 51.2475 51.2325C45.8275 51.2383 40.6228 49.1113 36.7583 45.311C32.8937 41.5108 30.6796 36.3425 30.5945 30.9232C29.3712 31.838 28.0361 32.5929 26.6215 33.1694C27.211 39.4975 30.2158 45.3552 35.0117 49.5256C39.8076 53.6959 46.0257 55.8583 52.3744 55.5635C58.723 55.2686 64.714 52.5392 69.1027 47.9422C73.4914 43.3453 75.9404 37.2343 75.9408 30.8788V14.0099L68.3764 13.9966Z" fill="white"/>
<path d="M58.0421 12.0569L59.2362 15.3552C60.3412 14.5205 61.5633 13.8533 62.863 13.3753L61.0519 8.36346L61.0252 8.29688H56.3508C52.2023 10.9453 49.0391 14.8836 47.3481 19.5058L42.718 14.8757H39.4819C35.9581 19.3891 34.2062 25.0351 34.5562 30.7505C34.9061 36.4658 37.3338 41.8559 41.3818 45.9056H47.9651C46.6392 45.0684 45.4017 44.0986 44.2717 43.0113C41.2128 39.9491 39.2658 35.9518 38.7405 31.6555C38.2152 27.3592 39.1419 23.0106 41.373 19.3016L54.2466 32.1752C55.8076 31.9469 57.3363 31.5357 58.8012 30.95L50.602 22.7553C51.6795 18.3956 54.3229 14.5845 58.0288 12.048" fill="white"/>
<path d="M63.4798 56.3819C62.1811 57.373 60.7718 58.2102 59.2803 58.8767L52.2043 62.0286C52.0356 62.0286 51.8625 62.0508 51.6938 62.0508C49.3297 62.042 47.0567 61.1378 45.3324 59.5204C45.1904 59.3872 45.0572 59.2541 44.924 59.1164H43.0507C42.2168 60.0074 41.2152 60.7249 40.1033 61.2277C38.9913 61.7304 37.791 62.0086 36.5713 62.0461C35.3516 62.0836 34.1364 61.8798 32.9957 61.4464C31.8549 61.013 30.8111 60.3584 29.924 59.5204C29.782 59.3872 29.6443 59.2541 29.5112 59.1164H27.6378C26.4132 60.4019 24.8519 61.3172 23.1321 61.7578L16.6686 58.8767C14.8517 58.0726 13.1582 57.0144 11.639 55.7338C12.4419 55.4127 13.2095 55.0096 13.9296 54.5308C15.9315 56.0397 18.3701 56.8558 20.877 56.8558C23.3838 56.8558 25.8225 56.0397 27.8243 54.5308C29.3415 55.6792 31.12 56.4332 33.0003 56.7253C34.8806 57.0174 36.804 56.8384 38.5982 56.2043C35.6096 54.7398 32.8948 52.7727 30.5721 50.389H26.3594C25.6855 51.1122 24.8752 51.6947 23.9751 52.1032C23.075 52.5116 22.1029 52.7378 21.115 52.7688C20.127 52.7997 19.1427 52.6348 18.2188 52.2835C17.295 51.9322 16.4497 51.4015 15.732 50.722C15.621 50.6154 15.5056 50.5044 15.399 50.389L12.2916 50.5799C11.5591 51.5521 8.92224 52.4666 7.37296 52.7729L6.22766 56.12C8.64283 58.9015 11.6407 61.1173 15.0084 62.6101L27.0607 67.9771C30.6659 69.5888 33.8637 71.9886 36.4185 74.9998H39.526C42.0808 71.9886 45.2786 69.5888 48.8838 67.9771L60.9361 62.6101C64.2541 61.1301 67.2144 58.953 69.6159 56.2268C72.0173 53.5006 73.8035 50.2892 74.853 46.811C71.9535 50.9347 68.031 54.2331 63.4709 56.3819H63.4798ZM37.9634 70.6539C35.3016 67.9626 32.1631 65.789 28.7077 64.2437L26.4437 63.236C27.1994 62.8322 27.9107 62.3502 28.5656 61.7977C30.7108 63.6395 33.4447 64.6521 36.272 64.6521C39.0994 64.6521 41.8333 63.6395 43.9785 61.7977C45.109 62.7558 46.4061 63.4976 47.805 63.9862L47.2191 64.2437C43.764 65.7897 40.6256 67.9632 37.9634 70.6539Z" fill="white"/>
<path d="M1.20849e-05 0V27.9669C1.20849e-05 28.1577 1.20849e-05 28.3486 1.20849e-05 28.5395C-0.00652862 35.6471 2.64216 42.5008 7.42676 47.7567L9.67743 48.285C11.1197 47.7238 12.5088 47.0345 13.8281 46.2252C15.7736 47.729 18.1498 48.5697 20.6081 48.624C23.0664 48.6784 25.4774 47.9434 27.4874 46.5271C26.7101 45.3941 26.0144 44.2074 25.4054 42.9757C24.105 43.9781 22.5105 44.5241 20.8686 44.5294C18.9566 44.5203 17.1193 43.7857 15.728 42.4741C15.6126 42.3676 15.5016 42.261 15.3907 42.1456H12.4475C11.9459 42.6694 10.6718 43.3575 9.51318 43.8991C8.44643 42.5805 7.52097 41.1536 6.75201 39.6419C9.13559 39.5551 11.4236 38.6826 13.2598 37.1604C15.2098 38.7915 17.6694 39.6883 20.2116 39.6952C21.421 39.6959 22.6218 39.4918 23.763 39.0914C23.4966 38.2702 23.2702 37.4312 23.0749 36.5789C22.1603 36.9199 21.1921 37.0943 20.2161 37.0938C18.1248 37.078 16.1164 36.2743 14.5916 34.8431C14.4673 34.7277 14.3474 34.6079 14.2276 34.488H12.3543C11.581 35.3079 10.6489 35.9618 9.61481 36.4098C8.58068 36.8578 7.46616 37.0905 6.33916 37.0938C6.10389 37.0938 5.86417 37.0938 5.62889 37.0627C4.25928 33.3616 3.80469 29.3843 4.30384 25.4696C4.803 21.5548 6.24111 17.8188 8.49564 14.5798C10.7502 11.3408 13.7543 8.69482 17.2521 6.86731C20.7498 5.03979 24.6375 4.08491 28.5839 4.08404H75.95V0H1.20849e-05ZM4.08405 13.8591V4.09293H13.8503C9.85005 6.50691 6.49804 9.85892 4.08405 13.8591Z" fill="white"/>
</svg>
