<svg width="131" height="381" viewBox="0 0 131 381" fill="none" xmlns="http://www.w3.org/2000/svg">
<g opacity="0.1">
<g clip-path="url(#clip0_1050_18189)">
<path d="M55.2846 350.687C57.3389 352.731 59.8866 354.212 62.682 354.988C65.4773 355.763 68.4258 355.807 71.2429 355.114C71.9282 352.302 71.8754 349.361 71.0897 346.574C70.304 343.788 68.8118 341.251 66.7571 339.208C64.7024 337.164 62.1545 335.684 59.3592 334.908C56.5639 334.133 53.6155 334.09 50.7984 334.782C50.112 337.594 50.1642 340.535 50.95 343.322C51.7359 346.108 53.2288 348.645 55.2846 350.687V350.687Z" stroke="#19191B" stroke-width="1.5" stroke-linejoin="bevel"/>
<path d="M-9.40078 244.177C-11.4269 246.202 -12.8952 248.714 -13.6641 251.471C-14.433 254.227 -14.4763 257.135 -13.79 259.913C-11.0031 260.588 -8.08882 260.535 -5.32824 259.759C-2.56766 258.984 -0.0538305 257.512 1.97091 255.486C3.99565 253.46 5.46303 250.948 6.2316 248.192C7.00017 245.435 7.044 242.528 6.35889 239.75C3.57209 239.074 0.657822 239.127 -2.10269 239.902C-4.8632 240.678 -7.37676 242.15 -9.40078 244.177V244.177Z" stroke="#19191B" stroke-width="1.5" stroke-linejoin="bevel"/>
<path d="M-14.2755 316.639C-13.9606 316.967 -13.6312 317.286 -13.3066 317.605C-11.1707 319.616 -8.65795 321.187 -5.91238 322.227C-3.16682 323.267 -0.242459 323.756 2.693 323.666C5.62846 323.576 8.51728 322.909 11.1938 321.703C13.8703 320.497 16.2819 318.776 18.2903 316.639C18.61 316.967 18.9346 317.286 19.2592 317.605C23.406 321.493 28.8779 323.664 34.5683 323.68" stroke="#19191B" stroke-width="1.5" stroke-linejoin="bevel"/>
<path d="M95.7861 317.337C95.7861 318.153 96.0285 318.95 96.4826 319.628C96.9367 320.306 97.5821 320.834 98.3372 321.146C99.0923 321.458 99.9232 321.54 100.725 321.381C101.526 321.222 102.263 320.829 102.841 320.252C103.419 319.676 103.812 318.941 103.972 318.142C104.131 317.342 104.049 316.513 103.737 315.76C103.424 315.006 102.894 314.363 102.215 313.91C101.535 313.457 100.736 313.215 99.9186 313.215C98.8226 313.215 97.7715 313.649 96.9965 314.422C96.2215 315.195 95.7861 316.244 95.7861 317.337Z" stroke="#19191B" stroke-width="1.5" stroke-linejoin="bevel"/>
<path d="M109.884 296.258L112.471 289.105C117.228 291.51 121.365 294.978 124.558 299.239C127.751 303.5 129.915 308.439 130.881 313.671" stroke="#19191B" stroke-width="1.5" stroke-linejoin="bevel"/>
<path d="M19.1067 251.984C19.1067 242.956 20.8893 234.016 24.3526 225.676C27.816 217.335 32.8924 209.757 39.2918 203.373C45.6912 196.99 53.2884 191.926 61.6496 188.472C70.0107 185.017 78.9721 183.24 88.0219 183.24" stroke="#19191B" stroke-width="1.5" stroke-linejoin="bevel"/>
<path d="M2.02777 352.097C5.07806 352.087 8.09442 351.458 10.8941 350.25C13.6938 349.042 16.2186 347.28 18.3155 345.07C18.6353 345.399 18.9598 345.718 19.2844 346.037C23.43 349.926 28.9027 352.098 34.5936 352.112" stroke="#19191B" stroke-width="1.5" stroke-linejoin="bevel"/>
<path d="M164.862 260.385H18.3115" stroke="#19191B" stroke-width="1.5" stroke-linejoin="bevel"/>
<path d="M46.281 293.295C45.0706 294.505 44.1935 296.007 43.7344 297.654C43.2753 299.302 43.2497 301.04 43.6601 302.7C45.326 303.103 47.068 303.071 48.7181 302.607C50.3682 302.144 51.8708 301.264 53.081 300.053C54.2913 298.842 55.1683 297.34 55.6277 295.692C56.0871 294.045 56.1134 292.307 55.7039 290.646C54.0375 290.243 52.2949 290.274 50.6444 290.738C48.9938 291.202 47.491 292.083 46.281 293.295V293.295Z" stroke="#19191B" stroke-width="1.5" stroke-linejoin="bevel"/>
<path d="M66.4888 284.898C66.4888 285.337 66.3584 285.766 66.114 286.13C65.8697 286.495 65.5224 286.78 65.1161 286.947C64.7098 287.115 64.2626 287.159 63.8313 287.074C63.3999 286.988 63.0037 286.777 62.6927 286.467C62.3817 286.156 62.1699 285.761 62.0841 285.331C61.9983 284.9 62.0424 284.454 62.2107 284.049C62.379 283.644 62.664 283.297 63.0297 283.054C63.3954 282.81 63.8253 282.68 64.2651 282.68C64.8549 282.68 65.4205 282.913 65.8375 283.329C66.2545 283.745 66.4888 284.31 66.4888 284.898Z" stroke="#19191B" stroke-width="1.5" stroke-linejoin="bevel"/>
<path d="M130.11 198.269H85.621V226.354C85.6178 229.727 86.5954 233.03 88.4356 235.861C90.2758 238.691 92.8994 240.929 95.9886 242.302L105.048 246.328C107.97 247.628 110.562 249.567 112.63 252.002H164.855" stroke="#19191B" stroke-width="1.5" stroke-linejoin="bevel"/>
<path d="M69.8054 46.9096C69.8054 47.7978 69.5413 48.666 69.0465 49.4045C68.5518 50.1429 67.8486 50.7184 67.0259 51.0581C66.2032 51.3978 65.2981 51.4864 64.4249 51.3127C63.5517 51.1391 62.7498 50.711 62.1205 50.0826C61.4913 49.4542 61.063 48.6538 60.8899 47.7825C60.7168 46.9113 60.8066 46.0084 61.148 45.1881C61.4894 44.3678 62.067 43.6669 62.8078 43.1741C63.5486 42.6814 64.4192 42.4188 65.3095 42.4198C65.9004 42.4198 66.4854 42.536 67.0311 42.7617C67.5769 42.9874 68.0728 43.3181 68.4903 43.7351C68.9078 44.1521 69.2389 44.6471 69.4646 45.1918C69.6902 45.7365 69.806 46.3202 69.8054 46.9096Z" stroke="#19191B" stroke-width="1.5" stroke-linejoin="bevel"/>
<path d="M109.002 69.3366V56.0605H134.548V69.3414C134.548 70.935 134.085 72.4945 133.215 73.8309C132.345 75.1673 131.105 76.2234 129.645 76.8711L125.362 78.7753C123.98 79.3903 122.754 80.3088 121.777 81.4624" stroke="#19191B" stroke-width="1.5" stroke-linejoin="bevel"/>
<path d="M61.6454 123.63V136.717C61.645 140.371 60.5832 143.947 58.5885 147.011C56.5938 150.076 53.7516 152.498 50.4058 153.985L40.5905 158.335C37.4164 159.742 34.6013 161.845 32.3546 164.487C30.1078 161.845 27.2927 159.742 24.1187 158.335L14.3034 153.985C10.9576 152.498 8.11538 150.076 6.12066 147.011C4.12594 143.947 3.06417 140.371 3.06378 136.717V106.27H78.7373" stroke="#19191B" stroke-width="1.5" stroke-linejoin="bevel"/>
<path d="M104.04 167.456C101.987 169.499 99.4396 170.98 96.6452 171.756C93.8507 172.531 90.903 172.575 88.0866 171.883C87.4013 169.071 87.4538 166.13 88.2393 163.345C89.0247 160.559 90.5165 158.022 92.5708 155.98C94.6251 153.937 97.1725 152.456 99.9672 151.681C102.762 150.906 105.71 150.863 108.526 151.555C109.212 154.367 109.16 157.307 108.374 160.092C107.588 162.878 106.095 165.414 104.04 167.456V167.456Z" stroke="#19191B" stroke-width="1.5" stroke-linejoin="bevel"/>
<path d="M35.2191 60.9465C33.1923 62.9711 31.7234 65.4832 30.9545 68.2399C30.1855 70.9965 30.1426 73.9045 30.8299 76.6825C33.6146 77.357 36.5265 77.3048 39.2851 76.5311C42.0438 75.7573 44.5563 74.2881 46.5806 72.2647C48.605 70.2414 50.073 67.7322 50.8433 64.9787C51.6136 62.2253 51.6603 59.3204 50.9788 56.5437C48.1942 55.8633 45.2806 55.9111 42.5199 56.6823C39.7592 57.4536 37.2446 58.9223 35.2191 60.9465Z" stroke="#19191B" stroke-width="1.5" stroke-linejoin="bevel"/>
<path d="M95.0339 140.44C98.086 140.426 101.103 139.794 103.903 138.582C106.703 137.37 109.227 135.603 111.322 133.389C111.637 133.717 111.966 134.036 112.291 134.355C114.426 136.366 116.939 137.937 119.685 138.977C122.43 140.017 125.355 140.506 128.29 140.416C131.226 140.326 134.114 139.659 136.791 138.453C139.468 137.247 141.879 135.526 143.887 133.389C144.207 133.717 144.532 134.036 144.856 134.355C146.993 136.366 149.506 137.936 152.252 138.975C154.998 140.015 157.923 140.504 160.858 140.414C163.794 140.325 166.683 139.658 169.36 138.452C172.037 137.247 174.449 135.526 176.458 133.389C176.781 133.711 177.104 134.033 177.427 134.355C179.564 136.366 182.077 137.936 184.823 138.975C187.569 140.015 190.493 140.504 193.429 140.414C196.365 140.325 199.254 139.658 201.931 138.452C204.607 137.247 207.02 135.526 209.029 133.389" stroke="#19191B" stroke-width="1.5" stroke-linejoin="bevel"/>
<path d="M127.604 106.932H192.566" stroke="#19191B" stroke-width="1.5" stroke-linejoin="bevel"/>
<path d="M31.345 0C19.3031 0 7.75434 4.77205 -0.760586 13.2663C-9.27551 21.7606 -14.0591 33.2814 -14.0591 45.2941" stroke="#19191B" stroke-width="1.5" stroke-linejoin="bevel"/>
<path d="M78.7376 15.0449H30.3443" stroke="#19191B" stroke-width="1.5" stroke-linejoin="bevel"/>
<path d="M115.42 314.321C113.931 310.517 111.356 307.231 108.014 304.872C104.672 302.512 100.71 301.182 96.6182 301.045H87.1615V326.423C87.1041 331.549 88.0668 336.637 89.9937 341.39C91.9207 346.143 94.7738 350.467 98.3876 354.113C102.001 357.758 106.304 360.653 111.047 362.628C115.79 364.603 120.878 365.62 126.018 365.62C131.158 365.62 136.246 364.603 140.989 362.628C145.732 360.653 150.035 357.758 153.648 354.113C157.262 350.467 160.115 346.143 162.042 341.39C163.969 336.637 164.932 331.549 164.875 326.423" stroke="#19191B" stroke-width="1.5" stroke-linejoin="bevel"/>
<path d="M115.424 329.091L143.392 301.195C146.545 305.23 148.816 309.879 150.059 314.842C151.302 319.805 151.49 324.973 150.61 330.013C149.73 335.053 147.802 339.853 144.951 344.105C142.099 348.357 138.386 351.966 134.052 354.7" stroke="#19191B" stroke-width="1.5" stroke-linejoin="bevel"/>
<path d="M34.8386 251.314C34.8399 239.996 38.4673 228.975 45.1913 219.859C51.9152 210.743 61.3839 204.009 72.2151 200.641" stroke="#19191B" stroke-width="1.5" stroke-linejoin="bevel"/>
<path d="M87.1671 366.257H-14.7935V330.977C-12.7852 333.114 -10.3736 334.835 -7.69706 336.041C-5.02054 337.247 -2.13172 337.914 0.803746 338.004C3.73921 338.094 6.66356 337.604 9.40913 336.564C12.1547 335.524 14.6675 333.954 16.8033 331.943C17.1376 331.634 17.4622 331.315 17.7723 330.977C19.8688 333.187 22.3933 334.95 25.1931 336.159C27.9928 337.368 31.0094 337.997 34.06 338.008" stroke="#19191B" stroke-width="1.5" stroke-linejoin="bevel"/>
<path d="M164.846 274.75H87.1328" stroke="#19191B" stroke-width="1.5" stroke-linejoin="bevel"/>
<path d="M55.5003 286.542C55.4999 283.481 56.6924 280.539 58.8258 278.339C60.9593 276.139 63.8667 274.852 66.9337 274.75H72.2967V289.094C72.2967 294.907 69.982 300.482 65.8617 304.592C61.7415 308.702 56.1532 311.011 50.3262 311.011C44.4993 311.011 38.911 308.702 34.7907 304.592C30.6705 300.482 28.3557 294.907 28.3557 289.094" stroke="#19191B" stroke-width="1.5" stroke-linejoin="bevel"/>
<path d="M28.3491 274.75H-14.2839V302.452C-13.969 302.781 -13.6444 303.1 -13.315 303.419C-11.1782 305.428 -8.66518 306.997 -5.91978 308.036C-3.17438 309.075 -0.25052 309.563 2.6844 309.474C5.61932 309.384 8.50768 308.717 11.1841 307.513C13.8605 306.308 16.2725 304.588 18.2819 302.452" stroke="#19191B" stroke-width="1.5" stroke-linejoin="bevel"/>
<path d="M130.248 217.399V225.18C130.247 227.351 129.616 229.475 128.431 231.296C127.247 233.116 125.559 234.556 123.572 235.441L117.758 238.031C115.864 238.863 114.183 240.112 112.841 241.685C111.519 240.122 109.864 238.874 107.996 238.031L102.159 235.441C100.172 234.556 98.4839 233.116 97.2992 231.296C96.1145 229.475 95.4836 227.351 95.4826 225.18V207.091H164.853V183.24H113.112" stroke="#19191B" stroke-width="1.5" stroke-linejoin="bevel"/>
<path d="M50.6374 50.3031C50.6371 45.1807 52.6326 40.2586 56.2024 36.5766C59.7722 32.8946 64.6369 30.7409 69.769 30.5703H78.7364V54.5754C78.7922 59.4264 77.8827 64.2402 76.0604 68.738C74.2382 73.2359 71.5394 77.3283 68.1205 80.7783C64.7016 84.2284 60.6304 86.9674 56.1429 88.8367C51.6554 90.7061 46.8406 91.6687 41.9776 91.6687C37.1145 91.6687 32.2998 90.7061 27.8122 88.8367C23.3247 86.9674 19.2536 84.2284 15.8347 80.7783C12.4157 77.3283 9.71699 73.2359 7.89473 68.738C6.07246 64.2402 5.1629 59.4264 5.21873 54.5754" stroke="#19191B" stroke-width="1.5" stroke-linejoin="bevel"/>
<path d="M-14.0583 68.7581V0.00976562H80.4948" stroke="#19191B" stroke-width="1.5" stroke-linejoin="bevel"/>
<path d="M99.8122 70.4058V47.5605H143.748V70.4058C143.748 73.1477 142.952 75.8308 141.455 78.1303C139.958 80.4299 137.825 82.2474 135.314 83.3628L127.95 86.6347C125.573 87.6913 123.465 89.2689 121.783 91.2502H-13.5576V139.236C-13.5578 144.996 -11.8844 150.633 -8.74006 155.463C-5.59569 160.294 -1.11513 164.112 4.15932 166.455L19.6622 173.333C24.6566 175.551 29.0847 178.865 32.6168 183.027L32.5539 183.24H-14.2746V229.805" stroke="#19191B" stroke-width="1.5" stroke-linejoin="bevel"/>
<path d="M209.051 119.09C207.042 121.227 204.63 122.948 201.953 124.153C199.276 125.359 196.387 126.026 193.452 126.116C190.516 126.205 187.591 125.716 184.845 124.677C182.1 123.637 179.586 122.067 177.45 120.056C177.127 119.734 176.804 119.412 176.481 119.09C174.472 121.227 172.06 122.948 169.383 124.153C166.706 125.359 163.817 126.026 160.881 126.116C157.945 126.205 155.021 125.716 152.275 124.677C149.529 123.637 147.016 122.067 144.879 120.056C144.545 119.747 144.22 119.428 143.91 119.09C141.902 121.227 139.49 122.949 136.814 124.154C134.137 125.36 131.248 126.027 128.313 126.117C125.377 126.207 122.453 125.718 119.708 124.678C116.962 123.638 114.449 122.067 112.313 120.056C111.979 119.747 111.65 119.428 111.344 119.09C109.335 121.227 106.923 122.948 104.246 124.153C101.569 125.359 98.6803 126.026 95.7446 126.116C92.8089 126.205 89.8843 125.716 87.1384 124.677C84.3925 123.637 81.8793 122.067 79.7427 120.056C79.4084 119.747 79.0838 119.428 78.7737 119.09V139.238C78.7706 145.004 77.0898 150.645 73.9354 155.477C70.7811 160.309 66.2887 164.123 61.0035 166.457" stroke="#19191B" stroke-width="1.5" stroke-linejoin="bevel"/>
<path d="M127.604 169.088H229.192V147.949C231.201 150.086 233.613 151.807 236.29 153.012C238.967 154.218 241.856 154.885 244.791 154.975C247.727 155.064 250.652 154.575 253.398 153.536C256.144 152.496 258.657 150.926 260.793 148.916C261.128 148.606 261.452 148.287 261.762 147.949C263.857 150.159 266.38 151.922 269.178 153.131C271.976 154.34 274.991 154.969 278.04 154.981" stroke="#19191B" stroke-width="1.5" stroke-linejoin="bevel"/>
<path d="M209.058 147.73C207.049 149.868 204.637 151.588 201.96 152.794C199.283 154 196.394 154.666 193.459 154.756C190.523 154.846 187.598 154.357 184.852 153.317C182.107 152.277 179.593 150.707 177.457 148.697C177.134 148.375 176.811 148.053 176.488 147.73C174.479 149.868 172.067 151.588 169.39 152.794C166.713 154 163.824 154.666 160.888 154.756C157.952 154.846 155.028 154.357 152.282 153.317C149.536 152.277 147.023 150.707 144.886 148.697C144.552 148.388 144.227 148.069 143.917 147.73C141.821 149.941 139.296 151.704 136.496 152.913C133.697 154.122 130.68 154.751 127.629 154.762" stroke="#19191B" stroke-width="1.5" stroke-linejoin="bevel"/>
<path d="M174.985 68.1056C174.986 61.1374 173.61 54.2373 170.938 47.7994C168.265 41.3615 164.347 35.5119 159.408 30.5846C154.468 25.6573 148.605 21.749 142.151 19.0826C135.698 16.4163 128.781 15.0443 121.796 15.0449" stroke="#19191B" stroke-width="1.5" stroke-linejoin="bevel"/>
<path d="M190.706 68.758C190.708 59.7292 188.927 50.7885 185.465 42.4465C182.002 34.1045 176.927 26.5246 170.528 20.1396C164.129 13.7547 156.531 8.68976 148.17 5.23417C139.808 1.77858 130.846 -2.00815e-07 121.796 0" stroke="#19191B" stroke-width="1.5" stroke-linejoin="bevel"/>
</g>
</g>
<defs>
<clipPath id="clip0_1050_18189">
<rect width="987" height="381" rx="190.5" fill="white"/>
</clipPath>
</defs>
</svg>
