<svg width="122" height="120" viewBox="0 0 122 120" fill="none" xmlns="http://www.w3.org/2000/svg">
<path opacity="0.4" d="M6.72901 73.3684L6.81951 73.7909C6.82956 73.8378 6.86755 73.8623 6.91447 73.8522L12.2324 72.7064C12.2793 72.6962 12.3039 72.6582 12.2939 72.6113L12.2034 72.1889C12.1933 72.1419 12.1553 72.1174 12.1084 72.1275L6.79046 73.2734C6.74354 73.2835 6.71896 73.3215 6.72901 73.3684Z" fill="#19191B"/>
<path opacity="0.4" d="M9.83493 64.1826L5.53783 67.0225C5.47642 67.0664 5.46242 67.0993 5.46686 67.1712L5.49843 67.6822C5.50138 67.7301 5.5353 67.7601 5.5832 67.7571L11.0127 67.4198C11.0606 67.4168 11.0906 67.3829 11.0877 67.335L11.061 66.9038C11.0581 66.8559 11.0241 66.8259 10.9762 66.8289L6.5368 67.1047C6.49688 67.1072 6.48692 67.0758 6.51787 67.0578L10.815 64.2179C10.8769 64.182 10.8904 64.1411 10.8859 64.0692L10.8544 63.5582C10.8514 63.5103 10.8175 63.4803 10.7696 63.4833L5.34006 63.8206C5.29216 63.8236 5.26219 63.8575 5.26515 63.9054L5.29178 64.3366C5.29474 64.3845 5.32865 64.4144 5.37656 64.4115L9.816 64.1357C9.85592 64.1332 9.86588 64.1646 9.83493 64.1826Z" fill="#19191B"/>
<path opacity="0.4" d="M10.9534 56.4362C11.0835 55.3158 10.4477 54.5488 9.52595 54.4412C8.54065 54.3262 7.96404 54.9918 7.71286 55.7679L7.58635 56.1639C7.40592 56.7469 7.03103 56.9931 6.53837 56.9355C5.9901 56.8715 5.62119 56.4418 5.69868 55.7743C5.75588 55.2816 6.11467 54.8966 6.62947 54.7635C6.67899 54.7531 6.70744 54.7162 6.68914 54.6657L6.5623 54.2321C6.544 54.1816 6.51406 54.162 6.46454 54.1723C5.73484 54.3529 5.21975 54.9049 5.12657 55.7075C5.01217 56.6929 5.63208 57.458 6.47436 57.5563C7.31664 57.6547 7.90473 57.1676 8.1596 56.3597L8.28611 55.9637C8.47634 55.3657 8.87393 54.9933 9.49372 55.0657C10.0738 55.1334 10.4726 55.5827 10.3822 56.3615C10.3121 56.9654 9.92394 57.3953 9.33245 57.4954C9.28293 57.5057 9.25448 57.5427 9.27278 57.5931L9.3926 58.0179C9.4109 58.0683 9.44084 58.088 9.49036 58.0776C10.3084 57.8993 10.8565 57.2706 10.9534 56.4362Z" fill="#19191B"/>
<path opacity="0.4" d="M7.09266 45.3486L6.1877 48.7006C6.17518 48.747 6.19773 48.7863 6.24405 48.7988L6.63779 48.9057C6.68411 48.9183 6.72333 48.8958 6.73585 48.8495L7.10075 47.4979C7.10701 47.4747 7.12662 47.4634 7.14978 47.4697L11.8901 48.7569C11.9364 48.7695 11.9757 48.747 11.9882 48.7007L12.1008 48.2836C12.1133 48.2373 12.0907 48.198 12.0444 48.1854L7.30408 46.8982C7.28092 46.8919 7.26965 46.8723 7.27591 46.8491L7.64081 45.4975C7.65332 45.4511 7.63078 45.4119 7.58446 45.3993L7.19072 45.2924C7.1444 45.2798 7.10517 45.3023 7.09266 45.3486Z" fill="#19191B"/>
<path opacity="0.4" d="M8.65536 40.4673L8.49338 40.8677C8.47538 40.9122 8.49302 40.954 8.53749 40.9721L13.5765 43.0219C13.621 43.04 13.6626 43.0224 13.6806 42.9779L13.8426 42.5774C13.8606 42.5329 13.8429 42.4912 13.7985 42.4731L8.75946 40.4232C8.71499 40.4052 8.67335 40.4228 8.65536 40.4673Z" fill="#19191B"/>
<path opacity="0.4" d="M12.2265 32.7649L10.5491 35.8049C10.5259 35.8469 10.5385 35.8905 10.5804 35.9137L10.9372 36.1117C10.9791 36.135 11.0226 36.1225 11.0458 36.0805L11.7221 34.8547C11.7337 34.8337 11.7554 34.8275 11.7764 34.8391L16.0713 37.2227C16.1133 37.246 16.1567 37.2335 16.1799 37.1915L16.3886 36.8132C16.4118 36.7712 16.3993 36.7277 16.3573 36.7044L12.0624 34.3208C12.0414 34.3091 12.0352 34.2874 12.0468 34.2664L12.7231 33.0406C12.7463 32.9985 12.7338 32.955 12.6918 32.9317L12.3351 32.7337C12.2931 32.7104 12.2497 32.7229 12.2265 32.7649Z" fill="#19191B"/>
<path opacity="0.4" d="M20.2107 30.7383C20.9636 29.7835 20.7441 28.7312 19.7851 27.9706L16.9583 25.7285C16.9207 25.6987 16.8758 25.7039 16.8461 25.7416L16.5786 26.0808C16.5489 26.1185 16.5541 26.1635 16.5917 26.1933L19.3746 28.4006C20.1268 28.9972 20.3043 29.6894 19.7594 30.3804C19.2145 31.0714 18.502 31.0576 17.7498 30.4611L14.9669 28.2538C14.9293 28.2239 14.8844 28.2292 14.8547 28.2669L14.5872 28.6061C14.5575 28.6438 14.5627 28.6888 14.6003 28.7186L17.4271 30.9607C18.3861 31.7213 19.4577 31.6931 20.2107 30.7383Z" fill="#19191B"/>
<path opacity="0.4" d="M23.4654 18.5439L20.9049 20.8887C20.8695 20.9212 20.8674 20.9664 20.8997 21.0019L21.1744 21.3036C21.2067 21.3391 21.2519 21.3412 21.2873 21.3087L22.3198 20.3632C22.3375 20.347 22.36 20.348 22.3762 20.3658L25.6831 23.9979C25.7154 24.0333 25.7606 24.0354 25.796 24.003L26.1146 23.7112C26.15 23.6788 26.152 23.6335 26.1197 23.598L22.8128 19.966C22.7966 19.9482 22.7976 19.9256 22.8153 19.9094L23.8478 18.9639C23.8832 18.9315 23.8853 18.8862 23.853 18.8507L23.5783 18.549C23.546 18.5135 23.5008 18.5115 23.4654 18.5439Z" fill="#19191B"/>
<path opacity="0.4" d="M33.0499 11.5244L30.7639 12.845C30.7224 12.8691 30.7106 12.9128 30.7345 12.9544L33.4441 17.6716C33.472 17.7202 33.5117 17.725 33.5532 17.7009L33.9273 17.4848C33.9689 17.4608 33.9806 17.4171 33.9567 17.3754L32.7932 15.3498C32.7812 15.329 32.7871 15.3072 32.8079 15.2951L34.6158 14.2506C34.6574 14.2266 34.6692 14.1828 34.6453 14.1412L34.442 13.7874C34.4181 13.7458 34.3745 13.7341 34.3329 13.7581L32.525 14.8026C32.5042 14.8146 32.4824 14.8088 32.4704 14.7879L31.5101 13.1161C31.4981 13.0953 31.504 13.0734 31.5248 13.0614L33.3328 12.0169C33.3743 11.9929 33.3861 11.9491 33.3622 11.9075L33.159 11.5537C33.1351 11.5121 33.0914 11.5004 33.0499 11.5244Z" fill="#19191B"/>
<path opacity="0.4" d="M39.888 14.0928L39.2677 12.5057C39.2589 12.4834 39.268 12.4626 39.2903 12.4538L40.0349 12.1611C40.0944 12.1377 40.1122 12.1393 40.1773 12.1739L42.0306 13.2677C42.0882 13.3052 42.1209 13.3009 42.1805 13.2775L42.7017 13.0726C42.7612 13.0492 42.769 13.0032 42.7114 12.9657L40.7868 11.8655C40.7321 11.8355 40.7383 11.8072 40.7846 11.7719C41.4447 11.2631 41.7623 10.4935 41.4128 9.59938C40.976 8.48172 39.9111 8.15252 38.8538 8.56815L37.402 9.1389C37.3573 9.15647 37.3392 9.19798 37.3566 9.24268L39.337 14.3094C39.3545 14.3541 39.3959 14.3722 39.4406 14.3546L39.8427 14.1966C39.8873 14.179 39.9055 14.1375 39.888 14.0928ZM38.1225 9.46597L39.0085 9.11766C39.7381 8.83082 40.4959 8.94553 40.8366 9.8173C41.1774 10.6891 40.6992 11.2897 39.9695 11.5765L39.0836 11.9248C39.0612 11.9336 39.0405 11.9246 39.0318 11.9022L38.0998 9.51786C38.0911 9.49551 38.1001 9.47475 38.1225 9.46597Z" fill="#19191B"/>
<path opacity="0.4" d="M48.1082 5.50758L47.2167 5.69968C47.1697 5.70979 47.134 5.73386 47.1334 5.80763L46.6586 11.4584C46.6547 11.5166 46.6849 11.5428 46.7396 11.531L47.1776 11.4366C47.2245 11.4265 47.2586 11.3946 47.2658 11.3521L47.3586 10.1046C47.3641 10.0543 47.3843 10.0336 47.4312 10.0235L49.6835 9.53819C49.7304 9.52808 49.7572 9.53867 49.7829 9.58223L50.3784 10.6815C50.4024 10.7172 50.4466 10.7322 50.4935 10.7221L50.9314 10.6278C50.9862 10.616 51.0029 10.5796 50.9756 10.5282L48.2283 5.57172C48.1976 5.50468 48.1551 5.49747 48.1082 5.50758ZM47.4116 9.39758L47.6647 6.2251C47.6675 6.19995 47.6719 6.18262 47.7032 6.17588L47.8596 6.14217C47.8909 6.13543 47.9021 6.14939 47.9149 6.17118L49.445 8.95945C49.4595 8.98905 49.4472 9.00807 49.4237 9.01312L47.453 9.43777C47.4295 9.44283 47.4105 9.43055 47.4116 9.39758Z" fill="#19191B"/>
<path opacity="0.4" d="M58.4186 8.59121L55.6957 4.22052C55.6534 4.15797 55.6209 4.1431 55.549 4.14564L55.0373 4.1637C54.9893 4.16539 54.9584 4.1985 54.9601 4.24647L55.1509 9.68313C55.1525 9.7311 55.1856 9.76195 55.2336 9.76026L55.6654 9.74502C55.7133 9.74333 55.7442 9.71022 55.7425 9.66225L55.5865 5.21698C55.5851 5.17701 55.6168 5.16789 55.6339 5.1993L58.3569 9.57C58.3911 9.63283 58.4316 9.64741 58.5036 9.64487L59.0153 9.62681C59.0632 9.62512 59.0941 9.59201 59.0924 9.54404L58.9017 4.10738C58.9 4.05941 58.8669 4.02856 58.8189 4.03025L58.3872 4.04549C58.3392 4.04718 58.3084 4.08029 58.31 4.12826L58.466 8.57353C58.4674 8.6135 58.4357 8.62263 58.4186 8.59121Z" fill="#19191B"/>
<path opacity="0.4" d="M66.8128 11.5199C67.2632 11.5914 67.6167 11.4045 67.6803 11.0015C67.7302 10.6854 67.5755 10.4341 67.2652 10.2957C67.2282 10.2737 67.2149 10.2553 67.2303 10.2092L67.2623 10.109C67.2661 10.0853 67.2831 10.0799 67.3068 10.0836C68.2254 10.1647 69.0629 9.83591 69.611 9.1858C69.6409 9.15005 69.638 9.11719 69.6035 9.07931L69.2866 8.77789C69.2521 8.74001 69.2034 8.74039 69.1723 8.78404C68.6999 9.36516 67.9655 9.60498 67.1675 9.47829C65.9191 9.2801 65.1577 8.20339 65.3772 6.81261C65.5967 5.42183 66.6525 4.63363 67.9009 4.83182C68.6989 4.95851 69.3235 5.41408 69.5938 6.11311C69.6101 6.16428 69.6575 6.17181 69.7007 6.15437L70.1003 5.98291C70.1527 5.95883 70.1577 5.92722 70.1403 5.88395C69.7909 5.01847 69.0033 4.41552 67.992 4.25496C66.4197 4.00534 65.0328 4.9921 64.7609 6.71477C64.5077 8.31891 65.3711 9.6224 66.7695 9.99833C66.7932 10.0021 66.8078 10.0125 66.7949 10.0429L66.6589 10.4425C66.6436 10.4886 66.6623 10.524 66.7163 10.5407C67.1301 10.6388 67.2208 10.7828 67.1983 10.925C67.1759 11.0673 67.037 11.1262 66.871 11.0999C66.713 11.0748 66.5546 11.001 66.4236 10.9073C66.3799 10.8761 66.3379 10.8856 66.3146 10.9305L66.1957 11.1709C66.1737 11.2079 66.182 11.2578 66.219 11.2799C66.3937 11.4048 66.5995 11.4861 66.8128 11.5199Z" fill="#19191B"/>
<path opacity="0.4" d="M77.9155 6.59188L77.0531 6.29514C77.0077 6.27952 76.9647 6.28165 76.9263 6.34456L73.6122 10.9403C73.5789 10.9881 73.5913 11.0262 73.6442 11.0444L74.0678 11.1902C74.1132 11.2058 74.1588 11.1961 74.1869 11.1635L74.9082 10.1426C74.9388 10.1024 74.9667 10.0951 75.0121 10.1107L77.1907 10.8603C77.2361 10.876 77.2536 10.8989 77.2532 10.9495L77.1976 12.1995C77.1998 12.2425 77.2299 12.2782 77.2753 12.2938L77.6989 12.4396C77.7518 12.4578 77.7849 12.4354 77.7879 12.3772L77.9853 6.70899C77.9935 6.63566 77.9608 6.6075 77.9155 6.59188ZM75.3174 9.56428L77.1664 6.97713C77.1818 6.95703 77.1945 6.94449 77.2248 6.9549L77.3761 7.00696C77.4063 7.01737 77.4087 7.03512 77.4085 7.06043L77.2842 10.2411C77.2814 10.2739 77.2611 10.2839 77.2384 10.2761L75.3321 9.62011C75.3094 9.6123 75.2995 9.59196 75.3174 9.56428Z" fill="#19191B"/>
<path opacity="0.4" d="M84.7848 9.29164L84.399 9.0973C84.3561 9.07571 84.3132 9.08992 84.2917 9.13284L81.8557 13.9969C81.8342 14.0399 81.8485 14.0829 81.8914 14.1045L82.2772 14.2988C82.3201 14.3204 82.363 14.3062 82.3845 14.2633L84.8204 9.39916C84.8419 9.35624 84.8277 9.31323 84.7848 9.29164Z" fill="#19191B"/>
<path opacity="0.4" d="M87.6557 17.3612C88.5859 17.9993 89.5589 17.7937 90.0818 17.0271C90.6408 16.2075 90.32 15.3859 89.7504 14.8012L89.4591 14.5043C89.0274 14.0724 88.9838 13.6253 89.2632 13.2155C89.5743 12.7595 90.1253 12.633 90.6795 13.0132C91.0885 13.2938 91.2623 13.7914 91.1412 14.3097C91.1273 14.3584 91.1468 14.4009 91.1999 14.4082L91.6421 14.4982C91.6952 14.5055 91.7264 14.4881 91.7403 14.4394C91.9193 13.7084 91.6703 12.9944 91.004 12.5373C90.186 11.9761 89.222 12.1685 88.7442 12.8691C88.2664 13.5697 88.424 14.3181 89.0199 14.921L89.3113 15.2179C89.7517 15.6655 89.8964 16.1916 89.5448 16.7071C89.2157 17.1896 88.6334 17.3334 87.9869 16.8899C87.4855 16.546 87.2856 16.0014 87.4717 15.4305C87.4855 15.3818 87.4661 15.3393 87.413 15.332L86.9819 15.24C86.9287 15.2327 86.8975 15.25 86.8837 15.2987C86.6617 16.1069 86.9631 16.886 87.6557 17.3612Z" fill="#19191B"/>
<path opacity="0.4" d="M101.677 21.4864L100.584 20.2213C100.552 20.1849 100.507 20.1817 100.471 20.2132L96.3652 23.7818C96.329 23.8133 96.3257 23.8585 96.3571 23.8948L97.4503 25.1599C98.486 26.3585 100.045 26.4982 101.337 25.3752C102.629 24.2521 102.713 22.6849 101.677 21.4864ZM97.1508 23.8834L100.46 21.0075C100.478 20.9918 100.5 20.9934 100.516 21.0115L101.233 21.8408C102.033 22.7669 102.028 23.9479 100.929 24.903C99.8299 25.8581 98.6636 25.6953 97.8633 24.7692L97.1467 23.9399C97.131 23.9217 97.1327 23.8991 97.1508 23.8834Z" fill="#19191B"/>
<path opacity="0.4" d="M107.165 28.3174L102.497 31.11C102.456 31.1346 102.445 31.1786 102.469 31.2198L103.864 33.5645C103.888 33.6058 103.932 33.6168 103.973 33.5922L104.323 33.3827C104.365 33.3581 104.376 33.3142 104.351 33.2729L103.239 31.4027C103.227 31.3821 103.232 31.3601 103.253 31.3478L104.9 30.3621C104.921 30.3498 104.943 30.3554 104.955 30.376L106.067 32.2462C106.092 32.2875 106.136 32.2985 106.177 32.2739L106.527 32.0645C106.568 32.0398 106.579 31.9959 106.555 31.9546L105.443 30.0844C105.43 30.0638 105.436 30.0418 105.457 30.0295L107.015 29.0972C107.036 29.0849 107.057 29.0905 107.07 29.1111L108.182 30.9813C108.207 31.0226 108.25 31.0337 108.292 31.009L108.642 30.7996C108.683 30.7749 108.694 30.731 108.669 30.6897L107.275 28.3451C107.25 28.3038 107.207 28.2927 107.165 28.3174Z" fill="#19191B"/>
<path opacity="0.4" d="M111.187 44.256L111.625 45.8946C111.631 45.9177 111.62 45.9374 111.594 45.9359C110.484 46.0271 109.66 45.4203 109.379 44.3691C109.053 43.148 109.727 42.0142 111.087 41.6488C112.446 41.2834 113.595 41.9272 113.928 43.1715C114.13 43.929 114.002 44.6592 113.547 45.1874C113.517 45.2287 113.52 45.2694 113.561 45.2997L113.883 45.5775C113.925 45.6079 113.965 45.6052 113.996 45.5639C114.555 44.8999 114.748 43.9784 114.492 43.02C114.079 41.4742 112.604 40.6031 110.927 41.0536C109.251 41.5042 108.408 42.9981 108.815 44.5207C109.226 46.0587 110.561 46.843 112.282 46.4635C112.328 46.4511 112.351 46.4118 112.338 46.3655L111.735 44.1086C111.723 44.0622 111.684 44.0396 111.638 44.0521L111.244 44.158C111.197 44.1704 111.175 44.2097 111.187 44.256Z" fill="#19191B"/>
<path opacity="0.4" d="M116.453 52.4372L111.027 52.8369C110.979 52.8404 110.95 52.8747 110.953 52.9226L111.153 55.6433C111.156 55.6912 111.19 55.7207 111.238 55.7172L111.645 55.6872C111.693 55.6837 111.723 55.6494 111.719 55.6016L111.56 53.4314C111.558 53.4074 111.573 53.3903 111.597 53.3885L113.512 53.2475C113.536 53.2457 113.553 53.2605 113.555 53.2844L113.714 55.4546C113.717 55.5025 113.752 55.5321 113.799 55.5285L114.206 55.4985C114.254 55.495 114.284 55.4608 114.28 55.4129L114.121 53.2427C114.12 53.2188 114.134 53.2016 114.158 53.1999L115.969 53.0664C115.993 53.0647 116.01 53.0795 116.012 53.1034L116.171 55.2736C116.175 55.3215 116.209 55.351 116.257 55.3475L116.664 55.3175C116.712 55.314 116.741 55.2797 116.738 55.2319L116.538 52.5111C116.535 52.4633 116.501 52.4337 116.453 52.4372Z" fill="#19191B"/>
<path opacity="0.4" d="M111.196 62.3457C111.096 63.4692 111.751 64.2191 112.676 64.3024C113.664 64.3915 114.223 63.711 114.453 62.9285L114.57 62.5293C114.735 61.9418 115.103 61.6858 115.597 61.7304C116.147 61.7799 116.527 62.1997 116.467 62.8691C116.423 63.3631 116.074 63.7574 115.563 63.9041C115.514 63.9157 115.486 63.9534 115.506 64.0033L115.644 64.4335C115.663 64.4835 115.694 64.5023 115.743 64.4906C116.468 64.2909 116.968 63.7256 117.04 62.9208C117.129 61.9327 116.489 61.1843 115.645 61.1081C114.8 61.032 114.225 61.5344 113.991 62.3487L113.875 62.7479C113.701 63.3506 113.313 63.7334 112.692 63.6773C112.11 63.6249 111.699 63.1863 111.769 62.4054C111.824 61.7998 112.2 61.3599 112.789 61.2443C112.838 61.2326 112.866 61.195 112.846 61.145L112.715 60.7235C112.696 60.6736 112.665 60.6548 112.616 60.6664C111.803 60.8662 111.271 61.5091 111.196 62.3457Z" fill="#19191B"/>
<path opacity="0.4" d="M115.358 73.3L116.177 69.9258C116.188 69.8792 116.164 69.8405 116.118 69.8291L115.721 69.7324C115.675 69.7211 115.636 69.7446 115.625 69.7912L115.295 71.1518C115.289 71.1751 115.27 71.1869 115.247 71.1812L110.474 70.0171C110.428 70.0057 110.389 70.0292 110.378 70.0759L110.276 70.4957C110.265 70.5423 110.288 70.581 110.335 70.5924L115.107 71.7565C115.13 71.7622 115.142 71.7815 115.136 71.8048L114.806 73.1654C114.795 73.212 114.819 73.2507 114.865 73.2621L115.262 73.3588C115.308 73.3702 115.347 73.3467 115.358 73.3Z" fill="#19191B"/>
<path opacity="0.4" d="M113.437 79.6435L113.779 78.7981C113.797 78.7536 113.797 78.7105 113.736 78.6685L109.33 75.0969C109.284 75.061 109.246 75.0712 109.225 75.1231L109.057 75.5384C109.039 75.5829 109.046 75.629 109.077 75.6589L110.057 76.4374C110.095 76.4703 110.101 76.4986 110.083 76.5431L109.219 78.679C109.201 78.7235 109.177 78.7398 109.127 78.7365L107.883 78.6106C107.84 78.6104 107.803 78.6384 107.785 78.6829L107.617 79.0983C107.596 79.1502 107.617 79.1845 107.674 79.1907L113.317 79.7068C113.389 79.7191 113.419 79.688 113.437 79.6435ZM110.611 76.8791L113.093 78.8731C113.112 78.8895 113.124 78.903 113.112 78.9326L113.052 79.0809C113.04 79.1106 113.022 79.112 112.997 79.1104L109.832 78.8073C109.799 78.8027 109.79 78.7818 109.799 78.7596L110.555 76.8906C110.564 76.8684 110.585 76.8596 110.611 76.8791Z" fill="#19191B"/>
<path opacity="0.4" d="M110.554 86.061L105.876 83.2839C105.835 83.2593 105.791 83.2706 105.767 83.3119L104.433 85.5716C104.408 85.6129 104.42 85.6568 104.461 85.6813L104.812 85.8896C104.853 85.9141 104.897 85.9029 104.921 85.8616L105.975 84.0772C105.987 84.0566 106.009 84.051 106.029 84.0632L110.253 86.5708C110.294 86.5953 110.338 86.5841 110.362 86.5427L110.582 86.1707C110.606 86.1294 110.595 86.0855 110.554 86.061Z" fill="#19191B"/>
<path opacity="0.4" d="M104.852 94.8748L107.002 92.1485C107.031 92.1108 107.026 92.0658 106.989 92.036L106.669 91.7825C106.631 91.7526 106.586 91.7579 106.557 91.7956L105.69 92.8949C105.675 92.9137 105.653 92.9163 105.634 92.9014L101.785 89.849C101.748 89.8192 101.703 89.8244 101.673 89.8621L101.406 90.2013C101.376 90.239 101.381 90.284 101.419 90.3138L105.267 93.3663C105.286 93.3812 105.289 93.4037 105.274 93.4225L104.407 94.5218C104.377 94.5595 104.382 94.6045 104.42 94.6344L104.74 94.8879C104.777 94.9177 104.822 94.9125 104.852 94.8748Z" fill="#19191B"/>
<path opacity="0.4" d="M98.3905 96.9854L98.6322 97.2301C98.6659 97.2643 98.7111 97.2645 98.7452 97.2306L99.8973 96.0861C99.9313 96.0523 99.9316 96.0069 99.8978 95.9728L99.6561 95.7281C99.6224 95.6939 99.5772 95.6937 99.5431 95.7275L98.391 96.8721C98.3569 96.9059 98.3567 96.9512 98.3905 96.9854Z" fill="#19191B"/>
<path opacity="0.4" d="M95.2277 104.429L97.9714 102.301C98.0093 102.272 98.0151 102.227 97.9858 102.189L97.7366 101.866C97.7073 101.828 97.6625 101.822 97.6246 101.851L96.5182 102.709C96.4993 102.724 96.4769 102.721 96.4622 102.702L93.463 98.8121C93.4337 98.7741 93.3888 98.7684 93.3509 98.7978L93.0095 99.0625C92.9716 99.0919 92.9658 99.1369 92.9951 99.1749L95.9944 103.065C96.009 103.084 96.0062 103.106 95.9872 103.121L94.8809 103.979C94.8429 104.008 94.8372 104.053 94.8665 104.091L95.1156 104.415C95.1449 104.453 95.1898 104.458 95.2277 104.429Z" fill="#19191B"/>
<path opacity="0.4" d="M89.9177 105.342L91.0499 107.44C91.0727 107.483 91.116 107.495 91.1582 107.473L91.5379 107.266C91.58 107.244 91.593 107.2 91.5702 107.158L88.9868 102.37C88.964 102.328 88.9207 102.315 88.8785 102.338L88.4988 102.544C88.4566 102.567 88.4437 102.611 88.4665 102.653L89.61 104.772C89.6214 104.793 89.615 104.815 89.5939 104.826L87.4142 106.009C87.3931 106.021 87.3714 106.014 87.36 105.993L86.2165 103.874C86.1937 103.832 86.1504 103.819 86.1082 103.842L85.7285 104.048C85.6863 104.071 85.6734 104.114 85.6962 104.156L88.2796 108.944C88.3024 108.986 88.3457 108.999 88.3879 108.976L88.7676 108.77C88.8098 108.747 88.8227 108.704 88.7999 108.661L87.6678 106.563C87.6564 106.542 87.6628 106.521 87.6839 106.509L89.8636 105.326C89.8847 105.315 89.9063 105.321 89.9177 105.342Z" fill="#19191B"/>
<path opacity="0.4" d="M80.7186 113.362L80.255 114.586C80.2321 114.644 80.2674 114.675 80.3282 114.655L80.8293 114.488C80.8596 114.478 80.885 114.453 80.9078 114.42L81.341 113.206C81.3716 113.145 81.3362 113.115 81.2755 113.135L80.7896 113.296C80.7592 113.306 80.7339 113.331 80.7186 113.362ZM82.1408 112.03L80.4357 106.864C80.4206 106.818 80.3802 106.798 80.3347 106.813L77.7456 107.673C77.7 107.688 77.6797 107.728 77.6948 107.774L77.8226 108.161C77.8377 108.207 77.8781 108.227 77.9236 108.212L79.9888 107.527C80.0116 107.519 80.0318 107.529 80.0393 107.552L80.6411 109.375C80.6486 109.398 80.6385 109.418 80.6157 109.426L78.5505 110.111C78.505 110.127 78.4846 110.167 78.4997 110.213L78.6276 110.6C78.6426 110.646 78.683 110.666 78.7286 110.651L80.7937 109.965C80.8165 109.958 80.8367 109.968 80.8442 109.991L81.4134 111.715C81.421 111.738 81.4108 111.758 81.388 111.766L79.3228 112.451C79.2773 112.466 79.2569 112.507 79.272 112.552L79.3999 112.94C79.4149 112.985 79.4553 113.006 79.5009 112.991L82.0899 112.131C82.1355 112.116 82.1558 112.075 82.1408 112.03Z" fill="#19191B"/>
<path opacity="0.4" d="M71.6751 109.56L71.9355 111.244C71.9392 111.268 71.9259 111.286 71.9021 111.29L71.1116 111.413C71.0484 111.423 71.0314 111.417 70.9754 111.369L69.404 109.897C69.3559 109.848 69.323 109.845 69.2598 109.855L68.7065 109.941C68.6432 109.951 68.6256 109.994 68.6737 110.043L70.3132 111.537C70.3601 111.578 70.348 111.605 70.2951 111.629C69.54 111.981 69.0626 112.663 69.2093 113.611C69.3927 114.797 70.3607 115.351 71.4832 115.177L73.0246 114.937C73.0721 114.929 73.0988 114.893 73.0915 114.845L72.2601 109.469C72.2528 109.422 72.2163 109.395 72.1688 109.403L71.742 109.469C71.6945 109.476 71.6678 109.513 71.6751 109.56ZM72.3924 114.46L71.4517 114.607C70.677 114.727 69.9622 114.45 69.8192 113.525C69.6761 112.6 70.2736 112.118 71.0483 111.998L71.9889 111.851C72.0127 111.848 72.0309 111.861 72.0346 111.885L72.4258 114.415C72.4295 114.438 72.4161 114.457 72.3924 114.46Z" fill="#19191B"/>
<path opacity="0.4" d="M62.2306 116.148L63.1426 116.154C63.1906 116.155 63.2307 116.139 63.2472 116.067L64.931 110.654C64.9474 110.598 64.9236 110.566 64.8676 110.566L64.4196 110.563C64.3716 110.562 64.3314 110.586 64.3152 110.626L63.9553 111.824C63.9389 111.871 63.9148 111.887 63.8668 111.887L61.5629 111.872C61.5149 111.871 61.491 111.855 61.4753 111.807L61.1313 110.605C61.1155 110.565 61.0757 110.54 61.0277 110.54L60.5797 110.537C60.5237 110.537 60.4995 110.569 60.5151 110.625L62.1272 116.059C62.1427 116.132 62.1826 116.148 62.2306 116.148ZM63.7508 112.502L62.8186 115.544C62.8105 115.568 62.8024 115.584 62.7704 115.584L62.6104 115.583C62.5784 115.582 62.5705 115.566 62.5626 115.542L61.6708 112.488C61.663 112.456 61.6791 112.44 61.7031 112.441L63.7191 112.454C63.7431 112.454 63.759 112.47 63.7508 112.502Z" fill="#19191B"/>
<path opacity="0.4" d="M53.7006 115.701L54.9852 115.924C55.0325 115.933 55.0695 115.907 55.0777 115.859L56.0056 110.499C56.0138 110.452 55.9877 110.415 55.9404 110.407L55.5148 110.332C55.4675 110.324 55.4305 110.35 55.4223 110.398L55.1563 111.935C55.1522 111.958 55.1337 111.971 55.11 111.967L54.3692 111.838C53.0609 111.61 52.1589 112.225 51.9542 113.407C51.7495 114.59 52.3922 115.473 53.7006 115.701ZM55.0457 112.573L54.5845 115.238C54.5804 115.261 54.5619 115.274 54.5383 115.27L53.8526 115.151C52.8832 114.982 52.4106 114.429 52.5689 113.514C52.7272 112.6 53.3581 112.239 54.3275 112.408L55.0132 112.527C55.0368 112.531 55.0498 112.55 55.0457 112.573Z" fill="#19191B"/>
<path opacity="0.4" d="M45.9915 114.092L46.4035 114.222C46.4492 114.237 46.4893 114.216 46.5037 114.17L48.1323 108.98C48.1467 108.934 48.1257 108.894 48.0799 108.879L47.668 108.749C47.6222 108.735 47.5821 108.756 47.5677 108.802L45.9391 113.992C45.9248 114.038 45.9457 114.078 45.9915 114.092Z" fill="#19191B"/>
<path opacity="0.4" d="M40.6283 112.301L42.9399 107.377C42.9603 107.333 42.945 107.291 42.9016 107.27L40.4347 106.106C40.3913 106.085 40.3487 106.1 40.3283 106.144L40.155 106.513C40.1346 106.557 40.1499 106.599 40.1933 106.62L42.161 107.549C42.1827 107.559 42.1904 107.58 42.1802 107.602L41.3643 109.34C41.3542 109.362 41.3329 109.369 41.3112 109.359L39.3435 108.43C39.3001 108.41 39.2575 108.425 39.2371 108.468L39.0638 108.838C39.0434 108.881 39.0587 108.924 39.1021 108.944L41.0698 109.873C41.0915 109.884 41.0992 109.905 41.089 109.927L40.3173 111.571C40.3071 111.592 40.2859 111.6 40.2642 111.59L38.2965 110.661C38.253 110.64 38.2105 110.655 38.1901 110.699L38.0167 111.068C37.9963 111.112 38.0117 111.154 38.0551 111.175L40.522 112.34C40.5654 112.36 40.6079 112.345 40.6283 112.301Z" fill="#19191B"/>
</svg>
