<svg width="303" height="75" viewBox="0 0 303 75" fill="none" xmlns="http://www.w3.org/2000/svg">
<path d="M94.2858 30.1139L95.7131 29.7762V20.6495L94.2858 20.3119V19.3844L97.4761 19.2988H106.007V20.3119L104.58 20.6495V29.7762L106.007 30.1139V31.1269H101.219V30.1139L102.817 29.7762V20.6495H97.4761V29.7762L99.0689 30.1139V31.1269H94.2858V30.1139Z" fill="white"/>
<path d="M112.454 22C112.997 21.9705 113.54 22.0637 114.043 22.2727C114.546 22.4817 114.996 22.8013 115.361 23.208C116.094 24.1335 116.464 25.298 116.4 26.4801C116.461 27.7484 116.048 28.9937 115.242 29.971C114.464 30.7893 113.396 31.2657 112.27 31.2969C111.145 31.3281 110.053 30.9115 109.23 30.1374C108.525 29.3669 108.172 28.2319 108.172 26.7321C108.11 25.4738 108.537 24.2406 109.363 23.2936C109.756 22.8675 110.235 22.5314 110.768 22.3082C111.302 22.085 111.877 21.9799 112.454 22ZM112.369 23.3554C110.746 23.3554 109.935 24.454 109.935 26.6513C109.935 28.8485 110.722 29.9456 112.298 29.9424C112.643 29.97 112.989 29.9069 113.302 29.7593C113.615 29.6118 113.885 29.3847 114.084 29.1006C114.51 28.3274 114.705 27.4474 114.647 26.5657C114.647 24.4255 113.891 23.3554 112.378 23.3554" fill="white"/>
<path d="M118.57 30.1992L119.988 29.8282V23.4743L118.57 23.1842V22.2568L121.675 22.1712H123.944C124.633 22.1447 125.31 22.3561 125.863 22.7704C126.11 22.9541 126.309 23.1957 126.442 23.4741C126.576 23.7525 126.64 24.0595 126.629 24.3684C126.646 24.6261 126.605 24.8845 126.51 25.1242C126.414 25.3639 126.266 25.5786 126.076 25.7524C125.648 26.0933 125.127 26.2941 124.582 26.3279C125.203 26.3743 125.794 26.6136 126.274 27.0127C126.496 27.1914 126.673 27.4191 126.793 27.6781C126.913 27.9372 126.971 28.2205 126.964 28.5061C126.964 30.2563 125.688 31.1298 123.136 31.1266H118.57V30.1992ZM123.296 25.838C123.721 25.8656 124.145 25.7681 124.516 25.5574C124.661 25.4488 124.775 25.3039 124.848 25.137C124.92 24.9701 124.947 24.7871 124.927 24.6062C124.936 24.4411 124.909 24.2761 124.85 24.1219C124.79 23.9678 124.699 23.8281 124.582 23.7121C124.319 23.4885 123.981 23.3731 123.637 23.3887H121.671V25.8237L123.296 25.838ZM123.197 29.8948C124.517 29.8948 125.178 29.4605 125.178 28.5917C125.198 28.3587 125.166 28.124 125.084 27.905C125.003 27.686 124.873 27.4883 124.705 27.3266C124.263 27.0269 123.733 26.8892 123.202 26.9366H121.642V29.8948H123.197Z" fill="white"/>
<path d="M133.666 22C134.21 21.9705 134.753 22.0637 135.256 22.2727C135.759 22.4817 136.209 22.8013 136.573 23.208C137.305 24.1345 137.674 25.2983 137.613 26.4801C137.671 27.7481 137.258 28.9925 136.455 29.971C135.676 30.7893 134.608 31.2657 133.483 31.2969C132.357 31.3281 131.265 30.9115 130.443 30.1374C129.734 29.3669 129.384 28.235 129.384 26.7321C129.322 25.4738 129.75 24.2406 130.575 23.2936C130.968 22.8675 131.447 22.5314 131.981 22.3082C132.514 22.085 133.089 21.9799 133.666 22ZM133.581 23.3554C131.958 23.3554 131.147 24.454 131.147 26.6513C131.147 28.8485 131.935 29.9456 133.51 29.9424C133.856 29.9694 134.202 29.9061 134.516 29.7586C134.83 29.6111 135.1 29.3844 135.302 29.1006C135.727 28.3274 135.922 27.4474 135.864 26.5657C135.864 24.4255 135.108 23.3554 133.595 23.3554" fill="white"/>
<path d="M140.619 31.3123C140.25 31.3081 139.883 31.257 139.527 31.1601L139.711 29.5907C139.867 29.6214 140.025 29.6373 140.184 29.6382C141.191 29.6382 141.843 28.7631 142.131 27.0034C142.285 25.8489 142.375 24.6867 142.401 23.5221L140.983 23.1844V22.1714H149.145V23.1749L147.727 23.5126V29.7666L149.145 30.1899V31.1411H144.612V30.1899L146.03 29.7666V23.5221H143.667C143.618 25.1135 143.484 26.7011 143.265 28.278C142.949 29.9141 142.32 30.8795 141.375 31.1839C141.115 31.266 140.844 31.3061 140.571 31.3028" fill="white"/>
<path d="M164.501 30.1995V31.1269H162.232L159.831 27.2412H158.371V29.7762L159.476 30.1995V31.1269H155.733V30.1995L156.858 29.7762V27.2412H155.294L153.03 31.1269H150.813V30.1995L152.07 29.7762L154.121 26.3947L152.491 23.3889L151.281 23.1844V22.1714L154.925 22.257V23.1844L154.221 23.4222L155.379 25.9762H156.858V23.4745L156.102 23.1844V22.257L159.127 22.1714V23.1701L158.371 23.4745V25.9762H159.845L161.107 23.4222L160.403 23.1844V22.257L163.995 22.1714V23.1844L162.785 23.3889L161.055 26.3947L163.224 29.7762L164.501 30.1995Z" fill="white"/>
<path d="M170.277 31.2982C169.699 31.3371 169.119 31.2473 168.579 31.0352C168.039 30.8232 167.552 30.494 167.153 30.0712C166.435 29.2532 166.08 28.1165 166.08 26.6517C166.029 25.4194 166.456 24.2154 167.271 23.2939C167.677 22.8626 168.17 22.5239 168.717 22.3007C169.264 22.0775 169.853 21.9751 170.443 22.0003C170.911 22.0027 171.377 22.0601 171.832 22.1715C172.206 22.2527 172.573 22.3657 172.929 22.5092L173.297 22.6804L173.217 24.9585H172.125L171.87 23.5317C171.376 23.4161 170.87 23.3602 170.362 23.3653C170.012 23.3447 169.662 23.4047 169.339 23.5407C169.015 23.6766 168.727 23.885 168.495 24.15C168.013 24.8295 167.782 25.6573 167.843 26.49C167.781 27.4019 168.022 28.3086 168.528 29.0677C168.754 29.3578 169.046 29.5894 169.379 29.7432C169.712 29.8971 170.077 29.9688 170.443 29.9523C170.908 29.9552 171.37 29.8696 171.804 29.7002C172.143 29.5817 172.461 29.4117 172.749 29.1961L173.033 28.9393L173.623 29.9523L173.444 30.0997C173.292 30.2179 173.135 30.3274 172.971 30.4279C172.736 30.5812 172.491 30.7193 172.239 30.8417C171.944 30.9758 171.639 31.084 171.326 31.1651C170.978 31.258 170.619 31.3059 170.258 31.3077" fill="white"/>
<path d="M175.296 30.1995L176.723 29.7762V23.5221L175.296 23.1844V22.257L178.406 22.1714V25.9762H180.103L181.36 23.4222L180.604 23.1844V22.257L184.3 22.1714V23.1844L183.09 23.3889L181.36 26.3947L183.511 29.7762L184.787 30.1995V31.1269H182.518L180.136 27.2412H178.406V29.7762L179.498 30.1995V31.1269H175.296V30.1995Z" fill="white"/>
<path d="M195.218 23.5221V29.7762L196.641 30.1995V31.1269H192.529V30.1995L193.621 29.7762V25.4673L189.339 29.3529V29.7762L190.43 30.1995V31.1269H186.314V30.1995L187.741 29.7762V23.5221L186.314 23.1844V22.257L190.43 22.1714V23.1844L189.339 23.5221V27.831L193.621 23.9454V23.5221L192.529 23.1844V22.257L196.641 22.1714V23.1844L195.218 23.5221Z" fill="white"/>
<path d="M207.71 23.522V29.7761L209.128 30.1994V31.1506H205.016V30.1994L206.107 29.7761V25.4672L201.839 29.3576V29.7809L202.927 30.2041V31.1553H198.815V30.2041L200.232 29.7809V23.522L198.815 23.1843V22.2569L202.927 22.1713V23.1748L201.839 23.5125V27.8214L206.122 23.9358V23.5125L205.03 23.1748V22.2474L209.142 22.1618V23.1748L207.71 23.522ZM204.033 20.735C203.263 20.7574 202.506 20.5362 201.868 20.1025C201.571 19.9073 201.329 19.6395 201.164 19.3242C200.998 19.0089 200.915 18.6564 200.923 18.3L202.719 18.2144C202.705 18.416 202.736 18.6182 202.811 18.8059C202.885 18.9936 203.001 19.1621 203.149 19.2987C203.469 19.5584 203.872 19.6904 204.283 19.6697C204.457 19.6804 204.631 19.6541 204.793 19.5927C204.956 19.5312 205.104 19.4359 205.228 19.313C205.35 19.1755 205.442 19.0152 205.502 18.8413C205.561 18.6674 205.585 18.4834 205.573 18.3L206.991 18.2144C207.012 18.5693 206.948 18.924 206.805 19.249C206.662 19.5741 206.444 19.8602 206.169 20.0834C205.546 20.5403 204.788 20.7701 204.018 20.735" fill="white"/>
<path d="M224.89 23.5221V29.7762L226.318 30.1995V31.1269H222.206V30.1995L223.293 29.7762V25.4673L219.011 29.3529V29.7762L220.102 30.1995V31.1269H215.99V30.1995L217.418 29.7762V23.5221L215.99 23.1844V22.257L220.102 22.1714V23.1844L219.011 23.5221V27.831L223.293 23.9454V23.5221L222.206 23.1844V22.257L226.318 22.1714V23.1844L224.89 23.5221Z" fill="white"/>
<path d="M237.302 23.5221V29.7762L238.73 30.1995V31.1269H234.532V30.1995L235.624 29.7762V27.0748H231.593V29.7762L232.684 30.1995V31.1269H228.487V30.1995L229.91 29.7762V23.5221L228.487 23.1844V22.257L232.684 22.1714V23.1844L231.593 23.5221V25.8049H235.624V23.5221L234.532 23.1844V22.257L238.73 22.1714V23.1844L237.302 23.5221Z" fill="white"/>
<path d="M245.096 31.2982C243.73 31.2982 242.686 30.8892 241.972 30.0712C241.204 29.1054 240.819 27.8866 240.894 26.6517C240.842 25.4182 241.271 24.2131 242.09 23.2939C242.496 22.8626 242.989 22.5239 243.536 22.3007C244.084 22.0775 244.672 21.9751 245.262 22.0003C245.728 22.0024 246.193 22.0599 246.646 22.1715C247.023 22.2521 247.391 22.3651 247.748 22.5092L248.116 22.6804L248.031 24.9585H246.94L246.689 23.5317C246.193 23.4161 245.686 23.3602 245.177 23.3653C244.827 23.3447 244.478 23.4047 244.155 23.5407C243.832 23.6767 243.545 23.8851 243.314 24.15C242.831 24.8288 242.598 25.6567 242.657 26.49C242.597 27.4025 242.839 28.3094 243.347 29.0677C243.571 29.355 243.858 29.585 244.187 29.7388C244.516 29.8926 244.876 29.9657 245.238 29.9523C245.703 29.9552 246.165 29.8696 246.599 29.7002C246.938 29.5806 247.256 29.4107 247.545 29.1961L247.828 28.9393L248.414 29.9523L248.239 30.0997C248.088 30.2174 247.93 30.3269 247.767 30.4279C247.534 30.5821 247.29 30.7204 247.039 30.8417C246.743 30.9765 246.436 31.0847 246.122 31.1651C245.775 31.2579 245.417 31.3059 245.058 31.3077" fill="white"/>
<path d="M258.514 25.3008H257.337L257.087 23.5221H255.154V29.7762L256.831 30.1995V31.1269H251.793V30.1995L253.476 29.7762V23.5221H251.543L251.292 25.3008H250.115L250.03 22.1714H258.599L258.514 25.3008Z" fill="white"/>
<path d="M269.413 23.5221V29.7762L270.84 30.1995V31.1269H266.723V30.1995L267.815 29.7762V25.4673L263.533 29.3529V29.7762L264.625 30.1995V31.1269H260.513V30.1995L261.94 29.7762V23.5221L260.513 23.1844V22.257L264.625 22.1714V23.1844L263.533 23.5221V27.831L267.815 23.9454V23.5221L266.723 23.1844V22.257L270.84 22.1714V23.1844L269.413 23.5221Z" fill="white"/>
<path d="M281.233 25.3008H280.061L279.806 23.5221H277.877V29.7762L279.555 30.1995V31.1269H274.517V30.1995L276.195 29.7762V23.5221H274.266L274.011 25.3008H272.839L272.754 22.1714H281.318L281.233 25.3008Z" fill="white"/>
<path d="M284.159 35.1837L283.082 35.0981L283.233 33.814C283.365 33.814 283.555 33.814 283.786 33.814C284.384 33.8594 284.978 33.674 285.445 33.2956C286.001 32.6602 286.441 31.9308 286.745 31.1411L283.739 23.4174L282.727 23.1654V22.2379L286.674 22.1523V23.1749L285.502 23.3461L287.515 29.2578L289.363 23.4269L288.186 23.1749V22.2475L292.166 22.1619V23.1749L291.079 23.3461L288.716 30.0377C288.36 31.0416 287.945 32.0231 287.473 32.9769C286.647 34.4417 285.544 35.1742 284.164 35.1742" fill="white"/>
<path d="M302.058 25.3008H300.886L300.63 23.5221H298.702V29.7762L300.38 30.1995V31.1269H295.341V30.1995L297.019 29.7762V23.5221H295.091L294.836 25.3008H293.664L293.578 22.1714H302.143L302.058 25.3008Z" fill="white"/>
<path d="M94.2858 47.2687L95.6281 46.8454V41.3523L94.2858 40.929V39.5783L98.1472 39.4927H102.514L102.429 43.5495H100.832L100.496 41.5235H98.1472V46.8454L99.6597 47.2687V48.6194H94.2858V47.2687Z" fill="white"/>
<path d="M108.375 48.7859C106.954 48.7859 105.87 48.3895 105.123 47.5969C104.377 46.8042 104.003 45.6802 104.003 44.2249C103.935 42.9239 104.361 41.6454 105.194 40.6484C105.617 40.1988 106.132 39.8475 106.703 39.6192C107.275 39.3908 107.889 39.2908 108.503 39.3262C109.023 39.2899 109.545 39.3657 110.034 39.5486C110.523 39.7315 110.968 40.0173 111.339 40.3868C112.029 41.1923 112.381 42.2357 112.322 43.2975L112.222 44.5626L106.645 44.6149C106.65 45.1993 106.869 45.7614 107.26 46.1938C107.444 46.3821 107.665 46.5297 107.909 46.6271C108.153 46.7246 108.415 46.7698 108.678 46.7598C109.128 46.7552 109.575 46.6864 110.006 46.5553C110.381 46.4553 110.747 46.32 111.097 46.151L111.499 45.9656L112.222 47.3686C112.099 47.4684 111.925 47.6016 111.702 47.7586C111.268 48.0097 110.811 48.2183 110.337 48.3816C109.713 48.6347 109.048 48.7685 108.375 48.7763V48.7859ZM109.698 43.0311C109.72 42.598 109.603 42.1692 109.363 41.8089C109.243 41.6483 109.085 41.5206 108.903 41.4375C108.722 41.3543 108.522 41.3185 108.323 41.3333C108.113 41.3262 107.903 41.3651 107.709 41.4472C107.515 41.5293 107.341 41.6526 107.198 41.8089C106.892 42.1472 106.703 42.5759 106.659 43.0311H109.698Z" fill="white"/>
<path d="M114.302 47.2687L115.644 46.8454V41.2667L114.302 40.8481V39.4927H119.09V40.8481L118.163 41.2667V46.5933H120.853V41.3523L119.926 40.929V39.5783L124.293 39.4927V40.929L123.372 41.3523V46.5933H126.056V41.3523L125.135 40.929V39.5783L129.923 39.4927V40.8481L128.576 41.3523V46.8454L129.923 47.2687V48.6194H114.302V47.2687Z" fill="white"/>
<path d="M131.753 39.4927H141.258L141.172 43.5495H139.58L139.244 41.5235H137.765V46.8454L139.443 47.2687V48.6194H133.568V47.2687L135.246 46.8454V41.5235H133.766L133.431 43.5495H131.838L131.753 39.4927Z" fill="white"/>
<path d="M145.789 48.7856C145.436 48.8198 145.079 48.7747 144.745 48.6534C144.411 48.5322 144.108 48.3378 143.857 48.0845C143.607 47.8311 143.415 47.5249 143.297 47.1881C143.178 46.8512 143.135 46.4921 143.171 46.1366C143.171 44.2786 144.52 43.348 147.217 43.3448H148.394V42.3936C148.394 41.5708 147.964 41.1571 147.103 41.1571C146.85 41.1566 146.596 41.1804 146.347 41.2284C146.158 41.2585 145.972 41.303 145.789 41.3616L145.624 41.4139L145.373 42.4792H143.861L143.743 39.9776C144.914 39.5598 146.144 39.3318 147.387 39.3022C148.663 39.3022 149.571 39.5543 150.109 40.0584C150.648 40.5626 150.916 41.425 150.913 42.6457V46.8214L152.175 47.1258V48.4765L148.814 48.5954L148.512 47.4968L148.11 47.8439C147.806 48.0633 147.481 48.2528 147.141 48.4099C146.724 48.6317 146.261 48.7522 145.789 48.7618V48.7856ZM146.598 46.8595C146.895 46.8518 147.187 46.7684 147.444 46.6169C147.699 46.485 147.935 46.3168 148.143 46.1175L148.394 45.8797V44.7478H147.448C146.961 44.7106 146.473 44.8008 146.03 45.0094C145.89 45.0968 145.776 45.2207 145.701 45.3681C145.625 45.5155 145.59 45.6808 145.6 45.8464C145.58 45.9829 145.592 46.1223 145.634 46.2535C145.677 46.3848 145.749 46.5042 145.845 46.6025C145.941 46.7008 146.059 46.7752 146.189 46.8198C146.319 46.8644 146.457 46.878 146.593 46.8595" fill="white"/>
<path d="M155.299 48.8569C154.799 48.846 154.304 48.7545 153.834 48.5858L154.169 46.5741C154.391 46.6239 154.618 46.6526 154.845 46.6597C155.038 46.6628 155.229 46.6339 155.412 46.5741C155.585 46.5154 155.739 46.4101 155.857 46.2697C155.979 46.1352 156.09 45.9904 156.187 45.8369C156.3 45.6378 156.376 45.4205 156.414 45.1948C156.476 44.9095 156.528 44.6622 156.565 44.4529C156.614 44.1457 156.647 43.8361 156.665 43.5255C156.693 43.1117 156.712 42.7788 156.726 42.5172C156.74 42.2557 156.75 41.8704 156.773 41.352L155.431 40.9287V39.502H164.35V40.9287L163.173 41.352V46.8451L164.35 47.2684V48.6191H159.302V47.2684L160.644 46.8451V41.5232H158.48C158.432 42.2081 158.39 42.7836 158.352 43.2544C158.314 43.7252 158.258 44.2056 158.187 44.7811C158.13 45.2463 158.041 45.7071 157.922 46.1603C157.818 46.5376 157.69 46.9078 157.539 47.2684C157.413 47.5886 157.23 47.8834 157 48.1388C156.787 48.3528 156.537 48.5268 156.263 48.6524C155.957 48.7893 155.625 48.859 155.289 48.8569" fill="white"/>
<path d="M166.344 47.2687L167.691 46.8454V41.3523L166.344 40.929V39.5783L171.723 39.4927V40.9195L170.211 41.3428V42.5745H170.934C171.616 42.5617 172.297 42.645 172.957 42.8218C173.427 42.9397 173.86 43.1772 174.214 43.5115C174.482 43.7806 174.688 44.1052 174.819 44.4627C174.943 44.8447 175.002 45.245 174.994 45.6469C175.011 46.0739 174.919 46.4982 174.727 46.8794C174.535 47.2607 174.249 47.5862 173.897 47.8251C172.956 48.4004 171.863 48.6725 170.764 48.6051H166.344V47.2687ZM170.981 46.7598C171.926 46.7598 172.399 46.4221 172.399 45.7468C172.42 45.562 172.401 45.3748 172.343 45.1982C172.285 45.0216 172.19 44.8599 172.063 44.7242C171.73 44.5079 171.334 44.4092 170.939 44.4436H170.215V46.7598H170.981Z" fill="white"/>
<path d="M176.572 39.4927H186.082L185.997 43.5495H184.404L184.064 41.5235H182.589V46.8454L184.267 47.2687V48.6194H178.387V47.2687L180.07 46.8454V41.5235H178.59L178.255 43.5495H176.657L176.572 39.4927Z" fill="white"/>
<path d="M192.699 43.2974H188.332V44.7337H192.699V43.2974Z" fill="white"/>
<path d="M203.343 42.7882H202.171L201.915 41.0143H199.987V47.2683L201.665 47.6916V48.619H196.627V47.6916L198.304 47.2683V41.0143H196.376L196.126 42.7882H194.949L194.864 39.6636H203.428L203.343 42.7882Z" fill="white"/>
<path d="M209.374 48.7859C208.815 48.8247 208.254 48.7363 207.734 48.5272C207.213 48.318 206.747 47.9935 206.368 47.5778C205.675 46.5864 205.315 45.3989 205.337 44.1873C205.36 42.9756 205.766 41.8028 206.496 40.8387C206.856 40.4032 207.31 40.0558 207.823 39.8226C208.337 39.5895 208.896 39.4767 209.459 39.4927C211.81 39.4927 212.985 40.8165 212.985 43.4639L212.9 44.3581L207.105 44.3961C207.066 45.1903 207.305 45.9732 207.781 46.6076C207.991 46.8738 208.259 47.0869 208.565 47.2298C208.872 47.3727 209.207 47.4414 209.544 47.4304C210.034 47.4323 210.522 47.352 210.986 47.1926C211.352 47.0832 211.702 46.9231 212.025 46.717L212.366 46.4983L212.952 47.3733C212.801 47.5113 212.643 47.6415 212.479 47.7633C212.081 48.0153 211.658 48.2257 211.217 48.3911C210.638 48.6386 210.017 48.7695 209.388 48.7763L209.374 48.7859ZM211.217 43.1168C211.243 42.5274 211.091 41.944 210.782 41.4427C210.624 41.2246 210.413 41.051 210.169 40.9386C209.924 40.8262 209.656 40.7787 209.388 40.8006C209.098 40.7874 208.808 40.84 208.541 40.9544C208.273 41.0688 208.035 41.2422 207.843 41.4617C207.451 41.9266 207.222 42.5081 207.19 43.1168H211.217Z" fill="white"/>
<path d="M215.149 51.5775L216.492 51.235V41.0097L215.074 40.6721V39.7209L217.909 39.64L218.042 40.5912C218.715 39.8974 219.631 39.4962 220.594 39.4735C221.104 39.4403 221.615 39.5304 222.084 39.7364C222.553 39.9425 222.966 40.2584 223.288 40.6578C223.945 41.5929 224.269 42.7245 224.205 43.8681C224.275 45.1591 223.869 46.4307 223.066 47.4398C222.3 48.3244 221.169 48.7667 219.672 48.7667C219.16 48.763 218.65 48.6845 218.16 48.5337V51.235L219.923 51.5727V52.5001H215.149V51.5775ZM219.937 47.4303C221.616 47.4303 222.456 46.3031 222.456 44.0488C222.497 43.2329 222.309 42.4219 221.913 41.7088C221.743 41.4285 221.501 41.1996 221.212 41.0463C220.923 40.8931 220.599 40.8213 220.273 40.8385C220.005 40.8383 219.739 40.8784 219.483 40.9574C219.268 41.0238 219.064 41.1232 218.878 41.2523C218.735 41.3604 218.601 41.4796 218.477 41.609C218.388 41.6991 218.309 41.7979 218.24 41.9038L218.174 42.0227V47.0973C218.721 47.3675 219.33 47.4842 219.937 47.435" fill="white"/>
<path d="M229.073 48.7858C228.734 48.8207 228.391 48.7792 228.07 48.6642C227.748 48.5492 227.456 48.3635 227.215 48.1208C226.974 47.878 226.789 47.5843 226.675 47.2608C226.561 46.9373 226.52 46.5923 226.554 46.2508C226.554 44.507 227.841 43.635 230.416 43.635H231.763V42.2796C231.763 41.2682 231.23 40.7624 230.165 40.7624C229.873 40.7617 229.581 40.7808 229.291 40.8195C229.081 40.8425 228.874 40.8855 228.672 40.9479L228.469 41.0145L228.232 42.2796H227.14L227.06 40.168C228.103 39.7541 229.21 39.5256 230.331 39.4926C231.149 39.4368 231.964 39.6504 232.651 40.1014C232.932 40.35 233.149 40.662 233.286 41.0117C233.424 41.3614 233.477 41.7389 233.441 42.1131V47.2686L234.783 47.6063V48.5337L232.179 48.6193L231.829 47.4351C231.483 47.835 231.061 48.1607 230.588 48.3928C230.114 48.6248 229.599 48.7585 229.073 48.7858ZM229.494 47.4351C229.892 47.4253 230.281 47.3088 230.619 47.0974C230.939 46.9204 231.228 46.6923 231.475 46.422L231.763 46.0844V44.7337H230.586C229.967 44.676 229.343 44.786 228.78 45.0523C228.603 45.1713 228.46 45.3359 228.367 45.529C228.274 45.7222 228.234 45.937 228.251 46.1509C228.236 46.4889 228.355 46.8189 228.582 47.0688C228.699 47.1876 228.839 47.28 228.994 47.3398C229.149 47.3997 229.314 47.4257 229.48 47.416" fill="white"/>
<path d="M245.516 41.0143V47.2683L246.943 47.6916V48.619H242.742V47.6916L243.834 47.2683V41.0143H239.887V47.2683L240.979 47.6916V48.619H236.782V47.6916L238.209 47.2683V41.0143L236.782 40.6766V39.7492L239.887 39.6636H246.943V40.6766L245.516 41.0143Z" fill="white"/>
<path d="M258.008 41.0143V47.2683L259.44 47.6916V48.619H255.323V47.6916L256.415 47.2683V42.9595L252.133 46.8451V47.2683L253.225 47.6916V48.619H249.108V47.6916L250.536 47.2683V41.0143L249.108 40.6766V39.7492L253.225 39.6636V40.6766L252.133 41.0143V45.3232L256.415 41.4376V41.0143L255.323 40.6766V39.7492L259.44 39.6636V40.6766L258.008 41.0143Z" fill="white"/>
<path d="M270.505 41.0143V47.2683L271.932 47.6916V48.619H267.815V47.6916L268.907 47.2683V42.9595L264.625 46.8451V47.2683L265.717 47.6916V48.619H261.605V47.6916L263.032 47.2683V41.0143L261.605 40.6766V39.7492L265.717 39.6636V40.6766L264.625 41.0143V45.3232L268.907 41.4376V41.0143L267.815 40.6766V39.7492L271.932 39.6636V40.6766L270.505 41.0143Z" fill="white"/>
<path d="M68.865 25.5653C68.865 26.0422 68.7235 26.5084 68.4585 26.9049C68.1934 27.3014 67.8167 27.6104 67.376 27.7927C66.9352 27.975 66.4504 28.0225 65.9826 27.9291C65.5149 27.8357 65.0854 27.6057 64.7485 27.2681C64.4116 26.9306 64.1823 26.5007 64.0898 26.0328C63.9973 25.5649 64.0457 25.0801 64.2288 24.6397C64.412 24.1994 64.7216 23.8232 65.1186 23.5589C65.5156 23.2945 65.982 23.1539 66.459 23.1548C67.0975 23.156 67.7095 23.4104 68.1606 23.8624C68.6117 24.3143 68.865 24.9267 68.865 25.5653Z" fill="white"/>
<path d="M18.0046 19.4611C17.4957 19.9715 17.127 20.6044 16.9342 21.2988C16.7413 21.9932 16.7308 22.7257 16.9037 23.4253C17.604 23.5961 18.3365 23.5834 19.0304 23.3884C19.7243 23.1933 20.3562 22.8226 20.865 22.312C21.3738 21.8015 21.7423 21.1683 21.9349 20.4737C22.1274 19.7791 22.1376 19.0466 21.9644 18.3469C21.2642 18.1769 20.5321 18.1902 19.8385 18.3853C19.145 18.5805 18.5134 18.951 18.0046 19.4611Z" fill="white"/>
<path d="M61.0251 44.5115C62.0701 43.767 62.9052 42.7653 63.4496 41.6034C63.994 40.4415 64.2292 39.1588 64.1325 37.8793C62.9536 37.3727 61.664 37.1785 60.3882 37.3157C59.1124 37.4529 57.8935 37.9167 56.8493 38.6624C55.805 39.4081 54.9707 40.4104 54.4269 41.5727C53.8831 42.7349 53.6482 44.0177 53.7448 45.2972C54.9235 45.803 56.2127 45.9964 57.488 45.8587C58.7632 45.7211 59.9814 45.2571 61.0251 44.5115Z" fill="white"/>
<path d="M27.0564 10.3301H27.0209C25.3919 10.3764 23.8457 11.0581 22.7126 12.2293C21.5795 13.4006 20.9494 14.9686 20.957 16.5982H23.5539C23.5501 15.6444 23.9194 14.7269 24.583 14.0417C25.2466 13.3566 26.1518 12.9581 27.1053 12.9314H28.0331V17.6858C28.0372 19.7909 27.2049 21.8114 25.7193 23.3028C24.2337 24.7943 22.2164 25.6345 20.1113 25.6386C18.0062 25.6427 15.9857 24.8104 14.4943 23.3248C13.0029 21.8392 12.1627 19.822 12.1585 17.7169C11.309 18.6583 10.5988 19.7167 10.0499 20.8598C10.8225 23.2404 12.4171 25.2683 14.5483 26.5806C16.6795 27.8929 19.2081 28.4038 21.6816 28.022C24.1551 27.6402 26.412 26.3905 28.0483 24.4967C29.6846 22.6029 30.5934 20.1885 30.6122 17.6858V10.3301H27.0564Z" fill="white"/>
<path d="M68.3764 13.9966H68.3054C65.2427 14.0799 62.2895 15.1536 59.8885 17.0568C57.4875 18.96 55.768 21.5901 54.9878 24.553L58.5969 28.162C58.6048 25.5402 59.6301 23.0238 61.4569 21.1432C63.2837 19.2626 65.7693 18.1646 68.3897 18.0806H71.8567V30.8788C71.7833 36.2983 69.5803 41.4713 65.724 45.2799C61.8676 49.0884 56.6675 51.2266 51.2475 51.2325C45.8275 51.2383 40.6228 49.1113 36.7583 45.311C32.8937 41.5108 30.6796 36.3425 30.5945 30.9232C29.3712 31.838 28.0361 32.5929 26.6215 33.1694C27.211 39.4975 30.2158 45.3552 35.0117 49.5256C39.8076 53.6959 46.0257 55.8583 52.3744 55.5635C58.723 55.2686 64.714 52.5392 69.1027 47.9422C73.4914 43.3453 75.9404 37.2343 75.9408 30.8788V14.0099L68.3764 13.9966Z" fill="white"/>
<path d="M58.042 12.0569L59.2362 15.3552C60.3412 14.5205 61.5633 13.8533 62.863 13.3753L61.0518 8.36346L61.0252 8.29688H56.3507C52.2022 10.9453 49.0391 14.8836 47.3481 19.5058L42.718 14.8757H39.4818C35.958 19.3891 34.2061 25.0351 34.5561 30.7505C34.906 36.4658 37.3337 41.8559 41.3818 45.9056H47.9651C46.6392 45.0684 45.4017 44.0986 44.2717 43.0113C41.2127 39.9491 39.2657 35.9518 38.7405 31.6555C38.2152 27.3592 39.1418 23.0106 41.3729 19.3016L54.2465 32.1752C55.8075 31.9469 57.3363 31.5357 58.8011 30.95L50.602 22.7553C51.6794 18.3956 54.3228 14.5845 58.0287 12.048" fill="white"/>
<path d="M63.4798 56.3819C62.1811 57.373 60.7718 58.2102 59.2803 58.8767L52.2043 62.0286C52.0356 62.0286 51.8625 62.0508 51.6938 62.0508C49.3297 62.042 47.0567 61.1378 45.3324 59.5204C45.1904 59.3872 45.0572 59.2541 44.924 59.1164H43.0507C42.2168 60.0074 41.2152 60.7249 40.1033 61.2277C38.9913 61.7304 37.791 62.0086 36.5713 62.0461C35.3516 62.0836 34.1364 61.8798 32.9957 61.4464C31.8549 61.013 30.8111 60.3584 29.924 59.5204C29.782 59.3872 29.6443 59.2541 29.5112 59.1164H27.6378C26.4132 60.4019 24.8519 61.3172 23.1321 61.7578L16.6686 58.8767C14.8517 58.0726 13.1582 57.0144 11.639 55.7338C12.4419 55.4127 13.2095 55.0096 13.9296 54.5308C15.9315 56.0397 18.3701 56.8558 20.877 56.8558C23.3838 56.8558 25.8225 56.0397 27.8243 54.5308C29.3415 55.6792 31.12 56.4332 33.0003 56.7253C34.8806 57.0174 36.804 56.8384 38.5982 56.2043C35.6096 54.7398 32.8948 52.7727 30.5721 50.389H26.3594C25.6855 51.1122 24.8752 51.6947 23.9751 52.1032C23.075 52.5116 22.1029 52.7378 21.115 52.7688C20.127 52.7997 19.1427 52.6348 18.2188 52.2835C17.295 51.9322 16.4497 51.4015 15.732 50.722C15.621 50.6154 15.5056 50.5044 15.399 50.389L12.2916 50.5799C11.5591 51.5521 8.92224 52.4666 7.37296 52.7729L6.22766 56.12C8.64283 58.9015 11.6407 61.1173 15.0084 62.6101L27.0607 67.9771C30.6659 69.5888 33.8637 71.9886 36.4185 74.9998H39.526C42.0808 71.9886 45.2786 69.5888 48.8838 67.9771L60.9361 62.6101C64.2541 61.1301 67.2144 58.953 69.6159 56.2268C72.0173 53.5006 73.8035 50.2892 74.853 46.811C71.9535 50.9347 68.031 54.2331 63.4709 56.3819H63.4798ZM37.9634 70.6539C35.3016 67.9626 32.1631 65.789 28.7077 64.2437L26.4437 63.236C27.1994 62.8322 27.9107 62.3502 28.5656 61.7977C30.7108 63.6395 33.4447 64.6521 36.272 64.6521C39.0994 64.6521 41.8333 63.6395 43.9785 61.7977C45.109 62.7558 46.4061 63.4976 47.805 63.9862L47.2191 64.2437C43.764 65.7897 40.6256 67.9632 37.9634 70.6539Z" fill="white"/>
<path d="M1.20849e-05 0V27.9669C1.20849e-05 28.1577 1.20849e-05 28.3486 1.20849e-05 28.5395C-0.00652862 35.6471 2.64216 42.5008 7.42676 47.7567L9.67743 48.285C11.1197 47.7238 12.5088 47.0345 13.8281 46.2252C15.7736 47.729 18.1498 48.5697 20.6081 48.624C23.0664 48.6784 25.4774 47.9434 27.4874 46.5271C26.7101 45.3941 26.0144 44.2074 25.4054 42.9757C24.105 43.9781 22.5105 44.5241 20.8686 44.5294C18.9566 44.5203 17.1193 43.7857 15.728 42.4741C15.6126 42.3676 15.5016 42.261 15.3907 42.1456H12.4475C11.9459 42.6694 10.6718 43.3575 9.51318 43.8991C8.44643 42.5805 7.52097 41.1536 6.75201 39.6419C9.13559 39.5551 11.4236 38.6826 13.2598 37.1604C15.2098 38.7915 17.6694 39.6883 20.2116 39.6952C21.421 39.6959 22.6218 39.4918 23.763 39.0914C23.4966 38.2702 23.2702 37.4312 23.0749 36.5789C22.1603 36.9199 21.1921 37.0943 20.2161 37.0938C18.1248 37.078 16.1164 36.2743 14.5916 34.8431C14.4673 34.7277 14.3474 34.6079 14.2276 34.488H12.3543C11.581 35.3079 10.6489 35.9618 9.61481 36.4098C8.58068 36.8578 7.46616 37.0905 6.33916 37.0938C6.10389 37.0938 5.86417 37.0938 5.62889 37.0627C4.25928 33.3616 3.80469 29.3843 4.30384 25.4696C4.803 21.5548 6.24111 17.8188 8.49564 14.5798C10.7502 11.3408 13.7543 8.69482 17.2521 6.86731C20.7498 5.03979 24.6375 4.08491 28.5839 4.08404H75.95V0H1.20849e-05ZM4.08405 13.8591V4.09293H13.8503C9.85005 6.50691 6.49804 9.85892 4.08405 13.8591Z" fill="white"/>
</svg>
