<svg width="75" height="74" viewBox="0 0 75 74" fill="none" xmlns="http://www.w3.org/2000/svg">
<path d="M67.8198 25.1766C67.8198 25.6463 67.6805 26.1055 67.4194 26.4959C67.1584 26.8864 66.7874 27.1907 66.3533 27.3702C65.9193 27.5498 65.4418 27.5965 64.9812 27.5046C64.5206 27.4126 64.0976 27.1861 63.7658 26.8537C63.434 26.5212 63.2082 26.0978 63.1171 25.6371C63.026 25.1763 63.0736 24.6988 63.254 24.2651C63.4343 23.8315 63.7393 23.461 64.1302 23.2007C64.5212 22.9404 64.9806 22.8019 65.4503 22.8027C66.0791 22.8039 66.6818 23.0545 67.1261 23.4996C67.5703 23.9446 67.8198 24.5478 67.8198 25.1766Z" fill="#19191B"/>
<path d="M17.7313 19.1651C17.2301 19.6677 16.867 20.291 16.6771 20.9749C16.4872 21.6588 16.4768 22.3801 16.6471 23.0691C17.3367 23.2373 18.0581 23.2248 18.7415 23.0327C19.4249 22.8406 20.0472 22.4756 20.5483 21.9727C21.0493 21.4699 21.4122 20.8463 21.6019 20.1623C21.7915 19.4782 21.8016 18.7568 21.6309 18.0677C20.9414 17.9004 20.2204 17.9134 19.5374 18.1056C18.8544 18.2978 18.2324 18.6627 17.7313 19.1651Z" fill="#19191B"/>
<path d="M60.0988 43.8357C61.128 43.1025 61.9504 42.116 62.4866 40.9718C63.0227 39.8275 63.2544 38.5643 63.1591 37.3042C61.9981 36.8052 60.7281 36.6141 59.4716 36.7491C58.2152 36.8842 57.0148 37.341 55.9864 38.0754C54.958 38.8098 54.1364 39.7969 53.6008 40.9415C53.0653 42.0861 52.8339 43.3494 52.9291 44.6095C54.0899 45.1076 55.3595 45.2981 56.6154 45.1625C57.8713 45.027 59.071 44.57 60.0988 43.8357Z" fill="#19191B"/>
<path d="M26.6459 10.1738H26.6109C25.0066 10.2195 23.4838 10.8908 22.3679 12.0442C21.252 13.1977 20.6315 14.7419 20.639 16.3468H23.1965C23.1927 15.4075 23.5564 14.5039 24.21 13.8291C24.8635 13.1544 25.755 12.762 26.694 12.7357H27.6077V17.4179C27.6117 19.4911 26.7921 21.4809 25.329 22.9497C23.8659 24.4185 21.8793 25.246 19.8062 25.25C17.733 25.2541 15.7432 24.4344 14.2744 22.9714C12.8056 21.5083 11.9781 19.5217 11.9741 17.4485C11.1374 18.3756 10.438 19.418 9.89746 20.5438C10.6583 22.8882 12.2287 24.8854 14.3275 26.1777C16.4264 27.4701 18.9166 27.9733 21.3526 27.5973C23.7886 27.2212 26.0112 25.9906 27.6227 24.1255C29.2341 22.2604 30.1292 19.8827 30.1477 17.4179V10.1738H26.6459Z" fill="#19191B"/>
<path d="M67.3388 13.7852H67.2688C64.2526 13.8672 61.3443 14.9246 58.9797 16.7989C56.6151 18.6732 54.9217 21.2635 54.1534 24.1813L57.7077 27.7356C57.7154 25.1536 58.7252 22.6754 60.5243 20.8233C62.3234 18.9713 64.7712 17.8899 67.3519 17.8072H70.7663V30.4112C70.694 35.7484 68.5244 40.8429 64.7266 44.5937C60.9287 48.3444 55.8076 50.4502 50.4698 50.4559C45.1321 50.4617 40.0064 48.3669 36.2005 44.6244C32.3946 40.8818 30.2141 35.792 30.1303 30.4549C28.9255 31.3558 27.6107 32.0992 26.2175 32.667C26.7981 38.8991 29.7573 44.6679 34.4804 48.775C39.2035 52.882 45.3273 55.0116 51.5796 54.7212C57.8319 54.4308 63.732 51.7428 68.0541 47.2156C72.3762 42.6885 74.7879 36.6702 74.7884 30.4112V13.7983L67.3388 13.7852Z" fill="#19191B"/>
<path d="M57.1613 11.8728L58.3373 15.1211C59.4255 14.2991 60.629 13.642 61.909 13.1713L60.1253 8.2355L60.0991 8.16992H55.4956C51.4101 10.7781 48.2949 14.6567 46.6296 19.2087L42.0698 14.6489H38.8827C35.4124 19.0938 33.6871 24.6542 34.0318 30.2827C34.3764 35.9113 36.7672 41.2196 40.7538 45.2079H47.2372C45.9314 44.3833 44.7127 43.4283 43.5999 42.3575C40.5874 39.3417 38.6699 35.4052 38.1526 31.174C37.6353 26.9429 38.5479 22.6603 40.7451 19.0076L53.4233 31.6859C54.9607 31.4611 56.4662 31.0561 57.9088 30.4793L49.8341 22.4089C50.8952 18.1154 53.4985 14.3621 57.1481 11.8641" fill="#19191B"/>
<path d="M62.5163 55.5272C61.2373 56.5032 59.8494 57.3277 58.3806 57.9842L51.4119 61.0881C51.2458 61.0881 51.0753 61.11 50.9091 61.11C48.5809 61.1013 46.3424 60.2109 44.6443 58.6181C44.5044 58.4869 44.3733 58.3557 44.2421 58.2202H42.3972C41.576 59.0977 40.5896 59.8043 39.4945 60.2994C38.3995 60.7945 37.2174 61.0685 36.0162 61.1054C34.815 61.1424 33.6183 60.9417 32.4948 60.5148C31.3714 60.088 30.3434 59.4434 29.4698 58.6181C29.3299 58.4869 29.1944 58.3557 29.0632 58.2202H27.2183C26.0123 59.4862 24.4747 60.3875 22.7809 60.8215L16.4156 57.9842C14.6262 57.1922 12.9584 56.1501 11.4623 54.8889C12.253 54.5727 13.009 54.1757 13.7182 53.7041C15.6896 55.1902 18.0913 55.9939 20.56 55.9939C23.0288 55.9939 25.4305 55.1902 27.4019 53.7041C28.8961 54.8351 30.6476 55.5777 32.4994 55.8653C34.3512 56.153 36.2454 55.9767 38.0123 55.3523C35.0691 53.9099 32.3955 51.9728 30.1081 49.6253H25.9592C25.2956 50.3374 24.4976 50.9112 23.6111 51.3134C22.7247 51.7156 21.7674 51.9384 20.7944 51.9689C19.8215 51.9994 18.8521 51.837 17.9423 51.491C17.0324 51.145 16.2 50.6224 15.4931 49.9531C15.3838 49.8482 15.2701 49.7389 15.1652 49.6253L12.105 49.8132C11.3836 50.7707 8.78674 51.6713 7.26098 51.9729L6.13306 55.2693C8.51157 58.0085 11.4639 60.1907 14.7805 61.6608L26.65 66.9464C30.2004 68.5336 33.3497 70.897 35.8658 73.8626H38.926C41.4421 70.897 44.5913 68.5336 48.1418 66.9464L60.0113 61.6608C63.2788 60.2033 66.1943 58.0592 68.5592 55.3744C70.9242 52.6896 72.6833 49.5269 73.7169 46.1016C70.8614 50.1627 66.9984 53.4109 62.5076 55.5272H62.5163ZM37.3871 69.5826C34.7657 66.9321 31.6749 64.7915 28.2719 63.2697L26.0423 62.2773C26.7866 61.8796 27.487 61.4049 28.132 60.8608C30.2447 62.6746 32.937 63.6718 35.7215 63.6718C38.5059 63.6718 41.1983 62.6746 43.3109 60.8608C44.4243 61.8043 45.7017 62.5349 47.0794 63.0161L46.5024 63.2697C43.0997 64.7922 40.009 66.9327 37.3871 69.5826Z" fill="#19191B"/>
<path d="M1.19015e-05 0V27.5424C1.19015e-05 27.7304 1.19015e-05 27.9184 1.19015e-05 28.1064C-0.00642953 35.1061 2.60206 41.8557 7.31404 47.0319L9.53056 47.5522C10.951 46.9995 12.319 46.3206 13.6182 45.5237C15.5342 47.0046 17.8743 47.8326 20.2953 47.8861C22.7163 47.9396 25.0907 47.2158 27.0703 45.821C26.3048 44.7052 25.6196 43.5364 25.0199 42.3235C23.7392 43.3107 22.1689 43.8484 20.5519 43.8536C18.6689 43.8446 16.8595 43.1212 15.4893 41.8295C15.3757 41.7246 15.2664 41.6197 15.1571 41.506H12.2586C11.7646 42.0219 10.5098 42.6995 9.3688 43.2328C8.31824 41.9343 7.40683 40.5291 6.64953 39.0403C8.99694 38.9548 11.2502 38.0956 13.0586 36.5964C14.979 38.2028 17.4012 39.086 19.9049 39.0927C21.0959 39.0935 22.2784 38.8925 23.4023 38.4982C23.14 37.6894 22.917 36.8631 22.7247 36.0237C21.824 36.3595 20.8705 36.5313 19.9092 36.5309C17.8498 36.5153 15.8718 35.7238 14.3702 34.3144C14.2477 34.2007 14.1297 34.0826 14.0117 33.9646H12.1668C11.4053 34.7721 10.4873 35.416 9.46889 35.8572C8.45045 36.2984 7.35285 36.5276 6.24296 36.5309C6.01125 36.5309 5.77517 36.5309 5.54347 36.5003C4.19464 32.8553 3.74695 28.9383 4.23853 25.083C4.73011 21.2277 6.14639 17.5484 8.3667 14.3586C10.587 11.1687 13.5456 8.56287 16.9902 6.76309C20.4349 4.96331 24.2636 4.02292 28.1501 4.02206H74.7973V0H1.19015e-05ZM4.02207 13.6488V4.03081H13.6401C9.70056 6.40816 6.39942 9.7093 4.02207 13.6488Z" fill="#19191B"/>
</svg>
