<svg width="467" height="325" viewBox="0 0 467 325" fill="none" xmlns="http://www.w3.org/2000/svg">
<g opacity="0.1">
<g clip-path="url(#clip0_1143_18354)">
<path d="M8.66616 335.96C6.69721 337.919 4.25527 339.338 1.57606 340.08C-1.10314 340.823 -3.92912 340.865 -6.6292 340.202C-7.28603 337.507 -7.23548 334.69 -6.4824 332.021C-5.72931 329.351 -4.29914 326.921 -2.3298 324.963C-0.360451 323.006 2.08163 321.587 4.76081 320.844C7.44 320.102 10.2659 320.06 12.966 320.723C13.6239 323.417 13.5739 326.235 12.8207 328.904C12.0675 331.573 10.6365 334.004 8.66616 335.96V335.96Z" stroke="white" stroke-width="1.5" stroke-linejoin="bevel"/>
<path d="M70.6646 233.923C72.6072 235.862 74.0151 238.269 74.7521 240.91C75.4891 243.551 75.5302 246.337 74.8715 248.998C72.2003 249.644 69.4071 249.594 66.7612 248.851C64.1153 248.108 61.7059 246.698 59.7653 244.757C57.8246 242.816 56.4182 240.41 55.6816 237.769C54.9449 235.128 54.9029 232.343 55.5596 229.682C58.2306 229.035 61.0238 229.085 63.6697 229.828C66.3155 230.571 68.7246 231.981 70.6646 233.923V233.923Z" stroke="white" stroke-width="1.5" stroke-linejoin="bevel"/>
<path d="M43.3506 241.402C43.3506 232.753 41.642 224.189 38.3225 216.199C35.003 208.208 30.1376 200.948 24.004 194.833C17.8704 188.717 10.5887 183.866 2.57491 180.557C-5.43893 177.248 -14.028 175.545 -22.7019 175.545" stroke="white" stroke-width="1.5" stroke-linejoin="bevel"/>
<path d="M-96.353 249.451H44.1101" stroke="white" stroke-width="1.5" stroke-linejoin="bevel"/>
<path d="M17.294 280.974C18.4552 282.134 19.2967 283.572 19.7368 285.15C20.1769 286.729 20.2007 288.394 19.8061 289.984C18.2088 290.373 16.538 290.344 14.9551 289.901C13.3722 289.458 11.9308 288.615 10.7698 287.454C9.60891 286.294 8.76781 284.854 8.32779 283.274C7.88778 281.695 7.8637 280.029 8.2579 278.437C9.8557 278.049 11.5271 278.078 13.1101 278.523C14.6932 278.967 16.1343 279.812 17.294 280.974V280.974Z" stroke="white" stroke-width="1.5" stroke-linejoin="bevel"/>
<path d="M-2.0644 272.934C-2.0644 273.354 -1.9394 273.765 -1.70521 274.114C-1.47101 274.464 -1.13814 274.736 -0.748694 274.897C-0.359245 275.058 0.0692918 275.1 0.482728 275.018C0.896165 274.936 1.2759 274.734 1.57398 274.436C1.87205 274.139 2.07505 273.761 2.15729 273.348C2.23953 272.936 2.19731 272.509 2.03599 272.12C1.87468 271.732 1.60149 271.4 1.251 271.167C0.900505 270.933 0.488444 270.809 0.0669074 270.809C-0.498355 270.809 -1.04046 271.033 -1.44016 271.431C-1.83986 271.83 -2.0644 272.37 -2.0644 272.934Z" stroke="white" stroke-width="1.5" stroke-linejoin="bevel"/>
<path d="M-4.9201 46.595C-5.83181 44.4004 -4.78658 41.8843 -2.58553 40.9752C-0.384472 40.0662 2.13891 41.1083 3.05062 43.303C3.96232 45.4977 2.9171 48.0138 0.716049 48.9229C-1.48501 49.8319 -4.0084 48.7897 -4.9201 46.595Z" stroke="white" stroke-width="1.5" stroke-linejoin="bevel"/>
<path d="M2.5694 118.438V130.976C2.56977 134.476 3.58745 137.902 5.49931 140.838C7.41117 143.774 10.1353 146.094 13.3421 147.519L22.7496 151.686C25.7919 153.034 28.49 155.048 30.6434 157.58C32.7977 155.049 35.4957 153.035 38.5372 151.686L47.9495 147.519C51.1554 146.094 53.8786 143.773 55.7896 140.837C57.7006 137.901 58.7176 134.476 58.7175 130.976V101.807H-13.7754" stroke="white" stroke-width="1.5" stroke-linejoin="bevel"/>
<path d="M27.8992 58.388C29.8419 60.3276 31.2498 62.7343 31.9867 65.3751C32.7237 68.016 32.7648 70.8018 32.1061 73.4632C29.4371 74.1094 26.6461 74.0594 24.0021 73.3182C21.358 72.5769 18.9499 71.1693 17.0096 69.231C15.0694 67.2926 13.6624 64.8888 12.924 62.251C12.1857 59.6131 12.141 56.8302 12.7942 54.1701C15.4632 53.5183 18.2557 53.5641 20.9017 54.303C23.5478 55.0418 25.9579 56.4489 27.8992 58.388V58.388Z" stroke="white" stroke-width="1.5" stroke-linejoin="bevel"/>
<path d="M31.6126 0C37.3282 -1.29769e-07 42.9879 1.12268 48.2684 3.30391C53.5488 5.48514 58.3466 8.68221 62.3878 12.7125C66.4289 16.7428 69.6342 21.5274 71.8207 26.793C74.0071 32.0587 75.1318 37.7022 75.1306 43.4013" stroke="white" stroke-width="1.5" stroke-linejoin="bevel"/>
<path d="M-13.8115 14.4141H32.5715" stroke="white" stroke-width="1.5" stroke-linejoin="bevel"/>
<path d="M208.594 220.475C208.593 221.326 208.846 222.159 209.319 222.867C209.793 223.575 210.467 224.127 211.255 224.453C212.043 224.779 212.911 224.865 213.748 224.699C214.586 224.533 215.355 224.123 215.958 223.521C216.562 222.92 216.973 222.153 217.139 221.318C217.305 220.483 217.219 219.618 216.892 218.832C216.565 218.046 216.012 217.374 215.302 216.902C214.592 216.429 213.757 216.178 212.903 216.179C211.76 216.179 210.664 216.631 209.856 217.437C209.048 218.243 208.594 219.336 208.594 220.475V220.475Z" stroke="white" stroke-width="1.5" stroke-linejoin="bevel"/>
<path d="M317.802 220.475C317.801 221.326 318.053 222.158 318.526 222.866C319 223.574 319.673 224.126 320.461 224.452C321.25 224.778 322.117 224.864 322.954 224.699C323.791 224.533 324.56 224.124 325.164 223.523C325.768 222.921 326.179 222.155 326.346 221.32C326.513 220.486 326.428 219.621 326.101 218.835C325.775 218.048 325.222 217.376 324.513 216.903C323.803 216.431 322.969 216.178 322.115 216.178C320.972 216.178 319.876 216.631 319.067 217.436C318.258 218.242 317.803 219.335 317.802 220.475V220.475Z" stroke="white" stroke-width="1.5" stroke-linejoin="bevel"/>
<path d="M171.016 241.958V229.235H146.531V241.958C146.531 243.485 146.975 244.98 147.809 246.261C148.643 247.542 149.831 248.555 151.231 249.176L155.335 251C156.659 251.589 157.834 252.468 158.771 253.57" stroke="white" stroke-width="1.5" stroke-linejoin="bevel"/>
<path d="M216.409 293.971V306.505C216.41 310.005 217.428 313.43 219.34 316.366C221.252 319.302 223.976 321.623 227.182 323.048L236.59 327.215C239.634 328.559 242.333 330.574 244.483 333.109C246.634 330.574 249.333 328.559 252.377 327.215L261.785 323.048C264.984 321.617 267.7 319.294 269.605 316.359C271.51 313.423 272.523 310.001 272.52 306.505V277.336H200.037" stroke="white" stroke-width="1.5" stroke-linejoin="bevel"/>
<path d="M175.781 335.959C177.749 337.917 180.19 339.336 182.868 340.079C185.547 340.822 188.372 340.863 191.071 340.2C191.728 337.507 191.677 334.689 190.924 332.021C190.172 329.352 188.742 326.922 186.773 324.965C184.804 323.007 182.363 321.588 179.684 320.845C177.006 320.102 174.181 320.06 171.481 320.722C170.823 323.416 170.873 326.234 171.626 328.903C172.379 331.572 173.81 334.003 175.781 335.959V335.959Z" stroke="white" stroke-width="1.5" stroke-linejoin="bevel"/>
<path d="M414.01 335.96C412.041 337.919 409.6 339.338 406.92 340.08C404.241 340.823 401.415 340.865 398.715 340.202C398.058 337.507 398.109 334.69 398.862 332.021C399.615 329.351 401.045 326.921 403.014 324.963C404.984 323.006 407.426 321.587 410.105 320.844C412.784 320.102 415.61 320.06 418.31 320.723C418.968 323.417 418.918 326.235 418.165 328.904C417.412 331.573 415.981 334.004 414.01 335.96V335.96Z" stroke="white" stroke-width="1.5" stroke-linejoin="bevel"/>
<path d="M241.75 233.923C243.693 235.863 245.101 238.269 245.838 240.91C246.575 243.551 246.616 246.337 245.957 248.998C243.286 249.645 240.493 249.594 237.847 248.852C235.201 248.109 232.792 246.699 230.851 244.758C228.91 242.817 227.504 240.41 226.767 237.769C226.031 235.129 225.989 232.344 226.645 229.682C229.316 229.035 232.11 229.085 234.756 229.828C237.401 230.571 239.811 231.981 241.75 233.923V233.923Z" stroke="white" stroke-width="1.5" stroke-linejoin="bevel"/>
<path d="M476.01 233.923C477.952 235.863 479.359 238.27 480.096 240.91C480.833 243.551 480.875 246.337 480.217 248.998C477.546 249.644 474.752 249.594 472.106 248.851C469.461 248.108 467.051 246.698 465.11 244.757C463.17 242.816 461.763 240.41 461.027 237.769C460.29 235.128 460.248 232.343 460.905 229.682C463.576 229.035 466.369 229.085 469.015 229.828C471.661 230.571 474.07 231.981 476.01 233.923V233.923Z" stroke="white" stroke-width="1.5" stroke-linejoin="bevel"/>
<path d="M184.412 310.073C181.488 310.062 178.597 309.46 175.914 308.303C173.231 307.146 170.811 305.458 168.8 303.341C168.499 303.656 168.183 303.962 167.872 304.267C165.824 306.192 163.415 307.695 160.784 308.69C158.152 309.686 155.35 310.154 152.537 310.068C149.724 309.982 146.956 309.343 144.39 308.189C141.825 307.035 139.513 305.388 137.587 303.341C137.281 303.656 136.97 303.962 136.659 304.267C134.61 306.192 132.201 307.695 129.57 308.691C126.938 309.686 124.135 310.154 121.322 310.068C118.508 309.982 115.74 309.344 113.174 308.189C110.608 307.035 108.296 305.388 106.37 303.341C106.068 303.656 105.757 303.962 105.441 304.267C101.325 308.139 95.8387 310.227 90.1823 310.076C84.5259 309.924 79.16 307.544 75.259 303.457C74.9897 303.735 74.7111 304.003 74.4232 304.267C72.3751 306.192 69.9665 307.695 67.3351 308.69C64.7038 309.686 61.9014 310.154 59.0884 310.068C56.2754 309.982 53.507 309.343 50.9417 308.189C48.3765 307.035 46.0648 305.388 44.1389 303.341C43.8324 303.656 43.5213 303.962 43.2102 304.267C39.2351 307.99 33.9905 310.069 28.537 310.083" stroke="white" stroke-width="1.5" stroke-linejoin="bevel"/>
<path d="M480.682 303.341C480.381 303.656 480.065 303.962 479.754 304.267C477.707 306.194 475.298 307.698 472.667 308.695C470.035 309.691 467.232 310.159 464.419 310.073C461.605 309.987 458.836 309.348 456.271 308.193C453.706 307.038 451.394 305.389 449.469 303.341C449.163 303.656 448.852 303.962 448.541 304.267C444.566 307.991 439.322 310.072 433.868 310.087" stroke="white" stroke-width="1.5" stroke-linejoin="bevel"/>
<path d="M375.192 304.01C375.192 304.791 374.96 305.555 374.524 306.204C374.089 306.854 373.471 307.36 372.747 307.659C372.023 307.958 371.227 308.036 370.458 307.883C369.69 307.731 368.984 307.355 368.43 306.803C367.876 306.25 367.499 305.546 367.346 304.78C367.194 304.014 367.272 303.22 367.572 302.499C367.872 301.777 368.379 301.16 369.031 300.726C369.682 300.292 370.448 300.061 371.231 300.061C372.282 300.061 373.289 300.477 374.032 301.217C374.775 301.958 375.192 302.962 375.192 304.01Z" stroke="white" stroke-width="1.5" stroke-linejoin="bevel"/>
<path d="M361.68 283.816L359.2 276.964C354.641 279.268 350.676 282.59 347.616 286.672C344.555 290.754 342.481 295.486 341.555 300.498" stroke="white" stroke-width="1.5" stroke-linejoin="bevel"/>
<path d="M153.196 277.979H92.7293" stroke="white" stroke-width="1.5" stroke-linejoin="bevel"/>
<path d="M107.8 240.757C107.805 227.279 113.178 214.354 122.739 204.825C132.299 195.296 145.263 189.943 158.78 189.943" stroke="white" stroke-width="1.5" stroke-linejoin="bevel"/>
<path d="M448.687 241.402C448.687 232.753 446.978 224.189 443.659 216.199C440.339 208.208 435.474 200.948 429.34 194.833C423.207 188.717 415.925 183.866 407.911 180.557C399.897 177.248 391.308 175.545 382.634 175.545" stroke="white" stroke-width="1.5" stroke-linejoin="bevel"/>
<path d="M245.456 175.545C256.997 175.545 268.066 180.117 276.227 188.255C284.389 196.392 288.974 207.429 288.974 218.937" stroke="white" stroke-width="1.5" stroke-linejoin="bevel"/>
<path d="M308.985 249.451H449.448" stroke="white" stroke-width="1.5" stroke-linejoin="bevel"/>
<path d="M422.64 280.977C423.8 282.137 424.64 283.576 425.081 285.154C425.521 286.732 425.545 288.397 425.152 289.987C423.555 290.374 421.885 290.343 420.304 289.899C418.722 289.455 417.282 288.612 416.122 287.452C414.962 286.291 414.122 284.853 413.681 283.274C413.241 281.696 413.216 280.031 413.608 278.44C415.205 278.053 416.876 278.084 418.458 278.528C420.04 278.973 421.48 279.816 422.64 280.977V280.977Z" stroke="white" stroke-width="1.5" stroke-linejoin="bevel"/>
<path d="M403.272 272.934C403.272 273.354 403.397 273.765 403.631 274.114C403.865 274.464 404.198 274.736 404.588 274.897C404.977 275.058 405.406 275.1 405.819 275.018C406.233 274.936 406.612 274.734 406.91 274.436C407.208 274.139 407.411 273.761 407.494 273.348C407.576 272.936 407.534 272.509 407.372 272.12C407.211 271.732 406.938 271.4 406.587 271.167C406.237 270.933 405.825 270.809 405.403 270.809C404.838 270.809 404.296 271.033 403.896 271.431C403.497 271.83 403.272 272.37 403.272 272.934Z" stroke="white" stroke-width="1.5" stroke-linejoin="bevel"/>
<path d="M342.294 189.943H384.934V216.848C384.937 220.08 384 223.244 382.236 225.956C380.473 228.668 377.958 230.811 374.997 232.127L366.314 235.984C363.513 237.229 361.03 239.087 359.047 241.419H308.991" stroke="white" stroke-width="1.5" stroke-linejoin="bevel"/>
<path d="M83.9575 45.146C83.9575 45.9967 84.2105 46.8283 84.6845 47.5356C85.1585 48.2429 85.8322 48.7942 86.6204 49.1198C87.4087 49.4453 88.276 49.5305 89.1128 49.3646C89.9496 49.1986 90.7182 48.7889 91.3215 48.1874C91.9248 47.5859 92.3356 46.8195 92.5021 45.9851C92.6685 45.1507 92.5831 44.2859 92.2566 43.4999C91.9301 42.714 91.3772 42.0422 90.6678 41.5696C89.9584 41.097 89.1244 40.8447 88.2712 40.8447C87.1271 40.8447 86.03 41.2979 85.221 42.1045C84.412 42.9112 83.9575 44.0052 83.9575 45.146Z" stroke="white" stroke-width="1.5" stroke-linejoin="bevel"/>
<path d="M180.148 160.633C178.18 162.591 175.738 164.01 173.06 164.752C170.381 165.494 167.556 165.535 164.857 164.87C164.198 162.175 164.248 159.357 165 156.687C165.752 154.017 167.181 151.586 169.15 149.627C171.119 147.668 173.561 146.249 176.241 145.505C178.92 144.762 181.747 144.719 184.447 145.382C185.107 148.078 185.058 150.899 184.305 153.571C183.552 156.242 182.12 158.675 180.148 160.633V160.633Z" stroke="white" stroke-width="1.5" stroke-linejoin="bevel"/>
<path d="M242.148 58.5992C244.085 60.5421 245.487 62.95 246.219 65.5906C246.951 68.2312 246.988 71.0153 246.327 73.6744C243.656 74.3212 240.862 74.2709 238.217 73.5282C235.571 72.7855 233.161 71.3755 231.221 69.4343C229.281 67.493 227.875 65.0859 227.139 62.4452C226.403 59.8045 226.362 57.0193 227.019 54.3581C229.694 53.7055 232.492 53.753 235.143 54.496C237.793 55.2391 240.206 56.6525 242.148 58.5992V58.5992Z" stroke="white" stroke-width="1.5" stroke-linejoin="bevel"/>
<path d="M246.822 128.013C246.516 128.328 246.204 128.634 245.893 128.939C243.845 130.864 241.436 132.367 238.804 133.363C236.172 134.358 233.37 134.826 230.556 134.74C227.743 134.654 224.974 134.016 222.408 132.861C219.843 131.707 217.531 130.06 215.604 128.013C215.303 128.328 214.991 128.634 214.676 128.939C210.693 132.659 205.441 134.729 199.984 134.731" stroke="white" stroke-width="1.5" stroke-linejoin="bevel"/>
<path d="M141.341 126.781C141.342 127.563 141.11 128.327 140.675 128.977C140.24 129.627 139.622 130.134 138.898 130.434C138.174 130.733 137.377 130.812 136.608 130.659C135.84 130.507 135.133 130.131 134.579 129.578C134.025 129.026 133.648 128.322 133.495 127.555C133.342 126.789 133.421 125.994 133.722 125.272C134.022 124.55 134.53 123.934 135.182 123.5C135.834 123.066 136.601 122.836 137.385 122.836C138.433 122.838 139.439 123.254 140.181 123.993C140.922 124.733 141.34 125.735 141.341 126.781Z" stroke="white" stroke-width="1.5" stroke-linejoin="bevel"/>
<path d="M127.82 106.582L125.341 99.7344C120.781 102.039 116.817 105.362 113.756 109.445C110.695 113.528 108.622 118.26 107.696 123.273" stroke="white" stroke-width="1.5" stroke-linejoin="bevel"/>
<path d="M214.834 66.0751C214.835 57.4263 213.127 48.8621 209.808 40.8715C206.489 32.8808 201.624 25.6203 195.491 19.5045C189.358 13.3886 182.077 8.53724 174.063 5.22734C166.05 1.91745 157.461 0.213867 148.787 0.213867" stroke="white" stroke-width="1.5" stroke-linejoin="bevel"/>
<path d="M231.213 161.984C228.288 161.973 225.396 161.371 222.712 160.213C220.027 159.055 217.607 157.365 215.597 155.247C215.295 155.562 214.979 155.867 214.668 156.173C210.694 159.897 205.449 161.977 199.995 161.993" stroke="white" stroke-width="1.5" stroke-linejoin="bevel"/>
<path d="M188.778 105.648C189.939 106.807 190.78 108.245 191.22 109.824C191.661 111.402 191.684 113.067 191.29 114.658C189.693 115.043 188.024 115.012 186.443 114.567C184.862 114.123 183.423 113.28 182.264 112.12C181.104 110.96 180.264 109.521 179.824 107.943C179.384 106.365 179.359 104.701 179.751 103.111C181.347 102.724 183.017 102.754 184.598 103.199C186.179 103.643 187.619 104.487 188.778 105.648V105.648Z" stroke="white" stroke-width="1.5" stroke-linejoin="bevel"/>
<path d="M169.397 97.611C169.397 98.0313 169.522 98.4422 169.756 98.7917C169.99 99.1411 170.323 99.4135 170.712 99.5744C171.102 99.7352 171.53 99.7773 171.944 99.6953C172.357 99.6133 172.737 99.4109 173.035 99.1137C173.333 98.8165 173.536 98.4378 173.618 98.0256C173.701 97.6133 173.659 97.186 173.497 96.7977C173.336 96.4094 173.063 96.0775 172.712 95.844C172.362 95.6105 171.95 95.4858 171.528 95.4858C170.963 95.4858 170.421 95.7097 170.021 96.1083C169.621 96.5068 169.397 97.0474 169.397 97.611V97.611Z" stroke="white" stroke-width="1.5" stroke-linejoin="bevel"/>
<path d="M108.442 14.6191H151.083V41.5239C151.086 44.756 150.149 47.9198 148.385 50.6316C146.621 53.3435 144.107 55.4871 141.146 56.8027L132.463 60.6595C129.662 61.9046 127.178 63.7624 125.196 66.0951H88.2714" stroke="white" stroke-width="1.5" stroke-linejoin="bevel"/>
<path d="M200.025 189.943H246.408" stroke="white" stroke-width="1.5" stroke-linejoin="bevel"/>
<path d="M400.093 44.9394C400.093 45.7903 400.346 46.6221 400.82 47.3296C401.295 48.037 401.969 48.5883 402.757 48.9137C403.546 49.2391 404.413 49.324 405.25 49.1577C406.087 48.9913 406.856 48.5812 407.459 47.9792C408.062 47.3772 408.472 46.6104 408.638 45.7757C408.804 44.941 408.718 44.0761 408.391 43.2902C408.064 42.5043 407.51 41.8329 406.8 41.3608C406.09 40.8888 405.255 40.6373 404.402 40.6382C403.836 40.6382 403.275 40.7495 402.752 40.9657C402.229 41.1819 401.754 41.4988 401.353 41.8983C400.953 42.2977 400.636 42.7719 400.42 43.2938C400.203 43.8156 400.092 44.3748 400.093 44.9394Z" stroke="white" stroke-width="1.5" stroke-linejoin="bevel"/>
<path d="M362.525 66.4241V53.7056H338.04V66.4287C338.04 67.9554 338.484 69.4494 339.318 70.7297C340.152 72.01 341.34 73.0217 342.739 73.6422L346.844 75.4664C348.169 76.0556 349.344 76.9356 350.28 78.0407" stroke="white" stroke-width="1.5" stroke-linejoin="bevel"/>
<path d="M407.915 118.438V130.976C407.915 134.476 408.933 137.902 410.845 140.838C412.757 143.774 415.481 146.094 418.688 147.519L428.095 151.686C431.137 153.034 433.836 155.048 435.989 157.58C438.142 155.048 440.841 153.034 443.883 151.686L453.29 147.519C456.497 146.094 459.221 143.774 461.133 140.838C463.045 137.902 464.063 134.476 464.063 130.976V101.807H391.533" stroke="white" stroke-width="1.5" stroke-linejoin="bevel"/>
<path d="M367.281 160.423C369.249 162.381 371.691 163.8 374.369 164.543C377.047 165.286 379.873 165.328 382.572 164.664C383.229 161.971 383.178 159.154 382.426 156.485C381.673 153.816 380.243 151.386 378.274 149.429C376.305 147.472 373.864 146.054 371.185 145.311C368.506 144.569 365.681 144.527 362.981 145.191C362.324 147.884 362.374 150.701 363.127 153.369C363.881 156.038 365.311 158.467 367.281 160.423V160.423Z" stroke="white" stroke-width="1.5" stroke-linejoin="bevel"/>
<path d="M433.243 58.388C435.186 60.3276 436.594 62.7343 437.331 65.3751C438.068 68.016 438.109 70.8018 437.45 73.4632C434.781 74.1094 431.99 74.0594 429.346 73.3182C426.702 72.5769 424.294 71.1693 422.354 69.231C420.414 67.2926 419.007 64.8888 418.268 62.251C417.53 59.6131 417.485 56.8302 418.138 54.1701C420.807 53.5183 423.6 53.5641 426.246 54.303C428.892 55.0418 431.302 56.4489 433.243 58.388Z" stroke="white" stroke-width="1.5" stroke-linejoin="bevel"/>
<path d="M375.913 134.542C372.987 134.529 370.095 133.923 367.412 132.762C364.728 131.601 362.309 129.908 360.301 127.787C360 128.102 359.684 128.408 359.373 128.713C357.326 130.639 354.917 132.144 352.286 133.14C349.654 134.137 346.851 134.605 344.038 134.519C341.224 134.433 338.455 133.794 335.89 132.639C333.325 131.484 331.013 129.835 329.088 127.787C328.782 128.102 328.471 128.408 328.16 128.713C326.112 130.639 323.703 132.143 321.071 133.139C318.439 134.135 315.636 134.604 312.823 134.518C310.009 134.432 307.24 133.793 304.674 132.638C302.108 131.483 299.796 129.835 297.871 127.787C297.561 128.096 297.252 128.404 296.942 128.713C294.894 130.639 292.485 132.143 289.854 133.139C287.222 134.135 284.419 134.604 281.605 134.518C278.791 134.432 276.022 133.793 273.456 132.638C270.891 131.483 268.579 129.835 266.653 127.787" stroke="white" stroke-width="1.5" stroke-linejoin="bevel"/>
<path d="M327.713 87.6802H299.291" stroke="white" stroke-width="1.5" stroke-linejoin="bevel"/>
<path d="M344.696 102.441H282.432" stroke="white" stroke-width="1.5" stroke-linejoin="bevel"/>
<path d="M436.955 0C448.497 0 459.566 4.57165 467.727 12.7092C475.888 20.8468 480.473 31.8838 480.473 43.392" stroke="white" stroke-width="1.5" stroke-linejoin="bevel"/>
<path d="M391.533 14.4141H437.916" stroke="white" stroke-width="1.5" stroke-linejoin="bevel"/>
<path d="M28.272 240.76C28.2707 229.917 24.7941 219.359 18.3494 210.626C11.9047 201.893 2.82941 195.442 -7.55195 192.215" stroke="white" stroke-width="1.5" stroke-linejoin="bevel"/>
<path d="M8.46813 274.508C8.4685 271.575 7.3249 268.756 5.27907 266.648C3.23324 264.539 0.445446 263.307 -2.49502 263.211H-7.6306V276.953C-7.6306 282.521 -5.412 287.862 -1.46289 291.8C2.48623 295.737 7.84236 297.95 13.4273 297.95C19.0121 297.95 24.3683 295.737 28.3174 291.8C32.2665 287.862 34.4851 282.521 34.4851 276.953" stroke="white" stroke-width="1.5" stroke-linejoin="bevel"/>
<path d="M34.4842 263.211H75.3369V277.981" stroke="white" stroke-width="1.5" stroke-linejoin="bevel"/>
<path d="M13.1316 48.1903C13.1319 43.2822 11.2186 38.5662 7.79607 35.0386C4.37354 31.5111 -0.290229 29.4483 -5.2099 29.2861H-13.8049V52.2832C-13.8049 61.6008 -10.0927 70.5368 -3.485 77.1254C3.12269 83.7139 12.0847 87.4153 21.4293 87.4153C30.774 87.4153 39.736 83.7139 46.3437 77.1254C52.9514 70.5368 56.6636 61.6008 56.6636 52.2832" stroke="white" stroke-width="1.5" stroke-linejoin="bevel"/>
<path d="M57.6687 159.467L42.833 166.055C38.0462 168.18 33.8019 171.355 30.4166 175.343L30.4769 175.547H75.3369V220.156" stroke="white" stroke-width="1.5" stroke-linejoin="bevel"/>
<path d="M-138.709 114.089C-136.784 116.137 -134.472 117.785 -131.906 118.94C-129.34 120.095 -126.571 120.734 -123.758 120.82C-120.944 120.906 -118.141 120.438 -115.509 119.441C-112.877 118.445 -110.468 116.941 -108.421 115.015C-108.111 114.707 -107.801 114.398 -107.492 114.089C-105.566 116.137 -103.254 117.785 -100.689 118.94C-98.1228 120.095 -95.3538 120.734 -92.5401 120.82C-89.7263 120.906 -86.9232 120.438 -84.2914 119.441C-81.6595 118.445 -79.2507 116.941 -77.2028 115.015C-76.8824 114.719 -76.5713 114.413 -76.2741 114.089C-74.3492 116.137 -72.0378 117.786 -69.4725 118.941C-66.9072 120.097 -64.1383 120.735 -61.3248 120.821C-58.5113 120.908 -55.7084 120.439 -53.0769 119.443C-50.4454 118.446 -48.037 116.942 -45.9898 115.015C-45.6694 114.719 -45.3537 114.413 -45.0612 114.089C-43.1355 116.137 -40.8236 117.785 -38.2579 118.94C-35.6922 120.095 -32.9231 120.734 -30.1094 120.82C-27.2957 120.906 -24.4926 120.438 -21.8607 119.441C-19.2289 118.445 -16.82 116.941 -14.7722 115.015C-14.4518 114.719 -14.1407 114.413 -13.8435 114.089V133.392C-13.8429 138.912 -12.236 144.314 -9.21785 148.943C-6.19967 153.571 -1.89975 157.227 3.16064 159.468" stroke="white" stroke-width="1.5" stroke-linejoin="bevel"/>
<path d="M226.972 223.725C226.973 218.818 225.06 214.103 221.638 210.577C218.216 207.05 213.554 204.988 208.635 204.826H200.041V227.823C199.987 232.47 200.859 237.082 202.605 241.391C204.352 245.7 206.939 249.62 210.215 252.925C213.492 256.23 217.394 258.854 221.695 260.645C225.997 262.436 230.611 263.358 235.272 263.358C239.933 263.358 244.548 262.436 248.849 260.645C253.15 258.854 257.052 256.23 260.329 252.925C263.606 249.62 266.193 245.7 267.939 241.391C269.686 237.082 270.558 232.47 270.504 227.823" stroke="white" stroke-width="1.5" stroke-linejoin="bevel"/>
<path d="M288.974 241.402V175.545H179.826" stroke="white" stroke-width="1.5" stroke-linejoin="bevel"/>
<path d="M179.826 242.977V221.096H137.719V242.977C137.719 245.604 138.482 248.175 139.917 250.378C141.352 252.581 143.396 254.322 145.803 255.39L152.861 258.529C155.141 259.54 157.162 261.052 158.772 262.951H288.486V308.922C288.486 314.44 286.882 319.84 283.869 324.468C280.855 329.096 276.56 332.753 271.505 334.998L256.688 341.586C251.901 343.712 247.657 346.886 244.272 350.874C240.886 346.886 236.642 343.712 231.855 341.586L216.996 334.998C211.946 332.749 207.656 329.09 204.647 324.462C201.637 319.835 200.037 314.437 200.038 308.922V289.62C199.732 289.935 199.421 290.24 199.11 290.546C197.061 292.471 194.652 293.974 192.021 294.969C189.389 295.964 186.586 296.432 183.773 296.346C180.959 296.26 178.19 295.622 175.625 294.468C173.059 293.314 170.747 291.666 168.821 289.62C168.519 289.935 168.203 290.24 167.892 290.546C165.844 292.47 163.435 293.973 160.804 294.969C158.173 295.964 155.37 296.432 152.557 296.346C149.744 296.26 146.976 295.622 144.411 294.467C141.845 293.313 139.534 291.666 137.608 289.62C137.301 289.935 136.99 290.24 136.679 290.546C134.631 292.471 132.222 293.974 129.59 294.969C126.958 295.964 124.155 296.432 121.342 296.346C118.529 296.26 115.76 295.622 113.194 294.468C110.629 293.314 108.316 291.666 106.39 289.62C106.088 289.935 105.773 290.24 105.461 290.546C101.356 294.407 95.8873 296.494 90.2457 296.354C84.6041 296.213 79.2465 293.856 75.3396 289.796C75.0518 290.097 74.7499 290.388 74.4435 290.671C72.3954 292.595 69.9868 294.098 67.3554 295.094C64.7241 296.089 61.9217 296.557 59.1087 296.471C56.2957 296.385 53.5273 295.747 50.9621 294.592C48.3968 293.438 46.0851 291.791 44.1591 289.745" stroke="white" stroke-width="1.5" stroke-linejoin="bevel"/>
<path d="M356.373 301.121C357.801 297.477 360.269 294.33 363.472 292.069C366.675 289.808 370.472 288.534 374.394 288.403H383.458V312.715C383.513 317.626 382.59 322.5 380.743 327.053C378.896 331.607 376.162 335.75 372.698 339.242C369.234 342.735 365.11 345.507 360.564 347.4C356.019 349.292 351.141 350.266 346.215 350.266C341.289 350.266 336.412 349.292 331.866 347.4C327.321 345.507 323.196 342.735 319.733 339.242C316.269 335.75 313.535 331.607 311.688 327.053C309.841 322.5 308.918 317.626 308.973 312.715" stroke="white" stroke-width="1.5" stroke-linejoin="bevel"/>
<path d="M356.37 315.271L329.563 288.546C326.541 292.412 324.365 296.865 323.173 301.62C321.982 306.375 321.802 311.326 322.645 316.154C323.489 320.982 325.336 325.581 328.07 329.655C330.803 333.728 334.361 337.185 338.516 339.805" stroke="white" stroke-width="1.5" stroke-linejoin="bevel"/>
<path d="M136.212 263.211H92.7217" stroke="white" stroke-width="1.5" stroke-linejoin="bevel"/>
<path d="M92.7324 241.402C92.7324 223.936 99.691 207.185 112.077 194.834C124.464 182.484 141.263 175.545 158.78 175.545" stroke="white" stroke-width="1.5" stroke-linejoin="bevel"/>
<path d="M433.608 240.76C433.607 229.917 430.13 219.359 423.686 210.626C417.241 201.893 408.166 195.442 397.784 192.215" stroke="white" stroke-width="1.5" stroke-linejoin="bevel"/>
<path d="M153.196 323.793C150.272 323.783 147.38 323.181 144.697 322.023C142.013 320.865 139.594 319.175 137.585 317.057C137.278 317.371 136.967 317.677 136.656 317.983C134.608 319.909 132.199 321.413 129.567 322.409C126.936 323.405 124.133 323.873 121.319 323.787C118.505 323.701 115.736 323.062 113.17 321.907C110.605 320.753 108.293 319.104 106.367 317.057C106.065 317.371 105.754 317.677 105.438 317.983C101.371 321.819 95.9557 323.911 90.3577 323.806C84.7597 323.701 79.4268 321.409 75.5069 317.422C71.5871 321.409 66.2541 323.701 60.6561 323.806C55.0581 323.911 49.6427 321.819 45.5755 317.983C45.2551 317.686 44.944 317.381 44.6468 317.057C42.6374 319.175 40.2177 320.864 37.5343 322.022C34.8509 323.18 31.9596 323.782 29.0357 323.793" stroke="white" stroke-width="1.5" stroke-linejoin="bevel"/>
<path d="M383.453 350.875H481.178V317.076C479.253 319.124 476.942 320.773 474.377 321.928C471.811 323.083 469.042 323.722 466.229 323.808C463.415 323.894 460.612 323.426 457.981 322.429C455.349 321.433 452.941 319.929 450.894 318.002C450.574 317.706 450.262 317.4 449.965 317.076C447.956 319.194 445.536 320.883 442.853 322.041C440.169 323.199 437.278 323.802 434.354 323.813" stroke="white" stroke-width="1.5" stroke-linejoin="bevel"/>
<path d="M309.001 263.211H383.486" stroke="white" stroke-width="1.5" stroke-linejoin="bevel"/>
<path d="M413.805 274.508C413.806 271.575 412.663 268.757 410.618 266.649C408.573 264.541 405.787 263.308 402.847 263.211H397.707V276.953C397.707 282.521 399.925 287.862 403.874 291.8C407.824 295.737 413.18 297.95 418.765 297.95C424.35 297.95 429.706 295.737 433.655 291.8C437.604 287.862 439.823 282.521 439.823 276.953" stroke="white" stroke-width="1.5" stroke-linejoin="bevel"/>
<path d="M439.827 263.211H480.689V289.75C480.387 290.065 480.076 290.37 479.761 290.676C477.712 292.601 475.304 294.104 472.672 295.099C470.041 296.094 467.239 296.562 464.426 296.476C461.613 296.39 458.844 295.752 456.279 294.598C453.714 293.443 451.402 291.796 449.476 289.75" stroke="white" stroke-width="1.5" stroke-linejoin="bevel"/>
<path d="M342.161 208.27V215.724C342.162 217.804 342.767 219.838 343.902 221.583C345.038 223.327 346.655 224.706 348.56 225.554L354.132 228.035C355.948 228.832 357.559 230.029 358.845 231.536C360.112 230.039 361.699 228.843 363.488 228.035L369.084 225.554C370.988 224.706 372.606 223.327 373.741 221.583C374.877 219.838 375.481 217.804 375.482 215.724V198.394H308.993V175.545H358.585" stroke="white" stroke-width="1.5" stroke-linejoin="bevel"/>
<path d="M122.495 123.897C123.921 120.252 126.388 117.105 129.59 114.844C132.793 112.583 136.59 111.309 140.511 111.179H149.617V135.491C149.508 145.268 145.536 154.607 138.563 161.482C131.591 168.357 122.181 172.213 112.375 172.213C102.569 172.213 93.1585 168.357 86.1861 161.482C79.2137 154.607 75.2417 145.268 75.1322 135.491" stroke="white" stroke-width="1.5" stroke-linejoin="bevel"/>
<path d="M122.493 138.048L95.6914 111.324C92.6715 115.19 90.4964 119.643 89.3057 124.397C88.1151 129.151 87.9354 134.102 88.7781 138.929C89.6209 143.757 91.4674 148.355 94.199 152.429C96.9307 156.502 100.487 159.961 104.639 162.582" stroke="white" stroke-width="1.5" stroke-linejoin="bevel"/>
<path d="M199.756 65.45C199.755 54.6079 196.279 44.0499 189.835 35.3168C183.391 26.5837 174.317 20.1325 163.936 16.9048" stroke="white" stroke-width="1.5" stroke-linejoin="bevel"/>
<path d="M215.597 74.1206H75.1335V0.00878906H-15.4919" stroke="white" stroke-width="1.5" stroke-linejoin="bevel"/>
<path d="M179.945 99.1785C179.946 96.2454 178.804 93.4266 176.759 91.3184C174.714 89.2101 171.926 87.9775 168.986 87.8813H163.846V101.623C163.846 104.38 164.391 107.111 165.449 109.658C166.507 112.206 168.058 114.52 170.014 116.47C171.969 118.42 174.291 119.966 176.846 121.022C179.4 122.077 182.139 122.62 184.904 122.62C187.669 122.62 190.408 122.077 192.963 121.022C195.517 119.966 197.839 118.42 199.794 116.47C201.75 114.52 203.301 112.206 204.359 109.658C205.417 107.111 205.962 104.38 205.962 101.623" stroke="white" stroke-width="1.5" stroke-linejoin="bevel"/>
<path d="M205.96 87.8813H246.822V114.42C246.516 114.735 246.204 115.041 245.893 115.346C243.845 117.271 241.436 118.774 238.804 119.77C236.172 120.765 233.37 121.233 230.556 121.147C227.743 121.061 224.974 120.423 222.408 119.268C219.843 118.114 217.531 116.467 215.604 114.42" stroke="white" stroke-width="1.5" stroke-linejoin="bevel"/>
<path d="M205.965 0.00878906H246.822V44.8268" stroke="white" stroke-width="1.5" stroke-linejoin="bevel"/>
<path d="M108.307 32.9411V40.3954C108.307 42.4751 108.912 44.5102 110.048 46.254C111.185 47.9979 112.804 49.3756 114.71 50.2202L120.282 52.7065C122.087 53.5064 123.687 54.703 124.963 56.2067C126.239 54.703 127.839 53.5064 129.644 52.7065L135.216 50.2202C137.12 49.3744 138.739 47.9963 139.874 46.2526C141.01 44.5089 141.614 42.4745 141.614 40.3954V23.0654H88.215" stroke="white" stroke-width="1.5" stroke-linejoin="bevel"/>
<path d="M418.465 48.1903C418.466 43.2829 416.553 38.5676 413.131 35.0402C409.71 31.5128 405.047 29.4495 400.128 29.2861H391.533V52.2832C391.48 56.9304 392.352 61.5421 394.098 65.851C395.845 70.16 398.431 74.0806 401.708 77.3857C404.985 80.6908 408.887 83.3148 413.188 85.1057C417.49 86.8965 422.104 87.8187 426.765 87.8187C431.426 87.8187 436.041 86.8965 440.342 85.1057C444.643 83.3148 448.545 80.6908 451.822 77.3857C455.099 74.0806 457.686 70.16 459.432 65.851C461.179 61.5421 462.051 56.9304 461.997 52.2832" stroke="white" stroke-width="1.5" stroke-linejoin="bevel"/>
<path d="M480.473 65.87V0.00878906H389.848" stroke="white" stroke-width="1.5" stroke-linejoin="bevel"/>
<path d="M371.334 67.4498V45.564H329.222V67.4498C329.223 70.0766 329.986 72.647 331.421 74.85C332.856 77.053 334.9 78.7942 337.307 79.8628L344.365 82.9973C346.643 84.0094 348.664 85.5208 350.276 87.4189H479.994V133.39C479.994 138.908 478.39 144.307 475.377 148.935C472.363 153.563 468.068 157.221 463.013 159.466L448.154 166.054C443.367 168.179 439.123 171.354 435.738 175.342L435.798 175.546H480.681V220.155" stroke="white" stroke-width="1.5" stroke-linejoin="bevel"/>
<path d="M266.632 114.089C268.558 116.137 270.87 117.785 273.436 118.94C276.001 120.095 278.77 120.734 281.584 120.82C284.398 120.906 287.201 120.438 289.833 119.441C292.465 118.445 294.873 116.941 296.921 115.015C297.231 114.707 297.54 114.398 297.85 114.089C299.776 116.137 302.088 117.785 304.653 118.94C307.219 120.095 309.988 120.734 312.802 120.82C315.615 120.906 318.419 120.438 321.05 119.441C323.682 118.445 326.091 116.941 328.139 115.015C328.459 114.719 328.77 114.413 329.068 114.089C330.993 116.137 333.304 117.786 335.869 118.941C338.435 120.097 341.203 120.735 344.017 120.821C346.83 120.908 349.633 120.439 352.265 119.443C354.896 118.446 357.305 116.942 359.352 115.015C359.672 114.719 359.988 114.413 360.281 114.089C362.206 116.137 364.518 117.785 367.084 118.94C369.65 120.095 372.419 120.734 375.232 120.82C378.046 120.906 380.849 120.438 383.481 119.441C386.113 118.445 388.522 116.941 390.57 115.015C390.89 114.719 391.201 114.413 391.498 114.089V133.392C391.501 138.916 393.112 144.32 396.136 148.948C399.159 153.577 403.465 157.231 408.53 159.468" stroke="white" stroke-width="1.5" stroke-linejoin="bevel"/>
<path d="M266.63 0.00878906V87.4179" stroke="white" stroke-width="1.5" stroke-linejoin="bevel"/>
<path d="M344.696 161.987H247.328V141.736C245.403 143.783 243.091 145.432 240.525 146.587C237.959 147.742 235.19 148.38 232.376 148.466C229.563 148.552 226.76 148.084 224.128 147.088C221.496 146.092 219.087 144.588 217.039 142.662C216.719 142.366 216.408 142.06 216.11 141.736C214.103 143.853 211.685 145.542 209.003 146.7C206.321 147.858 203.431 148.461 200.509 148.472" stroke="white" stroke-width="1.5" stroke-linejoin="bevel"/>
<path d="M266.625 141.526C268.551 143.574 270.863 145.222 273.428 146.377C275.994 147.532 278.763 148.171 281.577 148.257C284.39 148.343 287.194 147.875 289.825 146.878C292.457 145.882 294.866 144.378 296.914 142.452C297.223 142.144 297.533 141.835 297.843 141.526C299.768 143.574 302.08 145.222 304.646 146.377C307.212 147.532 309.981 148.171 312.794 148.257C315.608 148.343 318.411 147.875 321.043 146.878C323.675 145.882 326.084 144.378 328.132 142.452C328.452 142.156 328.763 141.85 329.06 141.526C331.07 143.644 333.489 145.333 336.173 146.491C338.856 147.649 341.747 148.252 344.671 148.263" stroke="white" stroke-width="1.5" stroke-linejoin="bevel"/>
<path d="M299.284 65.2465C299.284 58.5709 300.602 51.9606 303.164 45.793C305.725 39.6255 309.48 34.0215 314.215 29.3012C318.949 24.5808 324.569 20.8366 330.754 18.2822C336.94 15.7279 343.569 14.4135 350.264 14.4141" stroke="white" stroke-width="1.5" stroke-linejoin="bevel"/>
<path d="M284.216 65.8705C284.214 57.2209 285.922 48.6557 289.24 40.664C292.558 32.6723 297.423 25.4107 303.556 19.2939C309.69 13.177 316.971 8.32484 324.986 5.01437C333 1.70389 341.589 -1.92382e-07 350.264 0" stroke="white" stroke-width="1.5" stroke-linejoin="bevel"/>
<path d="M74.6667 108.883V87.4188H-55.0701C-56.6822 85.5207 -58.7026 84.0094 -60.9812 82.9972L-68.0391 79.8627C-70.4457 78.7941 -72.4901 77.053 -73.9248 74.85C-75.3596 72.647 -76.1232 70.0766 -76.1233 67.4498V45.564H-34.0123V67.4498" stroke="white" stroke-width="1.5" stroke-linejoin="bevel"/>
</g>
</g>
<defs>
<clipPath id="clip0_1143_18354">
<rect width="946" height="365" rx="182.5" transform="matrix(-1 0 0 1 467 0)" fill="white"/>
</clipPath>
</defs>
</svg>
