<svg width="982" height="303" viewBox="0 0 982 303" fill="none" xmlns="http://www.w3.org/2000/svg">
<g opacity="0.1">
<g clip-path="url(#clip0_887_9071)">
<path d="M95.9202 294.164C95.919 295.3 96.2557 296.41 96.8877 297.354C97.5198 298.299 98.4187 299.036 99.4708 299.471C100.523 299.906 101.681 300.021 102.799 299.8C103.916 299.579 104.943 299.033 105.749 298.231C106.555 297.428 107.104 296.406 107.326 295.292C107.549 294.179 107.435 293.025 107 291.976C106.564 290.927 105.826 290.03 104.879 289.399C103.932 288.768 102.818 288.432 101.679 288.432C100.153 288.432 98.6889 289.035 97.6091 290.11C96.5293 291.185 95.9219 292.643 95.9202 294.164V294.164Z" stroke="#28357C" stroke-width="1.5" stroke-linejoin="bevel"/>
<path d="M241.752 295.115C241.242 291.986 243.374 289.038 246.513 288.53C249.653 288.023 252.611 290.147 253.12 293.276C253.63 296.404 251.498 299.352 248.359 299.86C245.219 300.368 242.261 298.243 241.752 295.115Z" stroke="#28357C" stroke-width="1.5" stroke-linejoin="bevel"/>
<path d="M-38.6321 321.236C-38.6305 303.248 -31.4598 285.998 -18.6972 273.279C-5.93454 260.56 11.3748 253.414 29.4238 253.413" stroke="#28357C" stroke-width="1.5" stroke-linejoin="bevel"/>
<path d="M416.444 322.092C416.444 310.552 414.163 299.126 409.732 288.464C405.301 277.803 398.806 268.116 390.617 259.957C382.429 251.797 372.709 245.325 362.011 240.91C351.313 236.494 339.847 234.222 328.267 234.223" stroke="#28357C" stroke-width="1.5" stroke-linejoin="bevel"/>
<path d="M145.131 234.223C160.539 234.223 175.315 240.323 186.21 251.18C197.105 262.038 203.226 276.764 203.226 292.119" stroke="#28357C" stroke-width="1.5" stroke-linejoin="bevel"/>
<path d="M274.42 253.432H331.343V289.33C331.347 293.642 330.096 297.864 327.742 301.482C325.387 305.1 322.03 307.96 318.077 309.716L306.486 314.862C302.747 316.523 299.431 319.002 296.785 322.114H229.962" stroke="#28357C" stroke-width="1.5" stroke-linejoin="bevel"/>
<path d="M57.9595 214.324C55.3324 216.937 52.0734 218.83 48.4976 219.82C44.9217 220.81 41.15 220.864 37.5471 219.977C36.6681 216.382 36.7337 212.621 37.7376 209.059C38.7416 205.497 40.6498 202.252 43.2784 199.639C45.9069 197.026 49.167 195.131 52.744 194.139C56.321 193.147 60.0943 193.091 63.6996 193.975C64.5807 197.573 64.5154 201.336 63.5098 204.901C62.5042 208.465 60.5925 211.711 57.9595 214.324Z" stroke="#28357C" stroke-width="1.5" stroke-linejoin="bevel"/>
<path d="M140.714 78.1863C143.3 80.7786 145.171 83.9914 146.149 87.5145C147.126 91.0377 147.175 94.7524 146.293 98.3002C142.727 99.1633 138.998 99.0962 135.466 98.1052C131.934 97.1143 128.717 95.2331 126.127 92.6429C123.537 90.0528 121.66 86.8412 120.677 83.3178C119.695 79.7945 119.64 76.0783 120.518 72.5277C124.088 71.6568 127.824 71.7202 131.362 72.7116C134.901 73.7031 138.122 75.5889 140.714 78.1863V78.1863Z" stroke="#28357C" stroke-width="1.5" stroke-linejoin="bevel"/>
<path d="M146.954 170.801C146.545 171.221 146.13 171.629 145.714 172.036C142.98 174.604 139.764 176.61 136.251 177.938C132.737 179.266 128.996 179.891 125.24 179.776C121.484 179.661 117.788 178.809 114.363 177.269C110.938 175.729 107.851 173.531 105.28 170.801C104.877 171.221 104.462 171.629 104.04 172.036C98.7343 177.004 91.7325 179.778 84.4521 179.795" stroke="#28357C" stroke-width="1.5" stroke-linejoin="bevel"/>
<path d="M6.14257 169.159C6.1438 170.202 5.83453 171.222 5.254 172.089C4.67347 172.957 3.84777 173.633 2.88135 174.033C1.91493 174.432 0.851291 174.537 -0.174966 174.334C-1.20122 174.131 -2.14397 173.629 -2.88381 172.892C-3.62366 172.154 -4.12737 171.215 -4.3312 170.192C-4.53502 169.169 -4.42979 168.109 -4.02883 167.146C-3.62786 166.183 -2.94918 165.36 -2.0787 164.782C-1.20822 164.203 -0.185066 163.895 0.861234 163.896C2.26143 163.898 3.60379 164.453 4.59387 165.44C5.58396 166.426 6.14093 167.764 6.14257 169.159V169.159Z" stroke="#28357C" stroke-width="1.5" stroke-linejoin="bevel"/>
<path d="M104.252 88.1596C104.253 76.6199 101.973 65.1932 97.5421 54.5317C93.1114 43.8702 86.617 34.1829 78.4295 26.0228C70.242 17.8628 60.5218 11.3899 49.824 6.97364C39.1262 2.55742 27.6603 0.284424 16.081 0.284424" stroke="#28357C" stroke-width="1.5" stroke-linejoin="bevel"/>
<path d="M126.118 216.125C122.214 216.111 118.353 215.307 114.77 213.762C111.187 212.217 107.955 209.963 105.272 207.137C104.869 207.557 104.454 207.965 104.032 208.372C98.7269 213.342 91.7251 216.118 84.444 216.137" stroke="#28357C" stroke-width="1.5" stroke-linejoin="bevel"/>
<path d="M-82.2434 98.8943H105.269" stroke="#28357C" stroke-width="1.5" stroke-linejoin="bevel"/>
<path d="M69.4815 140.96C71.0317 142.506 72.1551 144.425 72.7426 146.532C73.3301 148.638 73.3619 150.859 72.835 152.981C70.7038 153.495 68.4757 153.454 66.3653 152.861C64.2549 152.267 62.3334 151.143 60.7857 149.595C59.238 148.047 58.1164 146.128 57.5289 144.022C56.9413 141.917 56.9077 139.697 57.4312 137.575C59.5623 137.058 61.791 137.099 63.9019 137.692C66.0129 138.285 67.9346 139.41 69.4815 140.96V140.96Z" stroke="#28357C" stroke-width="1.5" stroke-linejoin="bevel"/>
<path d="M43.6299 130.238C43.6299 130.798 43.7967 131.347 44.1094 131.813C44.422 132.279 44.8664 132.643 45.3863 132.857C45.9062 133.072 46.4783 133.128 47.0302 133.019C47.5821 132.909 48.0891 132.639 48.487 132.243C48.8849 131.846 49.1559 131.341 49.2656 130.791C49.3754 130.241 49.3191 129.671 49.1037 129.152C48.8884 128.634 48.5238 128.192 48.0559 127.88C47.588 127.568 47.0378 127.402 46.4751 127.402C45.7205 127.402 44.9968 127.701 44.4632 128.233C43.9296 128.764 43.6299 129.486 43.6299 130.238V130.238Z" stroke="#28357C" stroke-width="1.5" stroke-linejoin="bevel"/>
<path d="M-37.7863 19.5039H19.1367V55.4014C19.1417 59.7141 17.8911 63.9356 15.5365 67.5541C13.1819 71.1725 9.8245 74.0325 5.87138 75.7872L-5.72024 80.9331C-9.45907 82.5944 -12.7747 85.0732 -15.4213 88.1855H-82.2437" stroke="#28357C" stroke-width="1.5" stroke-linejoin="bevel"/>
<path d="M84.4938 253.432H146.413" stroke="#28357C" stroke-width="1.5" stroke-linejoin="bevel"/>
<path d="M352.006 62.1665C350.789 59.2382 352.185 55.8812 355.123 54.6683C358.061 53.4553 361.43 54.8458 362.647 57.7741C363.864 60.7023 362.469 64.0594 359.53 65.2724C356.592 66.4853 353.223 65.0947 352.006 62.1665Z" stroke="#28357C" stroke-width="1.5" stroke-linejoin="bevel"/>
<path d="M301.422 88.6271V71.6575H268.736V88.6333C268.736 90.6703 269.328 92.6636 270.442 94.3718C271.555 96.0801 273.142 97.4299 275.009 98.2579L280.47 100.692C282.239 101.478 283.807 102.652 285.057 104.126" stroke="#28357C" stroke-width="1.5" stroke-linejoin="bevel"/>
<path d="M362.005 158.028V174.756C362.005 179.427 363.364 183.997 365.916 187.915C368.468 191.832 372.105 194.928 376.386 196.829L388.944 202.389C393.006 204.187 396.608 206.875 399.482 210.252C402.358 206.876 405.96 204.188 410.02 202.389L422.585 196.829C426.865 194.927 430.5 191.83 433.051 187.913C435.602 183.996 436.96 179.426 436.96 174.756V135.838H340.185" stroke="#28357C" stroke-width="1.5" stroke-linejoin="bevel"/>
<path d="M307.754 214.044C310.381 216.656 313.64 218.549 317.216 219.54C320.791 220.531 324.563 220.587 328.166 219.702C329.042 216.111 328.974 212.355 327.97 208.797C326.966 205.24 325.06 201.999 322.435 199.389C319.809 196.778 316.554 194.885 312.982 193.892C309.409 192.899 305.641 192.84 302.039 193.72C301.158 197.311 301.221 201.069 302.222 204.629C303.223 208.189 305.128 211.432 307.754 214.044V214.044Z" stroke="#28357C" stroke-width="1.5" stroke-linejoin="bevel"/>
<path d="M395.82 77.9045C398.414 80.4925 400.293 83.7035 401.277 87.2271C402.261 90.7506 402.316 94.4676 401.436 98.0185C397.873 98.8807 394.147 98.814 390.618 97.825C387.088 96.836 383.873 94.9579 381.283 92.3717C378.693 89.7854 376.815 86.5781 375.829 83.0586C374.843 79.5391 374.784 75.826 375.656 72.2768C379.219 71.4072 382.947 71.4682 386.479 72.4541C390.011 73.4399 393.229 75.3172 395.82 77.9045V77.9045Z" stroke="#28357C" stroke-width="1.5" stroke-linejoin="bevel"/>
<path d="M319.285 179.514C315.38 179.496 311.519 178.688 307.937 177.139C304.355 175.589 301.125 173.331 298.445 170.501C298.042 170.921 297.621 171.329 297.205 171.736C294.472 174.307 291.257 176.314 287.744 177.643C284.231 178.973 280.49 179.598 276.734 179.483C272.978 179.368 269.282 178.516 265.857 176.974C262.432 175.433 259.347 173.233 256.777 170.501C256.368 170.921 255.953 171.329 255.537 171.736C252.804 174.307 249.589 176.314 246.076 177.643C242.563 178.973 238.822 179.598 235.066 179.483C231.31 179.368 227.614 178.516 224.189 176.974C220.764 175.433 217.679 173.233 215.109 170.501C214.7 170.921 214.285 171.329 213.869 171.736C211.136 174.306 207.92 176.313 204.407 177.642C200.893 178.971 197.151 179.596 193.395 179.481C189.639 179.366 185.942 178.514 182.517 176.973C179.092 175.432 176.006 173.233 173.435 170.501" stroke="#28357C" stroke-width="1.5" stroke-linejoin="bevel"/>
<path d="M254.941 116.986H216.999" stroke="#28357C" stroke-width="1.5" stroke-linejoin="bevel"/>
<path d="M277.603 136.68H194.484" stroke="#28357C" stroke-width="1.5" stroke-linejoin="bevel"/>
<path d="M217 87.0546C217 69.0669 224.17 51.8158 236.933 39.0966C249.696 26.3773 267.006 19.2317 285.056 19.2317" stroke="#28357C" stroke-width="1.5" stroke-linejoin="bevel"/>
<path d="M400.777 0C408.407 -1.73144e-07 415.962 1.49793 423.011 4.40823C430.06 7.31853 436.465 11.5842 441.86 16.9616C447.255 22.339 451.534 28.7229 454.452 35.7485C457.371 42.7742 458.873 50.304 458.871 57.908" stroke="#28357C" stroke-width="1.5" stroke-linejoin="bevel"/>
<path d="M340.138 19.2317H402.058" stroke="#28357C" stroke-width="1.5" stroke-linejoin="bevel"/>
<path d="M637.038 294.164C637.037 295.3 637.374 296.41 638.006 297.355C638.639 298.3 639.538 299.036 640.59 299.471C641.643 299.907 642.801 300.021 643.919 299.799C645.037 299.578 646.063 299.032 646.869 298.229C647.675 297.426 648.223 296.402 648.445 295.289C648.667 294.175 648.553 293.02 648.116 291.972C647.679 290.923 646.94 290.026 645.992 289.396C645.045 288.766 643.93 288.43 642.791 288.432C641.265 288.432 639.802 289.036 638.723 290.111C637.644 291.186 637.038 292.644 637.038 294.164V294.164Z" stroke="#28357C" stroke-width="1.5" stroke-linejoin="bevel"/>
<path d="M782.827 294.164C782.826 295.3 783.163 296.41 783.795 297.354C784.427 298.299 785.326 299.036 786.378 299.471C787.43 299.906 788.588 300.021 789.706 299.8C790.823 299.579 791.85 299.033 792.656 298.231C793.462 297.428 794.011 296.406 794.234 295.292C794.456 294.179 794.343 293.025 793.907 291.976C793.471 290.927 792.733 290.03 791.786 289.399C790.839 288.768 789.725 288.432 788.586 288.432C787.06 288.432 785.596 289.035 784.516 290.11C783.437 291.185 782.829 292.643 782.827 294.164V294.164Z" stroke="#28357C" stroke-width="1.5" stroke-linejoin="bevel"/>
<path d="M502.483 321.231C502.49 303.247 509.663 286.002 522.425 273.289C535.187 260.575 552.494 253.432 570.539 253.432" stroke="#28357C" stroke-width="1.5" stroke-linejoin="bevel"/>
<path d="M957.55 322.092C957.55 310.552 955.269 299.126 950.838 288.464C946.406 277.803 939.911 268.116 931.723 259.957C923.535 251.797 913.814 245.325 903.116 240.91C892.418 236.494 880.952 234.222 869.373 234.223" stroke="#28357C" stroke-width="1.5" stroke-linejoin="bevel"/>
<path d="M686.249 234.223C701.657 234.223 716.433 240.323 727.328 251.18C738.223 262.038 744.344 276.764 744.344 292.119" stroke="#28357C" stroke-width="1.5" stroke-linejoin="bevel"/>
<path d="M815.524 253.432H872.447V289.33C872.451 293.642 871.201 297.864 868.846 301.482C866.492 305.1 863.135 307.96 859.182 309.716L847.59 314.862C843.851 316.523 840.536 319.002 837.889 322.114H771.067" stroke="#28357C" stroke-width="1.5" stroke-linejoin="bevel"/>
<path d="M470.656 60.2348C470.656 61.3698 470.993 62.4794 471.626 63.4231C472.259 64.3669 473.158 65.1025 474.21 65.5368C475.263 65.9712 476.421 66.0848 477.538 65.8634C478.655 65.642 479.681 65.0954 480.486 64.2928C481.292 63.4902 481.84 62.4676 482.062 61.3544C482.284 60.2411 482.17 59.0872 481.735 58.0386C481.299 56.9899 480.561 56.0936 479.614 55.463C478.667 54.8324 477.553 54.4958 476.414 54.4958C474.887 54.4958 473.422 55.1005 472.342 56.1767C471.262 57.253 470.656 58.7127 470.656 60.2348Z" stroke="#28357C" stroke-width="1.5" stroke-linejoin="bevel"/>
<path d="M599.065 214.324C596.438 216.937 593.179 218.83 589.603 219.82C586.027 220.81 582.255 220.864 578.653 219.977C577.774 216.382 577.839 212.621 578.843 209.059C579.847 205.497 581.755 202.252 584.384 199.639C587.012 197.026 590.273 195.131 593.85 194.139C597.427 193.147 601.2 193.091 604.805 193.975C605.686 197.573 605.621 201.336 604.615 204.901C603.61 208.465 601.698 211.711 599.065 214.324V214.324Z" stroke="#28357C" stroke-width="1.5" stroke-linejoin="bevel"/>
<path d="M681.832 78.1863C684.418 80.7786 686.29 83.9914 687.267 87.5145C688.244 91.0377 688.293 94.7524 687.411 98.3002C683.845 99.1633 680.116 99.0962 676.584 98.1052C673.052 97.1143 669.836 95.2331 667.245 92.6429C664.655 90.0528 662.778 86.8412 661.796 83.3178C660.813 79.7945 660.758 76.0783 661.636 72.5277C665.207 71.6568 668.942 71.7202 672.48 72.7116C676.019 73.7031 679.24 75.5889 681.832 78.1863V78.1863Z" stroke="#28357C" stroke-width="1.5" stroke-linejoin="bevel"/>
<path d="M688.07 170.801C687.661 171.221 687.246 171.629 686.831 172.036C684.096 174.604 680.88 176.61 677.367 177.938C673.854 179.266 670.112 179.891 666.356 179.776C662.601 179.661 658.904 178.809 655.479 177.269C652.054 175.729 648.968 173.531 646.396 170.801C645.993 171.221 645.578 171.629 645.156 172.036C639.84 176.999 632.828 179.762 625.544 179.764" stroke="#28357C" stroke-width="1.5" stroke-linejoin="bevel"/>
<path d="M547.261 169.159C547.262 170.202 546.953 171.222 546.372 172.089C545.792 172.957 544.966 173.633 544 174.033C543.033 174.432 541.969 174.537 540.943 174.334C539.917 174.131 538.974 173.629 538.234 172.892C537.495 172.154 536.991 171.215 536.787 170.192C536.583 169.169 536.688 168.109 537.089 167.146C537.49 166.183 538.169 165.36 539.039 164.782C539.91 164.203 540.933 163.895 541.979 163.896C543.38 163.898 544.722 164.453 545.712 165.44C546.702 166.426 547.259 167.764 547.261 169.159Z" stroke="#28357C" stroke-width="1.5" stroke-linejoin="bevel"/>
<path d="M529.211 142.209L525.901 133.072C519.814 136.147 514.521 140.581 510.436 146.029C506.35 151.476 503.581 157.79 502.346 164.479" stroke="#28357C" stroke-width="1.5" stroke-linejoin="bevel"/>
<path d="M645.368 88.1596C645.369 76.6199 643.089 65.1932 638.658 54.5317C634.228 43.8702 627.733 34.1829 619.546 26.0228C611.358 17.8628 601.638 11.3899 590.94 6.97364C580.242 2.55742 568.777 0.284424 557.197 0.284424" stroke="#28357C" stroke-width="1.5" stroke-linejoin="bevel"/>
<path d="M667.236 216.125C663.332 216.111 659.471 215.307 655.888 213.762C652.305 212.217 649.073 209.963 646.39 207.137C645.987 207.557 645.566 207.965 645.15 208.372C639.844 213.341 632.843 216.117 625.562 216.137" stroke="#28357C" stroke-width="1.5" stroke-linejoin="bevel"/>
<path d="M610.589 140.96C612.139 142.506 613.262 144.425 613.85 146.532C614.438 148.638 614.469 150.859 613.942 152.981C611.811 153.495 609.583 153.454 607.473 152.861C605.362 152.267 603.441 151.143 601.893 149.595C600.345 148.047 599.224 146.128 598.636 144.022C598.049 141.917 598.015 139.697 598.539 137.575C600.67 137.058 602.898 137.099 605.009 137.692C607.12 138.285 609.042 139.41 610.589 140.96V140.96Z" stroke="#28357C" stroke-width="1.5" stroke-linejoin="bevel"/>
<path d="M584.711 130.238C584.711 130.798 584.878 131.347 585.19 131.813C585.503 132.279 585.947 132.643 586.467 132.857C586.987 133.072 587.559 133.128 588.111 133.019C588.663 132.909 589.17 132.639 589.568 132.243C589.966 131.846 590.237 131.341 590.347 130.791C590.456 130.241 590.4 129.671 590.185 129.152C589.969 128.634 589.605 128.192 589.137 127.88C588.669 127.568 588.119 127.402 587.556 127.402C586.802 127.402 586.078 127.701 585.544 128.233C585.011 128.764 584.711 129.486 584.711 130.238V130.238Z" stroke="#28357C" stroke-width="1.5" stroke-linejoin="bevel"/>
<path d="M503.341 19.5042H560.264V55.4017C560.268 59.7142 559.017 63.9354 556.662 67.5537C554.308 71.172 550.951 74.0321 546.998 75.7875L535.407 80.9334C531.668 82.5947 528.352 85.0734 525.706 88.1858H476.413" stroke="#28357C" stroke-width="1.5" stroke-linejoin="bevel"/>
<path d="M625.599 253.432H687.519" stroke="#28357C" stroke-width="1.5" stroke-linejoin="bevel"/>
<path d="M892.681 59.9623C892.681 61.0976 893.019 62.2074 893.652 63.1513C894.285 64.0952 895.185 64.8308 896.237 65.265C897.29 65.6991 898.448 65.8124 899.565 65.5905C900.683 65.3685 901.709 64.8214 902.514 64.0181C903.319 63.2149 903.867 62.1918 904.088 61.0781C904.31 59.9645 904.195 58.8104 903.758 57.7618C903.321 56.7133 902.582 55.8174 901.634 55.1876C900.687 54.5577 899.573 54.2222 898.433 54.2234C897.677 54.2234 896.929 54.3719 896.231 54.6604C895.532 54.9489 894.898 55.3717 894.364 55.9047C893.829 56.4376 893.406 57.0703 893.117 57.7666C892.828 58.4628 892.68 59.209 892.681 59.9623Z" stroke="#28357C" stroke-width="1.5" stroke-linejoin="bevel"/>
<path d="M842.53 88.6271V71.6575H809.844V88.6333C809.844 90.6703 810.437 92.6636 811.55 94.3718C812.663 96.0801 814.25 97.4299 816.117 98.2579L821.597 100.692C823.366 101.478 824.934 102.652 826.184 104.126" stroke="#28357C" stroke-width="1.5" stroke-linejoin="bevel"/>
<path d="M903.124 158.028V174.756C903.124 179.427 904.483 183.997 907.035 187.915C909.587 191.832 913.224 194.928 917.505 196.829L930.064 202.389C934.125 204.187 937.727 206.875 940.602 210.252C943.476 206.875 947.078 204.187 951.139 202.389L963.698 196.829C967.979 194.928 971.616 191.832 974.168 187.915C976.72 183.997 978.079 179.427 978.079 174.756V135.838H881.255" stroke="#28357C" stroke-width="1.5" stroke-linejoin="bevel"/>
<path d="M848.879 214.044C851.507 216.656 854.766 218.549 858.341 219.54C861.917 220.531 865.688 220.587 869.292 219.702C870.169 216.108 870.102 212.35 869.097 208.789C868.092 205.229 866.183 201.986 863.554 199.375C860.926 196.763 857.666 194.871 854.091 193.881C850.515 192.89 846.743 192.835 843.139 193.72C842.261 197.313 842.329 201.072 843.334 204.632C844.34 208.192 846.25 211.434 848.879 214.044V214.044Z" stroke="#28357C" stroke-width="1.5" stroke-linejoin="bevel"/>
<path d="M936.936 77.9045C939.53 80.4925 941.409 83.7035 942.393 87.2271C943.377 90.7506 943.432 94.4676 942.553 98.0185C938.989 98.8807 935.264 98.814 931.734 97.825C928.204 96.836 924.99 94.9579 922.399 92.3717C919.809 89.7854 917.931 86.5781 916.945 83.0586C915.96 79.5391 915.9 75.826 916.772 72.2768C920.335 71.4072 924.063 71.4682 927.595 72.4541C931.128 73.4399 934.345 75.3172 936.936 77.9045Z" stroke="#28357C" stroke-width="1.5" stroke-linejoin="bevel"/>
<path d="M860.401 179.514C856.496 179.496 852.635 178.688 849.053 177.139C845.471 175.589 842.242 173.331 839.561 170.501C839.158 170.921 838.737 171.329 838.321 171.736C835.589 174.307 832.374 176.314 828.861 177.643C825.348 178.973 821.606 179.598 817.85 179.483C814.094 179.368 810.398 178.516 806.973 176.974C803.549 175.433 800.463 173.233 797.893 170.501C797.484 170.921 797.069 171.329 796.653 171.736C793.92 174.306 790.704 176.313 787.191 177.642C783.677 178.971 779.935 179.596 776.179 179.481C772.423 179.366 768.726 178.514 765.301 176.973C761.876 175.432 758.79 173.233 756.219 170.501C755.806 170.913 755.393 171.324 754.979 171.736C752.246 174.306 749.03 176.313 745.516 177.642C742.003 178.971 738.261 179.596 734.505 179.481C730.749 179.366 727.052 178.514 723.627 176.973C720.202 175.432 717.116 173.233 714.545 170.501" stroke="#28357C" stroke-width="1.5" stroke-linejoin="bevel"/>
<path d="M796.057 116.987H758.114" stroke="#28357C" stroke-width="1.5" stroke-linejoin="bevel"/>
<path d="M818.729 136.68H735.61" stroke="#28357C" stroke-width="1.5" stroke-linejoin="bevel"/>
<path d="M941.892 0C957.299 0 972.076 6.0997 982.971 16.9572C993.866 27.8148 999.986 42.5408 999.986 57.8957" stroke="#28357C" stroke-width="1.5" stroke-linejoin="bevel"/>
<path d="M881.252 19.2317H943.171" stroke="#28357C" stroke-width="1.5" stroke-linejoin="bevel"/>
<path d="M120.423 298.504C120.423 291.957 117.87 285.666 113.302 280.961C108.734 276.256 102.51 273.504 95.9437 273.288H84.4699V303.971C84.4699 316.403 89.4254 328.326 98.2464 337.117C107.067 345.908 119.031 350.846 131.506 350.846C143.981 350.846 155.944 345.908 164.765 337.117C173.586 328.326 178.542 316.403 178.542 303.971" stroke="#28357C" stroke-width="1.5" stroke-linejoin="bevel"/>
<path d="M203.226 322.092V234.223H57.5241" stroke="#28357C" stroke-width="1.5" stroke-linejoin="bevel"/>
<path d="M-82.2365 234.223V386.431C-79.665 389.161 -76.5784 391.359 -73.1534 392.899C-69.7284 394.439 -66.0322 395.291 -62.2765 395.406C-58.5207 395.521 -54.7792 394.896 -51.2659 393.568C-47.7526 392.24 -44.5367 390.234 -41.8021 387.666C-41.3889 387.254 -40.9756 386.842 -40.5624 386.431C-37.9909 389.161 -34.9043 391.359 -31.4793 392.899C-28.0542 394.439 -24.3581 395.291 -20.6023 395.406C-16.8466 395.521 -13.105 394.896 -9.59176 393.568C-6.07851 392.24 -2.86256 390.234 -0.128012 387.666C0.299702 387.271 0.715017 386.863 1.11174 386.431C3.68274 389.161 6.7688 391.359 10.1933 392.899C13.6178 394.439 17.3135 395.291 21.0687 395.405C24.8239 395.52 28.565 394.896 32.0778 393.568C35.5905 392.24 38.8059 390.234 41.5399 387.666C41.9676 387.271 42.3891 386.863 42.7797 386.431C45.3512 389.161 48.4378 391.359 51.8628 392.899C55.2878 394.439 58.984 395.291 62.7397 395.406C66.4955 395.521 70.2371 394.896 73.7503 393.568C77.2636 392.24 80.4795 390.234 83.2141 387.666C83.6418 387.271 84.0571 386.863 84.4538 386.431V412.185C84.4536 419.547 86.5947 426.752 90.6179 432.926C94.6411 439.101 100.374 443.981 107.123 446.976L126.921 455.767C133.312 458.603 138.978 462.838 143.497 468.159C148.023 462.835 153.698 458.599 160.097 455.767L179.933 446.976C186.68 443.98 192.411 439.099 196.433 432.924C200.455 426.75 202.596 419.546 202.596 412.185V350.848H29.4338C27.2835 348.314 24.5859 346.297 21.5428 344.949L12.1207 340.76C8.90762 339.335 6.17806 337.012 4.26264 334.073C2.34722 331.133 1.32808 327.703 1.32868 324.198V295.003H57.5451V324.198" stroke="#28357C" stroke-width="1.5" stroke-linejoin="bevel"/>
<path d="M-58.7471 322.092C-58.7471 298.788 -49.4577 276.438 -32.9224 259.959C-16.3872 243.48 6.03945 234.223 29.4238 234.223" stroke="#28357C" stroke-width="1.5" stroke-linejoin="bevel"/>
<path d="M396.317 321.233C396.316 306.766 391.675 292.678 383.071 281.026C374.468 269.374 362.353 260.767 348.494 256.461" stroke="#28357C" stroke-width="1.5" stroke-linejoin="bevel"/>
<path d="M274.228 277.886V287.831C274.229 290.606 275.036 293.321 276.552 295.648C278.068 297.975 280.227 299.815 282.77 300.946L290.208 304.257C292.615 305.327 294.748 306.923 296.45 308.928C298.156 306.924 300.291 305.328 302.699 304.257L310.168 300.946C312.71 299.815 314.87 297.975 316.386 295.648C317.901 293.321 318.709 290.606 318.71 287.831V264.709H229.95V234.223H296.153" stroke="#28357C" stroke-width="1.5" stroke-linejoin="bevel"/>
<path d="M-18.9907 165.309C-17.0871 160.446 -13.7938 156.246 -9.51873 153.23C-5.24368 150.214 -0.174633 148.513 5.0605 148.34H17.1914V180.778C17.0452 193.823 11.7429 206.284 2.43504 215.457C-6.87283 224.63 -19.4352 229.774 -32.5256 229.774C-45.616 229.774 -58.1784 224.63 -67.4862 215.457C-76.7941 206.284 -82.0964 193.823 -82.2426 180.778" stroke="#28357C" stroke-width="1.5" stroke-linejoin="bevel"/>
<path d="M84.1357 87.3254C84.1345 72.8595 79.4942 58.7725 70.8921 47.1204C62.2899 35.4682 50.1761 26.8608 36.3186 22.5542" stroke="#28357C" stroke-width="1.5" stroke-linejoin="bevel"/>
<path d="M-82.2426 117.255H17.1914" stroke="#28357C" stroke-width="1.5" stroke-linejoin="bevel"/>
<path d="M57.6908 132.328C57.6929 128.415 56.1677 124.654 53.4376 121.841C50.7075 119.028 46.9866 117.383 43.0617 117.255H36.1998V135.59C36.1444 139.304 36.8307 142.992 38.2187 146.44C39.6068 149.888 41.6689 153.026 44.2851 155.672C46.9012 158.318 50.0192 160.42 53.4577 161.854C56.8962 163.288 60.5866 164.027 64.3142 164.027C68.0417 164.027 71.7321 163.288 75.1707 161.854C78.6092 160.42 81.7272 158.318 84.3433 155.672C86.9595 153.026 89.0215 149.888 90.4096 146.44C91.7976 142.992 92.4839 139.304 92.4285 135.59" stroke="#28357C" stroke-width="1.5" stroke-linejoin="bevel"/>
<path d="M92.4257 117.255H146.975V152.664C146.565 153.084 146.15 153.492 145.735 153.9C143 156.468 139.784 158.474 136.271 159.802C132.758 161.13 129.016 161.754 125.261 161.64C121.505 161.525 117.809 160.673 114.384 159.133C110.959 157.593 107.872 155.395 105.3 152.664" stroke="#28357C" stroke-width="1.5" stroke-linejoin="bevel"/>
<path d="M92.4175 0.010498H146.954V59.8088" stroke="#28357C" stroke-width="1.5" stroke-linejoin="bevel"/>
<path d="M-37.962 43.953V53.8988C-37.9621 56.6737 -37.1546 59.389 -35.6374 61.7157C-34.1201 64.0424 -31.9583 65.8806 -29.4139 67.0075L-21.9754 70.3248C-19.5659 71.3922 -17.4299 72.9887 -15.7271 74.995C-14.0242 72.9887 -11.8882 71.3922 -9.47877 70.3248L-2.04028 67.0075C0.503206 65.8793 2.6642 64.0408 4.18124 61.7144C5.69828 59.388 6.50638 56.6733 6.50781 53.8988V30.7764H-82.2892V0H-16.0866" stroke="#28357C" stroke-width="1.5" stroke-linejoin="bevel"/>
<path d="M376.105 64.2968C376.106 57.7481 373.552 51.4558 368.983 46.7492C364.414 42.0426 358.188 39.2904 351.62 39.074H340.147V69.7577C340.147 82.1897 345.102 94.1125 353.923 102.903C362.744 111.694 374.708 116.633 387.183 116.633C399.657 116.633 411.621 111.694 420.442 102.903C429.263 94.1125 434.219 82.1897 434.219 69.7577" stroke="#28357C" stroke-width="1.5" stroke-linejoin="bevel"/>
<path d="M435.56 212.766L415.755 221.557C409.365 224.392 403.699 228.628 399.18 233.949L399.26 234.221H459.146V293.741" stroke="#28357C" stroke-width="1.5" stroke-linejoin="bevel"/>
<path d="M173.404 152.222C175.974 154.953 179.061 157.153 182.486 158.694C185.911 160.235 189.607 161.087 193.364 161.202C197.12 161.317 200.862 160.692 204.375 159.363C207.889 158.034 211.104 156.027 213.838 153.457C214.251 153.045 214.665 152.634 215.078 152.222C217.649 154.953 220.735 157.153 224.16 158.694C227.585 160.235 231.282 161.087 235.038 161.202C238.794 161.317 242.536 160.692 246.049 159.363C249.563 158.034 252.779 156.027 255.512 153.457C255.94 153.062 256.355 152.654 256.752 152.222C259.322 154.954 262.407 157.154 265.832 158.695C269.257 160.237 272.953 161.089 276.709 161.204C280.465 161.319 284.206 160.694 287.719 159.364C291.232 158.035 294.447 156.027 297.18 153.457C297.608 153.062 298.029 152.654 298.42 152.222C300.991 154.953 304.077 157.153 307.502 158.694C310.927 160.235 314.624 161.087 318.38 161.202C322.136 161.317 325.878 160.692 329.392 159.363C332.905 158.034 336.121 156.027 338.854 153.457C339.282 153.062 339.697 152.654 340.094 152.222V177.976C340.095 185.342 342.24 192.549 346.269 198.725C350.298 204.9 356.039 209.778 362.794 212.767" stroke="#28357C" stroke-width="1.5" stroke-linejoin="bevel"/>
<path d="M173.397 0.010498V116.636" stroke="#28357C" stroke-width="1.5" stroke-linejoin="bevel"/>
<path d="M277.603 216.131H147.621V189.11C145.05 191.842 141.964 194.042 138.539 195.583C135.114 197.124 131.417 197.976 127.661 198.091C123.905 198.205 120.163 197.58 116.65 196.251C113.136 194.922 109.92 192.916 107.187 190.346C106.759 189.95 106.344 189.543 105.947 189.11C103.262 191.94 100.028 194.196 96.4413 195.741C92.8544 197.286 88.9896 198.088 85.082 198.099" stroke="#28357C" stroke-width="1.5" stroke-linejoin="bevel"/>
<path d="M196.885 87.8875C196.882 76.3468 199.161 64.9187 203.591 54.2558C208.021 43.5929 214.515 33.9041 222.703 25.7428C230.891 17.5814 240.611 11.1074 251.31 6.6904C262.008 2.27341 273.475 -2.56685e-07 285.056 0" stroke="#28357C" stroke-width="1.5" stroke-linejoin="bevel"/>
<path d="M173.4 188.829C175.971 191.56 179.057 193.76 182.482 195.301C185.908 196.842 189.604 197.694 193.36 197.809C197.116 197.924 200.859 197.299 204.372 195.97C207.885 194.641 211.101 192.634 213.835 190.064C214.248 189.652 214.661 189.24 215.074 188.829C217.645 191.56 220.731 193.76 224.157 195.301C227.582 196.842 231.278 197.694 235.034 197.809C238.791 197.924 242.533 197.299 246.046 195.97C249.559 194.641 252.775 192.634 255.509 190.064C255.937 189.669 256.352 189.261 256.749 188.829C259.431 191.654 262.661 193.908 266.244 195.453C269.826 196.998 273.686 197.802 277.589 197.817" stroke="#28357C" stroke-width="1.5" stroke-linejoin="bevel"/>
<path d="M661.576 298.504C661.576 291.957 659.023 285.666 654.455 280.961C649.887 276.256 643.663 273.504 637.097 273.288H625.623V303.971C625.552 310.172 626.716 316.325 629.047 322.074C631.379 327.823 634.832 333.054 639.206 337.464C643.581 341.874 648.79 345.375 654.532 347.765C660.274 350.154 666.434 351.384 672.656 351.384C678.879 351.384 685.039 350.154 690.781 347.765C696.523 345.375 701.732 341.874 706.106 337.464C710.481 333.054 713.934 327.823 716.265 322.074C718.597 316.325 719.761 310.172 719.689 303.971" stroke="#28357C" stroke-width="1.5" stroke-linejoin="bevel"/>
<path d="M744.344 322.092V234.223H598.636" stroke="#28357C" stroke-width="1.5" stroke-linejoin="bevel"/>
<path d="M598.634 324.191V294.996H542.423V324.191C542.423 327.695 543.442 331.125 545.357 334.065C547.273 337.004 550.002 339.327 553.215 340.752L562.638 344.941C565.681 346.289 568.378 348.306 570.529 350.84H743.69V412.177C743.691 419.539 741.55 426.744 737.526 432.919C733.503 439.093 727.77 443.974 721.022 446.969L701.241 455.759C694.851 458.595 689.185 462.831 684.666 468.151C680.147 462.831 674.481 458.595 668.091 455.759L648.255 446.969C641.512 443.968 635.786 439.086 631.769 432.912C627.751 426.737 625.615 419.536 625.617 412.177V386.423C625.208 386.843 624.792 387.251 624.377 387.658C621.642 390.227 618.427 392.232 614.913 393.56C611.4 394.888 607.658 395.513 603.903 395.398C600.147 395.283 596.451 394.431 593.026 392.891C589.601 391.351 586.514 389.153 583.943 386.423C583.54 386.843 583.118 387.251 582.703 387.658C579.969 390.226 576.753 392.232 573.241 393.56C569.728 394.888 565.987 395.512 562.232 395.398C558.476 395.283 554.781 394.431 551.356 392.891C547.932 391.351 544.846 389.153 542.275 386.423C541.866 386.843 541.45 387.251 541.035 387.658C538.3 390.227 535.084 392.232 531.571 393.56C528.058 394.888 524.316 395.513 520.561 395.398C516.805 395.283 513.109 394.431 509.684 392.891C506.259 391.351 503.172 389.153 500.601 386.423C500.198 386.843 499.776 387.251 499.361 387.658C493.88 392.81 486.58 395.595 479.048 395.408C471.517 395.22 464.365 392.075 459.15 386.658C458.765 387.059 458.362 387.448 457.953 387.825C455.219 390.393 452.004 392.399 448.491 393.727C444.978 395.055 441.237 395.679 437.482 395.564C433.727 395.45 430.031 394.598 426.607 393.058C423.182 391.518 420.096 389.32 417.525 386.59" stroke="#28357C" stroke-width="1.5" stroke-linejoin="bevel"/>
<path d="M482.368 322.092C482.368 298.788 491.658 276.438 508.193 259.959C524.728 243.48 547.155 234.223 570.539 234.223" stroke="#28357C" stroke-width="1.5" stroke-linejoin="bevel"/>
<path d="M937.423 321.233C937.421 306.766 932.78 292.678 924.177 281.026C915.573 269.374 903.458 260.767 889.6 256.461" stroke="#28357C" stroke-width="1.5" stroke-linejoin="bevel"/>
<path d="M815.347 277.886V287.831C815.348 290.606 816.155 293.321 817.671 295.648C819.187 297.975 821.346 299.815 823.889 300.946L831.327 304.257C833.752 305.321 835.903 306.917 837.619 308.928C839.311 306.93 841.428 305.335 843.818 304.257L851.287 300.946C853.83 299.815 855.989 297.975 857.505 295.648C859.021 293.321 859.828 290.606 859.829 287.831V264.709H771.069V234.223H837.272" stroke="#28357C" stroke-width="1.5" stroke-linejoin="bevel"/>
<path d="M522.1 165.309C524.003 160.446 527.297 156.246 531.572 153.23C535.847 150.214 540.916 148.513 546.151 148.34H558.307V180.778C558.16 193.823 552.858 206.284 543.55 215.457C534.242 224.63 521.68 229.774 508.59 229.774C495.499 229.774 482.937 224.63 473.629 215.457C464.321 206.284 459.019 193.823 458.873 180.778" stroke="#28357C" stroke-width="1.5" stroke-linejoin="bevel"/>
<path d="M522.1 184.191L486.32 148.535C482.289 153.693 479.385 159.635 477.796 165.978C476.206 172.321 475.967 178.926 477.092 185.367C478.217 191.808 480.682 197.944 484.328 203.379C487.975 208.814 492.722 213.429 498.265 216.926" stroke="#28357C" stroke-width="1.5" stroke-linejoin="bevel"/>
<path d="M625.24 87.3254C625.239 72.8595 620.599 58.7725 611.996 47.1204C603.394 35.4682 591.281 26.8608 577.423 22.5542" stroke="#28357C" stroke-width="1.5" stroke-linejoin="bevel"/>
<path d="M646.387 98.8939H458.875V0.010498H337.894" stroke="#28357C" stroke-width="1.5" stroke-linejoin="bevel"/>
<path d="M598.792 132.328C598.794 128.415 597.269 124.654 594.539 121.841C591.809 119.028 588.088 117.383 584.163 117.255H577.301V135.59C577.301 139.269 578.028 142.912 579.441 146.311C580.853 149.71 582.924 152.798 585.534 155.399C588.145 158.001 591.244 160.064 594.654 161.472C598.065 162.88 601.72 163.605 605.412 163.605C609.104 163.605 612.759 162.88 616.17 161.472C619.58 160.064 622.679 158.001 625.29 155.399C627.9 152.798 629.971 149.71 631.384 146.311C632.796 142.912 633.523 139.269 633.523 135.59" stroke="#28357C" stroke-width="1.5" stroke-linejoin="bevel"/>
<path d="M633.521 117.255H688.07V152.664C687.661 153.084 687.246 153.492 686.831 153.9C684.096 156.468 680.88 158.474 677.367 159.802C673.854 161.13 670.112 161.754 666.356 161.64C662.601 161.525 658.904 160.673 655.479 159.133C652.054 157.593 648.968 155.395 646.396 152.664" stroke="#28357C" stroke-width="1.5" stroke-linejoin="bevel"/>
<path d="M633.528 0.010498H688.07V59.8088" stroke="#28357C" stroke-width="1.5" stroke-linejoin="bevel"/>
<path d="M503.159 43.9535V53.8993C503.159 56.6741 503.967 59.3895 505.484 61.7162C507.001 64.0429 509.163 65.8811 511.708 67.008L519.146 70.3253C521.555 71.3927 523.692 72.9892 525.394 74.9955C527.097 72.9892 529.233 71.3927 531.643 70.3253L539.081 67.008C541.624 65.8795 543.784 64.0408 545.3 61.7143C546.816 59.3878 547.623 56.6733 547.623 53.8993V30.7769H476.338" stroke="#28357C" stroke-width="1.5" stroke-linejoin="bevel"/>
<path d="M917.208 64.2968C917.208 57.7492 914.655 51.4578 910.087 46.7513C905.52 42.0449 899.295 39.292 892.729 39.074H881.255V69.7577C881.184 75.9583 882.348 82.1114 884.679 87.8606C887.011 93.6097 890.464 98.8408 894.838 103.251C899.213 107.66 904.422 111.162 910.164 113.551C915.905 115.94 922.066 117.171 928.288 117.171C934.51 117.171 940.671 115.94 946.413 113.551C952.155 111.162 957.364 107.66 961.738 103.251C966.113 98.8408 969.566 93.6097 971.897 87.8606C974.229 82.1114 975.393 75.9583 975.321 69.7577" stroke="#28357C" stroke-width="1.5" stroke-linejoin="bevel"/>
<path d="M999.986 87.8856V0.010498H879.005" stroke="#28357C" stroke-width="1.5" stroke-linejoin="bevel"/>
<path d="M854.291 89.9936V60.7925H798.074V89.9936C798.074 93.4983 799.094 96.9279 801.009 99.8673C802.924 102.807 805.654 105.13 808.866 106.556L818.288 110.738C821.33 112.088 824.027 114.105 826.179 116.637H999.347V177.974C999.347 185.336 997.206 192.541 993.183 198.715C989.16 204.89 983.427 209.77 976.678 212.766L956.842 221.556C950.452 224.392 944.786 228.627 940.267 233.948L940.348 234.22H1000.26V293.74" stroke="#28357C" stroke-width="1.5" stroke-linejoin="bevel"/>
<path d="M714.519 152.222C717.09 154.953 720.176 157.153 723.601 158.694C727.026 160.235 730.723 161.087 734.479 161.202C738.235 161.317 741.977 160.692 745.49 159.363C749.004 158.034 752.22 156.027 754.953 153.457C755.367 153.045 755.78 152.634 756.193 152.222C758.764 154.953 761.85 157.153 765.275 158.694C768.7 160.235 772.397 161.087 776.153 161.202C779.909 161.317 783.651 160.692 787.165 159.363C790.678 158.034 793.894 156.027 796.627 153.457C797.055 153.062 797.47 152.654 797.867 152.222C800.437 154.954 803.522 157.154 806.947 158.695C810.372 160.237 814.068 161.089 817.824 161.204C821.58 161.319 825.322 160.694 828.835 159.364C832.347 158.035 835.563 156.027 838.295 153.457C838.723 153.062 839.145 152.654 839.535 152.222C842.106 154.953 845.192 157.153 848.617 158.694C852.042 160.235 855.739 161.087 859.495 161.202C863.251 161.317 866.993 160.692 870.507 159.363C874.02 158.034 877.236 156.027 879.97 153.457C880.397 153.062 880.813 152.654 881.209 152.222V177.976C881.213 185.346 883.364 192.556 887.4 198.732C891.436 204.908 897.184 209.784 903.946 212.767" stroke="#28357C" stroke-width="1.5" stroke-linejoin="bevel"/>
<path d="M714.516 0.010498V116.636" stroke="#28357C" stroke-width="1.5" stroke-linejoin="bevel"/>
<path d="M818.729 216.131H688.747V189.11C686.176 191.842 683.09 194.042 679.665 195.583C676.24 197.124 672.543 197.976 668.787 198.091C665.031 198.205 661.289 197.58 657.776 196.251C654.262 194.922 651.046 192.916 648.313 190.346C647.885 189.95 647.47 189.543 647.073 189.11C644.393 191.936 641.165 194.189 637.584 195.734C634.004 197.279 630.147 198.083 626.245 198.099" stroke="#28357C" stroke-width="1.5" stroke-linejoin="bevel"/>
<path d="M714.506 188.829C717.077 191.56 720.163 193.76 723.588 195.301C727.013 196.842 730.71 197.694 734.466 197.809C738.222 197.924 741.964 197.299 745.477 195.97C748.991 194.641 752.207 192.634 754.94 190.064C755.354 189.652 755.767 189.24 756.18 188.829C758.751 191.56 761.837 193.76 765.262 195.301C768.687 196.842 772.384 197.694 776.14 197.809C779.896 197.924 783.638 197.299 787.152 195.97C790.665 194.641 793.881 192.634 796.614 190.064C797.042 189.669 797.457 189.261 797.854 188.829C800.537 191.654 803.767 193.908 807.349 195.453C810.931 196.998 814.791 197.802 818.694 197.817" stroke="#28357C" stroke-width="1.5" stroke-linejoin="bevel"/>
<path d="M758.105 87.0546C758.104 78.1478 759.864 69.328 763.284 61.099C766.704 52.8699 771.717 45.3929 778.036 39.0948C784.356 32.7967 791.859 27.8009 800.116 24.3927C808.374 20.9846 817.224 19.2309 826.161 19.2317" stroke="#28357C" stroke-width="1.5" stroke-linejoin="bevel"/>
<path d="M737.99 87.8875C737.988 76.3468 740.267 64.9187 744.697 54.2558C749.126 43.5929 755.621 33.9041 763.808 25.7428C771.996 17.5814 781.717 11.1074 792.415 6.6904C803.114 2.27341 814.581 -2.56685e-07 826.161 0" stroke="#28357C" stroke-width="1.5" stroke-linejoin="bevel"/>
<path d="M458.251 145.276V116.637H285.058C282.906 114.105 280.209 112.088 277.167 110.738L267.745 106.556C264.532 105.13 261.803 102.807 259.888 99.8675C257.973 96.9281 256.953 93.4986 256.953 89.9938V60.7927H313.169V89.9938" stroke="#28357C" stroke-width="1.5" stroke-linejoin="bevel"/>
</g>
</g>
<defs>
<clipPath id="clip0_887_9071">
<rect width="1311" height="487" rx="240" transform="matrix(-1 0 0 1 982 0)" fill="white"/>
</clipPath>
</defs>
</svg>
