<svg width="516" height="187" viewBox="0 0 516 187" fill="none" xmlns="http://www.w3.org/2000/svg">
<mask id="mask0_5_456" style="mask-type:alpha" maskUnits="userSpaceOnUse" x="0" y="0" width="516" height="187">
<rect width="516" height="187" fill="#D9D9D9"/>
</mask>
<g mask="url(#mask0_5_456)">
<path d="M47.474 166.292C45.3969 168.363 42.8207 169.863 39.9942 170.649C37.1677 171.434 34.1864 171.479 31.3379 170.777C30.645 167.928 30.6983 164.948 31.4928 162.125C32.2873 159.303 33.796 156.732 35.8736 154.662C37.9512 152.592 40.5276 151.091 43.354 150.306C46.1805 149.521 49.1617 149.477 52.0102 150.178C52.7043 153.027 52.6515 156.007 51.8569 158.83C51.0623 161.652 49.5527 164.223 47.474 166.292V166.292Z" stroke="#28357C" stroke-width="1.5" stroke-linejoin="bevel"/>
<path d="M112.879 58.3817C114.929 60.4329 116.414 62.978 117.191 65.7708C117.969 68.5636 118.012 71.5097 117.317 74.3242C114.499 75.0078 111.552 74.9543 108.761 74.1688C105.97 73.3834 103.428 71.8924 101.381 69.8396C99.3333 67.7869 97.8496 65.2416 97.0725 62.4492C96.2953 59.6567 96.251 56.7112 96.9437 53.8966C99.7616 53.2123 102.708 53.2655 105.5 54.0512C108.291 54.8368 110.832 56.3283 112.879 58.3817V58.3817Z" stroke="#28357C" stroke-width="1.5" stroke-linejoin="bevel"/>
<path d="M6.52966 132.499C6.52966 133.325 6.28457 134.132 5.82542 134.819C5.36628 135.506 4.71369 136.041 3.95016 136.358C3.18663 136.674 2.34649 136.756 1.53593 136.595C0.725375 136.434 -0.0191974 136.036 -0.603578 135.452C-1.18796 134.868 -1.58592 134.124 -1.74715 133.314C-1.90838 132.503 -1.82566 131.664 -1.5094 130.901C-1.19313 130.137 -0.657536 129.485 0.0296229 129.026C0.716782 128.567 1.52466 128.322 2.3511 128.322C3.45932 128.322 4.52215 128.762 5.30578 129.546C6.08941 130.329 6.52966 131.391 6.52966 132.499Z" stroke="#28357C" stroke-width="1.5" stroke-linejoin="bevel"/>
<path d="M84.0634 66.2921C84.0634 57.1457 82.2609 48.0888 78.7589 39.6387C75.2569 31.1886 70.124 23.5107 63.6533 17.0435C57.1825 10.5762 49.5006 5.44625 41.0463 1.94652C32.592 -1.55322 23.5308 -3.35416 14.3801 -3.35352" stroke="#28357C" stroke-width="1.5" stroke-linejoin="bevel"/>
<path d="M101.342 167.717C98.2574 167.706 95.2074 167.07 92.3765 165.846C89.5456 164.622 86.9927 162.837 84.8724 160.598C84.554 160.931 84.2209 161.254 83.8927 161.577C79.7009 165.518 74.1672 167.718 68.4129 167.732" stroke="#28357C" stroke-width="1.5" stroke-linejoin="bevel"/>
<path d="M-63.3173 74.802H84.8668" stroke="#28357C" stroke-width="1.5" stroke-linejoin="bevel"/>
<path d="M56.5759 108.141C57.801 109.367 58.6888 110.888 59.1531 112.557C59.6174 114.226 59.6425 115.987 59.2261 117.669C57.5411 118.08 55.7785 118.05 54.1086 117.581C52.4387 117.112 50.9179 116.221 49.6932 114.994C48.4685 113.766 47.5811 112.244 47.1169 110.573C46.6527 108.903 46.6273 107.141 47.0432 105.458C48.7288 105.047 50.4921 105.078 52.1621 105.548C53.8322 106.018 55.3525 106.911 56.5759 108.141V108.141Z" stroke="#28357C" stroke-width="1.5" stroke-linejoin="bevel"/>
<path d="M36.1537 99.6371C36.1537 100.082 36.2856 100.516 36.5327 100.886C36.7797 101.255 37.1309 101.543 37.5418 101.713C37.9526 101.884 38.4047 101.928 38.8409 101.841C39.277 101.755 39.6777 101.541 39.9921 101.226C40.3066 100.912 40.5207 100.511 40.6075 100.076C40.6943 99.6396 40.6497 99.1877 40.4795 98.777C40.3093 98.3664 40.0211 98.0154 39.6514 97.7684C39.2816 97.5215 38.8469 97.3896 38.4022 97.3896C37.8059 97.3896 37.234 97.6265 36.8123 98.0479C36.3906 98.4694 36.1537 99.041 36.1537 99.6371Z" stroke="#28357C" stroke-width="1.5" stroke-linejoin="bevel"/>
<path d="M-28.1764 11.8721H16.8079V40.3247C16.8112 43.7429 15.8226 47.0886 13.9619 49.9565C12.1013 52.8244 9.44837 55.0914 6.32473 56.4827L-2.83572 60.5613C-5.79038 61.8781 -8.41062 63.8428 -10.5021 66.3096H-63.3096" stroke="#28357C" stroke-width="1.5" stroke-linejoin="bevel"/>
<path d="M258.39 44.1571C258.389 45.0572 258.655 45.9373 259.155 46.6861C259.654 47.4348 260.365 48.0186 261.197 48.3635C262.028 48.7084 262.944 48.7989 263.827 48.6235C264.71 48.4482 265.522 48.0149 266.158 47.3784C266.795 46.742 267.229 45.931 267.404 45.0482C267.58 44.1654 267.489 43.2504 267.144 42.419C266.799 41.5877 266.215 40.8773 265.466 40.3779C264.717 39.8784 263.836 39.6123 262.936 39.6133C261.73 39.6133 260.574 40.092 259.721 40.9441C258.869 41.7963 258.39 42.952 258.39 44.1571V44.1571Z" stroke="#28357C" stroke-width="1.5" stroke-linejoin="bevel"/>
<path d="M373.601 44.1571C373.6 45.057 373.866 45.9369 374.366 46.6856C374.865 47.4342 375.576 48.018 376.407 48.3631C377.238 48.7081 378.154 48.7988 379.037 48.6239C379.92 48.4489 380.731 48.0161 381.368 47.3802C382.005 46.7442 382.439 45.9337 382.615 45.0512C382.791 44.1687 382.701 43.2539 382.357 42.4224C382.013 41.591 381.429 40.8803 380.681 40.3802C379.932 39.8802 379.052 39.6133 378.152 39.6133C376.946 39.6133 375.789 40.0919 374.936 40.9438C374.082 41.7958 373.602 42.9516 373.601 44.1571V44.1571Z" stroke="#28357C" stroke-width="1.5" stroke-linejoin="bevel"/>
<path d="M218.748 66.878V53.4229H192.918V66.878C192.917 68.4933 193.385 70.074 194.265 71.4288C195.145 72.7836 196.399 73.8544 197.875 74.5114L202.205 76.4406C203.602 77.0635 204.841 77.9922 205.83 79.158" stroke="#28357C" stroke-width="1.5" stroke-linejoin="bevel"/>
<path d="M266.636 121.885V135.139C266.637 138.841 267.711 142.463 269.727 145.568C271.744 148.672 274.618 151.127 278.001 152.634L287.925 157.04C291.137 158.462 293.984 160.593 296.253 163.273C298.522 160.593 301.369 158.462 304.581 157.04L314.505 152.634C317.881 151.121 320.746 148.664 322.756 145.56C324.765 142.456 325.833 138.836 325.831 135.139V104.292H249.363" stroke="#28357C" stroke-width="1.5" stroke-linejoin="bevel"/>
<path d="M223.774 166.291C225.85 168.361 228.426 169.861 231.251 170.647C234.077 171.433 237.058 171.477 239.905 170.776C240.598 167.927 240.544 164.948 239.75 162.126C238.956 159.303 237.448 156.733 235.371 154.663C233.294 152.593 230.718 151.093 227.892 150.307C225.067 149.521 222.086 149.476 219.238 150.177C218.544 153.026 218.597 156.006 219.391 158.828C220.186 161.651 221.695 164.221 223.774 166.291V166.291Z" stroke="#28357C" stroke-width="1.5" stroke-linejoin="bevel"/>
<path d="M475.099 166.292C473.022 168.363 470.446 169.863 467.619 170.649C464.793 171.434 461.811 171.479 458.963 170.777C458.27 167.928 458.323 164.948 459.118 162.125C459.912 159.303 461.421 156.732 463.499 154.662C465.576 152.592 468.153 151.091 470.979 150.306C473.805 149.521 476.787 149.477 479.635 150.178C480.329 153.027 480.277 156.007 479.482 158.83C478.687 161.652 477.178 164.223 475.099 166.292V166.292Z" stroke="#28357C" stroke-width="1.5" stroke-linejoin="bevel"/>
<path d="M293.37 58.3822C295.42 60.4334 296.905 62.9785 297.682 65.7713C298.46 68.5641 298.503 71.5102 297.808 74.3247C294.99 75.0083 292.044 74.9548 289.252 74.1693C286.461 73.3839 283.919 71.8929 281.872 69.8401C279.825 67.7874 278.341 65.2421 277.564 62.4497C276.787 59.6572 276.742 56.7117 277.435 53.8971C280.253 53.2124 283.2 53.2653 285.991 54.051C288.782 54.8366 291.324 56.3284 293.37 58.3822V58.3822Z" stroke="#28357C" stroke-width="1.5" stroke-linejoin="bevel"/>
<path d="M232.88 138.914C229.796 138.902 226.746 138.265 223.915 137.042C221.085 135.818 218.532 134.033 216.411 131.795C216.092 132.128 215.759 132.451 215.431 132.774C213.271 134.809 210.729 136.399 207.953 137.451C205.177 138.504 202.221 138.999 199.253 138.908C196.286 138.817 193.365 138.142 190.659 136.921C187.953 135.701 185.514 133.959 183.482 131.795C183.159 132.128 182.831 132.451 182.502 132.774C180.341 134.81 177.8 136.399 175.024 137.452C172.247 138.504 169.29 138.999 166.322 138.908C163.354 138.817 160.433 138.142 157.727 136.922C155.02 135.701 152.581 133.959 150.549 131.795C150.23 132.128 149.902 132.451 149.569 132.774C145.227 136.868 139.439 139.077 133.471 138.916C127.504 138.756 121.843 136.239 117.728 131.917C117.443 132.211 117.15 132.495 116.846 132.774C114.685 134.809 112.144 136.399 109.368 137.451C106.592 138.504 103.636 138.999 100.668 138.908C97.7005 138.817 94.7799 138.142 92.0736 136.921C89.3674 135.701 86.9286 133.959 84.8968 131.795C84.5735 132.128 84.2453 132.451 83.9171 132.774C79.7235 136.711 74.1906 138.909 68.4374 138.924" stroke="#28357C" stroke-width="1.5" stroke-linejoin="bevel"/>
<path d="M545.434 131.795C545.116 132.128 544.783 132.451 544.454 132.774C542.295 134.811 539.754 136.402 536.978 137.456C534.202 138.51 531.245 139.005 528.277 138.914C525.308 138.823 522.387 138.147 519.681 136.926C516.975 135.704 514.536 133.96 512.505 131.795C512.182 132.128 511.854 132.451 511.526 132.774C507.333 136.712 501.8 138.912 496.046 138.929" stroke="#28357C" stroke-width="1.5" stroke-linejoin="bevel"/>
<path d="M434.147 132.499C434.147 133.325 433.902 134.132 433.443 134.819C432.984 135.506 432.331 136.041 431.567 136.358C430.804 136.674 429.964 136.756 429.153 136.595C428.343 136.434 427.598 136.036 427.014 135.452C426.429 134.868 426.031 134.124 425.87 133.314C425.709 132.503 425.792 131.664 426.108 130.901C426.424 130.137 426.96 129.485 427.647 129.026C428.334 128.567 429.142 128.322 429.968 128.322C431.077 128.322 432.139 128.762 432.923 129.546C433.707 130.329 434.147 131.391 434.147 132.499Z" stroke="#28357C" stroke-width="1.5" stroke-linejoin="bevel"/>
<path d="M419.891 111.147L417.275 103.9C412.465 106.337 408.283 109.85 405.054 114.167C401.826 118.484 399.638 123.488 398.661 128.788" stroke="#28357C" stroke-width="1.5" stroke-linejoin="bevel"/>
<path d="M199.948 104.972H136.158" stroke="#28357C" stroke-width="1.5" stroke-linejoin="bevel"/>
<path d="M199.948 171.265H134.262" stroke="#28357C" stroke-width="1.5" stroke-linejoin="bevel"/>
<path d="M152.056 65.6095C152.061 51.3556 157.73 37.6873 167.815 27.6102C177.901 17.533 191.578 11.8721 205.838 11.8721" stroke="#28357C" stroke-width="1.5" stroke-linejoin="bevel"/>
<path d="M511.68 66.2921C511.68 57.1457 509.878 48.0888 506.376 39.6387C502.874 31.1886 497.741 23.5107 491.27 17.0435C484.8 10.5762 477.118 5.44625 468.663 1.94652C460.209 -1.55322 451.148 -3.35416 441.997 -3.35352" stroke="#28357C" stroke-width="1.5" stroke-linejoin="bevel"/>
<path d="M297.279 -3.35352C309.455 -3.35352 321.132 1.48116 329.742 10.0869C338.352 18.6927 343.189 30.3646 343.189 42.535" stroke="#28357C" stroke-width="1.5" stroke-linejoin="bevel"/>
<path d="M528.95 167.717C525.866 167.706 522.816 167.07 519.985 165.846C517.154 164.622 514.601 162.837 512.481 160.598C512.157 160.931 511.829 161.254 511.501 161.577C507.309 165.518 501.776 167.718 496.021 167.732" stroke="#28357C" stroke-width="1.5" stroke-linejoin="bevel"/>
<path d="M364.3 74.802H512.484" stroke="#28357C" stroke-width="1.5" stroke-linejoin="bevel"/>
<path d="M484.203 108.143C485.427 109.369 486.314 110.891 486.778 112.56C487.242 114.229 487.268 115.989 486.853 117.671C485.169 118.08 483.407 118.047 481.739 117.578C480.07 117.108 478.551 116.217 477.327 114.99C476.103 113.763 475.217 112.241 474.752 110.572C474.287 108.903 474.261 107.142 474.675 105.46C476.36 105.051 478.122 105.083 479.791 105.553C481.46 106.023 482.979 106.915 484.203 108.143V108.143Z" stroke="#28357C" stroke-width="1.5" stroke-linejoin="bevel"/>
<path d="M463.771 99.6371C463.771 100.082 463.902 100.516 464.149 100.886C464.397 101.255 464.748 101.543 465.159 101.713C465.569 101.884 466.022 101.928 466.458 101.841C466.894 101.755 467.294 101.541 467.609 101.226C467.923 100.912 468.138 100.511 468.224 100.076C468.311 99.6396 468.267 99.1877 468.096 98.777C467.926 98.3664 467.638 98.0154 467.268 97.7684C466.898 97.5215 466.464 97.3896 466.019 97.3896C465.423 97.3896 464.851 97.6265 464.429 98.0479C464.007 98.4694 463.771 99.041 463.771 99.6371Z" stroke="#28357C" stroke-width="1.5" stroke-linejoin="bevel"/>
<path d="M399.441 11.8721H444.425V40.3247C444.428 43.7429 443.44 47.0886 441.579 49.9565C439.718 52.8244 437.065 55.0914 433.942 56.4827L424.781 60.5613C421.827 61.8781 419.206 63.8428 417.115 66.3096H364.307" stroke="#28357C" stroke-width="1.5" stroke-linejoin="bevel"/>
<path d="M249.35 11.8721H298.282" stroke="#28357C" stroke-width="1.5" stroke-linejoin="bevel"/>
<path d="M-13.3304 129.446C-11.8241 125.592 -9.22038 122.264 -5.84135 119.873C-2.46231 117.483 1.5438 116.135 5.6813 115.996H15.2679V141.707C15.326 146.901 14.3526 152.055 12.4041 156.87C10.4556 161.686 7.5708 166.067 3.91667 169.76C0.262527 173.454 -4.08832 176.386 -8.88399 178.387C-13.6797 180.388 -18.8248 181.419 -24.0217 181.419C-29.2185 181.419 -34.3637 180.388 -39.1594 178.387C-43.9551 176.386 -48.3059 173.454 -51.9601 169.76C-55.6142 166.067 -58.499 161.686 -60.4475 156.87C-62.3959 152.055 -63.3694 146.901 -63.3113 141.707" stroke="#28357C" stroke-width="1.5" stroke-linejoin="bevel"/>
<path d="M68.1558 65.6114C68.1544 54.1449 64.4867 42.979 57.6878 33.7434C50.8888 24.5077 41.3147 17.6858 30.3627 14.2732" stroke="#28357C" stroke-width="1.5" stroke-linejoin="bevel"/>
<path d="M15.2606 182.066H118.333V171.265" stroke="#28357C" stroke-width="1.5" stroke-linejoin="bevel"/>
<path d="M-63.3183 89.3538H15.261" stroke="#28357C" stroke-width="1.5" stroke-linejoin="bevel"/>
<path d="M47.2638 101.301C47.2642 98.1986 46.0578 95.2176 43.8995 92.9882C41.7412 90.7587 38.8002 89.4554 35.6981 89.3538H30.2802V103.886C30.2802 109.775 32.6208 115.423 36.7869 119.587C40.9531 123.752 46.6037 126.091 52.4956 126.091C58.3875 126.091 64.038 123.752 68.2042 119.587C72.3704 115.423 74.7109 109.775 74.7109 103.886" stroke="#28357C" stroke-width="1.5" stroke-linejoin="bevel"/>
<path d="M74.7099 89.3538H117.808V104.973" stroke="#28357C" stroke-width="1.5" stroke-linejoin="bevel"/>
<path d="M-28.3257 31.2539V39.137C-28.3247 41.3361 -27.6867 43.4879 -26.4889 45.3325C-25.291 47.1771 -23.5845 48.6356 -21.5753 49.5319L-15.697 52.1564C-13.7953 53.0042 -12.1093 54.2694 -10.764 55.858C-9.41604 54.2703 -7.72856 53.0053 -5.82616 52.1564L0.0766739 49.5319C2.0858 48.6356 3.79235 47.1771 4.99021 45.3325C6.18808 43.4879 6.82604 41.3361 6.82703 39.137V20.81H-63.3168V-3.35352H-10.9992" stroke="#28357C" stroke-width="1.5" stroke-linejoin="bevel"/>
<path d="M99.1691 -20.3604L83.5179 -13.3928C78.4679 -11.1455 73.9904 -7.78807 70.4189 -3.57076L70.4826 -3.35532H117.808V43.821" stroke="#28357C" stroke-width="1.5" stroke-linejoin="bevel"/>
<path d="M277.779 47.5965C277.78 42.4073 275.762 37.4212 272.152 33.6917C268.542 29.9621 263.624 27.7812 258.435 27.6096H249.367V51.9298C249.311 56.8444 250.231 61.7214 252.073 66.2782C253.916 70.8351 256.645 74.9812 260.102 78.4765C263.559 81.9718 267.675 84.7468 272.213 86.6407C276.75 88.5346 281.619 89.5098 286.536 89.5098C291.453 89.5098 296.321 88.5346 300.859 86.6407C305.397 84.7468 309.513 81.9718 312.97 78.4765C316.427 74.9812 319.156 70.8351 320.999 66.2782C322.841 61.7214 323.761 56.8444 323.704 51.9298" stroke="#28357C" stroke-width="1.5" stroke-linejoin="bevel"/>
<path d="M343.189 66.2921V-3.35352H228.041" stroke="#28357C" stroke-width="1.5" stroke-linejoin="bevel"/>
<path d="M228.04 67.9565V44.8164H183.619V67.9565C183.619 70.7346 184.424 73.4531 185.938 75.783C187.452 78.1129 189.609 79.9541 192.148 81.0837L199.594 84.4034C201.999 85.472 204.131 87.0706 205.83 89.0794H342.674V137.695C342.674 143.531 340.982 149.241 337.802 154.135C334.623 159.029 330.093 162.898 324.759 165.271L309.128 172.239C304.078 174.486 299.6 177.844 296.029 182.061C292.457 177.844 287.98 174.486 282.93 172.239L267.254 165.271C261.926 162.893 257.401 159.024 254.226 154.13C251.051 149.236 249.363 143.528 249.364 137.695V117.282C249.041 117.615 248.713 117.938 248.384 118.262C246.223 120.297 243.682 121.887 240.906 122.939C238.129 123.992 235.172 124.487 232.204 124.396C229.236 124.305 226.315 123.63 223.609 122.409C220.902 121.189 218.463 119.446 216.431 117.282C216.112 117.615 215.779 117.938 215.451 118.262C213.29 120.297 210.749 121.887 207.973 122.939C205.197 123.992 202.241 124.487 199.273 124.396C196.306 124.305 193.385 123.63 190.679 122.409C187.972 121.188 185.534 119.446 183.502 117.282C183.179 117.615 182.85 117.938 182.522 118.262C180.361 120.297 177.82 121.887 175.043 122.939C172.267 123.992 169.31 124.487 166.342 124.396C163.374 124.305 160.453 123.63 157.746 122.409C155.04 121.189 152.6 119.446 150.568 117.282C150.25 117.615 149.917 117.938 149.589 118.262C145.258 122.345 139.488 124.552 133.536 124.404C127.585 124.255 121.933 121.763 117.811 117.468C117.507 117.787 117.189 118.095 116.866 118.394C114.705 120.429 112.164 122.019 109.388 123.071C106.612 124.124 103.655 124.619 100.688 124.528C97.7202 124.437 94.7996 123.762 92.0934 122.541C89.3871 121.321 86.9483 119.578 84.9165 117.415" stroke="#28357C" stroke-width="1.5" stroke-linejoin="bevel"/>
<path d="M414.294 129.446C415.8 125.592 418.404 122.264 421.783 119.873C425.162 117.483 429.168 116.135 433.305 115.996H442.867V141.707C442.925 146.901 441.952 152.055 440.004 156.87C438.055 161.686 435.17 166.067 431.516 169.76C427.862 173.454 423.511 176.386 418.715 178.387C413.92 180.388 408.775 181.419 403.578 181.419C398.381 181.419 393.236 180.388 388.44 178.387C383.644 176.386 379.293 173.454 375.639 169.76C371.985 166.067 369.1 161.686 367.152 156.87C365.203 152.055 364.23 146.901 364.288 141.707" stroke="#28357C" stroke-width="1.5" stroke-linejoin="bevel"/>
<path d="M414.289 144.41L386.009 116.149C382.821 120.236 380.525 124.946 379.268 129.975C378.011 135.003 377.821 140.239 378.711 145.345C379.601 150.451 381.55 155.314 384.434 159.622C387.317 163.93 391.071 167.586 395.454 170.356" stroke="#28357C" stroke-width="1.5" stroke-linejoin="bevel"/>
<path d="M182.031 89.3538H136.15" stroke="#28357C" stroke-width="1.5" stroke-linejoin="bevel"/>
<path d="M136.16 66.2921C136.16 47.8209 143.501 30.1063 156.568 17.0452C169.636 3.98413 187.359 -3.35352 205.839 -3.35352" stroke="#28357C" stroke-width="1.5" stroke-linejoin="bevel"/>
<path d="M495.773 65.6114C495.771 54.1449 492.103 42.979 485.305 33.7434C478.506 24.5077 468.932 17.6858 457.979 14.2732" stroke="#28357C" stroke-width="1.5" stroke-linejoin="bevel"/>
<path d="M199.948 153.423C196.863 153.413 193.813 152.776 190.982 151.551C188.151 150.326 185.598 148.54 183.479 146.299C183.155 146.632 182.827 146.955 182.499 147.278C180.339 149.315 177.797 150.906 175.021 151.959C172.244 153.013 169.287 153.508 166.319 153.417C163.35 153.326 160.429 152.65 157.722 151.429C155.016 150.208 152.577 148.464 150.545 146.299C150.227 146.632 149.899 146.955 149.565 147.278C145.275 151.336 139.562 153.547 133.656 153.437C127.75 153.326 122.124 150.902 117.989 146.686C113.853 150.902 108.227 153.326 102.322 153.437C96.4158 153.547 90.7027 151.336 86.412 147.278C86.074 146.965 85.7458 146.642 85.4323 146.299C83.3124 148.539 80.7597 150.325 77.9287 151.55C75.0978 152.774 72.0476 153.412 68.963 153.423" stroke="#28357C" stroke-width="1.5" stroke-linejoin="bevel"/>
<path d="M364.305 182.063H134.254" stroke="#28357C" stroke-width="1.5" stroke-linejoin="bevel"/>
<path d="M442.861 182.064H545.958V146.32C543.928 148.486 541.489 150.23 538.783 151.451C536.077 152.673 533.155 153.349 530.187 153.44C527.219 153.531 524.262 153.035 521.486 151.982C518.71 150.928 516.169 149.337 514.009 147.3C513.671 146.986 513.343 146.663 513.03 146.32C510.91 148.56 508.357 150.346 505.526 151.571C502.695 152.796 499.645 153.433 496.56 153.444" stroke="#28357C" stroke-width="1.5" stroke-linejoin="bevel"/>
<path d="M364.316 89.3538H442.896" stroke="#28357C" stroke-width="1.5" stroke-linejoin="bevel"/>
<path d="M474.881 101.301C474.882 98.1994 473.676 95.2192 471.519 92.9899C469.361 90.7605 466.422 89.4567 463.32 89.3538H457.898V103.886C457.898 109.775 460.238 115.423 464.404 119.587C468.571 123.752 474.221 126.091 480.113 126.091C486.005 126.091 491.655 123.752 495.822 119.587C499.988 115.423 502.328 109.775 502.328 103.886" stroke="#28357C" stroke-width="1.5" stroke-linejoin="bevel"/>
<path d="M399.301 31.2539V39.137C399.302 41.3361 399.94 43.4879 401.137 45.3325C402.335 47.1771 404.042 48.6356 406.051 49.5319L411.929 52.1564C413.845 52.9991 415.545 54.2647 416.901 55.858C418.238 54.2749 419.912 53.0103 421.8 52.1564L427.703 49.5319C429.712 48.6356 431.419 47.1771 432.616 45.3325C433.814 43.4879 434.452 41.3361 434.453 39.137V20.81H364.31V-3.35352H416.627" stroke="#28357C" stroke-width="1.5" stroke-linejoin="bevel"/>
<path d="M430.076 -117.67V-140.815H385.65V-117.67C385.65 -114.893 386.456 -112.174 387.969 -109.844C389.483 -107.515 391.64 -105.673 394.178 -104.543L401.624 -101.228C404.028 -100.158 406.16 -98.5598 407.86 -96.5524H544.709V-47.9366C544.709 -42.1012 543.017 -36.3908 539.838 -31.4966C536.658 -26.6024 532.128 -22.7343 526.795 -20.3604L511.119 -13.3929C506.069 -11.1455 501.592 -7.7881 498.02 -3.57079L498.084 -3.35535H545.434V43.8209" stroke="#28357C" stroke-width="1.5" stroke-linejoin="bevel"/>
</g>
</svg>
