<svg width="181" height="58" viewBox="0 0 181 58" fill="none" xmlns="http://www.w3.org/2000/svg">
<g opacity="0.1">
<g clip-path="url(#clip0_1111_21657)">
<path d="M6.71326 0.182329C7.56754 1.03789 8.18665 2.09943 8.51073 3.26432C8.83481 4.4292 8.8529 5.65801 8.56324 6.83192C7.38858 7.11707 6.16029 7.09475 4.99677 6.76713C3.83324 6.43951 2.77371 5.81763 1.92032 4.96143C1.06694 4.10524 0.448467 3.04361 0.124531 1.87887C-0.199404 0.714137 -0.217884 -0.514421 0.0708786 -1.68837C1.24545 -1.9738 2.47376 -1.9516 3.63726 -1.62392C4.80076 -1.29624 5.86017 -0.674148 6.71326 0.182329V0.182329Z" stroke="#28357C" stroke-width="1.5" stroke-linejoin="bevel"/>
<path d="M1.90317 45.7858C0.617532 45.7813 -0.653806 45.5158 -1.83382 45.0054C-3.01384 44.4949 -4.07798 43.7502 -4.96179 42.8164C-5.09451 42.9553 -5.23336 43.0901 -5.37017 43.2249C-7.11742 44.8684 -9.42406 45.7861 -11.8226 45.792" stroke="#28357C" stroke-width="1.5" stroke-linejoin="bevel"/>
<path d="M50.8421 3.72639V-1.88574H40.075V3.72639C40.0748 4.4001 40.2699 5.05941 40.6366 5.62449C41.0034 6.18958 41.5261 6.6362 42.1414 6.91027L43.9465 7.71492C44.5287 7.97476 45.0451 8.36211 45.4575 8.84837" stroke="#28357C" stroke-width="1.5" stroke-linejoin="bevel"/>
<path d="M70.8029 26.6694V32.1978C70.8033 33.7418 71.2509 35.2526 72.0916 36.5476C72.9323 37.8425 74.1301 38.8662 75.5401 39.4948L79.677 41.3328C81.0157 41.9259 82.2025 42.8148 83.1483 43.9326C84.0941 42.8148 85.2809 41.9259 86.6196 41.3328L90.7565 39.4948C92.1635 38.8638 93.3579 37.8391 94.1956 36.5443C95.0332 35.2495 95.4784 33.74 95.4774 32.1978V19.3315H63.603" stroke="#28357C" stroke-width="1.5" stroke-linejoin="bevel"/>
<path d="M52.9373 45.1913C53.8028 46.0548 54.8763 46.6807 56.0541 47.0083C57.2319 47.336 58.4743 47.3545 59.6614 47.062C59.95 45.8738 59.9278 44.6312 59.5967 43.4541C59.2656 42.277 58.6369 41.205 57.7712 40.3416C56.9054 39.4782 55.8318 38.8524 54.654 38.5246C53.4761 38.1968 52.2337 38.1781 51.0465 38.4702C50.7571 39.6586 50.7792 40.9015 51.1104 42.0788C51.4416 43.2562 52.0708 44.3282 52.9373 45.1913V45.1913Z" stroke="#28357C" stroke-width="1.5" stroke-linejoin="bevel"/>
<path d="M157.698 45.1918C156.832 46.0556 155.758 46.6815 154.58 47.0091C153.402 47.3368 152.159 47.3552 150.972 47.0626C150.683 45.8741 150.705 44.6313 151.036 43.454C151.367 42.2766 151.996 41.2045 152.862 40.341C153.728 39.4775 154.802 38.8518 155.98 38.5242C157.158 38.1966 158.401 38.1782 159.588 38.4708C159.878 39.6591 159.856 40.902 159.525 42.0794C159.193 43.2567 158.564 44.3288 157.698 45.1918V45.1918Z" stroke="#28357C" stroke-width="1.5" stroke-linejoin="bevel"/>
<path d="M81.9469 0.182542C82.8011 1.0381 83.4202 2.09965 83.7443 3.26453C84.0684 4.42941 84.0865 5.65822 83.7968 6.83214C82.6222 7.11728 81.3939 7.09497 80.2304 6.76734C79.0668 6.43972 78.0073 5.81784 77.1539 4.96164C76.3005 4.10545 75.6821 3.04382 75.3581 1.87909C75.0342 0.714349 75.0157 -0.514208 75.3045 -1.68816C76.479 -1.97378 77.7074 -1.95168 78.8709 -1.62399C80.0345 -1.2963 81.0939 -0.674102 81.9469 0.182542V0.182542Z" stroke="#28357C" stroke-width="1.5" stroke-linejoin="bevel"/>
<path d="M184.962 0.182329C185.816 1.03811 186.435 2.09967 186.759 3.26448C187.083 4.42929 187.101 5.65799 186.812 6.83192C185.638 7.11707 184.409 7.09475 183.246 6.76713C182.082 6.43951 181.023 5.81763 180.169 4.96143C179.316 4.10524 178.697 3.04361 178.373 1.87887C178.05 0.714137 178.031 -0.514421 178.32 -1.68837C179.494 -1.9738 180.723 -1.9516 181.886 -1.62392C183.05 -1.29624 184.109 -0.674148 184.962 0.182329V0.182329Z" stroke="#28357C" stroke-width="1.5" stroke-linejoin="bevel"/>
<path d="M56.733 33.7722C55.4474 33.7673 54.1762 33.5016 52.9963 32.9912C51.8163 32.4808 50.7521 31.7363 49.8681 30.8027C49.7354 30.9416 49.5965 31.0764 49.4597 31.2112C48.5591 32.0602 47.4999 32.7231 46.3428 33.1622C45.1856 33.6012 43.9533 33.8076 42.7163 33.7697C41.4793 33.7318 40.2619 33.4502 39.1338 32.9411C38.0058 32.432 36.9892 31.7053 36.1423 30.8027C36.0075 30.9416 35.8707 31.0764 35.7339 31.2112C34.8331 32.0602 33.7737 32.7232 32.6164 33.1623C31.4592 33.6014 30.2266 33.8078 28.9895 33.7699C27.7523 33.7319 26.5347 33.4504 25.4065 32.9412C24.2783 32.4321 23.2615 31.7054 22.4144 30.8027C22.2817 30.9416 22.1449 31.0764 22.0061 31.2112C20.1961 32.919 17.7834 33.8402 15.296 33.7732C12.8086 33.7062 10.449 32.6565 8.73356 30.8538C8.61513 30.9763 8.4926 31.0948 8.366 31.2112C7.46539 32.0602 6.4062 32.7231 5.24907 33.1622C4.09194 33.6012 2.8596 33.8076 1.62259 33.7697C0.385578 33.7318 -0.831804 33.4502 -1.95986 32.9411C-3.08792 32.432 -4.1045 31.7053 -4.95141 30.8027C-5.08618 30.9416 -5.22298 31.0764 -5.35979 31.2112C-7.1078 32.8533 -9.41412 33.7701 -11.8123 33.7763" stroke="#28357C" stroke-width="1.5" stroke-linejoin="bevel"/>
<path d="M187.016 30.8032C186.884 30.9421 186.745 31.0769 186.608 31.2117C185.708 32.0614 184.649 32.725 183.492 33.1645C182.334 33.604 181.102 33.8107 179.865 33.7728C178.627 33.7348 177.41 33.453 176.282 32.9434C175.154 32.4338 174.137 31.7065 173.291 30.8032C173.156 30.9421 173.019 31.0769 172.882 31.2117C171.134 32.8543 168.828 33.7719 166.43 33.7788" stroke="#28357C" stroke-width="1.5" stroke-linejoin="bevel"/>
<path d="M140.627 31.0965C140.627 31.4411 140.525 31.7779 140.334 32.0644C140.142 32.3508 139.87 32.5741 139.552 32.706C139.234 32.8378 138.884 32.8723 138.546 32.8051C138.208 32.7379 137.898 32.572 137.654 32.3283C137.41 32.0847 137.245 31.7743 137.177 31.4364C137.11 31.0985 137.145 30.7482 137.276 30.4299C137.408 30.1116 137.632 29.8395 137.918 29.6481C138.204 29.4567 138.541 29.3545 138.886 29.3545C139.348 29.3545 139.791 29.538 140.117 29.8647C140.444 30.1914 140.627 30.6345 140.627 31.0965Z" stroke="#28357C" stroke-width="1.5" stroke-linejoin="bevel"/>
<path d="M134.686 22.191L133.595 19.1685C131.591 20.1847 129.847 21.6502 128.501 23.4508C127.156 25.2513 126.243 27.3384 125.836 29.5493" stroke="#28357C" stroke-width="1.5" stroke-linejoin="bevel"/>
<path d="M43.0052 19.6152H16.4153" stroke="#28357C" stroke-width="1.5" stroke-linejoin="bevel"/>
<path d="M43.0052 47.2656H15.6251" stroke="#28357C" stroke-width="1.5" stroke-linejoin="bevel"/>
<path d="M23.0424 3.19699C23.0446 -2.74827 25.4074 -8.44928 29.6114 -12.6525C33.8154 -16.8556 39.5164 -19.2168 45.4607 -19.2168" stroke="#28357C" stroke-width="1.5" stroke-linejoin="bevel"/>
<path d="M172.947 3.4817C172.947 -0.333252 172.195 -4.11085 170.736 -7.63538C169.276 -11.1599 167.136 -14.3623 164.439 -17.0598C161.742 -19.7573 158.54 -21.897 155.016 -23.3567C151.492 -24.8165 147.715 -25.5677 143.9 -25.5674" stroke="#28357C" stroke-width="1.5" stroke-linejoin="bevel"/>
<path d="M180.145 45.7858C178.86 45.7813 177.588 45.5158 176.408 45.0054C175.228 44.4949 174.164 43.7502 173.28 42.8164C173.145 42.9553 173.009 43.0901 172.872 43.2249C171.125 44.8684 168.818 45.7861 166.419 45.792" stroke="#28357C" stroke-width="1.5" stroke-linejoin="bevel"/>
<path d="M111.514 7.03125H173.282" stroke="#28357C" stroke-width="1.5" stroke-linejoin="bevel"/>
<path d="M161.493 20.9377C162.003 21.4493 162.372 22.0838 162.566 22.7799C162.76 23.4761 162.77 24.2104 162.597 24.9119C161.895 25.0823 161.161 25.0688 160.465 24.8729C159.77 24.6771 159.137 24.3053 158.627 23.7935C158.117 23.2817 157.747 22.6471 157.553 21.9508C157.36 21.2546 157.349 20.5202 157.521 19.8185C158.223 19.6479 158.958 19.6612 159.654 19.8573C160.349 20.0533 160.983 20.4254 161.493 20.9377V20.9377Z" stroke="#28357C" stroke-width="1.5" stroke-linejoin="bevel"/>
<path d="M152.976 17.39C152.976 17.5754 153.031 17.7567 153.134 17.9108C153.237 18.065 153.383 18.1851 153.554 18.2561C153.726 18.327 153.914 18.3456 154.096 18.3094C154.278 18.2733 154.445 18.184 154.576 18.0529C154.707 17.9218 154.796 17.7547 154.832 17.5729C154.868 17.3911 154.85 17.2026 154.779 17.0313C154.708 16.86 154.588 16.7136 154.434 16.6106C154.28 16.5076 154.098 16.4526 153.913 16.4526C153.664 16.4526 153.426 16.5514 153.25 16.7272C153.074 16.903 152.976 17.1414 152.976 17.39Z" stroke="#28357C" stroke-width="1.5" stroke-linejoin="bevel"/>
<path d="M126.16 -19.2168H144.911V-7.34924C144.913 -5.92354 144.501 -4.52803 143.725 -3.33183C142.949 -2.13563 141.844 -1.1901 140.542 -0.609784L136.723 1.09142C135.492 1.64064 134.399 2.4601 133.528 3.48903H111.516" stroke="#28357C" stroke-width="1.5" stroke-linejoin="bevel"/>
<path d="M-33.978 51.7709H8.98608V47.2656" stroke="#28357C" stroke-width="1.5" stroke-linejoin="bevel"/>
<path d="M-9.19694 13.1006H8.7679V19.6154" stroke="#28357C" stroke-width="1.5" stroke-linejoin="bevel"/>
<path d="M75.4493 -4.31584C75.4494 -6.48025 74.6082 -8.55994 73.1036 -10.1155C71.5989 -11.6711 69.5486 -12.5808 67.3857 -12.6523H63.6061V-2.50845C63.5826 -0.458563 63.9659 1.57562 64.734 3.47628C65.502 5.37693 66.6395 7.10628 68.0805 8.56416C69.5215 10.022 71.2374 11.1795 73.1288 11.9694C75.0202 12.7594 77.0495 13.1661 79.0992 13.1661C81.1489 13.1661 83.1782 12.7594 85.0696 11.9694C86.961 11.1795 88.6769 10.022 90.1179 8.56416C91.5589 7.10628 92.6963 5.37693 93.4644 3.47628C94.2324 1.57562 94.6158 -0.458563 94.5923 -2.50845" stroke="#28357C" stroke-width="1.5" stroke-linejoin="bevel"/>
<path d="M102.713 3.4817V-25.5674H54.716" stroke="#28357C" stroke-width="1.5" stroke-linejoin="bevel"/>
<path d="M54.7155 4.17613V-5.47559H36.1993V4.17613C36.1991 5.33484 36.5348 6.46875 37.1658 7.44053C37.7967 8.41231 38.6959 9.18028 39.7543 9.65143L42.858 11.0361C43.8605 11.4818 44.7491 12.1486 45.4574 12.9864H102.498V33.264C102.499 35.698 101.793 38.0798 100.468 40.1211C99.1427 42.1625 97.2542 43.7759 95.0312 44.766L88.5154 47.6722C86.4104 48.6095 84.544 50.0099 83.0553 51.7689C81.5666 50.0099 79.7002 48.6095 77.5952 47.6722L71.0611 44.766C68.8401 43.7741 66.9539 42.16 65.6305 40.1188C64.3071 38.0777 63.6033 35.6968 63.604 33.264V24.7498C63.4692 24.8887 63.3324 25.0235 63.1956 25.1583C62.2948 26.0073 61.2354 26.6704 60.0781 27.1094C58.9208 27.5485 57.6883 27.7549 56.4511 27.717C55.214 27.6791 53.9964 27.3975 52.8682 26.8883C51.74 26.3792 50.7232 25.6525 49.8761 24.7498C49.7434 24.8887 49.6045 25.0235 49.4677 25.1583C48.5671 26.0073 47.5079 26.6703 46.3508 27.1093C45.1937 27.5483 43.9613 27.7548 42.7243 27.7168C41.4873 27.6789 40.2699 27.3973 39.1419 26.8882C38.0138 26.3791 36.9972 25.6524 36.1503 24.7498C36.0155 24.8887 35.8787 25.0235 35.7419 25.1583C34.8411 26.0073 33.7818 26.6704 32.6245 27.1094C31.4672 27.5485 30.2347 27.7549 28.9975 27.717C27.7603 27.6791 26.5428 27.3975 25.4145 26.8883C24.2863 26.3792 23.2696 25.6525 22.4225 24.7498C22.2897 24.8887 22.1509 25.0235 22.0141 25.1583C20.2088 26.8614 17.8039 27.7822 15.323 27.7202C12.8421 27.6583 10.4862 26.6185 8.76814 24.8274C8.64154 24.9602 8.50882 25.0889 8.37405 25.2134C7.47344 26.0624 6.41425 26.7254 5.25712 27.1644C4.09999 27.6034 2.86764 27.8099 1.63064 27.772C0.393628 27.734 -0.823754 27.4524 -1.95181 26.9433C-3.07987 26.4342 -4.09645 25.7076 -4.94336 24.805" stroke="#28357C" stroke-width="1.5" stroke-linejoin="bevel"/>
<path d="M132.352 29.8235C132.98 28.2159 134.065 26.8276 135.473 25.8305C136.882 24.8334 138.552 24.2712 140.276 24.2134H144.262V34.9373C144.286 37.1037 143.881 39.2534 143.069 41.2619C142.256 43.2705 141.054 45.0979 139.531 46.6384C138.008 48.1789 136.194 49.402 134.195 50.2366C132.196 51.0713 130.051 51.5011 127.885 51.5011C125.719 51.5011 123.574 51.0713 121.575 50.2366C119.576 49.402 117.763 48.1789 116.239 46.6384C114.716 45.0979 113.514 43.2705 112.702 41.2619C111.889 39.2534 111.484 37.1037 111.508 34.9373" stroke="#28357C" stroke-width="1.5" stroke-linejoin="bevel"/>
<path d="M132.351 36.0648L120.563 24.2769C119.234 25.9819 118.277 27.9463 117.753 30.0436C117.229 32.1409 117.15 34.3247 117.521 36.4545C117.892 38.5842 118.704 40.6128 119.906 42.4095C121.108 44.2062 122.673 45.7313 124.5 46.8867" stroke="#28357C" stroke-width="1.5" stroke-linejoin="bevel"/>
<path d="M35.5381 13.1006H16.4134" stroke="#28357C" stroke-width="1.5" stroke-linejoin="bevel"/>
<path d="M16.4164 3.4817C16.4164 -4.2226 19.4764 -11.6113 24.9232 -17.0591C30.3701 -22.5069 37.7576 -25.5674 45.4607 -25.5674" stroke="#28357C" stroke-width="1.5" stroke-linejoin="bevel"/>
<path d="M166.315 3.19823C166.314 -1.5844 164.785 -6.24168 161.951 -10.0939C159.117 -13.946 155.126 -16.7915 150.561 -18.2148" stroke="#28357C" stroke-width="1.5" stroke-linejoin="bevel"/>
<path d="M43.0052 39.824C41.7194 39.8196 40.4479 39.5539 39.2678 39.0431C38.0877 38.5323 37.0237 37.787 36.1403 36.8525C36.0055 36.9914 35.8687 37.1262 35.7319 37.261C34.8314 38.1105 33.7721 38.774 32.6147 39.2133C31.4574 39.6527 30.2248 39.8593 28.9874 39.8214C27.7501 39.7834 26.5324 39.5017 25.4042 38.9922C24.2759 38.4828 23.2593 37.7557 22.4125 36.8525C22.2797 36.9914 22.1429 37.1262 22.0041 37.261C20.2156 38.9534 17.8341 39.8758 15.3724 39.8296C12.9107 39.7834 10.5656 38.7722 8.84184 37.0139C7.11809 38.7722 4.77295 39.7834 2.31125 39.8296C-0.150452 39.8758 -2.53187 38.9534 -4.32039 37.261C-4.46128 37.1303 -4.5981 36.9955 -4.72878 36.8525C-5.61241 37.7868 -6.67647 38.5318 -7.8565 39.0426C-9.03652 39.5534 -10.3079 39.8192 -11.5937 39.824" stroke="#28357C" stroke-width="1.5" stroke-linejoin="bevel"/>
<path d="M111.516 51.77H15.623" stroke="#28357C" stroke-width="1.5" stroke-linejoin="bevel"/>
<path d="M144.26 51.7703H187.235V36.8618C186.388 37.7651 185.372 38.4924 184.244 39.002C183.115 39.5115 181.898 39.7934 180.661 39.8313C179.423 39.8693 178.191 39.6626 177.034 39.2231C175.876 38.7836 174.817 38.12 173.917 37.2703C173.776 37.1396 173.639 37.0048 173.509 36.8618C172.625 37.796 171.561 38.5411 170.381 39.0519C169.201 39.5626 167.93 39.8285 166.644 39.8333" stroke="#28357C" stroke-width="1.5" stroke-linejoin="bevel"/>
<path d="M111.52 13.1006H144.275" stroke="#28357C" stroke-width="1.5" stroke-linejoin="bevel"/>
<path d="M157.608 18.0837C157.608 16.7901 157.105 15.547 156.206 14.6172C155.307 13.6874 154.081 13.1435 152.789 13.1006H150.528V19.162C150.528 21.6183 151.504 23.9741 153.241 25.711C154.977 27.4479 157.333 28.4237 159.788 28.4237C162.244 28.4237 164.6 27.4479 166.336 25.711C168.073 23.9741 169.049 21.6183 169.049 19.162" stroke="#28357C" stroke-width="1.5" stroke-linejoin="bevel"/>
</g>
</g>
<defs>
<clipPath id="clip0_1111_21657">
<rect width="416" height="161" rx="80.5" transform="matrix(-1 0 0 1 181 -103)" fill="white"/>
</clipPath>
</defs>
</svg>
