<svg width="375" height="490" viewBox="0 0 375 490" fill="none" xmlns="http://www.w3.org/2000/svg">
<g opacity="0.1">
<g clip-path="url(#clip0_1024_5024)">
<path d="M29.9404 295.976C29.9392 297.119 30.2761 298.236 30.9086 299.186C31.541 300.137 32.4406 300.878 33.4935 301.316C34.5463 301.754 35.7049 301.868 36.8229 301.646C37.9409 301.423 38.9678 300.873 39.7738 300.065C40.5797 299.257 41.1285 298.228 41.3506 297.107C41.5726 295.987 41.458 294.825 41.0213 293.77C40.5845 292.714 39.8453 291.813 38.897 291.179C37.9488 290.545 36.8343 290.207 35.6945 290.208C34.1684 290.208 32.7048 290.816 31.6257 291.897C30.5466 292.979 29.9404 294.446 29.9404 295.976V295.976Z" stroke="#28357C" stroke-width="1.5" stroke-linejoin="bevel"/>
<path d="M175.77 295.976C175.769 297.118 176.106 298.235 176.738 299.186C177.37 300.136 178.27 300.877 179.322 301.315C180.375 301.753 181.533 301.868 182.651 301.646C183.768 301.424 184.795 300.875 185.602 300.068C186.408 299.26 186.957 298.231 187.18 297.111C187.403 295.991 187.289 294.829 186.853 293.774C186.417 292.719 185.679 291.816 184.732 291.182C183.784 290.547 182.67 290.208 181.531 290.208C180.004 290.208 178.54 290.816 177.46 291.897C176.38 292.979 175.772 294.446 175.77 295.976V295.976Z" stroke="#28357C" stroke-width="1.5" stroke-linejoin="bevel"/>
<path d="M40.3777 394.647V411.472C40.3789 416.171 41.7382 420.769 44.2911 424.711C46.8439 428.652 50.4812 431.767 54.7629 433.68L67.3251 439.274C71.3901 441.079 74.994 443.785 77.866 447.187C80.7379 443.785 84.3419 441.079 88.4068 439.274L100.969 433.68C105.242 431.76 108.868 428.641 111.412 424.701C113.956 420.76 115.308 416.166 115.305 411.472V372.314H18.5146" stroke="#28357C" stroke-width="1.5" stroke-linejoin="bevel"/>
<path d="M-13.8731 451.016C-11.2448 453.644 -7.98512 455.549 -4.40856 456.546C-0.832004 457.544 2.94063 457.6 6.5452 456.71C7.42184 453.093 7.35422 449.312 6.34886 445.729C5.3435 442.146 3.43433 438.884 0.805408 436.256C-1.82351 433.628 -5.08351 431.724 -8.66022 430.726C-12.2369 429.729 -16.0097 429.672 -19.6148 430.561C-20.4934 434.178 -20.4265 437.96 -19.4207 441.544C-18.415 445.127 -16.5042 448.389 -13.8731 451.016V451.016Z" stroke="#28357C" stroke-width="1.5" stroke-linejoin="bevel"/>
<path d="M304.243 451.018C301.614 453.647 298.353 455.551 294.775 456.549C291.198 457.546 287.424 457.602 283.818 456.711C282.941 453.094 283.009 449.312 284.015 445.729C285.02 442.145 286.93 438.882 289.56 436.254C292.189 433.626 295.45 431.722 299.028 430.725C302.606 429.728 306.379 429.672 309.985 430.562C310.863 434.179 310.796 437.962 309.791 441.545C308.785 445.128 306.874 448.391 304.243 451.018V451.018Z" stroke="#28357C" stroke-width="1.5" stroke-linejoin="bevel"/>
<path d="M74.2179 314.035C76.812 316.638 78.692 319.869 79.6761 323.415C80.6602 326.96 80.7151 330.7 79.8356 334.272C76.2686 335.14 72.5388 335.072 69.0056 334.075C65.4724 333.078 62.255 331.185 59.6636 328.58C57.0722 325.974 55.1942 322.743 54.2105 319.198C53.2269 315.653 53.1707 311.914 54.0476 308.341C57.6143 307.472 61.3443 307.539 64.8775 308.536C68.4107 309.534 71.6277 311.427 74.2179 314.035V314.035Z" stroke="#28357C" stroke-width="1.5" stroke-linejoin="bevel"/>
<path d="M387.034 314.034C389.627 316.638 391.506 319.869 392.49 323.414C393.474 326.959 393.53 330.699 392.651 334.272C389.084 335.14 385.355 335.072 381.821 334.075C378.288 333.078 375.071 331.185 372.479 328.579C369.888 325.973 368.01 322.742 367.026 319.197C366.043 315.652 365.987 311.913 366.863 308.34C370.43 307.472 374.16 307.539 377.693 308.537C381.226 309.534 384.443 311.427 387.034 314.034V314.034Z" stroke="#28357C" stroke-width="1.5" stroke-linejoin="bevel"/>
<path d="M393.271 407.227C392.868 407.649 392.447 408.059 392.031 408.47C389.298 411.056 386.082 413.076 382.568 414.413C379.054 415.751 375.311 416.38 371.554 416.264C367.797 416.149 364.1 415.291 360.674 413.74C357.249 412.189 354.162 409.976 351.592 407.227C351.182 407.649 350.767 408.059 350.352 408.47C345.044 413.469 338.041 416.262 330.758 416.283" stroke="#28357C" stroke-width="1.5" stroke-linejoin="bevel"/>
<path d="M252.406 408.12C252.406 409.169 252.096 410.194 251.515 411.066C250.934 411.938 250.108 412.617 249.141 413.019C248.175 413.42 247.111 413.525 246.085 413.32C245.059 413.116 244.117 412.611 243.377 411.869C242.638 411.128 242.134 410.183 241.93 409.155C241.726 408.126 241.83 407.06 242.231 406.091C242.631 405.122 243.309 404.294 244.179 403.712C245.049 403.129 246.071 402.818 247.117 402.818C248.52 402.818 249.865 403.377 250.857 404.371C251.849 405.366 252.406 406.714 252.406 408.12Z" stroke="#28357C" stroke-width="1.5" stroke-linejoin="bevel"/>
<path d="M234.363 381.015L231.052 371.816C224.964 374.909 219.67 379.37 215.583 384.85C211.497 390.33 208.727 396.681 207.49 403.41" stroke="#28357C" stroke-width="1.5" stroke-linejoin="bevel"/>
<path d="M350.545 324.075C350.545 312.465 348.263 300.968 343.831 290.241C339.398 279.514 332.901 269.767 324.711 261.558C316.52 253.348 306.797 246.836 296.096 242.393C285.395 237.95 273.925 235.664 262.343 235.665" stroke="#28357C" stroke-width="1.5" stroke-linejoin="bevel"/>
<path d="M79.1661 235.665C94.5782 235.665 109.359 241.802 120.257 252.727C131.155 263.651 137.277 278.468 137.277 293.917" stroke="#28357C" stroke-width="1.5" stroke-linejoin="bevel"/>
<path d="M372.404 452.827C368.5 452.813 364.64 452.005 361.057 450.452C357.473 448.898 354.242 446.632 351.558 443.79C351.149 444.212 350.733 444.622 350.318 445.033C345.012 450.035 338.008 452.828 330.724 452.846" stroke="#28357C" stroke-width="1.5" stroke-linejoin="bevel"/>
<path d="M163.997 334.878H351.562" stroke="#28357C" stroke-width="1.5" stroke-linejoin="bevel"/>
<path d="M315.765 377.202C317.314 378.759 318.436 380.69 319.024 382.809C319.612 384.928 319.644 387.163 319.119 389.298C316.987 389.816 314.757 389.775 312.646 389.179C310.534 388.583 308.611 387.452 307.062 385.894C305.513 384.336 304.39 382.405 303.802 380.286C303.214 378.167 303.181 375.932 303.705 373.796C305.837 373.277 308.068 373.318 310.18 373.914C312.293 374.511 314.216 375.643 315.765 377.202V377.202Z" stroke="#28357C" stroke-width="1.5" stroke-linejoin="bevel"/>
<path d="M289.904 366.404C289.904 366.968 290.071 367.52 290.383 367.989C290.696 368.458 291.14 368.824 291.661 369.04C292.181 369.256 292.753 369.312 293.305 369.202C293.857 369.092 294.364 368.821 294.762 368.422C295.16 368.023 295.431 367.514 295.541 366.961C295.651 366.407 295.594 365.834 295.379 365.312C295.164 364.791 294.799 364.346 294.331 364.032C293.863 363.719 293.313 363.551 292.75 363.551C291.995 363.551 291.271 363.852 290.737 364.387C290.203 364.922 289.904 365.648 289.904 366.404Z" stroke="#28357C" stroke-width="1.5" stroke-linejoin="bevel"/>
<path d="M208.477 254.994H265.416V291.112C265.42 295.451 264.169 299.699 261.814 303.339C259.459 306.98 256.101 309.858 252.147 311.624L240.552 316.801C236.812 318.473 233.495 320.967 230.848 324.098H164.007" stroke="#28357C" stroke-width="1.5" stroke-linejoin="bevel"/>
<path d="M74.747 78.6677C77.3336 81.2761 79.206 84.5086 80.1835 88.0535C81.161 91.5984 81.2106 95.3359 80.3275 98.9056C76.7607 99.774 73.0309 99.7065 69.4977 98.7094C65.9646 97.7124 62.7474 95.8196 60.1563 93.2135C57.5653 90.6074 55.6878 87.376 54.7051 83.8309C53.7224 80.2859 53.6675 76.5468 54.5458 72.9743C58.117 72.0981 61.8535 72.1618 65.3929 73.1594C68.9323 74.1569 72.1545 76.0544 74.747 78.6677V78.6677Z" stroke="#28357C" stroke-width="1.5" stroke-linejoin="bevel"/>
<path d="M80.9883 171.854C80.579 172.276 80.1636 172.686 79.7482 173.097C77.0128 175.681 73.796 177.699 70.2817 179.035C66.7675 180.371 63.0248 180.999 59.268 180.884C55.5112 180.768 51.814 179.911 48.388 178.362C44.962 176.812 41.8745 174.601 39.3022 171.854C38.8992 172.276 38.4838 172.686 38.0621 173.097C32.7437 178.09 25.7305 180.87 18.4437 180.872" stroke="#28357C" stroke-width="1.5" stroke-linejoin="bevel"/>
<path d="M38.2734 88.7026C38.2743 77.0919 35.9936 65.5947 31.5617 54.8676C27.1298 44.1404 20.6334 34.3934 12.4436 26.1831C4.25373 17.9728 -5.46918 11.46 -16.17 7.01655C-26.8709 2.57313 -38.3401 0.286133 -49.9227 0.286133" stroke="#28357C" stroke-width="1.5" stroke-linejoin="bevel"/>
<path d="M60.1465 217.456C56.2411 217.442 52.3792 216.633 48.7949 215.079C45.2105 213.524 41.9783 211.257 39.2941 208.413C38.8911 208.836 38.4695 209.246 38.054 209.656C32.7466 214.655 25.7434 217.448 18.4604 217.469" stroke="#28357C" stroke-width="1.5" stroke-linejoin="bevel"/>
<path d="M3.4834 141.828C5.03409 143.384 6.15768 145.315 6.74537 147.434C7.33306 149.553 7.3649 151.788 6.83786 153.923C4.70606 154.441 2.47734 154.399 0.366339 153.802C-1.74466 153.205 -3.6668 152.074 -5.21492 150.516C-6.76304 148.959 -7.88499 147.028 -8.47269 144.909C-9.06039 142.791 -9.09404 140.557 -8.5704 138.422C-6.43864 137.902 -4.20927 137.943 -2.09775 138.54C0.0137833 139.136 1.93609 140.269 3.4834 141.828V141.828Z" stroke="#28357C" stroke-width="1.5" stroke-linejoin="bevel"/>
<path d="M18.4986 254.994H80.4355" stroke="#28357C" stroke-width="1.5" stroke-linejoin="bevel"/>
<path d="M285.657 60.3314C285.657 61.4737 285.995 62.5904 286.628 63.5401C287.262 64.4898 288.162 65.2299 289.215 65.6667C290.267 66.1036 291.426 66.2176 292.544 65.9943C293.661 65.7709 294.687 65.2204 295.493 64.4122C296.298 63.604 296.846 62.5746 297.068 61.4541C297.289 60.3336 297.174 59.1724 296.737 58.1174C296.301 57.0624 295.561 56.161 294.613 55.5273C293.665 54.8935 292.551 54.5559 291.411 54.5571C290.655 54.5571 289.906 54.7065 289.208 54.9968C288.509 55.2871 287.875 55.7125 287.34 56.2488C286.806 56.785 286.382 57.4216 286.093 58.1222C285.805 58.8227 285.656 59.5734 285.657 60.3314Z" stroke="#28357C" stroke-width="1.5" stroke-linejoin="bevel"/>
<path d="M235.492 89.1738V72.0996H202.797V89.18C202.797 91.2295 203.389 93.2351 204.503 94.9539C205.617 96.6727 207.204 98.0308 209.072 98.8639L214.553 101.313C216.323 102.104 217.891 103.285 219.141 104.769" stroke="#28357C" stroke-width="1.5" stroke-linejoin="bevel"/>
<path d="M296.102 159.001V175.832C296.102 180.532 297.461 185.13 300.014 189.072C302.567 193.013 306.205 196.128 310.487 198.041L323.049 203.635C327.111 205.444 330.714 208.149 333.59 211.547C336.465 208.149 340.068 205.444 344.131 203.635L356.693 198.041C360.975 196.128 364.613 193.013 367.166 189.072C369.719 185.13 371.078 180.532 371.078 175.832V136.674H274.226" stroke="#28357C" stroke-width="1.5" stroke-linejoin="bevel"/>
<path d="M241.843 215.362C244.471 217.991 247.731 219.895 251.308 220.893C254.884 221.89 258.657 221.946 262.261 221.056C263.139 217.44 263.071 213.658 262.066 210.076C261.061 206.493 259.151 203.231 256.522 200.603C253.893 197.976 250.633 196.072 247.056 195.075C243.479 194.079 239.706 194.023 236.101 194.913C235.223 198.529 235.29 202.311 236.296 205.893C237.302 209.475 239.212 212.737 241.843 215.362V215.362Z" stroke="#28357C" stroke-width="1.5" stroke-linejoin="bevel"/>
<path d="M329.925 78.3846C332.519 80.9885 334.399 84.2193 335.383 87.7646C336.367 91.3099 336.422 95.0497 335.543 98.6225C331.979 99.49 328.252 99.4229 324.721 98.4278C321.19 97.4327 317.975 95.5431 315.384 92.9409C312.793 90.3387 310.914 87.1116 309.928 83.5705C308.942 80.0293 308.882 76.2933 309.755 72.7222C313.319 71.8472 317.048 71.9086 320.581 72.9006C324.114 73.8925 327.333 75.7813 329.925 78.3846Z" stroke="#28357C" stroke-width="1.5" stroke-linejoin="bevel"/>
<path d="M253.369 180.619C249.463 180.601 245.601 179.788 242.018 178.229C238.434 176.671 235.204 174.398 232.523 171.551C232.12 171.973 231.698 172.383 231.283 172.794C228.549 175.38 225.333 177.399 221.819 178.737C218.305 180.075 214.563 180.704 210.806 180.588C207.049 180.473 203.351 179.615 199.926 178.064C196.5 176.513 193.414 174.3 190.843 171.551C190.434 171.973 190.018 172.383 189.603 172.794C186.868 175.379 183.652 177.398 180.137 178.736C176.623 180.073 172.88 180.702 169.123 180.586C165.365 180.471 161.668 179.613 158.242 178.063C154.816 176.512 151.728 174.299 149.157 171.551C148.744 171.965 148.33 172.379 147.917 172.794C145.182 175.379 141.966 177.398 138.451 178.736C134.937 180.073 131.194 180.702 127.437 180.586C123.679 180.471 119.982 179.613 116.556 178.063C113.13 176.512 110.042 174.299 107.471 171.551" stroke="#28357C" stroke-width="1.5" stroke-linejoin="bevel"/>
<path d="M189.004 117.707H151.051" stroke="#28357C" stroke-width="1.5" stroke-linejoin="bevel"/>
<path d="M211.684 137.523H128.541" stroke="#28357C" stroke-width="1.5" stroke-linejoin="bevel"/>
<path d="M334.881 0C350.293 0 365.074 6.13728 375.972 17.0617C386.87 27.9861 392.992 42.8028 392.992 58.2523" stroke="#28357C" stroke-width="1.5" stroke-linejoin="bevel"/>
<path d="M274.225 19.3501H336.162" stroke="#28357C" stroke-width="1.5" stroke-linejoin="bevel"/>
<path d="M54.4842 300.343C54.4846 293.755 51.9305 287.426 47.3614 282.691C42.7923 277.957 36.5662 275.188 29.9984 274.971H18.5213V305.843C18.4498 312.082 19.6139 318.273 21.9462 324.058C24.2784 329.842 27.7325 335.106 32.1082 339.543C36.484 343.98 41.6945 347.502 47.4379 349.906C53.1814 352.311 59.3436 353.549 65.5677 353.549C71.7918 353.549 77.954 352.311 83.6974 349.906C89.4408 347.502 94.6514 343.98 99.0271 339.543C103.403 335.106 106.857 329.842 109.189 324.058C111.521 318.273 112.686 312.082 112.614 305.843" stroke="#28357C" stroke-width="1.5" stroke-linejoin="bevel"/>
<path d="M137.277 324.075V235.665H-8.47202" stroke="#28357C" stroke-width="1.5" stroke-linejoin="bevel"/>
<path d="M-8.47329 326.188V296.813H-64.6996V326.188C-64.7002 329.715 -63.6807 333.166 -61.7648 336.123C-59.8488 339.081 -57.1185 341.418 -53.9044 342.852L-44.4797 347.066C-41.4357 348.423 -38.7373 350.452 -36.5864 353.002H136.625V414.717C136.625 422.124 134.484 429.373 130.459 435.586C126.435 441.799 120.7 446.709 113.95 449.723L94.1639 458.567C87.7718 461.42 82.1043 465.682 77.5837 471.036C73.0631 465.682 67.3956 461.42 61.0035 458.567L41.1619 449.723C34.4175 446.704 28.6899 441.791 24.6714 435.579C20.6528 429.367 18.5154 422.121 18.5176 414.717V388.804C18.1083 389.227 17.6929 389.637 17.2775 390.047C14.5421 392.631 11.3253 394.649 7.81101 395.985C4.29675 397.321 0.554116 397.95 -3.2027 397.834C-6.95952 397.719 -10.6568 396.862 -14.0827 395.312C-17.5087 393.763 -20.5962 391.551 -23.1685 388.804C-23.5715 389.227 -23.9932 389.637 -24.4086 390.047C-27.1434 392.631 -30.3597 394.649 -33.8735 395.985C-37.3872 397.321 -41.1294 397.949 -44.8857 397.834C-48.642 397.718 -52.3387 396.861 -55.7642 395.312C-59.1897 393.762 -62.2766 391.551 -64.8484 388.804C-65.2576 389.227 -65.673 389.637 -66.0885 390.047C-68.8238 392.631 -72.0407 394.649 -75.5549 395.985C-79.0692 397.321 -82.8118 397.95 -86.5686 397.834C-90.3255 397.719 -94.0227 396.862 -97.4487 395.312C-100.875 393.763 -103.962 391.551 -106.534 388.804C-106.937 389.227 -107.359 389.637 -107.775 390.047C-113.256 395.23 -120.559 398.033 -128.093 397.844C-135.626 397.656 -142.78 394.491 -147.997 389.04C-148.382 389.444 -148.785 389.836 -149.194 390.215C-151.929 392.799 -155.145 394.816 -158.659 396.153C-162.173 397.489 -165.915 398.117 -169.671 398.002C-173.427 397.886 -177.124 397.029 -180.55 395.48C-183.975 393.93 -187.062 391.719 -189.634 388.972" stroke="#28357C" stroke-width="1.5" stroke-linejoin="bevel"/>
<path d="M227.277 404.245C229.183 399.353 232.479 395.128 236.756 392.093C241.033 389.058 246.104 387.347 251.341 387.171H263.444V419.809C263.518 426.403 262.286 432.945 259.819 439.058C257.353 445.171 253.701 450.733 249.076 455.421C244.451 460.11 238.944 463.832 232.874 466.372C226.803 468.913 220.291 470.221 213.713 470.221C207.135 470.221 200.622 468.913 194.552 466.372C188.482 463.832 182.975 460.11 178.35 455.421C173.724 450.733 170.073 445.171 167.607 439.058C165.14 432.945 163.908 426.403 163.982 419.809" stroke="#28357C" stroke-width="1.5" stroke-linejoin="bevel"/>
<path d="M227.271 423.241L191.476 387.365C187.441 392.554 184.534 398.532 182.943 404.915C181.352 411.299 181.112 417.945 182.238 424.427C183.364 430.909 185.832 437.082 189.482 442.551C193.131 448.019 197.883 452.661 203.431 456.177" stroke="#28357C" stroke-width="1.5" stroke-linejoin="bevel"/>
<path d="M330.41 323.212C330.408 308.656 325.766 294.482 317.16 282.758C308.554 271.034 296.436 262.374 282.573 258.042" stroke="#28357C" stroke-width="1.5" stroke-linejoin="bevel"/>
<path d="M164.004 471.04H-127.185" stroke="#28357C" stroke-width="1.5" stroke-linejoin="bevel"/>
<path d="M263.438 471.039H393.934V425.666C391.363 428.415 388.277 430.628 384.851 432.179C381.425 433.73 377.728 434.588 373.971 434.703C370.214 434.819 366.471 434.19 362.957 432.852C359.443 431.515 356.227 429.495 353.494 426.909C353.066 426.511 352.651 426.101 352.254 425.666C349.57 428.509 346.339 430.777 342.756 432.331C339.173 433.886 335.312 434.695 331.408 434.709" stroke="#28357C" stroke-width="1.5" stroke-linejoin="bevel"/>
<path d="M164.018 353.35H263.48" stroke="#28357C" stroke-width="1.5" stroke-linejoin="bevel"/>
<path d="M303.968 368.516C303.968 364.579 302.442 360.796 299.711 357.966C296.981 355.136 293.26 353.481 289.334 353.35H282.47V371.798C282.47 379.274 285.433 386.443 290.706 391.73C295.98 397.016 303.132 399.986 310.59 399.986C318.047 399.986 325.2 397.016 330.473 391.73C335.746 386.443 338.709 379.274 338.709 371.798" stroke="#28357C" stroke-width="1.5" stroke-linejoin="bevel"/>
<path d="M208.3 279.597V289.604C208.301 292.395 209.109 295.127 210.625 297.469C212.141 299.81 214.301 301.662 216.844 302.799L224.285 306.131C226.71 307.201 228.862 308.807 230.578 310.83C232.27 308.82 234.389 307.215 236.779 306.131L244.251 302.799C246.794 301.662 248.954 299.81 250.47 297.469C251.986 295.127 252.794 292.395 252.795 289.604V266.339H164.01V235.665H230.231" stroke="#28357C" stroke-width="1.5" stroke-linejoin="bevel"/>
<path d="M18.1387 87.8636C18.1374 73.3085 13.4957 59.1348 4.89113 47.4109C-3.71348 35.6869 -15.8307 27.0265 -29.6921 22.6934" stroke="#28357C" stroke-width="1.5" stroke-linejoin="bevel"/>
<path d="M39.291 99.5038H-148.275V0.0112305H-269.29" stroke="#28357C" stroke-width="1.5" stroke-linejoin="bevel"/>
<path d="M-8.31572 133.143C-8.31361 129.205 -9.8393 125.421 -12.5702 122.591C-15.301 119.76 -19.023 118.106 -22.9489 117.977H-29.8129V136.424C-29.8129 140.126 -29.0855 143.791 -27.6724 147.211C-26.2593 150.631 -24.188 153.739 -21.5769 156.356C-18.9658 158.973 -15.866 161.05 -12.4544 162.466C-9.04277 163.883 -5.38626 164.612 -1.69357 164.612C1.99911 164.612 5.65566 163.883 9.06725 162.466C12.4788 161.05 15.5787 158.973 18.1898 156.356C20.8009 153.739 22.8722 150.631 24.2853 147.211C25.6984 143.791 26.4258 140.126 26.4258 136.424" stroke="#28357C" stroke-width="1.5" stroke-linejoin="bevel"/>
<path d="M26.4237 117.977H80.9883V153.604C80.579 154.027 80.1636 154.437 79.7482 154.847C77.0128 157.431 73.796 159.449 70.2817 160.786C66.7675 162.122 63.0248 162.75 59.268 162.635C55.5112 162.519 51.814 161.662 48.388 160.113C44.962 158.563 41.8745 156.351 39.3022 153.604" stroke="#28357C" stroke-width="1.5" stroke-linejoin="bevel"/>
<path d="M26.43 0.0112305H80.9883V60.1779" stroke="#28357C" stroke-width="1.5" stroke-linejoin="bevel"/>
<path d="M310.189 64.6931C310.19 58.1052 307.636 51.775 303.067 47.0396C298.498 42.3042 292.272 39.5343 285.703 39.3149H274.226V70.1877C274.155 76.4264 275.319 82.6174 277.651 88.402C279.983 94.1867 283.438 99.4499 287.813 103.887C292.189 108.324 297.4 111.847 303.143 114.251C308.886 116.655 315.049 117.893 321.273 117.893C327.497 117.893 333.659 116.655 339.402 114.251C345.146 111.847 350.356 108.324 354.732 103.887C359.108 99.4499 362.562 94.1867 364.894 88.402C367.226 82.6174 368.391 76.4264 368.319 70.1877" stroke="#28357C" stroke-width="1.5" stroke-linejoin="bevel"/>
<path d="M392.992 88.4277V0.0112305H271.977" stroke="#28357C" stroke-width="1.5" stroke-linejoin="bevel"/>
<path d="M247.256 90.548V61.167H191.023V90.548C191.023 94.0743 192.043 97.525 193.959 100.482C195.875 103.44 198.605 105.777 201.818 107.212L211.243 111.42C214.286 112.779 216.984 114.808 219.136 117.356H392.354V179.07C392.354 186.478 390.212 193.727 386.188 199.94C382.164 206.152 376.429 211.063 369.679 214.076L349.837 222.921C343.445 225.774 337.777 230.036 333.257 235.389L333.337 235.663H393.271V295.55" stroke="#28357C" stroke-width="1.5" stroke-linejoin="bevel"/>
<path d="M107.442 153.159C110.014 155.908 113.101 158.121 116.527 159.671C119.953 161.222 123.651 162.079 127.408 162.195C131.165 162.31 134.908 161.681 138.423 160.344C141.937 159.007 145.154 156.988 147.888 154.402C148.302 153.988 148.715 153.574 149.128 153.159C151.7 155.908 154.787 158.121 158.213 159.671C161.639 161.222 165.337 162.079 169.094 162.195C172.851 162.31 176.594 161.681 180.109 160.344C183.623 159.007 186.84 156.988 189.574 154.402C190.002 154.004 190.418 153.594 190.814 153.159C193.385 155.908 196.471 158.122 199.897 159.673C203.323 161.224 207.02 162.081 210.777 162.197C214.534 162.312 218.277 161.683 221.791 160.346C225.305 159.008 228.521 156.988 231.254 154.402C231.682 154.004 232.104 153.594 232.494 153.159C235.066 155.908 238.153 158.121 241.579 159.671C245.005 161.222 248.703 162.079 252.46 162.195C256.217 162.31 259.96 161.681 263.475 160.344C266.989 159.007 270.206 156.988 272.94 154.402C273.368 154.004 273.784 153.594 274.18 153.159V179.072C274.184 186.487 276.336 193.742 280.373 199.956C284.41 206.17 290.16 211.076 296.924 214.078" stroke="#28357C" stroke-width="1.5" stroke-linejoin="bevel"/>
<path d="M107.439 0.0112305V117.355" stroke="#28357C" stroke-width="1.5" stroke-linejoin="bevel"/>
<path d="M211.684 217.462H81.665V190.275C79.0936 193.023 76.0064 195.236 72.5803 196.787C69.1543 198.337 65.4567 199.195 61.6994 199.31C57.9421 199.426 54.199 198.797 50.6846 197.46C47.1702 196.123 43.9536 194.103 41.219 191.518C40.7912 191.12 40.3758 190.71 39.9789 190.275C37.2978 193.117 34.0688 195.385 30.4877 196.939C26.9065 198.494 23.0477 199.303 19.1452 199.318" stroke="#28357C" stroke-width="1.5" stroke-linejoin="bevel"/>
<path d="M107.432 189.992C110.004 192.74 113.091 194.953 116.517 196.504C119.943 198.054 123.64 198.912 127.398 199.027C131.155 199.143 134.898 198.514 138.413 197.177C141.927 195.84 145.144 193.82 147.878 191.235C148.291 190.82 148.705 190.406 149.118 189.992C151.69 192.74 154.777 194.953 158.203 196.504C161.629 198.054 165.327 198.912 169.084 199.027C172.841 199.143 176.584 198.514 180.099 197.177C183.613 195.84 186.83 193.82 189.564 191.235C189.992 190.837 190.407 190.427 190.804 189.992C193.487 192.835 196.719 195.103 200.302 196.657C203.885 198.212 207.746 199.021 211.65 199.035" stroke="#28357C" stroke-width="1.5" stroke-linejoin="bevel"/>
<path d="M151.044 87.5906C151.043 78.6289 152.803 69.7547 156.224 61.475C159.645 53.1953 164.659 45.6722 170.981 39.3353C177.302 32.9984 184.807 27.9718 193.067 24.5427C201.326 21.1136 210.179 19.349 219.119 19.3499" stroke="#28357C" stroke-width="1.5" stroke-linejoin="bevel"/>
<path d="M130.923 88.4289C130.921 76.8171 133.2 65.3186 137.631 54.59C142.062 43.8614 148.558 34.113 156.748 25.9013C164.938 17.6897 174.662 11.1758 185.364 6.73161C196.065 2.28742 207.535 -2.58266e-07 219.119 0" stroke="#28357C" stroke-width="1.5" stroke-linejoin="bevel"/>
</g>
</g>
<defs>
<clipPath id="clip0_1024_5024">
<rect width="1076" height="490" rx="240" transform="matrix(-1 0 0 1 375 0)" fill="white"/>
</clipPath>
</defs>
</svg>
