<svg width="477" height="260" viewBox="0 0 477 260" fill="none" xmlns="http://www.w3.org/2000/svg">
<g opacity="0.1">
<g clip-path="url(#clip0_6_45)">
<path d="M413.512 244.177C411.485 246.201 410.017 248.714 409.248 251.47C408.479 254.227 408.436 257.135 409.123 259.913C411.91 260.588 414.824 260.535 417.585 259.759C420.345 258.984 422.859 257.512 424.884 255.486C426.909 253.46 428.376 250.948 429.145 248.192C429.913 245.435 429.957 242.528 429.272 239.75C426.485 239.074 423.571 239.127 420.81 239.902C418.05 240.678 415.536 242.15 413.512 244.177V244.177Z" stroke="#19191B" stroke-width="1.5" stroke-linejoin="bevel"/>
<path d="M442.01 251.984C442.01 242.956 443.793 234.016 447.256 225.676C450.719 217.335 455.796 209.757 462.195 203.373C468.595 196.99 476.192 191.926 484.553 188.472C492.914 185.017 501.876 183.24 510.925 183.24" stroke="#19191B" stroke-width="1.5" stroke-linejoin="bevel"/>
<path d="M587.767 260.385H441.216" stroke="#19191B" stroke-width="1.5" stroke-linejoin="bevel"/>
<path d="M484.558 123.629V136.717C484.558 140.371 483.496 143.946 481.501 147.011C479.507 150.076 476.664 152.498 473.319 153.985L463.503 158.335C460.329 159.742 457.514 161.845 455.267 164.487C453.02 161.845 450.205 159.743 447.032 158.335L437.211 153.985C433.866 152.497 431.025 150.075 429.032 147.01C427.038 143.946 425.977 140.37 425.977 136.717V106.27H501.611" stroke="#19191B" stroke-width="1.5" stroke-linejoin="bevel"/>
<path d="M458.13 60.9465C456.103 62.9711 454.634 65.4832 453.866 68.2399C453.097 70.9965 453.054 73.9045 453.741 76.6825C456.526 77.357 459.438 77.3048 462.196 76.5311C464.955 75.7573 467.467 74.2881 469.492 72.2647C471.516 70.2414 472.984 67.7322 473.754 64.9787C474.525 62.2253 474.571 59.3204 473.89 56.5437C471.105 55.8633 468.192 55.9111 465.431 56.6823C462.67 57.4536 460.156 58.9223 458.13 60.9465V60.9465Z" stroke="#19191B" stroke-width="1.5" stroke-linejoin="bevel"/>
<path d="M454.257 0C448.294 -1.35458e-07 442.389 1.17189 436.879 3.44874C431.37 5.72559 426.364 9.0628 422.148 13.2698C417.932 17.4767 414.588 22.4711 412.306 27.9675C410.025 33.464 408.852 39.3549 408.853 45.3038" stroke="#19191B" stroke-width="1.5" stroke-linejoin="bevel"/>
<path d="M501.649 15.0449H453.255" stroke="#19191B" stroke-width="1.5" stroke-linejoin="bevel"/>
<path d="M269.605 230.139C269.606 231.028 269.343 231.896 268.849 232.635C268.354 233.375 267.651 233.951 266.829 234.291C266.006 234.632 265.101 234.721 264.227 234.548C263.354 234.375 262.552 233.947 261.922 233.319C261.292 232.691 260.863 231.89 260.69 231.019C260.516 230.147 260.606 229.244 260.947 228.424C261.288 227.603 261.866 226.902 262.607 226.409C263.348 225.916 264.219 225.653 265.109 225.654C266.302 225.654 267.445 226.127 268.288 226.968C269.131 227.809 269.605 228.95 269.605 230.139V230.139Z" stroke="#19191B" stroke-width="1.5" stroke-linejoin="bevel"/>
<path d="M155.664 230.139C155.665 231.027 155.401 231.896 154.907 232.635C154.413 233.374 153.711 233.95 152.889 234.291C152.066 234.631 151.161 234.721 150.288 234.548C149.414 234.375 148.612 233.948 147.982 233.321C147.352 232.693 146.923 231.893 146.749 231.022C146.575 230.151 146.664 229.248 147.004 228.427C147.345 227.606 147.922 226.905 148.662 226.411C149.402 225.918 150.273 225.654 151.163 225.654C152.356 225.654 153.5 226.127 154.344 226.968C155.188 227.809 155.662 228.949 155.664 230.139V230.139Z" stroke="#19191B" stroke-width="1.5" stroke-linejoin="bevel"/>
<path d="M308.811 252.564V239.283H334.357V252.564C334.357 254.158 333.895 255.719 333.024 257.056C332.154 258.393 330.914 259.45 329.454 260.099L325.171 262.003C323.79 262.618 322.565 263.534 321.586 264.685" stroke="#19191B" stroke-width="1.5" stroke-linejoin="bevel"/>
<path d="M235.01 244.177C232.984 246.202 231.515 248.714 230.746 251.471C229.977 254.227 229.934 257.135 230.621 259.913C233.408 260.588 236.322 260.535 239.083 259.76C241.844 258.985 244.357 257.513 246.382 255.487C248.407 253.461 249.874 250.948 250.643 248.192C251.411 245.436 251.455 242.528 250.77 239.75C247.983 239.074 245.069 239.127 242.308 239.902C239.548 240.678 237.034 242.15 235.01 244.177V244.177Z" stroke="#19191B" stroke-width="1.5" stroke-linejoin="bevel"/>
<path d="M-9.40081 244.177C-11.4269 246.202 -12.8953 248.714 -13.6641 251.471C-14.433 254.227 -14.4764 257.135 -13.7901 259.913C-11.0031 260.588 -8.08885 260.535 -5.32827 259.759C-2.56769 258.984 -0.0538611 257.512 1.97088 255.486C3.99562 253.46 5.463 250.948 6.23157 248.192C7.00014 245.435 7.04397 242.528 6.35886 239.75C3.57206 239.074 0.657792 239.127 -2.10272 239.902C-4.86323 240.678 -7.37679 242.15 -9.40081 244.177V244.177Z" stroke="#19191B" stroke-width="1.5" stroke-linejoin="bevel"/>
<path d="M374.767 251.311C374.762 237.242 369.156 223.75 359.181 213.804C349.207 203.857 335.681 198.27 321.577 198.27" stroke="#19191B" stroke-width="1.5" stroke-linejoin="bevel"/>
<path d="M19.1067 251.984C19.1067 242.956 20.8892 234.016 24.3526 225.676C27.816 217.335 32.8923 209.757 39.2918 203.373C45.6912 196.99 53.2884 191.926 61.6495 188.472C70.0107 185.017 78.972 183.24 88.0219 183.24" stroke="#19191B" stroke-width="1.5" stroke-linejoin="bevel"/>
<path d="M231.146 183.24C219.104 183.24 207.555 188.012 199.04 196.507C190.525 205.001 185.741 216.522 185.741 228.534" stroke="#19191B" stroke-width="1.5" stroke-linejoin="bevel"/>
<path d="M164.862 260.385H18.3114" stroke="#19191B" stroke-width="1.5" stroke-linejoin="bevel"/>
<path d="M130.11 198.27H85.621V226.354C85.6177 229.727 86.5954 233.03 88.4356 235.861C90.2757 238.691 92.8994 240.929 95.9886 242.302L105.048 246.328C107.97 247.628 110.562 249.567 112.63 252.002H164.855" stroke="#19191B" stroke-width="1.5" stroke-linejoin="bevel"/>
<path d="M399.643 47.1246C399.643 48.0126 399.379 48.8806 398.884 49.6189C398.39 50.3573 397.687 50.9327 396.865 51.2726C396.042 51.6124 395.137 51.7013 394.264 51.5281C393.391 51.3548 392.589 50.9272 391.96 50.2993C391.33 49.6714 390.902 48.8714 390.728 48.0005C390.554 47.1295 390.643 46.2268 390.984 45.4064C391.325 44.586 391.902 43.8848 392.642 43.3914C393.382 42.8981 394.252 42.6348 395.142 42.6348C396.336 42.6348 397.481 43.1078 398.325 43.9498C399.169 44.7918 399.643 45.9338 399.643 47.1246Z" stroke="#19191B" stroke-width="1.5" stroke-linejoin="bevel"/>
<path d="M299.283 167.676C301.336 169.719 303.883 171.2 306.678 171.975C309.473 172.75 312.421 172.792 315.236 172.098C315.923 169.285 315.872 166.343 315.088 163.556C314.303 160.769 312.812 158.231 310.757 156.187C308.703 154.142 306.155 152.66 303.359 151.884C300.564 151.108 297.615 151.064 294.797 151.756C294.108 154.57 294.159 157.514 294.945 160.303C295.731 163.092 297.225 165.631 299.283 167.676V167.676Z" stroke="#19191B" stroke-width="1.5" stroke-linejoin="bevel"/>
<path d="M234.596 61.1674C232.575 63.1955 231.112 65.709 230.349 68.4653C229.585 71.2216 229.546 74.1278 230.236 76.9034C233.023 77.5786 235.937 77.5261 238.698 76.7509C241.458 75.9756 243.972 74.5038 245.997 72.4775C248.021 70.4511 249.488 67.9385 250.256 65.1821C251.024 62.4256 251.067 59.5183 250.38 56.7405C247.59 56.0592 244.671 56.1088 241.905 56.8844C239.14 57.66 236.622 59.1354 234.596 61.1674V61.1674Z" stroke="#19191B" stroke-width="1.5" stroke-linejoin="bevel"/>
<path d="M229.721 133.625C230.04 133.954 230.365 134.273 230.69 134.592C232.827 136.601 235.34 138.17 238.086 139.209C240.832 140.248 243.756 140.736 246.691 140.647C249.627 140.557 252.515 139.89 255.192 138.686C257.869 137.481 260.281 135.761 262.291 133.625C262.606 133.954 262.931 134.273 263.26 134.592C267.416 138.474 272.895 140.635 278.589 140.638" stroke="#19191B" stroke-width="1.5" stroke-linejoin="bevel"/>
<path d="M339.773 132.338C339.772 133.154 340.014 133.952 340.467 134.63C340.921 135.309 341.566 135.838 342.322 136.151C343.077 136.464 343.908 136.546 344.71 136.387C345.512 136.228 346.249 135.835 346.827 135.258C347.406 134.681 347.799 133.946 347.959 133.146C348.118 132.346 348.036 131.517 347.722 130.763C347.409 130.01 346.879 129.366 346.198 128.913C345.518 128.461 344.718 128.22 343.9 128.221C342.806 128.222 341.757 128.656 340.983 129.428C340.209 130.2 339.774 131.247 339.773 132.338Z" stroke="#19191B" stroke-width="1.5" stroke-linejoin="bevel"/>
<path d="M353.879 111.255L356.466 104.107C361.223 106.513 365.359 109.982 368.553 114.244C371.746 118.506 373.91 123.445 374.875 128.678" stroke="#19191B" stroke-width="1.5" stroke-linejoin="bevel"/>
<path d="M263.094 68.971C263.094 59.943 264.876 51.0034 268.338 42.6625C271.801 34.3216 276.877 26.7428 283.276 20.3589C289.675 13.9749 297.272 8.91089 305.633 5.4559C313.994 2.00092 322.955 0.222656 332.005 0.222656" stroke="#19191B" stroke-width="1.5" stroke-linejoin="bevel"/>
<path d="M246.005 169.085C249.057 169.074 252.074 168.445 254.875 167.236C257.675 166.027 260.2 164.264 262.298 162.053C262.613 162.381 262.942 162.7 263.267 163.019C267.413 166.907 272.885 169.078 278.576 169.094" stroke="#19191B" stroke-width="1.5" stroke-linejoin="bevel"/>
<path d="M290.279 110.279C289.067 111.489 288.189 112.991 287.73 114.638C287.271 116.286 287.246 118.024 287.658 119.684C289.323 120.086 291.065 120.054 292.714 119.59C294.364 119.126 295.865 118.246 297.075 117.035C298.285 115.824 299.161 114.322 299.62 112.675C300.08 111.028 300.106 109.291 299.697 107.631C298.031 107.227 296.289 107.259 294.639 107.723C292.99 108.186 291.488 109.067 290.279 110.279V110.279Z" stroke="#19191B" stroke-width="1.5" stroke-linejoin="bevel"/>
<path d="M310.501 101.89C310.501 102.329 310.37 102.758 310.126 103.123C309.882 103.487 309.534 103.772 309.128 103.94C308.722 104.108 308.275 104.151 307.843 104.066C307.412 103.98 307.016 103.769 306.705 103.459C306.394 103.149 306.182 102.753 306.096 102.323C306.01 101.893 306.054 101.447 306.223 101.041C306.391 100.636 306.676 100.289 307.042 100.046C307.407 99.802 307.837 99.6719 308.277 99.6719C308.867 99.6719 309.432 99.9056 309.85 100.322C310.267 100.738 310.501 101.302 310.501 101.89V101.89Z" stroke="#19191B" stroke-width="1.5" stroke-linejoin="bevel"/>
<path d="M374.096 15.2598H329.608V43.3439C329.604 46.7177 330.582 50.0201 332.422 52.8509C334.262 55.6816 336.886 57.9192 339.975 59.2925L349.035 63.3183C351.957 64.6181 354.548 66.5573 356.617 68.9922H395.141" stroke="#19191B" stroke-width="1.5" stroke-linejoin="bevel"/>
<path d="M278.546 198.27H230.152" stroke="#19191B" stroke-width="1.5" stroke-linejoin="bevel"/>
<path d="M69.8054 46.9097C69.8054 47.7979 69.5413 48.6662 69.0465 49.4046C68.5518 50.1431 67.8486 50.7185 67.0259 51.0582C66.2032 51.3979 65.298 51.4865 64.4248 51.3129C63.5517 51.1392 62.7497 50.7111 62.1205 50.0827C61.4913 49.4544 61.063 48.6539 60.8899 47.7827C60.7168 46.9114 60.8066 46.0085 61.148 45.1882C61.4894 44.3679 62.067 43.667 62.8078 43.1742C63.5485 42.6815 64.4192 42.419 65.3095 42.4199C65.9003 42.4199 66.4853 42.5361 67.0311 42.7618C67.5769 42.9875 68.0727 43.3183 68.4903 43.7352C68.9078 44.1522 69.2389 44.6472 69.4645 45.1919C69.6902 45.7366 69.806 46.3203 69.8054 46.9097Z" stroke="#19191B" stroke-width="1.5" stroke-linejoin="bevel"/>
<path d="M109.002 69.3366V56.0605H134.548V69.3414C134.548 70.935 134.085 72.4945 133.215 73.8309C132.345 75.1673 131.105 76.2234 129.645 76.8711L125.362 78.7753C123.98 79.3903 122.754 80.3088 121.777 81.4624" stroke="#19191B" stroke-width="1.5" stroke-linejoin="bevel"/>
<path d="M61.6453 123.629V136.717C61.645 140.371 60.5832 143.946 58.5885 147.011C56.5937 150.076 53.7515 152.498 50.4057 153.985L40.5905 158.335C37.4164 159.742 34.6013 161.845 32.3545 164.487C30.1078 161.845 27.2927 159.742 24.1186 158.335L14.3034 153.985C10.9575 152.498 8.11535 150.076 6.12063 147.011C4.12591 143.946 3.06414 140.371 3.06375 136.717V106.27H78.7373" stroke="#19191B" stroke-width="1.5" stroke-linejoin="bevel"/>
<path d="M104.04 167.456C101.987 169.499 99.4396 170.98 96.6451 171.756C93.8507 172.531 90.903 172.575 88.0866 171.883C87.4012 169.071 87.4538 166.131 88.2392 163.345C89.0247 160.559 90.5165 158.023 92.5708 155.98C94.6251 153.937 97.1725 152.456 99.9672 151.681C102.762 150.906 105.71 150.863 108.526 151.556C109.212 154.367 109.16 157.307 108.374 160.093C107.588 162.878 106.095 165.414 104.04 167.456V167.456Z" stroke="#19191B" stroke-width="1.5" stroke-linejoin="bevel"/>
<path d="M35.2191 60.9465C33.1922 62.9711 31.7233 65.4832 30.9544 68.2399C30.1855 70.9965 30.1426 73.9045 30.8299 76.6825C33.6146 77.357 36.5264 77.3048 39.2851 76.5311C42.0438 75.7573 44.5562 74.2881 46.5806 72.2647C48.6049 70.2414 50.073 67.7322 50.8433 64.9787C51.6136 62.2253 51.6603 59.3204 50.9788 56.5437C48.1941 55.8633 45.2806 55.9111 42.5199 56.6823C39.7591 57.4536 37.2445 58.9223 35.2191 60.9465Z" stroke="#19191B" stroke-width="1.5" stroke-linejoin="bevel"/>
<path d="M95.0339 140.44C98.086 140.426 101.103 139.794 103.903 138.582C106.703 137.37 109.227 135.603 111.322 133.389C111.637 133.717 111.966 134.036 112.291 134.355C114.426 136.366 116.939 137.937 119.685 138.977C122.43 140.017 125.355 140.506 128.29 140.416C131.226 140.326 134.114 139.659 136.791 138.453C139.468 137.247 141.879 135.526 143.887 133.389C144.207 133.717 144.532 134.036 144.856 134.355C146.993 136.366 149.506 137.936 152.252 138.975C154.998 140.015 157.923 140.504 160.858 140.414C163.794 140.325 166.683 139.658 169.36 138.452C172.037 137.247 174.449 135.526 176.458 133.389C176.781 133.711 177.104 134.033 177.427 134.355C179.564 136.366 182.077 137.936 184.823 138.975C187.569 140.015 190.493 140.504 193.429 140.414C196.365 140.325 199.254 139.658 201.931 138.452C204.607 137.247 207.02 135.526 209.029 133.389" stroke="#19191B" stroke-width="1.5" stroke-linejoin="bevel"/>
<path d="M145.323 91.5234H174.977" stroke="#19191B" stroke-width="1.5" stroke-linejoin="bevel"/>
<path d="M127.604 106.932H192.566" stroke="#19191B" stroke-width="1.5" stroke-linejoin="bevel"/>
<path d="M31.3449 0C19.303 0 7.75431 4.77205 -0.760617 13.2663C-9.27554 21.7606 -14.0592 33.2814 -14.0592 45.2941" stroke="#19191B" stroke-width="1.5" stroke-linejoin="bevel"/>
<path d="M78.7375 15.0449H30.3443" stroke="#19191B" stroke-width="1.5" stroke-linejoin="bevel"/>
<path d="M457.742 251.314C457.743 239.996 461.371 228.975 468.095 219.859C474.819 210.743 484.287 204.009 495.119 200.641" stroke="#19191B" stroke-width="1.5" stroke-linejoin="bevel"/>
<path d="M473.539 50.3031C473.538 45.1799 475.534 40.2571 479.105 36.575C482.676 32.8928 487.542 30.7396 492.675 30.5703H501.642V54.5754C501.642 64.3015 497.769 73.6292 490.875 80.5066C483.981 87.384 474.631 91.2476 464.881 91.2476C455.131 91.2476 445.781 87.384 438.887 80.5066C431.993 73.6292 428.12 64.3015 428.12 54.5754" stroke="#19191B" stroke-width="1.5" stroke-linejoin="bevel"/>
<path d="M427.071 166.457L442.55 173.334C447.544 175.553 451.972 178.866 455.505 183.029L455.442 183.242H408.637V229.807" stroke="#19191B" stroke-width="1.5" stroke-linejoin="bevel"/>
<path d="M250.43 233.533C250.429 228.411 252.425 223.489 255.995 219.808C259.565 216.127 264.429 213.974 269.561 213.805H278.529V237.81C278.584 242.661 277.675 247.475 275.853 251.972C274.03 256.47 271.332 260.563 267.913 264.013C264.494 267.463 260.423 270.202 255.935 272.071C251.447 273.94 246.633 274.903 241.77 274.903C236.907 274.903 232.092 273.94 227.604 272.071C223.117 270.202 219.046 267.463 215.627 264.013C212.208 260.563 209.509 256.47 207.687 251.972C205.865 247.475 204.955 242.661 205.011 237.81" stroke="#19191B" stroke-width="1.5" stroke-linejoin="bevel"/>
<path d="M185.741 251.984V183.24H299.62" stroke="#19191B" stroke-width="1.5" stroke-linejoin="bevel"/>
<path d="M299.62 253.629V230.789H343.551V253.629C343.552 256.371 342.755 259.055 341.258 261.355C339.761 263.654 337.628 265.472 335.117 266.587L327.753 269.863C325.374 270.918 323.266 272.496 321.586 274.479H186.25V322.465C186.25 328.225 187.923 333.861 191.068 338.692C194.212 343.523 198.693 347.341 203.967 349.684L219.426 356.561C224.421 358.779 228.849 362.093 232.381 366.256C235.913 362.093 240.341 358.779 245.336 356.561L260.838 349.684C266.108 347.337 270.583 343.517 273.723 338.686C276.863 333.856 278.533 328.222 278.531 322.465V302.316C278.851 302.645 279.175 302.964 279.5 303.283C281.637 305.292 284.151 306.861 286.897 307.9C289.642 308.939 292.567 309.428 295.502 309.338C298.437 309.248 301.326 308.582 304.003 307.377C306.68 306.172 309.092 304.452 311.102 302.316C311.417 302.645 311.746 302.964 312.071 303.283C314.207 305.292 316.721 306.861 319.466 307.9C322.211 308.939 325.135 309.427 328.07 309.338C331.005 309.248 333.893 308.581 336.57 307.377C339.246 306.172 341.658 304.452 343.668 302.316C343.987 302.645 344.312 302.964 344.637 303.283C346.774 305.292 349.287 306.861 352.033 307.9C354.779 308.939 357.703 309.428 360.638 309.338C363.574 309.248 366.462 308.582 369.139 307.377C371.816 306.172 374.228 304.452 376.238 302.316C376.553 302.645 376.883 302.964 377.207 303.283C381.49 307.313 387.196 309.492 393.082 309.346C398.968 309.199 404.558 306.739 408.634 302.5C408.935 302.814 409.25 303.119 409.569 303.413C411.706 305.422 414.219 306.991 416.965 308.03C419.71 309.069 422.634 309.558 425.569 309.468C428.504 309.378 431.392 308.712 434.069 307.507C436.745 306.302 439.157 304.583 441.166 302.447" stroke="#19191B" stroke-width="1.5" stroke-linejoin="bevel"/>
<path d="M390.488 251.984C390.488 233.752 383.228 216.267 370.304 203.375C357.381 190.483 339.854 183.24 321.577 183.24" stroke="#19191B" stroke-width="1.5" stroke-linejoin="bevel"/>
<path d="M34.8386 251.314C34.8399 239.996 38.4673 228.975 45.1912 219.859C51.9152 210.743 61.3838 204.009 72.2151 200.641" stroke="#19191B" stroke-width="1.5" stroke-linejoin="bevel"/>
<path d="M130.248 217.399V225.18C130.247 227.351 129.616 229.475 128.431 231.296C127.247 233.116 125.559 234.556 123.572 235.441L117.758 238.031C115.864 238.863 114.182 240.112 112.841 241.685C111.519 240.122 109.864 238.874 107.996 238.031L102.159 235.441C100.172 234.556 98.4838 233.116 97.2992 231.296C96.1145 229.475 95.4836 227.351 95.4826 225.18V207.091H164.853V183.24H113.112" stroke="#19191B" stroke-width="1.5" stroke-linejoin="bevel"/>
<path d="M359.435 129.329C357.947 125.524 355.373 122.238 352.032 119.879C348.691 117.519 344.729 116.189 340.638 116.053H331.137V141.43C331.252 151.636 335.396 161.385 342.67 168.561C349.945 175.738 359.763 179.762 369.994 179.762C380.225 179.762 390.043 175.738 397.318 168.561C404.592 161.385 408.736 151.636 408.85 141.43" stroke="#19191B" stroke-width="1.5" stroke-linejoin="bevel"/>
<path d="M359.437 144.099L387.4 116.203C390.551 120.239 392.821 124.887 394.063 129.85C395.305 134.812 395.493 139.979 394.613 145.019C393.734 150.058 391.807 154.858 388.957 159.11C386.107 163.362 382.397 166.972 378.065 169.708" stroke="#19191B" stroke-width="1.5" stroke-linejoin="bevel"/>
<path d="M278.826 68.3197C278.827 57.0024 282.453 45.9816 289.176 36.8656C295.899 27.7497 305.367 21.0157 316.197 17.6465" stroke="#19191B" stroke-width="1.5" stroke-linejoin="bevel"/>
<path d="M262.299 77.3703H408.85V0.00976562H503.403" stroke="#19191B" stroke-width="1.5" stroke-linejoin="bevel"/>
<path d="M299.496 103.527C299.495 100.465 300.687 97.5228 302.821 95.322C304.954 93.1213 307.862 91.8348 310.93 91.7344H316.293V106.078C316.293 108.957 315.725 111.807 314.62 114.466C313.516 117.125 311.898 119.541 309.858 121.576C307.818 123.612 305.396 125.226 302.73 126.327C300.064 127.429 297.208 127.996 294.322 127.996C291.437 127.996 288.58 127.429 285.915 126.327C283.249 125.226 280.827 123.612 278.787 121.576C276.747 119.541 275.128 117.125 274.024 114.466C272.92 111.807 272.352 108.957 272.352 106.078" stroke="#19191B" stroke-width="1.5" stroke-linejoin="bevel"/>
<path d="M272.354 91.7344H229.721V119.437C230.04 119.765 230.365 120.084 230.69 120.403C232.827 122.412 235.34 123.982 238.086 125.021C240.832 126.06 243.756 126.548 246.691 126.458C249.627 126.369 252.515 125.702 255.192 124.497C257.869 123.292 260.281 121.573 262.291 119.437" stroke="#19191B" stroke-width="1.5" stroke-linejoin="bevel"/>
<path d="M272.349 0.00976562H229.721V46.7924" stroke="#19191B" stroke-width="1.5" stroke-linejoin="bevel"/>
<path d="M374.238 34.3848V42.1658C374.238 44.3367 373.607 46.461 372.421 48.2813C371.235 50.1015 369.546 51.5396 367.557 52.4213L361.743 55.0165C359.86 55.8516 358.191 57.1006 356.86 58.6702C355.529 57.1006 353.86 55.8516 351.977 55.0165L346.163 52.4213C344.176 51.5384 342.487 50.0999 341.303 48.2798C340.118 46.4597 339.487 44.336 339.487 42.1658V24.0762H395.201" stroke="#19191B" stroke-width="1.5" stroke-linejoin="bevel"/>
<path d="M50.6374 50.3031C50.637 45.1807 52.6325 40.2586 56.2024 36.5766C59.7722 32.8946 64.6369 30.7409 69.7689 30.5703H78.7364V54.5754C78.7922 59.4264 77.8827 64.2402 76.0604 68.738C74.2381 73.2359 71.5394 77.3283 68.1205 80.7783C64.7015 84.2284 60.6304 86.9674 56.1429 88.8367C51.6554 90.7061 46.8406 91.6687 41.9775 91.6687C37.1145 91.6687 32.2997 90.7061 27.8122 88.8367C23.3247 86.9674 19.2535 84.2284 15.8346 80.7783C12.4157 77.3283 9.71696 73.2359 7.8947 68.738C6.07243 64.2402 5.16287 59.4264 5.2187 54.5754" stroke="#19191B" stroke-width="1.5" stroke-linejoin="bevel"/>
<path d="M-14.0584 68.7581V0.00976562H80.4948" stroke="#19191B" stroke-width="1.5" stroke-linejoin="bevel"/>
<path d="M99.8122 70.4058V47.5605H143.748V70.4058C143.748 73.1477 142.952 75.8308 141.455 78.1303C139.958 80.4299 137.825 82.2474 135.314 83.3628L127.95 86.6347C125.573 87.6913 123.465 89.2689 121.783 91.2502H-13.5576V139.236C-13.5578 144.996 -11.8845 150.633 -8.74009 155.463C-5.59572 160.294 -1.11516 164.112 4.15929 166.455L19.6622 173.333C24.6565 175.551 29.0847 178.865 32.6168 183.027L32.5538 183.24H-14.2746V229.805" stroke="#19191B" stroke-width="1.5" stroke-linejoin="bevel"/>
<path d="M209.051 119.09C207.042 121.227 204.63 122.948 201.953 124.153C199.276 125.359 196.387 126.026 193.452 126.116C190.516 126.205 187.591 125.716 184.845 124.677C182.1 123.637 179.586 122.067 177.45 120.056C177.127 119.734 176.804 119.412 176.481 119.09C174.472 121.227 172.06 122.948 169.383 124.153C166.706 125.359 163.817 126.026 160.881 126.116C157.945 126.205 155.021 125.716 152.275 124.677C149.529 123.637 147.016 122.067 144.879 120.056C144.545 119.747 144.22 119.428 143.91 119.09C141.902 121.227 139.49 122.949 136.814 124.154C134.137 125.36 131.248 126.027 128.313 126.117C125.377 126.207 122.453 125.718 119.707 124.678C116.962 123.638 114.449 122.067 112.313 120.056C111.979 119.747 111.65 119.428 111.344 119.09C109.335 121.227 106.923 122.948 104.246 124.153C101.569 125.359 98.6803 126.026 95.7446 126.116C92.8089 126.205 89.8843 125.716 87.1384 124.677C84.3925 123.637 81.8792 122.067 79.7426 120.056C79.4084 119.747 79.0838 119.428 78.7737 119.09V139.238C78.7705 145.004 77.0898 150.645 73.9354 155.477C70.781 160.309 66.2887 164.123 61.0035 166.457" stroke="#19191B" stroke-width="1.5" stroke-linejoin="bevel"/>
<path d="M209.053 0.00976562V91.2505" stroke="#19191B" stroke-width="1.5" stroke-linejoin="bevel"/>
<path d="M127.604 169.088H229.192V147.949C231.201 150.086 233.613 151.807 236.29 153.013C238.967 154.218 241.856 154.885 244.791 154.975C247.727 155.065 250.652 154.576 253.398 153.536C256.144 152.496 258.657 150.926 260.793 148.916C261.128 148.606 261.452 148.288 261.762 147.949C263.857 150.159 266.38 151.922 269.178 153.131C271.976 154.34 274.991 154.969 278.04 154.981" stroke="#19191B" stroke-width="1.5" stroke-linejoin="bevel"/>
<path d="M209.058 147.73C207.049 149.868 204.637 151.588 201.96 152.794C199.283 154 196.394 154.666 193.459 154.756C190.523 154.846 187.598 154.357 184.852 153.317C182.106 152.277 179.593 150.707 177.457 148.697C177.134 148.375 176.811 148.053 176.488 147.73C174.479 149.868 172.067 151.588 169.39 152.794C166.713 154 163.824 154.666 160.888 154.756C157.952 154.846 155.028 154.357 152.282 153.317C149.536 152.277 147.023 150.707 144.886 148.697C144.552 148.388 144.227 148.069 143.917 147.73C141.821 149.941 139.296 151.704 136.496 152.913C133.697 154.122 130.68 154.751 127.629 154.762" stroke="#19191B" stroke-width="1.5" stroke-linejoin="bevel"/>
<path d="M174.985 68.1056C174.986 61.1374 173.61 54.2373 170.938 47.7994C168.265 41.3615 164.347 35.5119 159.408 30.5846C154.468 25.6573 148.605 21.749 142.151 19.0826C135.697 16.4163 128.781 15.0443 121.796 15.0449" stroke="#19191B" stroke-width="1.5" stroke-linejoin="bevel"/>
<path d="M190.706 68.758C190.708 59.7292 188.927 50.7885 185.465 42.4465C182.002 34.1045 176.927 26.5246 170.528 20.1396C164.129 13.7547 156.531 8.68976 148.17 5.23417C139.808 1.77858 130.846 -2.00815e-07 121.796 0" stroke="#19191B" stroke-width="1.5" stroke-linejoin="bevel"/>
<path d="M409.337 113.656V91.2502H544.697C546.379 89.2689 548.487 87.6913 550.864 86.6347L558.228 83.3628C560.739 82.2474 562.872 80.4299 564.369 78.1303C565.866 75.8308 566.662 73.1477 566.663 70.4058V47.5605H522.726V70.4058" stroke="#19191B" stroke-width="1.5" stroke-linejoin="bevel"/>
</g>
</g>
<defs>
<clipPath id="clip0_6_45">
<rect width="987" height="381" rx="190.5" fill="white"/>
</clipPath>
</defs>
</svg>
