<svg width="1008" height="236" viewBox="0 0 1008 236" fill="none" xmlns="http://www.w3.org/2000/svg">
<g opacity="0.1">
<g clip-path="url(#clip0_967_12232)">
<path d="M855.299 49.5031C855.3 50.6012 854.975 51.6748 854.365 52.5884C853.755 53.5019 852.887 54.2143 851.872 54.6353C850.856 55.0563 849.738 55.167 848.659 54.9535C847.581 54.7401 846.59 54.2119 845.812 53.4359C845.034 52.66 844.504 51.671 844.289 50.5941C844.074 49.5173 844.184 48.401 844.604 47.3865C845.025 46.3719 845.737 45.5047 846.651 44.8946C847.566 44.2844 848.641 43.9587 849.74 43.9587C851.213 43.9587 852.626 44.5427 853.669 45.5823C854.711 46.6219 855.297 48.0321 855.299 49.5031V49.5031Z" stroke="white" stroke-width="1.5" stroke-linejoin="bevel"/>
<path d="M714.532 50.4174C715.024 47.3916 712.966 44.5406 709.936 44.0495C706.906 43.5583 704.05 45.613 703.559 48.6388C703.067 51.6645 705.124 54.5156 708.155 55.0067C711.185 55.4979 714.04 53.4431 714.532 50.4174Z" stroke="white" stroke-width="1.5" stroke-linejoin="bevel"/>
<path d="M903.71 77.2257V60.8076H935.261V77.2257C935.261 79.1966 934.69 81.1254 933.615 82.7786C932.54 84.4317 931.009 85.7383 929.205 86.54L923.916 88.894C922.21 89.6542 920.697 90.7874 919.488 92.2099" stroke="white" stroke-width="1.5" stroke-linejoin="bevel"/>
<path d="M845.217 144.344V160.517C845.216 165.034 843.904 169.453 841.44 173.242C838.977 177.03 835.467 180.025 831.335 181.864L819.213 187.241C815.29 188.976 811.812 191.576 809.041 194.846C806.27 191.576 802.792 188.976 798.869 187.241L786.741 181.864C782.619 180.017 779.12 177.019 776.667 173.231C774.213 169.443 772.91 165.028 772.913 160.517V122.877H866.35" stroke="white" stroke-width="1.5" stroke-linejoin="bevel"/>
<path d="M897.579 198.526C895.043 201.052 891.897 202.883 888.446 203.842C884.995 204.8 881.354 204.854 877.876 203.999C877.03 200.522 877.095 196.887 878.065 193.444C879.035 190 880.878 186.864 883.415 184.338C885.951 181.812 889.097 179.982 892.549 179.023C896 178.064 899.641 178.009 903.12 178.864C903.968 182.34 903.903 185.976 902.933 189.42C901.962 192.865 900.118 196.001 897.579 198.526V198.526Z" stroke="white" stroke-width="1.5" stroke-linejoin="bevel"/>
<path d="M590.602 198.527C593.139 201.054 596.286 202.885 599.738 203.844C603.191 204.803 606.832 204.856 610.311 204C611.158 200.523 611.093 196.888 610.122 193.443C609.152 189.999 607.309 186.863 604.771 184.336C602.233 181.81 599.087 179.98 595.634 179.022C592.182 178.063 588.541 178.009 585.061 178.865C584.213 182.342 584.278 185.978 585.248 189.422C586.219 192.866 588.063 196.003 590.602 198.527V198.527Z" stroke="white" stroke-width="1.5" stroke-linejoin="bevel"/>
<path d="M812.573 66.8577C810.07 69.3606 808.256 72.4661 807.306 75.874C806.357 79.2818 806.304 82.8766 807.152 86.3109C810.595 87.1451 814.194 87.0798 817.603 86.1213C821.013 85.1629 824.117 83.3436 826.618 80.8388C829.119 78.334 830.931 75.2283 831.88 71.8209C832.829 68.4135 832.884 64.8194 832.037 61.385C828.596 60.5495 824.996 60.6141 821.587 61.5728C818.177 62.5314 815.073 64.3516 812.573 66.8577V66.8577Z" stroke="white" stroke-width="1.5" stroke-linejoin="bevel"/>
<path d="M510.711 66.8571C508.208 69.36 506.394 72.4655 505.444 75.8733C504.494 79.2812 504.441 82.876 505.29 86.3103C508.732 87.1444 512.331 87.0792 515.741 86.1207C519.15 85.1623 522.255 83.343 524.756 80.8382C527.256 78.3334 529.069 75.2277 530.018 71.8203C530.967 68.4129 531.021 64.8188 530.175 61.3844C526.733 60.5494 523.134 60.6144 519.725 61.573C516.315 62.5316 513.211 64.3515 510.711 66.8571V66.8571Z" stroke="white" stroke-width="1.5" stroke-linejoin="bevel"/>
<path d="M886.459 165.122C890.226 165.107 893.951 164.33 897.409 162.837C900.866 161.344 903.985 159.166 906.575 156.435C906.964 156.841 907.371 157.235 907.772 157.629C910.411 160.113 913.515 162.053 916.905 163.337C920.296 164.621 923.907 165.225 927.532 165.114C931.157 165.003 934.724 164.18 938.03 162.69C941.335 161.201 944.314 159.075 946.796 156.435C947.191 156.841 947.592 157.235 947.993 157.629C950.632 160.113 953.735 162.053 957.126 163.337C960.517 164.621 964.128 165.225 967.753 165.114C971.377 165.003 974.945 164.18 978.25 162.69C981.556 161.201 984.535 159.075 987.016 156.435C987.411 156.841 987.812 157.235 988.213 157.629C990.853 160.113 993.957 162.053 997.348 163.337C1000.74 164.622 1004.35 165.226 1007.98 165.115C1011.6 165.004 1015.17 164.18 1018.48 162.691C1021.78 161.201 1024.76 159.075 1027.24 156.435" stroke="white" stroke-width="1.5" stroke-linejoin="bevel"/>
<path d="M640.612 157.297C640.612 158.305 640.912 159.291 641.472 160.129C642.033 160.967 642.83 161.62 643.763 162.006C644.696 162.392 645.722 162.492 646.712 162.296C647.702 162.099 648.611 161.614 649.325 160.901C650.039 160.188 650.525 159.28 650.722 158.292C650.919 157.303 650.818 156.278 650.432 155.347C650.045 154.416 649.391 153.62 648.552 153.06C647.712 152.5 646.726 152.201 645.716 152.201C644.363 152.201 643.064 152.738 642.107 153.694C641.15 154.65 640.612 155.946 640.612 157.297Z" stroke="white" stroke-width="1.5" stroke-linejoin="bevel"/>
<path d="M658.032 131.24L661.227 122.397C667.103 125.371 672.211 129.658 676.155 134.925C680.098 140.193 682.771 146.298 683.964 152.766" stroke="white" stroke-width="1.5" stroke-linejoin="bevel"/>
<path d="M926.683 123.707H1004.6" stroke="white" stroke-width="1.5" stroke-linejoin="bevel"/>
<path d="M926.683 204.598H1006.91" stroke="white" stroke-width="1.5" stroke-linejoin="bevel"/>
<path d="M985.182 75.6835C985.181 58.2872 978.259 41.6039 965.94 29.3028C953.62 17.0018 936.912 10.0905 919.49 10.0889" stroke="white" stroke-width="1.5" stroke-linejoin="bevel"/>
<path d="M545.908 76.5075C545.908 65.347 548.11 54.2957 552.387 43.9848C556.665 33.6739 562.934 24.3054 570.838 16.414C578.742 8.52256 588.125 2.26293 598.451 -2.00747C608.778 -6.27787 619.845 -8.47539 631.022 -8.47461" stroke="white" stroke-width="1.5" stroke-linejoin="bevel"/>
<path d="M807.8 -8.47437C792.928 -8.47437 778.664 -2.57506 768.148 7.92577C757.632 18.4266 751.724 32.6688 751.724 47.5192" stroke="white" stroke-width="1.5" stroke-linejoin="bevel"/>
<path d="M524.805 200.269C528.572 200.255 532.297 199.479 535.755 197.985C539.213 196.492 542.331 194.314 544.921 191.582C545.31 191.988 545.717 192.382 546.118 192.777C551.238 197.585 557.997 200.27 565.025 200.287" stroke="white" stroke-width="1.5" stroke-linejoin="bevel"/>
<path d="M725.927 86.8936H544.929" stroke="white" stroke-width="1.5" stroke-linejoin="bevel"/>
<path d="M579.484 127.572C577.987 129.068 576.903 130.924 576.336 132.961C575.769 134.998 575.738 137.147 576.247 139.199C578.305 139.7 580.458 139.663 582.498 139.091C584.537 138.519 586.395 137.432 587.891 135.934C589.387 134.436 590.47 132.578 591.037 130.54C591.604 128.502 591.635 126.352 591.128 124.298C589.069 123.797 586.915 123.835 584.875 124.408C582.835 124.982 580.978 126.072 579.484 127.572V127.572Z" stroke="white" stroke-width="1.5" stroke-linejoin="bevel"/>
<path d="M604.428 117.196C604.428 117.739 604.267 118.269 603.965 118.72C603.664 119.171 603.235 119.522 602.733 119.73C602.231 119.938 601.679 119.992 601.146 119.886C600.613 119.78 600.124 119.519 599.74 119.136C599.356 118.752 599.094 118.263 598.988 117.731C598.882 117.199 598.937 116.648 599.145 116.147C599.352 115.646 599.705 115.218 600.156 114.916C600.608 114.615 601.139 114.454 601.682 114.454C602.41 114.454 603.109 114.743 603.624 115.257C604.139 115.772 604.428 116.469 604.428 117.196Z" stroke="white" stroke-width="1.5" stroke-linejoin="bevel"/>
<path d="M683.002 10.1045H628.057V44.8226C628.053 48.9935 629.26 53.076 631.533 56.5754C633.805 60.0749 637.046 62.841 640.861 64.5387L652.05 69.5155C655.659 71.1222 658.86 73.5195 661.414 76.5296H725.916" stroke="white" stroke-width="1.5" stroke-linejoin="bevel"/>
<path d="M866.331 10.1045H806.562" stroke="white" stroke-width="1.5" stroke-linejoin="bevel"/>
<path d="M332.978 49.5034C332.979 50.6017 332.654 51.6756 332.043 52.5892C331.433 53.5029 330.565 54.2153 329.549 54.6361C328.533 55.0569 327.415 55.1673 326.336 54.9534C325.257 54.7394 324.266 54.2107 323.488 53.4341C322.711 52.6575 322.181 51.668 321.967 50.5907C321.753 49.5135 321.863 48.397 322.285 47.3826C322.706 46.3681 323.419 45.5014 324.334 44.8919C325.25 44.2825 326.325 43.9578 327.425 43.959C328.898 43.959 330.31 44.5431 331.351 45.5829C332.393 46.6227 332.978 48.0329 332.978 49.5034V49.5034Z" stroke="white" stroke-width="1.5" stroke-linejoin="bevel"/>
<path d="M192.255 49.5034C192.256 50.6014 191.931 51.6751 191.321 52.5886C190.711 53.5022 189.843 54.2145 188.828 54.6355C187.812 55.0565 186.694 55.1673 185.616 54.9538C184.537 54.7403 183.546 54.2122 182.768 53.4362C181.99 52.6602 181.46 51.6712 181.245 50.5944C181.03 49.5175 181.14 48.4012 181.56 47.3867C181.981 46.3722 182.693 45.505 183.607 44.8948C184.522 44.2847 185.597 43.959 186.696 43.959C188.169 43.959 189.582 44.5429 190.625 45.5826C191.667 46.6222 192.253 48.0324 192.255 49.5034V49.5034Z" stroke="white" stroke-width="1.5" stroke-linejoin="bevel"/>
<path d="M381.4 77.2257V60.8076H412.951V77.2257C412.952 79.1966 412.38 81.1254 411.305 82.7786C410.231 84.4317 408.699 85.7383 406.896 86.54L401.606 88.894C399.9 89.6542 398.387 90.7874 397.179 92.2099" stroke="white" stroke-width="1.5" stroke-linejoin="bevel"/>
<path d="M322.907 144.344V160.517C322.906 165.034 321.594 169.453 319.131 173.242C316.667 177.03 313.157 180.025 309.026 181.864L296.903 187.241C292.981 188.976 289.503 191.576 286.731 194.846C283.96 191.576 280.482 188.976 276.56 187.241L264.437 181.864C260.314 180.018 256.814 177.02 254.36 173.232C251.905 169.444 250.601 165.028 250.604 160.517V122.877H344.005" stroke="white" stroke-width="1.5" stroke-linejoin="bevel"/>
<path d="M375.261 198.526C372.725 201.052 369.579 202.883 366.128 203.842C362.676 204.8 359.036 204.854 355.557 203.999C354.711 200.522 354.777 196.887 355.747 193.444C356.717 190 358.559 186.864 361.096 184.338C363.633 181.812 366.779 179.982 370.23 179.023C373.682 178.064 377.323 178.009 380.801 178.864C381.649 182.34 381.585 185.976 380.614 189.42C379.644 192.865 377.8 196.001 375.261 198.526V198.526Z" stroke="white" stroke-width="1.5" stroke-linejoin="bevel"/>
<path d="M68.2816 198.527C70.8188 201.054 73.9654 202.885 77.4178 203.844C80.8702 204.803 84.5117 204.856 87.991 204C88.8374 200.523 88.7722 196.888 87.8018 193.443C86.8314 189.999 84.9885 186.863 82.4508 184.336C79.9132 181.81 76.7664 179.98 73.314 179.022C69.8617 178.063 66.2202 178.009 62.741 178.865C61.8931 182.342 61.9576 185.978 62.9282 189.422C63.8988 192.866 65.7426 196.003 68.2816 198.527V198.527Z" stroke="white" stroke-width="1.5" stroke-linejoin="bevel"/>
<path d="M290.253 66.8567C287.75 69.3596 285.936 72.4652 284.986 75.873C284.036 79.2808 283.983 82.8756 284.832 86.3099C288.274 87.1441 291.873 87.0788 295.283 86.1203C298.692 85.1619 301.797 83.3426 304.298 80.8378C306.798 78.3331 308.611 75.2273 309.56 71.8199C310.509 68.4125 310.563 64.8184 309.717 61.3841C306.275 60.5485 302.676 60.6131 299.266 61.5718C295.857 62.5304 292.753 64.3507 290.253 66.8567V66.8567Z" stroke="white" stroke-width="1.5" stroke-linejoin="bevel"/>
<path d="M-11.6095 66.8571C-14.1118 69.3607 -15.9253 72.4662 -16.8749 75.8738C-17.8245 79.2814 -17.8781 82.8759 -17.0305 86.3103C-13.5884 87.1444 -9.98912 87.0792 -6.57965 86.1207C-3.17018 85.1623 -0.0654686 83.343 2.4352 80.8382C4.93587 78.3334 6.74816 75.2277 7.69739 71.8203C8.64661 68.4129 8.70075 64.8188 7.85459 61.3844C4.41275 60.5494 0.813462 60.6144 -2.59592 61.573C-6.00531 62.5316 -9.10969 64.3515 -11.6095 66.8571V66.8571Z" stroke="white" stroke-width="1.5" stroke-linejoin="bevel"/>
<path d="M364.139 165.122C367.906 165.107 371.631 164.33 375.088 162.837C378.546 161.344 381.664 159.166 384.255 156.435C384.644 156.841 385.051 157.235 385.452 157.629C388.091 160.113 391.194 162.053 394.585 163.337C397.976 164.621 401.587 165.225 405.212 165.114C408.837 165.003 412.404 164.18 415.709 162.69C419.015 161.201 421.994 159.075 424.475 156.435C424.87 156.841 425.271 157.235 425.672 157.629C428.312 160.113 431.416 162.053 434.807 163.337C438.198 164.622 441.81 165.226 445.435 165.115C449.061 165.004 452.628 164.18 455.934 162.691C459.24 161.201 462.22 159.075 464.702 156.435C465.091 156.841 465.492 157.235 465.899 157.629C471.202 162.626 478.272 165.321 485.561 165.125C492.85 164.929 499.764 161.858 504.791 156.584C505.138 156.942 505.497 157.289 505.868 157.629C508.507 160.113 511.611 162.053 515.002 163.337C518.392 164.621 522.003 165.225 525.628 165.114C529.253 165.003 532.82 164.18 536.126 162.69C539.431 161.201 542.41 159.075 544.892 156.435C545.287 156.841 545.688 157.235 546.089 157.629C551.211 162.433 557.969 165.116 564.996 165.134" stroke="white" stroke-width="1.5" stroke-linejoin="bevel"/>
<path d="M-17.6309 156.435C-17.2419 156.841 -16.8351 157.235 -16.4342 157.629C-13.7963 160.115 -10.6929 162.057 -7.30193 163.342C-3.911 164.628 -0.299258 165.233 3.3262 165.122C6.95166 165.011 10.5195 164.186 13.8252 162.696C17.1308 161.205 20.1093 159.077 22.5897 156.435C22.9846 156.841 23.3855 157.235 23.7864 157.629C28.9079 162.435 35.666 165.119 42.694 165.14" stroke="white" stroke-width="1.5" stroke-linejoin="bevel"/>
<path d="M118.303 157.297C118.303 158.305 118.602 159.291 119.163 160.129C119.724 160.967 120.521 161.62 121.453 162.006C122.386 162.392 123.412 162.492 124.402 162.296C125.392 162.099 126.302 161.614 127.016 160.901C127.729 160.188 128.215 159.28 128.412 158.292C128.609 157.303 128.508 156.278 128.122 155.347C127.736 154.416 127.081 153.62 126.242 153.06C125.403 152.5 124.416 152.201 123.407 152.201C122.053 152.201 120.755 152.738 119.798 153.694C118.84 154.65 118.303 155.946 118.303 157.297Z" stroke="white" stroke-width="1.5" stroke-linejoin="bevel"/>
<path d="M135.715 131.24L138.91 122.397C144.785 125.371 149.893 129.658 153.837 134.925C157.781 140.193 160.454 146.298 161.647 152.766" stroke="white" stroke-width="1.5" stroke-linejoin="bevel"/>
<path d="M404.363 123.707H482.279" stroke="white" stroke-width="1.5" stroke-linejoin="bevel"/>
<path d="M404.363 204.598H484.595" stroke="white" stroke-width="1.5" stroke-linejoin="bevel"/>
<path d="M462.859 75.6754C462.853 58.2827 455.929 41.6046 443.61 29.3084C431.291 17.0122 414.585 10.1046 397.167 10.1046" stroke="white" stroke-width="1.5" stroke-linejoin="bevel"/>
<path d="M23.5986 76.5075C23.5986 65.347 25.8002 54.2957 30.0777 43.9848C34.3551 33.6739 40.6247 24.3054 48.5284 16.414C56.432 8.52256 65.815 2.26293 76.1415 -2.00747C86.468 -6.27787 97.5357 -8.47539 108.713 -8.47461" stroke="white" stroke-width="1.5" stroke-linejoin="bevel"/>
<path d="M285.479 -8.47461C270.607 -8.47461 256.343 -2.57531 245.827 7.92552C235.31 18.4263 229.402 32.6685 229.402 47.5189" stroke="white" stroke-width="1.5" stroke-linejoin="bevel"/>
<path d="M2.50586 200.269C6.27314 200.256 9.99851 199.479 13.4563 197.986C16.9141 196.493 20.0323 194.314 22.6221 191.582C23.017 191.988 23.4179 192.383 23.8188 192.777C28.9387 197.585 35.6979 200.27 42.7264 200.287" stroke="white" stroke-width="1.5" stroke-linejoin="bevel"/>
<path d="M203.617 86.8936H22.6182" stroke="white" stroke-width="1.5" stroke-linejoin="bevel"/>
<path d="M57.1625 127.576C55.6676 129.073 54.5843 130.929 54.0173 132.966C53.4503 135.002 53.4187 137.151 53.9255 139.203C55.9831 139.701 58.1345 139.662 60.1725 139.089C62.2104 138.516 64.0662 137.428 65.5609 135.931C67.0556 134.434 68.1389 132.577 68.7062 130.54C69.2736 128.504 69.306 126.355 68.8003 124.302C66.7422 123.803 64.59 123.842 62.5515 124.416C60.513 124.989 58.6569 126.078 57.1625 127.576V127.576Z" stroke="white" stroke-width="1.5" stroke-linejoin="bevel"/>
<path d="M82.1188 117.196C82.1188 117.739 81.9577 118.269 81.6559 118.72C81.3541 119.171 80.9252 119.522 80.4234 119.73C79.9215 119.938 79.3693 119.992 78.8366 119.886C78.3038 119.78 77.8145 119.519 77.4304 119.136C77.0463 118.752 76.7847 118.263 76.6788 117.731C76.5728 117.199 76.6272 116.648 76.835 116.147C77.0429 115.646 77.3949 115.218 77.8466 114.916C78.2982 114.615 78.8292 114.454 79.3724 114.454C80.1008 114.454 80.7993 114.743 81.3144 115.257C81.8294 115.772 82.1188 116.469 82.1188 117.196Z" stroke="white" stroke-width="1.5" stroke-linejoin="bevel"/>
<path d="M160.695 10.1046H105.749V44.8228C105.745 48.9936 106.952 53.0761 109.225 56.5755C111.498 60.075 114.738 62.8411 118.554 64.5388L129.743 69.5156C133.352 71.1223 136.552 73.5196 139.107 76.5297H203.608" stroke="white" stroke-width="1.5" stroke-linejoin="bevel"/>
<path d="M344.02 10.1045H284.252" stroke="white" stroke-width="1.5" stroke-linejoin="bevel"/>
<path d="M831.651 53.6977C831.651 47.3658 834.116 41.2818 838.525 36.7309C842.934 32.1801 848.942 29.5189 855.28 29.3096H866.355V58.9852C866.355 71.0088 861.572 82.5399 853.057 91.0418C844.543 99.5438 832.994 104.32 820.953 104.32C808.912 104.32 797.363 99.5438 788.849 91.0418C780.334 82.5399 775.551 71.0088 775.551 58.9852" stroke="white" stroke-width="1.5" stroke-linejoin="bevel"/>
<path d="M751.724 76.5077V-8.47437H892.364" stroke="white" stroke-width="1.5" stroke-linejoin="bevel"/>
<path d="M1027.27 -8.47461V138.733C1024.79 141.373 1021.81 143.499 1018.5 144.989C1015.2 146.478 1011.63 147.302 1008 147.413C1004.38 147.524 1000.77 146.92 997.374 145.635C993.983 144.351 990.879 142.411 988.239 139.927C987.841 139.529 987.442 139.131 987.043 138.733C984.561 141.373 981.581 143.499 978.275 144.989C974.969 146.478 971.401 147.302 967.776 147.413C964.151 147.524 960.539 146.92 957.148 145.635C953.757 144.351 950.652 142.411 948.013 139.927C947.6 139.545 947.199 139.151 946.816 138.733C944.335 141.373 941.356 143.499 938.05 144.988C934.745 146.478 931.177 147.301 927.552 147.412C923.928 147.523 920.317 146.919 916.926 145.635C913.535 144.351 910.431 142.411 907.792 139.927C907.38 139.545 906.973 139.151 906.596 138.733C904.113 141.373 901.134 143.499 897.828 144.989C894.522 146.478 890.954 147.302 887.329 147.413C883.704 147.524 880.092 146.92 876.701 145.635C873.31 144.351 870.205 142.411 867.566 139.927C867.153 139.545 866.752 139.151 866.369 138.733V163.64C866.369 170.761 864.303 177.729 860.419 183.701C856.536 189.673 851.002 194.393 844.488 197.289L825.377 205.791C819.208 208.533 813.739 212.63 809.377 217.776C805.008 212.627 799.53 208.53 793.353 205.791L774.206 197.289C767.694 194.391 762.162 189.671 758.279 183.699C754.397 177.727 752.331 170.76 752.331 163.64V104.319H919.478C921.554 101.868 924.157 99.9174 927.095 98.6134L936.19 94.5626C939.291 93.1843 941.926 90.9376 943.775 88.0947C945.624 85.2518 946.607 81.9346 946.607 78.5448V50.3091H892.343V78.5448" stroke="white" stroke-width="1.5" stroke-linejoin="bevel"/>
<path d="M664.87 153.57C663.03 148.867 659.85 144.806 655.722 141.889C651.595 138.972 646.702 137.327 641.648 137.158H629.939V168.531C629.868 174.868 631.057 181.157 633.437 187.033C635.816 192.909 639.34 198.255 643.803 202.762C648.267 207.269 653.581 210.847 659.439 213.288C665.296 215.73 671.581 216.988 677.929 216.988C684.276 216.988 690.561 215.73 696.418 213.288C702.276 210.847 707.59 207.269 712.054 202.762C716.517 198.255 720.041 192.909 722.421 187.033C724.801 181.157 725.99 174.868 725.919 168.531" stroke="white" stroke-width="1.5" stroke-linejoin="bevel"/>
<path d="M664.866 171.829L699.414 137.344C703.308 142.332 706.113 148.078 707.648 154.214C709.184 160.35 709.415 166.738 708.329 172.969C707.242 179.2 704.861 185.134 701.339 190.39C697.817 195.646 693.232 200.108 687.878 203.488" stroke="white" stroke-width="1.5" stroke-linejoin="bevel"/>
<path d="M948.568 104.65H1004.61" stroke="white" stroke-width="1.5" stroke-linejoin="bevel"/>
<path d="M1004.6 76.5076C1004.6 53.969 995.629 32.3534 979.668 16.4162C963.707 0.478959 942.059 -8.47449 919.487 -8.47449" stroke="white" stroke-width="1.5" stroke-linejoin="bevel"/>
<path d="M565.338 75.6794C565.34 61.6879 569.819 48.0632 578.124 36.7938C586.428 25.5244 598.123 17.2002 611.5 13.0361" stroke="white" stroke-width="1.5" stroke-linejoin="bevel"/>
<path d="M725.921 217.773H1027.27V174.159C1024.79 176.801 1021.81 178.928 1018.5 180.418C1015.2 181.909 1011.63 182.733 1008 182.844C1004.38 182.955 1000.77 182.351 997.374 181.065C993.983 179.78 990.879 177.839 988.24 175.354C987.841 174.956 987.442 174.557 987.043 174.159C984.562 176.801 981.583 178.928 978.277 180.418C974.971 181.909 971.402 182.733 967.777 182.844C964.151 182.955 960.539 182.351 957.148 181.065C953.756 179.78 950.652 177.839 948.013 175.354C947.601 174.971 947.2 174.577 946.817 174.159C944.227 176.892 941.109 179.072 937.652 180.566C934.194 182.06 930.468 182.838 926.701 182.852" stroke="white" stroke-width="1.5" stroke-linejoin="bevel"/>
<path d="M629.948 217.777H504.051V204.597" stroke="white" stroke-width="1.5" stroke-linejoin="bevel"/>
<path d="M725.925 104.65H629.945" stroke="white" stroke-width="1.5" stroke-linejoin="bevel"/>
<path d="M590.857 119.228C590.857 115.443 592.33 111.806 594.966 109.085C597.603 106.365 601.195 104.775 604.984 104.651H611.602V122.383C611.602 129.569 608.743 136.461 603.654 141.542C598.565 146.623 591.663 149.478 584.467 149.478C577.27 149.478 570.368 146.623 565.28 141.542C560.191 136.461 557.332 129.569 557.332 122.383" stroke="white" stroke-width="1.5" stroke-linejoin="bevel"/>
<path d="M557.333 104.65H504.69V123.709" stroke="white" stroke-width="1.5" stroke-linejoin="bevel"/>
<path d="M683.187 33.7536V43.3726C683.186 46.056 682.407 48.6816 680.943 50.9324C679.48 53.1832 677.396 54.9629 674.942 56.0566L667.762 59.259C665.439 60.2934 663.38 61.8373 661.736 63.7757C660.09 61.8383 658.029 60.2948 655.705 59.259L648.495 56.0566C646.041 54.9629 643.957 53.1832 642.494 50.9324C641.03 48.6816 640.251 46.056 640.25 43.3726V21.0098H725.927V-8.47461H662.024" stroke="white" stroke-width="1.5" stroke-linejoin="bevel"/>
<path d="M527.457 -29.2227L546.574 -20.7208C552.743 -17.9786 558.212 -13.8819 562.574 -8.73587L562.496 -8.47299H504.69V49.0919" stroke="white" stroke-width="1.5" stroke-linejoin="bevel"/>
<path d="M309.296 53.6977C309.295 47.3658 311.76 41.2818 316.169 36.7309C320.578 32.1801 326.587 29.5189 332.924 29.3096H344V58.9852C344.069 64.9821 342.945 70.933 340.695 76.4933C338.444 82.0536 335.111 87.1128 330.888 91.3777C326.666 95.6427 321.638 99.0287 316.095 101.34C310.553 103.651 304.607 104.841 298.6 104.841C292.594 104.841 286.648 103.651 281.105 101.34C275.563 99.0287 270.535 95.6427 266.313 91.3777C262.09 87.1128 258.757 82.0536 256.506 76.4933C254.256 70.933 253.132 64.9821 253.201 58.9852" stroke="white" stroke-width="1.5" stroke-linejoin="bevel"/>
<path d="M229.402 76.5075V-8.47461H370.049" stroke="white" stroke-width="1.5" stroke-linejoin="bevel"/>
<path d="M370.048 78.5412V50.3054H424.306V78.5412C424.307 81.9309 423.323 85.2482 421.474 88.0911C419.625 90.934 416.99 93.1807 413.889 94.559L404.794 98.6097C401.857 99.9137 399.253 101.864 397.177 104.315H230.03V163.637C230.03 170.757 232.097 177.725 235.98 183.697C239.864 189.669 245.397 194.389 251.912 197.286L271.005 205.787C277.173 208.53 282.642 212.626 287.004 217.772C291.367 212.626 296.836 208.53 303.004 205.787L322.151 197.286C328.659 194.384 334.186 189.662 338.064 183.69C341.942 177.719 344.005 170.754 344.002 163.637V138.729C344.397 139.135 344.798 139.529 345.199 139.924C347.839 142.408 350.943 144.347 354.334 145.632C357.725 146.916 361.337 147.52 364.962 147.409C368.588 147.298 372.155 146.474 375.461 144.985C378.767 143.495 381.747 141.37 384.229 138.729C384.618 139.135 385.025 139.529 385.426 139.924C388.065 142.407 391.168 144.347 394.559 145.631C397.95 146.916 401.561 147.52 405.186 147.409C408.811 147.298 412.378 146.474 415.683 144.985C418.989 143.495 421.968 141.369 424.45 138.729C424.844 139.135 425.245 139.529 425.646 139.924C428.286 142.408 431.39 144.347 434.781 145.632C438.173 146.916 441.784 147.52 445.409 147.409C449.035 147.298 452.602 146.474 455.908 144.985C459.215 143.495 462.194 141.37 464.676 138.729C465.065 139.135 465.472 139.529 465.873 139.924C471.163 144.906 478.21 147.6 485.48 147.419C492.749 147.237 499.653 144.196 504.687 138.956C505.058 139.344 505.447 139.721 505.842 140.085C508.481 142.569 511.585 144.508 514.976 145.793C518.366 147.077 521.977 147.681 525.602 147.57C529.227 147.459 532.794 146.635 536.1 145.146C539.405 143.656 542.384 141.531 544.866 138.89" stroke="white" stroke-width="1.5" stroke-linejoin="bevel"/>
<path d="M142.553 153.57C140.713 148.867 137.533 144.806 133.405 141.889C129.278 138.972 124.385 137.327 119.331 137.158H107.651V168.531C107.581 174.868 108.769 181.157 111.149 187.033C113.529 192.909 117.053 198.255 121.516 202.762C125.98 207.269 131.294 210.847 137.152 213.288C143.009 215.73 149.294 216.988 155.641 216.988C161.989 216.988 168.274 215.73 174.131 213.288C179.989 210.847 185.303 207.269 189.767 202.762C194.23 198.255 197.754 192.909 200.133 187.033C202.513 181.157 203.702 174.868 203.631 168.531" stroke="white" stroke-width="1.5" stroke-linejoin="bevel"/>
<path d="M142.557 171.829L177.099 137.344C180.993 142.332 183.798 148.078 185.333 154.214C186.868 160.35 187.1 166.738 186.013 172.969C184.927 179.2 182.546 185.134 179.023 190.39C175.501 195.646 170.916 200.108 165.563 203.488" stroke="white" stroke-width="1.5" stroke-linejoin="bevel"/>
<path d="M426.248 104.65H482.289" stroke="white" stroke-width="1.5" stroke-linejoin="bevel"/>
<path d="M482.275 76.5077C482.275 53.9691 473.308 32.3536 457.348 16.4163C441.387 0.479081 419.739 -8.47437 397.167 -8.47437" stroke="white" stroke-width="1.5" stroke-linejoin="bevel"/>
<path d="M43.0283 75.6794C43.0299 61.6879 47.5099 48.0632 55.8144 36.7938C64.1189 25.5244 75.8132 17.2002 89.1904 13.0361" stroke="white" stroke-width="1.5" stroke-linejoin="bevel"/>
<path d="M404.363 182.827C408.131 182.814 411.857 182.036 415.315 180.542C418.773 179.048 421.891 176.868 424.48 174.134C424.874 174.54 425.275 174.934 425.676 175.329C428.315 177.814 431.419 179.755 434.81 181.04C438.202 182.326 441.814 182.93 445.439 182.819C449.065 182.708 452.633 181.884 455.939 180.393C459.246 178.903 462.225 176.776 464.706 174.134C465.095 174.54 465.496 174.934 465.903 175.329C471.144 180.28 478.122 182.978 485.335 182.843C492.549 182.708 499.421 179.75 504.472 174.606C509.523 179.75 516.395 182.708 523.608 182.843C530.822 182.978 537.8 180.28 543.041 175.329C543.454 174.946 543.855 174.552 544.238 174.134C546.827 176.867 549.945 179.046 553.403 180.541C556.861 182.035 560.586 182.813 564.354 182.827" stroke="white" stroke-width="1.5" stroke-linejoin="bevel"/>
<path d="M203.609 217.775H484.603" stroke="white" stroke-width="1.5" stroke-linejoin="bevel"/>
<path d="M107.658 217.773H-18.2695V174.159C-15.7891 176.802 -12.8107 178.929 -9.50502 180.42C-6.19936 181.911 -2.6315 182.735 0.993959 182.846C4.61942 182.957 8.23116 182.353 11.6221 181.067C15.013 179.781 18.1164 177.84 20.7543 175.354C21.1672 174.972 21.5681 174.577 21.951 174.159C24.5403 176.892 27.6583 179.072 31.1161 180.566C34.5739 182.06 38.2996 182.838 42.0673 182.852" stroke="white" stroke-width="1.5" stroke-linejoin="bevel"/>
<path d="M203.595 104.65H107.615" stroke="white" stroke-width="1.5" stroke-linejoin="bevel"/>
<path d="M68.5456 119.228C68.5451 115.444 70.0179 111.807 72.6528 109.087C75.2878 106.367 78.8785 104.776 82.6665 104.65H89.2901V122.383C89.2901 129.569 86.4313 136.46 81.3425 141.542C76.2538 146.623 69.3519 149.478 62.1553 149.478C54.9587 149.478 48.0569 146.623 42.9681 141.542C37.8793 136.46 35.0205 129.569 35.0205 122.383" stroke="white" stroke-width="1.5" stroke-linejoin="bevel"/>
<path d="M35.0145 104.65H-17.6396V138.897C-17.2507 139.303 -16.8498 139.697 -16.443 140.091C-13.8039 142.575 -10.7002 144.515 -7.30945 145.799C-3.91873 147.083 -0.307599 147.687 3.31719 147.576C6.94199 147.465 10.5093 146.642 13.8148 145.152C17.1203 143.663 20.0992 141.537 22.5809 138.897" stroke="white" stroke-width="1.5" stroke-linejoin="bevel"/>
<path d="M160.865 33.7536V43.3726C160.864 46.056 160.084 48.6816 158.621 50.9324C157.158 53.1832 155.074 54.9629 152.62 56.0566L145.439 59.259C143.099 60.2873 141.023 61.8315 139.366 63.7757C137.734 61.844 135.689 60.3009 133.383 59.259L126.173 56.0566C123.719 54.9629 121.634 53.1832 120.171 50.9324C118.708 48.6816 117.929 46.056 117.928 43.3726V21.0098H203.604V-8.47461H139.701" stroke="white" stroke-width="1.5" stroke-linejoin="bevel"/>
<path d="M123.275 -147.962V-176.204H177.538V-147.962C177.538 -144.573 176.554 -141.256 174.705 -138.413C172.857 -135.57 170.222 -133.324 167.121 -131.945L158.026 -127.9C155.09 -126.594 152.487 -124.643 150.409 -122.194H-16.7434V-62.8727C-16.7436 -55.7523 -14.6769 -48.7844 -10.7934 -42.8125C-6.90997 -36.8406 -1.37623 -32.1206 5.13801 -29.224L24.285 -20.7221C30.4532 -17.9799 35.9223 -13.8832 40.2846 -8.73718L40.2068 -8.4743H-17.6289V49.0906" stroke="white" stroke-width="1.5" stroke-linejoin="bevel"/>
</g>
</g>
<defs>
<clipPath id="clip0_967_12232">
<rect y="-235" width="1219" height="471" rx="235.5" fill="white"/>
</clipPath>
</defs>
</svg>
