<svg width="110" height="108" viewBox="0 0 110 108" fill="none" xmlns="http://www.w3.org/2000/svg">
<path opacity="0.4" d="M5.4869 66.0233L5.57756 66.4457C5.58763 66.4926 5.62563 66.5172 5.67255 66.5071L10.9909 65.3632C11.0379 65.3531 11.0624 65.3151 11.0524 65.2681L10.9617 64.8458C10.9516 64.7988 10.9136 64.7743 10.8667 64.7844L5.54833 65.9283C5.5014 65.9384 5.47683 65.9764 5.4869 66.0233Z" fill="white"/>
<path opacity="0.4" d="M8.72293 57.3634L4.42608 60.2028C4.36468 60.2467 4.35068 60.2796 4.35513 60.3515L4.38675 60.8625C4.38972 60.9104 4.42363 60.9404 4.47154 60.9374L9.90111 60.6007C9.94902 60.5978 9.97898 60.5638 9.97602 60.5159L9.94934 60.0848C9.94637 60.0368 9.91246 60.0069 9.86455 60.0099L5.42508 60.2851C5.38515 60.2876 5.37519 60.2562 5.40614 60.2382L9.70298 57.3988C9.76488 57.3629 9.77838 57.322 9.77394 57.2502L9.74232 56.7391C9.73935 56.6912 9.70544 56.6613 9.65753 56.6643L4.22796 57.0009C4.18005 57.0039 4.15009 57.0378 4.15305 57.0857L4.17973 57.5169C4.1827 57.5648 4.21661 57.5948 4.26452 57.5918L8.70399 57.3165C8.74392 57.314 8.75388 57.3455 8.72293 57.3634Z" fill="white"/>
<path opacity="0.4" d="M9.89698 50.5782C10.0273 49.4577 9.39162 48.691 8.46986 48.5835C7.48453 48.4687 6.90777 49.1344 6.65642 49.9105L6.52982 50.3065C6.34926 50.8895 5.9743 51.1358 5.48163 51.0784C4.93335 51.0145 4.56451 50.5849 4.64214 49.9174C4.69944 49.4247 5.05833 49.0396 5.57317 48.9064C5.6227 48.896 5.65116 48.8591 5.63287 48.8086L5.50611 48.375C5.48782 48.3246 5.45788 48.305 5.40835 48.3153C4.67859 48.496 4.16336 49.0481 4.07001 49.8507C3.95541 50.836 4.57519 51.6009 5.41749 51.6991C6.25979 51.7973 6.84801 51.3101 7.10305 50.5022L7.22965 50.1062C7.42001 49.5082 7.8177 49.1357 8.43751 49.208C9.01758 49.2756 9.41636 49.7248 9.32578 50.5035C9.25554 51.1075 8.86727 51.5374 8.27574 51.6376C8.22621 51.6479 8.19775 51.6849 8.21604 51.7353L8.33578 52.1601C8.35407 52.2105 8.38401 52.2301 8.43353 52.2198C9.25163 52.0413 9.79994 51.4125 9.89698 50.5782Z" fill="white"/>
<path opacity="0.4" d="M5.94747 40.307L5.04097 43.6585C5.02844 43.7049 5.05097 43.7441 5.09729 43.7567L5.49109 43.8634C5.53741 43.876 5.57665 43.8535 5.58919 43.8071L5.95471 42.4557C5.96098 42.4325 5.9806 42.4213 6.00376 42.4275L10.7447 43.7126C10.791 43.7251 10.8303 43.7026 10.8428 43.6563L10.9556 43.2393C10.9681 43.1929 10.9456 43.1537 10.8993 43.1411L6.15833 41.8561C6.13516 41.8498 6.1239 41.8302 6.13016 41.807L6.49569 40.4556C6.50822 40.4092 6.48569 40.37 6.43936 40.3574L6.04557 40.2507C5.99924 40.2381 5.96 40.2606 5.94747 40.307Z" fill="white"/>
<path opacity="0.4" d="M7.32775 36.0873L7.16552 36.4877C7.14749 36.5322 7.16512 36.5739 7.2096 36.5919L12.2499 38.6386C12.2944 38.6566 12.3361 38.639 12.3541 38.5945L12.5163 38.1941C12.5343 38.1497 12.5167 38.108 12.4722 38.0899L7.43191 36.0432C7.38744 36.0252 7.34577 36.0428 7.32775 36.0873Z" fill="white"/>
<path opacity="0.4" d="M10.7084 28.8906L9.02872 31.9292C9.0055 31.9712 9.01801 32.0148 9.06 32.038L9.41689 32.2357C9.45888 32.259 9.50236 32.2465 9.52558 32.2045L10.2029 30.9792C10.2145 30.9582 10.2362 30.952 10.2572 30.9636L14.554 33.3439C14.596 33.3671 14.6394 33.3546 14.6627 33.3126L14.8717 32.9345C14.8949 32.8925 14.8824 32.849 14.8404 32.8258L10.5436 30.4455C10.5226 30.4339 10.5164 30.4121 10.528 30.3911L11.2053 29.1658C11.2285 29.1238 11.216 29.0803 11.174 29.0571L10.8171 28.8593C10.7751 28.8361 10.7317 28.8486 10.7084 28.8906Z" fill="white"/>
<path opacity="0.4" d="M18.3858 27.4619C19.1396 26.5077 18.9201 25.4564 17.9605 24.6966L15.1317 22.457C15.0941 22.4272 15.0491 22.4324 15.0194 22.4701L14.7516 22.8091C14.7218 22.8468 14.7271 22.8917 14.7647 22.9215L17.5496 25.1263C18.3022 25.7222 18.4797 26.4138 17.9342 27.1043C17.3887 27.7948 16.6756 27.7812 15.9229 27.1853L13.138 24.9805C13.1004 24.9507 13.0555 24.956 13.0257 24.9936L12.7579 25.3326C12.7282 25.3703 12.7334 25.4152 12.7711 25.445L15.5998 27.6846C16.5595 28.4444 17.632 28.416 18.3858 27.4619Z" fill="white"/>
<path opacity="0.4" d="M21.0507 16.0251L18.488 18.3676C18.4526 18.4 18.4505 18.4452 18.4829 18.4807L18.7578 18.7821C18.7902 18.8176 18.8354 18.8197 18.8708 18.7873L19.9041 17.8427C19.9219 17.8265 19.9444 17.8275 19.9606 17.8453L23.2709 21.4743C23.3032 21.5098 23.3484 21.5118 23.3838 21.4794L23.7027 21.188C23.7381 21.1556 23.7402 21.1104 23.7078 21.0749L20.3976 17.4458C20.3814 17.4281 20.3824 17.4055 20.4001 17.3893L21.4335 16.4447C21.4689 16.4123 21.471 16.3671 21.4386 16.3316L21.1637 16.0302C21.1313 15.9947 21.0861 15.9927 21.0507 16.0251Z" fill="white"/>
<path opacity="0.4" d="M29.8183 9.71177L27.5314 11.0306C27.4898 11.0546 27.478 11.0983 27.502 11.1399L30.2153 15.855C30.2432 15.9035 30.2829 15.9083 30.3245 15.8844L30.6987 15.6685C30.7403 15.6446 30.7521 15.6008 30.7281 15.5592L29.563 13.5345C29.551 13.5137 29.5569 13.4919 29.5777 13.4799L31.3865 12.4368C31.4281 12.4128 31.4398 12.3691 31.4159 12.3275L31.2124 11.9738C31.1884 11.9322 31.1448 11.9205 31.1032 11.9445L29.2944 12.9876C29.2736 12.9996 29.2518 12.9937 29.2398 12.9729L28.2782 11.3018C28.2662 11.281 28.2721 11.2592 28.2929 11.2472L30.1016 10.2041C30.1432 10.1801 30.155 10.1364 30.131 10.0948L29.9275 9.74114C29.9036 9.69954 29.8599 9.68779 29.8183 9.71177Z" fill="white"/>
<path opacity="0.4" d="M36.0877 12.6243L35.4664 11.0376C35.4577 11.0153 35.4667 10.9945 35.4891 10.9858L36.2338 10.6935C36.2934 10.6702 36.3112 10.6718 36.3763 10.7064L38.2309 11.8005C38.2886 11.838 38.3213 11.8338 38.3808 11.8104L38.9021 11.6059C38.9617 11.5825 38.9695 11.5365 38.9118 11.4989L36.986 10.3984C36.9312 10.3683 36.9374 10.3401 36.9837 10.3047C37.6438 9.79649 37.9612 9.02738 37.6112 8.13347C37.1736 7.01608 36.1081 6.68653 35.0506 7.10151L33.5984 7.67137C33.5538 7.6889 33.5356 7.73039 33.5531 7.77508L35.5367 12.8406C35.5542 12.8853 35.5956 12.9034 35.6403 12.8858L36.0424 12.728C36.0871 12.7105 36.1052 12.669 36.0877 12.6243ZM34.3194 7.99862L35.2056 7.65086C35.9354 7.36447 36.6935 7.47948 37.0348 8.35104C37.3761 9.22261 36.898 9.82273 36.1682 10.1091L35.282 10.4569C35.2596 10.4656 35.2389 10.4566 35.2302 10.4342L34.2967 8.05048C34.288 8.02813 34.297 8.00739 34.3194 7.99862Z" fill="white"/>
<path opacity="0.4" d="M43.5355 4.34843L42.6439 4.5402C42.597 4.55029 42.5612 4.57435 42.5607 4.64811L42.0877 10.2979C42.0838 10.356 42.114 10.3822 42.1688 10.3705L42.6068 10.2763C42.6537 10.2662 42.6878 10.2343 42.695 10.1918L42.7873 8.94451C42.7929 8.89422 42.813 8.87353 42.8599 8.86343L45.1124 8.37896C45.1593 8.36887 45.1862 8.37947 45.2119 8.42304L45.8078 9.5223C45.8318 9.55805 45.876 9.5731 45.9229 9.56301L46.3609 9.46881C46.4157 9.45703 46.4324 9.4207 46.405 9.36931L43.6557 4.4126C43.6249 4.34557 43.5824 4.33834 43.5355 4.34843ZM42.8402 8.2376L43.0922 5.06569C43.0949 5.04055 43.0994 5.02322 43.1307 5.01649L43.2871 4.98285C43.3184 4.97612 43.3296 4.99008 43.3424 5.01186L44.8736 7.80023C44.8882 7.82984 44.8759 7.84884 44.8524 7.85389L42.8815 8.2778C42.858 8.28285 42.839 8.27057 42.8402 8.2376Z" fill="white"/>
<path opacity="0.4" d="M53.0734 7.61209L50.3502 3.24124C50.308 3.17869 50.2755 3.16382 50.2035 3.16636L49.6918 3.18438C49.6438 3.18607 49.613 3.21918 49.6147 3.26715L49.8058 8.70379C49.8075 8.75176 49.8406 8.78262 49.8885 8.78093L50.3203 8.76572C50.3682 8.76403 50.3991 8.73092 50.3974 8.68295L50.2412 4.2377C50.2398 4.19772 50.2715 4.1886 50.2886 4.22002L53.0118 8.59087C53.046 8.6537 53.0865 8.66828 53.1585 8.66575L53.6702 8.64772C53.7182 8.64603 53.749 8.61293 53.7473 8.56496L53.5562 3.12831C53.5545 3.08034 53.5214 3.04949 53.4735 3.05118L53.0417 3.06639C52.9938 3.06808 52.9629 3.10118 52.9646 3.14915L53.1208 7.59441C53.1222 7.63438 53.0905 7.64351 53.0734 7.61209Z" fill="white"/>
<path opacity="0.4" d="M60.5257 10.5772C60.9761 10.6486 61.3296 10.4616 61.3933 10.0586C61.4433 9.74253 61.2887 9.49123 60.9785 9.35297C60.9415 9.33091 60.9282 9.3126 60.9436 9.26644L60.9756 9.16622C60.9794 9.14252 60.9964 9.13712 61.0201 9.14088C61.9388 9.22166 62.7764 8.89271 63.3247 8.24251C63.3547 8.20676 63.3518 8.1739 63.3172 8.13603L63.0004 7.83473C62.9659 7.79686 62.9173 7.79725 62.8861 7.84091C62.4135 8.4221 61.679 8.6621 60.8809 8.53564C59.6325 8.3378 58.8713 7.26139 59.0912 5.87067C59.3111 4.47995 60.3672 3.69153 61.6157 3.88937C62.4137 4.01583 63.0382 4.4712 63.3084 5.17009C63.3246 5.22126 63.372 5.22877 63.4153 5.21133L63.815 5.03977C63.8674 5.01568 63.8724 4.98407 63.8549 4.94081C63.5058 4.0755 62.7182 3.47281 61.7069 3.31254C60.1345 3.06336 58.7473 4.05041 58.4749 5.773C58.2212 7.37707 59.0843 8.68021 60.4828 9.05573C60.5065 9.05949 60.5211 9.0699 60.5082 9.10025L60.3721 9.49988C60.3567 9.54603 60.3754 9.5814 60.4294 9.59806C60.8432 9.69604 60.9339 9.83999 60.9114 9.98223C60.8889 10.1245 60.75 10.1834 60.584 10.1571C60.426 10.1321 60.2676 10.0584 60.1366 9.96475C60.0929 9.93353 60.0509 9.94307 60.0276 9.98798L59.9086 10.2283C59.8866 10.2653 59.8949 10.3152 59.9319 10.3373C60.1065 10.4622 60.3124 10.5434 60.5257 10.5772Z" fill="white"/>
<path opacity="0.4" d="M70.7026 5.49465L69.8401 5.19839C69.7947 5.18279 69.7517 5.18494 69.7132 5.24785L66.3959 9.84349C66.3627 9.89127 66.375 9.92934 66.4279 9.94753L66.8516 10.0931C66.897 10.1087 66.9427 10.0989 66.9708 10.0663L67.6927 9.04547C67.7234 9.00526 67.7513 8.99792 67.7967 9.01352L69.9758 9.76197C70.0212 9.77756 70.0387 9.80049 70.0382 9.8511L69.9821 11.1006C69.9842 11.1437 70.0143 11.1794 70.0597 11.1949L70.4834 11.3405C70.5364 11.3587 70.5694 11.3362 70.5725 11.278L70.7724 5.61168C70.7806 5.53837 70.748 5.51024 70.7026 5.49465ZM68.1024 8.46718L69.9531 5.88009C69.9685 5.85999 69.9813 5.84745 70.0115 5.85785L70.1628 5.90982C70.1931 5.92022 70.1955 5.93795 70.1953 5.96325L70.0696 9.14286C70.0668 9.17573 70.0464 9.18567 70.0237 9.17787L68.1171 8.52298C68.0944 8.51518 68.0844 8.49485 68.1024 8.46718Z" fill="white"/>
<path opacity="0.4" d="M76.8116 7.91776L76.4257 7.7237C76.3828 7.70214 76.3399 7.71637 76.3183 7.75927L73.8788 12.6216C73.8573 12.6645 73.8715 12.7075 73.9144 12.729L74.3003 12.9231C74.3432 12.9447 74.3862 12.9304 74.4077 12.8875L76.8472 8.02521C76.8688 7.9823 76.8545 7.93933 76.8116 7.91776Z" fill="white"/>
<path opacity="0.4" d="M79.205 15.7524C80.1357 16.3897 81.1096 16.1839 81.6331 15.4177C82.1928 14.5987 81.872 13.7778 81.3022 13.1937L81.0106 12.8971C80.5788 12.4657 80.5352 12.0189 80.8151 11.6094C81.1265 11.1536 81.678 11.0271 82.2325 11.4068C82.6417 11.687 82.8155 12.1842 82.6941 12.7022C82.6802 12.7509 82.6997 12.7933 82.7529 12.8006L83.1954 12.8903C83.2485 12.8976 83.2798 12.8802 83.2937 12.8316C83.473 12.1011 83.2241 11.3877 82.5574 10.9312C81.7389 10.3707 80.7741 10.5633 80.2957 11.2635C79.8173 11.9636 79.9748 12.7114 80.571 13.3136L80.8625 13.6102C81.3031 14.0573 81.4478 14.583 81.0957 15.0982C80.7662 15.5804 80.1834 15.7243 79.5366 15.2813C79.0349 14.9378 78.835 14.3937 79.0214 13.8232C79.0353 13.7745 79.0158 13.7321 78.9627 13.7248L78.5312 13.633C78.4781 13.6257 78.4468 13.6431 78.433 13.6917C78.2106 14.4993 78.5119 15.2778 79.205 15.7524Z" fill="white"/>
<path opacity="0.4" d="M92.2677 19.1581L91.1734 17.894C91.142 17.8577 91.0968 17.8545 91.0606 17.8859L86.9515 21.4508C86.9152 21.4823 86.912 21.5275 86.9434 21.5638L88.0377 22.8279C89.0745 24.0255 90.6346 24.1653 91.9278 23.0434C93.2209 21.9215 93.3045 20.3557 92.2677 19.1581ZM87.7378 21.5524L91.0492 18.6795C91.0674 18.6638 91.0899 18.6654 91.1056 18.6835L91.823 19.5122C92.6241 20.4376 92.6192 21.6175 91.5194 22.5716C90.4196 23.5258 89.2522 23.3629 88.4511 22.4375L87.7337 21.6089C87.718 21.5907 87.7196 21.5681 87.7378 21.5524Z" fill="white"/>
<path opacity="0.4" d="M97.145 25.2667L92.4742 28.0555C92.433 28.0801 92.4219 28.124 92.4465 28.1653L93.8428 30.5088C93.8674 30.5501 93.9112 30.5611 93.9525 30.5365L94.3028 30.3274C94.344 30.3028 94.3551 30.2589 94.3305 30.2176L93.2167 28.3483C93.2044 28.3277 93.21 28.3057 93.2306 28.2934L94.8791 27.3091C94.8997 27.2968 94.9216 27.3023 94.9339 27.323L96.0477 29.1923C96.0723 29.2335 96.1161 29.2446 96.1573 29.22L96.5076 29.0109C96.5488 28.9862 96.5599 28.9424 96.5354 28.9011L95.4216 27.0318C95.4093 27.0112 95.4148 26.9892 95.4354 26.9769L96.9946 26.0459C97.0152 26.0336 97.0372 26.0391 97.0495 26.0598L98.1633 27.9291C98.1878 27.9703 98.2317 27.9814 98.2729 27.9568L98.6232 27.7477C98.6644 27.723 98.6755 27.6792 98.6509 27.6379L97.2546 25.2944C97.23 25.2531 97.1862 25.242 97.145 25.2667Z" fill="white"/>
<path opacity="0.4" d="M100.568 40.1147L101.006 41.753C101.013 41.7762 101.001 41.7958 100.976 41.7943C99.8657 41.885 99.0407 41.2781 98.7594 40.2271C98.4326 39.006 99.1065 37.8728 100.466 37.508C101.826 37.1432 102.976 37.7873 103.309 39.0315C103.512 39.7889 103.384 40.5189 102.929 41.0468C102.899 41.088 102.901 41.1287 102.943 41.1591L103.265 41.4369C103.307 41.4673 103.347 41.4647 103.378 41.4234C103.937 40.7598 104.13 39.8385 103.873 38.8802C103.459 37.3346 101.984 36.4632 100.307 36.9129C98.6304 37.3627 97.7878 38.8559 98.1953 40.3784C98.607 41.9162 99.9433 42.7008 101.664 42.3221C101.71 42.3097 101.733 42.2705 101.72 42.2241L101.116 39.9675C101.104 39.9212 101.065 39.8985 101.018 39.911L100.624 40.0167C100.578 40.0291 100.555 40.0683 100.568 40.1147Z" fill="white"/>
<path opacity="0.4" d="M105.562 47.2297L100.137 47.6287C100.089 47.6322 100.059 47.6665 100.063 47.7144L100.262 50.435C100.266 50.4829 100.3 50.5125 100.348 50.509L100.755 50.479C100.803 50.4755 100.832 50.4413 100.829 50.3934L100.67 48.2232C100.668 48.1993 100.683 48.1822 100.707 48.1804L102.621 48.0396C102.645 48.0378 102.663 48.0526 102.664 48.0765L102.824 50.2467C102.827 50.2946 102.861 50.3241 102.909 50.3206L103.316 50.2907C103.364 50.2872 103.394 50.2529 103.39 50.2051L103.231 48.0349C103.229 48.011 103.244 47.9938 103.268 47.9921L105.079 47.8589C105.103 47.8571 105.12 47.8719 105.122 47.8958L105.281 50.066C105.284 50.1139 105.319 50.1434 105.367 50.1399L105.773 50.11C105.821 50.1065 105.851 50.0722 105.847 50.0243L105.648 47.3037C105.644 47.2558 105.61 47.2262 105.562 47.2297Z" fill="white"/>
<path opacity="0.4" d="M100.245 56.3261C100.144 57.4496 100.799 58.1994 101.724 58.2825C102.712 58.3715 103.271 57.6908 103.502 56.9084L103.618 56.5092C103.783 55.9216 104.152 55.6656 104.646 55.7101C105.195 55.7596 105.575 56.1793 105.515 56.8486C105.471 57.3426 105.122 57.737 104.611 57.8837C104.562 57.8954 104.534 57.9331 104.554 57.983L104.692 58.4131C104.712 58.4631 104.742 58.4819 104.791 58.4702C105.516 58.2704 106.017 57.705 106.089 56.9002C106.178 55.9122 105.538 55.1639 104.693 55.0879C103.849 55.0119 103.274 55.5143 103.04 56.3286L102.924 56.7278C102.749 57.3306 102.361 57.7134 101.74 57.6575C101.158 57.6051 100.748 57.1666 100.818 56.3857C100.872 55.7801 101.249 55.3401 101.838 55.2244C101.887 55.2128 101.914 55.1751 101.895 55.1252L101.764 54.7037C101.744 54.6538 101.714 54.635 101.665 54.6466C100.852 54.8465 100.32 55.4895 100.245 56.3261Z" fill="white"/>
<path opacity="0.4" d="M104.476 66.4643L105.296 63.0904C105.307 63.0438 105.283 63.0051 105.237 62.9938L104.84 62.8973C104.794 62.8859 104.755 62.9094 104.744 62.9561L104.413 64.3165C104.408 64.3398 104.388 64.3516 104.365 64.3459L99.5924 63.1838C99.5458 63.1724 99.5071 63.196 99.4958 63.2426L99.3938 63.6624C99.3824 63.709 99.406 63.7477 99.4526 63.7591L104.225 64.9212C104.248 64.9268 104.26 64.9462 104.255 64.9695L103.924 66.3299C103.913 66.3765 103.936 66.4152 103.983 66.4266L104.379 66.5231C104.426 66.5345 104.465 66.5109 104.476 66.4643Z" fill="white"/>
<path opacity="0.4" d="M102.696 72.1596L103.039 71.3144C103.057 71.2699 103.057 71.2268 102.996 71.1849L98.5897 67.6168C98.5438 67.5809 98.5052 67.5912 98.4842 67.6431L98.3159 68.0583C98.2979 68.1028 98.3051 68.1489 98.3362 68.1787L99.3158 68.9564C99.3543 68.9893 99.3601 69.0176 99.3421 69.0621L98.4768 71.1974C98.4588 71.2419 98.435 71.2582 98.3845 71.2549L97.1405 71.1297C97.0974 71.1295 97.0601 71.1575 97.0421 71.202L96.8739 71.6172C96.8528 71.6691 96.8735 71.7034 96.9314 71.7096L102.576 72.2229C102.648 72.2351 102.678 72.2041 102.696 72.1596ZM99.8707 69.3976L102.352 71.3896C102.372 71.4061 102.383 71.4195 102.371 71.4491L102.311 71.5974C102.299 71.6271 102.281 71.6285 102.256 71.6269L99.0896 71.3254C99.057 71.3208 99.0482 71.2999 99.0572 71.2777L99.8142 69.4092C99.8233 69.387 99.8441 69.3782 99.8707 69.3976Z" fill="white"/>
<path opacity="0.4" d="M100.118 77.8052L95.4378 75.0318C95.3965 75.0074 95.3527 75.0186 95.3283 75.0599L93.9926 77.3186C93.9682 77.3599 93.9794 77.4037 94.0207 77.4282L94.3717 77.6362C94.413 77.6607 94.4568 77.6495 94.4813 77.6081L95.5359 75.8246C95.5482 75.804 95.5701 75.7984 95.5907 75.8106L99.8164 78.3148C99.8577 78.3393 99.9015 78.328 99.926 78.2867L100.146 77.9149C100.17 77.8736 100.159 77.8297 100.118 77.8052Z" fill="white"/>
<path opacity="0.4" d="M94.7537 86.0266L96.9061 83.3022C96.9358 83.2645 96.9306 83.2196 96.8929 83.1898L96.573 82.9365C96.5354 82.9067 96.4905 82.912 96.4607 82.9496L95.5928 84.0482C95.578 84.067 95.5555 84.0696 95.5367 84.0547L91.6856 81.0057C91.6479 80.9759 91.603 80.9812 91.5732 81.0188L91.3054 81.3578C91.2757 81.3955 91.2809 81.4404 91.3186 81.4702L95.1697 84.5193C95.1885 84.5342 95.1911 84.5566 95.1763 84.5755L94.3084 85.674C94.2786 85.7117 94.2839 85.7567 94.3215 85.7864L94.6414 86.0397C94.679 86.0695 94.724 86.0643 94.7537 86.0266Z" fill="white"/>
<path opacity="0.4" d="M88.706 87.6047L88.948 87.8493C88.9817 87.8834 89.027 87.8836 89.061 87.8498L90.2142 86.7063C90.2483 86.6725 90.2485 86.6272 90.2148 86.5931L89.9728 86.3486C89.939 86.3145 89.8938 86.3143 89.8597 86.3481L88.7066 87.4916C88.6725 87.5254 88.6723 87.5706 88.706 87.6047Z" fill="white"/>
<path opacity="0.4" d="M85.9147 94.6561L88.6603 92.5308C88.6982 92.5015 88.704 92.4565 88.6746 92.4186L88.4252 92.0957C88.3959 92.0577 88.351 92.0519 88.3131 92.0813L87.206 92.9383C87.187 92.953 87.1646 92.9501 87.1499 92.9311L84.1472 89.0437C84.1179 89.0057 84.073 89 84.0351 89.0294L83.6935 89.2938C83.6555 89.3232 83.6498 89.3681 83.6791 89.4061L86.6818 93.2935C86.6964 93.3125 86.6936 93.3349 86.6746 93.3496L85.5675 94.2066C85.5296 94.2359 85.5238 94.2809 85.5532 94.3188L85.8026 94.6417C85.8319 94.6797 85.8768 94.6855 85.9147 94.6561Z" fill="white"/>
<path opacity="0.4" d="M81.1016 95.1513L82.2354 97.2484C82.2582 97.2907 82.3015 97.3036 82.3438 97.2807L82.7236 97.0749C82.7658 97.0521 82.7787 97.0087 82.7559 96.9664L80.1689 92.1809C80.146 92.1387 80.1027 92.1258 80.0605 92.1487L79.6806 92.3545C79.6384 92.3773 79.6255 92.4207 79.6483 92.4629L80.7935 94.5812C80.8049 94.6023 80.7984 94.624 80.7773 94.6355L78.5968 95.8168C78.5757 95.8282 78.554 95.8218 78.5426 95.8007L77.3974 93.6824C77.3746 93.6402 77.3313 93.6272 77.2891 93.6501L76.9092 93.8559C76.867 93.8788 76.8541 93.9221 76.8769 93.9644L79.4639 98.7499C79.4868 98.7921 79.5301 98.805 79.5723 98.7821L79.9522 98.5764C79.9944 98.5535 80.0073 98.5101 79.9845 98.4679L78.8507 96.3707C78.8393 96.3496 78.8458 96.3279 78.8669 96.3165L81.0475 95.1351C81.0686 95.1237 81.0902 95.1302 81.1016 95.1513Z" fill="white"/>
<path opacity="0.4" d="M72.7407 102.707L72.2775 103.931C72.2546 103.989 72.29 104.019 72.3507 103.999L72.8519 103.833C72.8823 103.823 72.9077 103.798 72.9305 103.765L73.3633 102.551C73.3938 102.491 73.3585 102.46 73.2977 102.48L72.8117 102.641C72.7813 102.651 72.756 102.677 72.7407 102.707ZM74.1628 101.376L72.4549 96.2112C72.4398 96.1657 72.3994 96.1453 72.3538 96.1604L69.7643 97.0186C69.7187 97.0337 69.6984 97.0741 69.7135 97.1197L69.8416 97.5071C69.8566 97.5526 69.8971 97.5729 69.9426 97.5578L72.0082 96.8734C72.031 96.8658 72.0512 96.876 72.0587 96.8988L72.6615 98.7217C72.669 98.7445 72.6589 98.7647 72.6361 98.7722L70.5705 99.4567C70.525 99.4718 70.5047 99.5123 70.5197 99.5578L70.6478 99.9452C70.6629 99.9908 70.7033 100.011 70.7489 99.996L72.8144 99.3115C72.8372 99.304 72.8574 99.3141 72.8649 99.3369L73.4351 101.061C73.4426 101.084 73.4325 101.104 73.4097 101.112L71.3441 101.796C71.2986 101.811 71.2782 101.852 71.2933 101.897L71.4214 102.285C71.4365 102.33 71.4769 102.351 71.5225 102.335L74.112 101.477C74.1575 101.462 74.1779 101.422 74.1628 101.376Z" fill="white"/>
<path opacity="0.4" d="M64.4932 98.6331L64.7541 100.317C64.7577 100.341 64.7444 100.359 64.7207 100.363L63.9301 100.485C63.8669 100.495 63.8499 100.49 63.7939 100.442L62.2219 98.9695C62.1738 98.9203 62.141 98.9173 62.0777 98.9271L61.5244 99.013C61.4611 99.0228 61.4435 99.066 61.4916 99.1152L63.1317 100.609C63.1786 100.651 63.1664 100.677 63.1136 100.701C62.3585 101.053 61.8812 101.734 62.0282 102.683C62.2119 103.869 63.1801 104.423 64.3027 104.249L65.8442 104.009C65.8916 104.002 65.9184 103.966 65.911 103.918L65.0782 98.5422C65.0708 98.4948 65.0343 98.4681 64.9869 98.4755L64.56 98.5417C64.5126 98.5491 64.4859 98.5856 64.4932 98.6331ZM65.2118 103.533L64.2711 103.679C63.4963 103.799 62.7814 103.522 62.6381 102.597C62.4948 101.672 63.0922 101.19 63.8669 101.07L64.8076 100.924C64.8313 100.92 64.8496 100.934 64.8533 100.957L65.2452 103.487C65.2489 103.511 65.2355 103.529 65.2118 103.533Z" fill="white"/>
<path opacity="0.4" d="M55.8205 105.092L56.7325 105.098C56.7805 105.098 56.8206 105.082 56.837 105.01L58.5209 99.5973C58.5373 99.5415 58.5135 99.5093 58.4575 99.5089L58.0095 99.5059C57.9615 99.5056 57.9214 99.5294 57.9051 99.5693L57.5452 100.767C57.5289 100.815 57.5047 100.831 57.4568 100.83L55.1528 100.815C55.1048 100.815 55.0809 100.799 55.0652 100.75L54.7212 99.5481C54.7054 99.508 54.6656 99.4837 54.6176 99.4834L54.1696 99.4805C54.1136 99.4801 54.0894 99.5119 54.105 99.568L55.7171 105.003C55.7326 105.075 55.7725 105.091 55.8205 105.092ZM57.3407 101.446L56.4085 104.487C56.4003 104.511 56.3922 104.527 56.3602 104.527L56.2002 104.526C56.1682 104.526 56.1603 104.51 56.1525 104.486L55.2607 101.432C55.2529 101.4 55.269 101.384 55.293 101.384L57.309 101.397C57.333 101.397 57.3489 101.414 57.3407 101.446Z" fill="white"/>
<path opacity="0.4" d="M48.1124 104.645L49.3972 104.869C49.4445 104.877 49.4815 104.851 49.4897 104.803L50.4192 99.4434C50.4274 99.3961 50.4013 99.3591 50.3541 99.3509L49.9284 99.2769C49.8811 99.2687 49.8441 99.2947 49.8359 99.342L49.5694 100.879C49.5653 100.903 49.5468 100.916 49.5231 100.912L48.7823 100.783C47.4739 100.556 46.5716 101.17 46.3665 102.352C46.1615 103.535 46.8041 104.418 48.1124 104.645ZM49.4587 101.518L48.9966 104.182C48.9925 104.205 48.974 104.218 48.9504 104.214L48.2647 104.095C47.2952 103.927 46.8228 103.374 46.9813 102.459C47.1399 101.545 47.7709 101.184 48.7404 101.352L49.4261 101.471C49.4497 101.475 49.4628 101.494 49.4587 101.518Z" fill="white"/>
<path opacity="0.4" d="M41.1766 103.179L41.5887 103.309C41.6344 103.324 41.6746 103.303 41.689 103.257L43.3202 98.0672C43.3346 98.0214 43.3137 97.9813 43.2679 97.9668L42.8559 97.837C42.8101 97.8226 42.77 97.8435 42.7556 97.8893L41.1243 103.079C41.1099 103.125 41.1308 103.165 41.1766 103.179Z" fill="white"/>
<path opacity="0.4" d="M36.3257 101.539L38.6407 96.6158C38.6611 96.5723 38.6458 96.5297 38.6024 96.5093L36.1347 95.3463C36.0913 95.3258 36.0487 95.3412 36.0283 95.3846L35.8546 95.7538C35.8342 95.7973 35.8495 95.8399 35.893 95.8603L37.8613 96.788C37.883 96.7982 37.8907 96.8195 37.8805 96.8412L37.0634 98.5787C37.0532 98.6004 37.0319 98.608 37.0102 98.5978L35.0418 97.6702C34.9984 97.6497 34.9559 97.665 34.9354 97.7085L34.7618 98.0777C34.7414 98.1211 34.7567 98.1637 34.8001 98.1842L36.7685 99.1118C36.7902 99.122 36.7979 99.1433 36.7877 99.1651L36.0148 100.808C36.0046 100.83 35.9833 100.838 35.9616 100.828L33.9933 99.8999C33.9498 99.8795 33.9073 99.8948 33.8869 99.9382L33.7132 100.307C33.6928 100.351 33.7081 100.393 33.7515 100.414L36.2192 101.577C36.2627 101.597 36.3052 101.582 36.3257 101.539Z" fill="white"/>
</svg>
