<svg width="246" height="62" viewBox="0 0 246 62" fill="none" xmlns="http://www.w3.org/2000/svg">
<path d="M76.7656 25.2771L77.9278 25.0022V17.5714L76.7656 17.2965V16.5414L79.3631 16.4717H86.3091V17.2965L85.1469 17.5714V25.0022L86.3091 25.2771V26.1019H82.4109V25.2771L83.7115 25.0022V17.5714H79.3631V25.0022L80.66 25.2771V26.1019H76.7656V25.2771Z" fill="#19191B"/>
<path d="M91.5579 18.6713C92.0003 18.6473 92.4424 18.7232 92.8519 18.8934C93.2614 19.0636 93.6279 19.3237 93.9245 19.6549C94.5218 20.4084 94.8231 21.3565 94.7711 22.319C94.8206 23.3516 94.4843 24.3655 93.8283 25.1612C93.1943 25.8275 92.3249 26.2154 91.4085 26.2408C90.4922 26.2662 89.6028 25.9269 88.9334 25.2967C88.3588 24.6694 88.0714 23.7453 88.0714 22.5242C88.0211 21.4997 88.3689 20.4957 89.0412 19.7246C89.361 19.3777 89.7513 19.104 90.1856 18.9223C90.6198 18.7406 91.0878 18.655 91.5579 18.6713ZM91.4886 19.7749C90.1674 19.7749 89.5068 20.6694 89.5068 22.4584C89.5068 24.2474 90.1482 25.1406 91.4309 25.138C91.7116 25.1604 91.9933 25.1091 92.2483 24.9889C92.5033 24.8687 92.7229 24.6839 92.8855 24.4526C93.2316 23.823 93.3906 23.1066 93.3434 22.3887C93.3434 20.6462 92.7277 19.7749 91.4963 19.7749" fill="#19191B"/>
<path d="M96.5371 25.3467L97.6916 25.0447V19.8714L96.5371 19.6352V18.8801L99.0654 18.8104H100.912C101.473 18.7888 102.025 18.961 102.475 19.2983C102.676 19.4479 102.838 19.6445 102.946 19.8712C103.055 20.0979 103.107 20.3479 103.098 20.5994C103.113 20.8092 103.079 21.0196 103.001 21.2147C102.923 21.4099 102.803 21.5847 102.648 21.7262C102.3 22.0037 101.875 22.1672 101.432 22.1947C101.937 22.2325 102.419 22.4274 102.81 22.7523C102.99 22.8978 103.135 23.0832 103.232 23.2941C103.329 23.505 103.377 23.7357 103.371 23.9682C103.371 25.3932 102.332 26.1044 100.254 26.1018H96.5371V25.3467ZM100.385 21.7959C100.731 21.8183 101.076 21.739 101.378 21.5674C101.496 21.479 101.589 21.361 101.648 21.2251C101.707 21.0892 101.729 20.9402 101.713 20.793C101.72 20.6586 101.698 20.5242 101.65 20.3987C101.602 20.2732 101.527 20.1595 101.432 20.065C101.217 19.883 100.943 19.789 100.662 19.8017H99.0615V21.7843L100.385 21.7959ZM100.304 25.0989C101.379 25.0989 101.917 24.7452 101.917 24.0379C101.934 23.8482 101.908 23.6571 101.841 23.4788C101.774 23.3005 101.669 23.1396 101.532 23.0079C101.172 22.7639 100.74 22.6517 100.308 22.6904H99.0384V25.0989H100.304Z" fill="#19191B"/>
<path d="M108.829 18.6713C109.272 18.6473 109.714 18.7232 110.123 18.8934C110.533 19.0636 110.899 19.3237 111.196 19.6549C111.791 20.4093 112.092 21.3568 112.042 22.319C112.09 23.3514 111.754 24.3646 111.1 25.1612C110.466 25.8275 109.596 26.2154 108.68 26.2408C107.763 26.2662 106.874 25.9269 106.205 25.2967C105.627 24.6694 105.343 23.7478 105.343 22.5242C105.292 21.4997 105.64 20.4957 106.312 19.7246C106.632 19.3777 107.023 19.104 107.457 18.9223C107.891 18.7406 108.359 18.655 108.829 18.6713ZM108.76 19.7749C107.439 19.7749 106.778 20.6694 106.778 22.4584C106.778 24.2474 107.419 25.1406 108.702 25.138C108.983 25.16 109.265 25.1084 109.521 24.9883C109.777 24.8682 109.997 24.6837 110.161 24.4526C110.507 23.823 110.666 23.1066 110.618 22.3887C110.618 20.6462 110.003 19.7749 108.771 19.7749" fill="#19191B"/>
<path d="M114.489 26.253C114.188 26.2496 113.89 26.2079 113.6 26.1291L113.75 24.8512C113.876 24.8763 114.005 24.8892 114.135 24.8899C114.954 24.8899 115.485 24.1775 115.72 22.7447C115.845 21.8047 115.919 20.8585 115.939 19.9103L114.785 19.6353V18.8105H121.431V19.6276L120.276 19.9025V24.9945L121.431 25.3391V26.1136H117.74V25.3391L118.895 24.9945V19.9103H116.971C116.931 21.206 116.822 22.4986 116.644 23.7825C116.386 25.1145 115.874 25.9006 115.104 26.1484C114.893 26.2152 114.672 26.2479 114.45 26.2452" fill="#19191B"/>
<path d="M133.934 25.3469V26.102H132.086L130.132 22.9384H128.943V25.0022L129.843 25.3469V26.102H126.795V25.3469L127.711 25.0022V22.9384H126.437L124.594 26.102H122.789V25.3469L123.813 25.0022L125.483 22.2491L124.155 19.8018L123.17 19.6353V18.8105L126.137 18.8802V19.6353L125.564 19.8289L126.507 21.9083H127.711V19.8715L127.095 19.6353V18.8802L129.558 18.8105V19.6237L128.943 19.8715V21.9083H130.143L131.171 19.8289L130.597 19.6353V18.8802L133.522 18.8105V19.6353L132.537 19.8018L131.128 22.2491L132.895 25.0022L133.934 25.3469Z" fill="#19191B"/>
<path d="M138.637 26.2412C138.166 26.2729 137.694 26.1998 137.255 26.0271C136.815 25.8545 136.419 25.5865 136.094 25.2422C135.509 24.5762 135.22 23.6507 135.22 22.4581C135.179 21.4547 135.527 20.4745 136.19 19.7243C136.52 19.373 136.922 19.0973 137.367 18.9156C137.813 18.7339 138.292 18.6505 138.772 18.671C139.153 18.6729 139.533 18.7197 139.903 18.8104C140.208 18.8765 140.507 18.9685 140.796 19.0853L141.096 19.2247L141.031 21.0795H140.142L139.934 19.9179C139.532 19.8237 139.12 19.7782 138.707 19.7823C138.422 19.7656 138.137 19.8144 137.873 19.9251C137.61 20.0359 137.375 20.2055 137.186 20.4213C136.794 20.9745 136.606 21.6485 136.655 22.3264C136.605 23.0689 136.801 23.8071 137.213 24.4252C137.397 24.6614 137.635 24.8499 137.906 24.9752C138.177 25.1005 138.474 25.1588 138.772 25.1454C139.151 25.1477 139.527 25.0781 139.88 24.9402C140.156 24.8436 140.416 24.7052 140.65 24.5297L140.881 24.3206L141.362 25.1454L141.216 25.2654C141.092 25.3616 140.964 25.4508 140.831 25.5326C140.639 25.6574 140.44 25.7699 140.234 25.8695C139.995 25.9787 139.746 26.0668 139.492 26.1328C139.208 26.2085 138.915 26.2475 138.622 26.249" fill="#19191B"/>
<path d="M142.723 25.3469L143.885 25.0022V19.9103L142.723 19.6353V18.8802L145.255 18.8105V21.9083H146.636L147.66 19.8289L147.044 19.6353V18.8802L150.053 18.8105V19.6353L149.068 19.8018L147.66 22.2491L149.411 25.0022L150.45 25.3469V26.102H148.603L146.663 22.9384H145.255V25.0022L146.144 25.3469V26.102H142.723V25.3469Z" fill="#19191B"/>
<path d="M158.943 19.9103V25.0022L160.102 25.3469V26.102H156.754V25.3469L157.643 25.0022V21.494L154.156 24.6576V25.0022L155.045 25.3469V26.102H151.693V25.3469L152.855 25.0022V19.9103L151.693 19.6353V18.8802L155.045 18.8105V19.6353L154.156 19.9103V23.4185L157.643 20.2549V19.9103L156.754 19.6353V18.8802L160.102 18.8105V19.6353L158.943 19.9103Z" fill="#19191B"/>
<path d="M169.113 19.9103V25.0023L170.268 25.3469V26.1213H166.92V25.3469L167.809 25.0023V21.494L164.334 24.6615V25.0061L165.219 25.3508V26.1252H161.871V25.3508L163.026 25.0061V19.9103L161.871 19.6353V18.8803L165.219 18.8106V19.6276L164.334 19.9025V23.4108L167.82 20.2472V19.9025L166.931 19.6276V18.8725L170.279 18.8028V19.6276L169.113 19.9103ZM166.119 17.6411C165.493 17.6594 164.876 17.4792 164.357 17.1261C164.116 16.9673 163.918 16.7492 163.784 16.4925C163.649 16.2358 163.581 15.9488 163.587 15.6586L165.05 15.5889C165.038 15.753 165.064 15.9177 165.125 16.0705C165.185 16.2233 165.279 16.3605 165.4 16.4717C165.66 16.6832 165.989 16.7907 166.323 16.7738C166.465 16.7825 166.606 16.7611 166.739 16.7111C166.872 16.661 166.992 16.5834 167.093 16.4834C167.192 16.3714 167.267 16.2409 167.316 16.0993C167.364 15.9577 167.384 15.8079 167.374 15.6586L168.528 15.5889C168.545 15.8778 168.493 16.1666 168.377 16.4313C168.26 16.696 168.083 16.9289 167.859 17.1107C167.352 17.4826 166.735 17.6697 166.108 17.6411" fill="#19191B"/>
<path d="M183.102 19.9103V25.0022L184.264 25.3469V26.102H180.916V25.3469L181.801 25.0022V21.494L178.314 24.6576V25.0022L179.203 25.3469V26.102H175.855V25.3469L177.018 25.0022V19.9103L175.855 19.6353V18.8802L179.203 18.8105V19.6353L178.314 19.9103V23.4185L181.801 20.2549V19.9103L180.916 19.6353V18.8802L184.264 18.8105V19.6353L183.102 19.9103Z" fill="#19191B"/>
<path d="M193.208 19.9103V25.0022L194.37 25.3469V26.102H190.953V25.3469L191.842 25.0022V22.8028H188.559V25.0022L189.448 25.3469V26.102H186.031V25.3469L187.19 25.0022V19.9103L186.031 19.6353V18.8802L189.448 18.8105V19.6353L188.559 19.9103V21.7689H191.842V19.9103L190.953 19.6353V18.8802L194.37 18.8105V19.6353L193.208 19.9103Z" fill="#19191B"/>
<path d="M199.553 26.2412C198.441 26.2412 197.591 25.9082 197.01 25.2422C196.384 24.4559 196.071 23.4635 196.132 22.4581C196.09 21.4538 196.439 20.4727 197.106 19.7243C197.436 19.373 197.838 19.0973 198.283 18.9156C198.729 18.7339 199.208 18.6505 199.688 18.671C200.068 18.6727 200.446 18.7195 200.815 18.8104C201.122 18.876 201.422 18.968 201.712 19.0853L202.012 19.2247L201.943 21.0795H201.054L200.85 19.9179C200.446 19.8237 200.033 19.7782 199.619 19.7823C199.334 19.7656 199.05 19.8145 198.787 19.9252C198.524 20.0359 198.29 20.2056 198.103 20.4213C197.709 20.974 197.519 21.648 197.568 22.3264C197.518 23.0694 197.716 23.8078 198.129 24.4252C198.311 24.6591 198.545 24.8464 198.813 24.9716C199.081 25.0968 199.374 25.1563 199.669 25.1454C200.048 25.1477 200.424 25.0781 200.777 24.9402C201.052 24.8428 201.312 24.7044 201.547 24.5297L201.778 24.3206L202.255 25.1454L202.112 25.2654C201.989 25.3612 201.86 25.4504 201.727 25.5326C201.538 25.6582 201.34 25.7707 201.135 25.8695C200.894 25.9793 200.644 26.0674 200.388 26.1328C200.106 26.2084 199.815 26.2475 199.522 26.249" fill="#19191B"/>
<path d="M210.478 21.3585H209.52L209.316 19.9103H207.742V25.0022L209.108 25.3469V26.102H205.006V25.3469L206.376 25.0022V19.9103H204.802L204.598 21.3585H203.64L203.571 18.8105H210.547L210.478 21.3585Z" fill="#19191B"/>
<path d="M219.352 19.9103V25.0022L220.514 25.3469V26.102H217.162V25.3469L218.051 25.0022V21.494L214.564 24.6576V25.0022L215.453 25.3469V26.102H212.105V25.3469L213.268 25.0022V19.9103L212.105 19.6353V18.8802L215.453 18.8105V19.6353L214.564 19.9103V23.4185L218.051 20.2549V19.9103L217.162 19.6353V18.8802L220.514 18.8105V19.6353L219.352 19.9103Z" fill="#19191B"/>
<path d="M228.976 21.3585H228.022L227.814 19.9103H226.244V25.0022L227.61 25.3469V26.102H223.508V25.3469L224.874 25.0022V19.9103H223.304L223.096 21.3585H222.142L222.072 18.8105H229.045L228.976 21.3585Z" fill="#19191B"/>
<path d="M231.357 29.4048L230.48 29.3351L230.603 28.2896C230.711 28.2896 230.865 28.2896 231.053 28.2896C231.541 28.3266 232.023 28.1757 232.404 27.8676C232.857 27.3503 233.215 26.7564 233.462 26.1134L231.015 19.8249L230.191 19.6197V18.8646L233.405 18.7949V19.6275L232.45 19.7668L234.09 24.58L235.594 19.8327L234.636 19.6275V18.8724L237.876 18.8027V19.6275L236.991 19.7668L235.067 25.2151C234.778 26.0324 234.44 26.8315 234.055 27.6081C233.383 28.8008 232.485 29.3971 231.361 29.3971" fill="#19191B"/>
<path d="M245.931 21.3585H244.977L244.769 19.9103H243.199V25.0022L244.565 25.3469V26.102H240.463V25.3469L241.829 25.0022V19.9103H240.259L240.051 21.3585H239.097L239.027 18.8105H246L245.931 21.3585Z" fill="#19191B"/>
<path d="M76.7656 39.2442L77.8585 38.8996V34.4271L76.7656 34.0825V32.9828L79.9096 32.9131H83.4653L83.396 36.2161H82.0953L81.8221 34.5665H79.9096V38.8996L81.141 39.2442V40.3439H76.7656V39.2442Z" fill="#19191B"/>
<path d="M88.2369 40.4796C87.0799 40.4796 86.1974 40.1569 85.5894 39.5115C84.9814 38.8662 84.6774 37.951 84.6774 36.7661C84.6219 35.7069 84.9686 34.666 85.6471 33.8542C85.9911 33.4882 86.4104 33.2022 86.8757 33.0162C87.341 32.8303 87.841 32.7489 88.3408 32.7777C88.7646 32.7481 89.1897 32.8098 89.5879 32.9588C89.986 33.1077 90.348 33.3403 90.6497 33.6412C91.2115 34.297 91.4985 35.1466 91.4502 36.011L91.3693 37.0411L86.8285 37.0836C86.8326 37.5595 87.0107 38.0171 87.3288 38.3692C87.4788 38.5225 87.659 38.6427 87.8578 38.722C88.0565 38.8013 88.2695 38.8381 88.4832 38.83C88.8497 38.8263 89.2138 38.7702 89.5646 38.6635C89.8705 38.5821 90.1681 38.4719 90.4535 38.3344L90.7806 38.1834L91.3693 39.3257C91.2693 39.407 91.1269 39.5154 90.946 39.6432C90.5923 39.8477 90.2199 40.0175 89.8339 40.1505C89.3261 40.3565 88.7845 40.4655 88.2369 40.4719V40.4796ZM89.3144 35.7942C89.3323 35.4415 89.2365 35.0924 89.0412 34.799C88.9436 34.6683 88.815 34.5643 88.667 34.4966C88.5191 34.429 88.3567 34.3998 88.1946 34.4118C88.0232 34.4061 87.8527 34.4377 87.6946 34.5046C87.5365 34.5714 87.3946 34.6718 87.2787 34.799C87.0297 35.0745 86.8758 35.4236 86.8401 35.7942H89.3144Z" fill="#19191B"/>
<path d="M93.0625 39.2442L94.1554 38.8996V34.3574L93.0625 34.0167V32.9131H96.9607V34.0167L96.2065 34.3574V38.6943H98.3961V34.4271L97.6418 34.0825V32.9828L101.197 32.9131V34.0825L100.447 34.4271V38.6943H102.633V34.4271L101.882 34.0825V32.9828L105.781 32.9131V34.0167L104.684 34.4271V38.8996L105.781 39.2442V40.3439H93.0625V39.2442Z" fill="#19191B"/>
<path d="M107.271 32.9131H115.01L114.941 36.2161H113.644L113.371 34.5665H112.166V38.8996L113.532 39.2442V40.3439H108.749V39.2442L110.115 38.8996V34.5665H108.911L108.638 36.2161H107.341L107.271 32.9131Z" fill="#19191B"/>
<path d="M118.699 40.479C118.411 40.5069 118.12 40.4701 117.848 40.3714C117.576 40.2727 117.329 40.1145 117.125 39.9082C116.922 39.7019 116.766 39.4526 116.669 39.1783C116.572 38.9041 116.537 38.6117 116.567 38.3222C116.567 36.8095 117.665 36.0518 119.861 36.0492H120.819V35.2748C120.819 34.6049 120.469 34.268 119.768 34.268C119.562 34.2676 119.356 34.287 119.153 34.3261C118.999 34.3506 118.847 34.3868 118.699 34.4345L118.564 34.4771L118.36 35.3445H117.128L117.032 33.3077C117.986 32.9675 118.988 32.7819 119.999 32.7578C121.038 32.7578 121.777 32.963 122.216 33.3735C122.654 33.784 122.872 34.4861 122.87 35.48V38.8798L123.897 39.1276V40.2274L121.161 40.3242L120.915 39.4297L120.588 39.7123C120.34 39.891 120.076 40.0453 119.799 40.1731C119.459 40.3537 119.083 40.4518 118.699 40.4597V40.479ZM119.357 38.9108C119.599 38.9046 119.836 38.8367 120.045 38.7133C120.254 38.6059 120.445 38.469 120.615 38.3067L120.819 38.1131V37.1915H120.049C119.653 37.1613 119.255 37.2346 118.895 37.4045C118.781 37.4756 118.688 37.5766 118.626 37.6966C118.564 37.8166 118.536 37.9512 118.545 38.086C118.528 38.1971 118.537 38.3106 118.572 38.4175C118.607 38.5243 118.665 38.6216 118.744 38.7016C118.822 38.7816 118.918 38.8422 119.024 38.8785C119.129 38.9148 119.242 38.9258 119.353 38.9108" fill="#19191B"/>
<path d="M126.441 40.5376C126.034 40.5287 125.631 40.4542 125.248 40.3169L125.521 38.6789C125.702 38.7195 125.886 38.7429 126.072 38.7486C126.228 38.7512 126.384 38.7276 126.533 38.6789C126.674 38.6312 126.799 38.5455 126.895 38.4311C126.995 38.3216 127.085 38.2037 127.164 38.0787C127.256 37.9167 127.318 37.7397 127.349 37.556C127.399 37.3236 127.442 37.1223 127.472 36.9519C127.512 36.7017 127.539 36.4497 127.553 36.1968C127.576 35.8599 127.592 35.5889 127.603 35.3759C127.615 35.1629 127.622 34.8493 127.642 34.4272L126.549 34.0826V32.9209H133.81V34.0826L132.852 34.4272V38.8996L133.81 39.2443V40.344H129.7V39.2443L130.793 38.8996V34.5666H129.031C128.992 35.1242 128.958 35.5927 128.927 35.9761C128.896 36.3594 128.85 36.7505 128.792 37.2191C128.746 37.5979 128.674 37.9731 128.577 38.342C128.492 38.6492 128.388 38.9506 128.265 39.2443C128.162 39.505 128.013 39.745 127.826 39.9529C127.653 40.1272 127.449 40.2688 127.226 40.3711C126.976 40.4825 126.706 40.5393 126.433 40.5376" fill="#19191B"/>
<path d="M135.436 39.2442L136.532 38.8996V34.4271L135.436 34.0825V32.9828L139.815 32.9131V34.0748L138.583 34.4194V35.4223H139.172C139.728 35.4119 140.282 35.4797 140.819 35.6237C141.202 35.7196 141.555 35.9129 141.843 36.1851C142.061 36.4043 142.229 36.6685 142.335 36.9596C142.436 37.2706 142.485 37.5966 142.478 37.9238C142.491 38.2714 142.417 38.6169 142.26 38.9273C142.104 39.2377 141.872 39.5027 141.585 39.6972C140.819 40.1656 139.928 40.3872 139.034 40.3323H135.436V39.2442ZM139.211 38.8299C139.98 38.8299 140.365 38.5549 140.365 38.0051C140.382 37.8547 140.367 37.7023 140.32 37.5585C140.273 37.4147 140.195 37.283 140.092 37.1725C139.82 36.9964 139.498 36.916 139.176 36.9441H138.587V38.8299H139.211Z" fill="#19191B"/>
<path d="M143.762 32.9131H151.504L151.435 36.2161H150.138L149.861 34.5665H148.66V38.8996L150.027 39.2442V40.3439H145.239V39.2442L146.609 38.8996V34.5665H145.405L145.132 36.2161H143.831L143.762 32.9131Z" fill="#19191B"/>
<path d="M156.892 36.0117H153.336V37.1811H156.892V36.0117Z" fill="#19191B"/>
<path d="M165.558 35.5968H164.604L164.396 34.1524H162.826V39.2444L164.192 39.5891V40.3441H160.09V39.5891L161.456 39.2444V34.1524H159.886L159.682 35.5968H158.724L158.654 33.0527H165.627L165.558 35.5968Z" fill="#19191B"/>
<path d="M170.469 40.4797C170.014 40.5113 169.557 40.4393 169.134 40.269C168.71 40.0988 168.33 39.8346 168.022 39.4961C167.458 38.6889 167.164 37.7221 167.182 36.7356C167.201 35.7491 167.531 34.7942 168.125 34.0092C168.419 33.6546 168.789 33.3718 169.207 33.1819C169.624 32.9921 170.08 32.9003 170.538 32.9133C172.452 32.9133 173.409 33.9911 173.409 36.1467L173.34 36.8746L168.622 36.9056C168.589 37.5522 168.784 38.1896 169.172 38.7062C169.343 38.9229 169.561 39.0964 169.811 39.2128C170.06 39.3291 170.333 39.385 170.607 39.3761C171.007 39.3777 171.403 39.3122 171.781 39.1825C172.08 39.0934 172.365 38.9631 172.628 38.7953L172.905 38.6171L173.382 39.3296C173.259 39.442 173.131 39.548 172.997 39.6472C172.673 39.8523 172.329 40.0236 171.97 40.1583C171.498 40.3598 170.992 40.4663 170.48 40.4719L170.469 40.4797ZM171.97 35.864C171.991 35.3842 171.867 34.9092 171.616 34.501C171.487 34.3234 171.315 34.1821 171.116 34.0905C170.917 33.999 170.698 33.9603 170.48 33.9782C170.244 33.9675 170.008 34.0103 169.791 34.1034C169.573 34.1966 169.379 34.3377 169.222 34.5164C168.903 34.895 168.717 35.3684 168.691 35.864H171.97Z" fill="#19191B"/>
<path d="M175.171 42.7529L176.264 42.4741V34.1488L175.109 33.8739V33.0994L177.418 33.0336L177.526 33.808C178.074 33.2431 178.82 32.9165 179.604 32.8981C180.02 32.871 180.436 32.9444 180.817 33.1121C181.199 33.2799 181.535 33.5371 181.797 33.8623C182.333 34.6236 182.596 35.5449 182.544 36.476C182.601 37.5272 182.271 38.5625 181.617 39.3841C180.993 40.1043 180.072 40.4644 178.854 40.4644C178.436 40.4614 178.021 40.3975 177.622 40.2747V42.4741L179.058 42.749V43.5041H175.171V42.7529ZM179.069 39.3763C180.437 39.3763 181.12 38.4586 181.12 36.6232C181.154 35.9589 181 35.2986 180.678 34.718C180.539 34.4897 180.342 34.3034 180.107 34.1786C179.872 34.0539 179.608 33.9954 179.342 34.0094C179.125 34.0092 178.908 34.0419 178.7 34.1062C178.524 34.1602 178.358 34.2412 178.207 34.3463C178.091 34.4343 177.981 34.5314 177.88 34.6367C177.808 34.7101 177.744 34.7905 177.688 34.8768L177.634 34.9736V39.1053C178.079 39.3252 178.575 39.4202 179.069 39.3802" fill="#19191B"/>
<path d="M186.508 40.4797C186.232 40.5082 185.952 40.4744 185.691 40.3807C185.429 40.2871 185.191 40.1359 184.995 39.9383C184.798 39.7407 184.648 39.5015 184.555 39.2381C184.462 38.9748 184.428 38.6938 184.457 38.4158C184.457 36.996 185.505 36.2861 187.601 36.2861H188.697V35.1825C188.697 34.359 188.264 33.9472 187.397 33.9472C187.159 33.9467 186.921 33.9622 186.685 33.9937C186.514 34.0124 186.345 34.0474 186.181 34.0982L186.015 34.1525L185.823 35.1825H184.934L184.869 33.4632C185.718 33.1262 186.619 32.9402 187.531 32.9133C188.198 32.8679 188.861 33.0418 189.421 33.409C189.649 33.6115 189.826 33.8655 189.938 34.1502C190.05 34.4349 190.093 34.7422 190.064 35.047V39.2445L191.156 39.5194V40.2745L189.036 40.3442L188.751 39.38C188.47 39.7056 188.126 39.9708 187.741 40.1597C187.355 40.3487 186.936 40.4575 186.508 40.4797ZM186.85 39.38C187.174 39.3721 187.491 39.2771 187.766 39.105C188.026 38.961 188.262 38.7753 188.463 38.5552L188.697 38.2803V37.1805H187.739C187.235 37.1336 186.727 37.2232 186.269 37.44C186.125 37.5368 186.008 37.6709 185.933 37.8281C185.857 37.9854 185.824 38.1602 185.838 38.3345C185.826 38.6096 185.923 38.8783 186.108 39.0818C186.203 39.1785 186.317 39.2537 186.443 39.3025C186.569 39.3512 186.704 39.3724 186.839 39.3645" fill="#19191B"/>
<path d="M199.895 34.1524V39.2444L201.057 39.5891V40.3441H197.636V39.5891L198.525 39.2444V34.1524H195.311V39.2444L196.2 39.5891V40.3441H192.783V39.5891L193.945 39.2444V34.1524L192.783 33.8775V33.1224L195.311 33.0527H201.057V33.8775L199.895 34.1524Z" fill="#19191B"/>
<path d="M210.066 34.1524V39.2444L211.232 39.5891V40.3441H207.881V39.5891L208.77 39.2444V35.7362L205.283 38.8998V39.2444L206.172 39.5891V40.3441H202.82V39.5891L203.982 39.2444V34.1524L202.82 33.8775V33.1224L206.172 33.0527V33.8775L205.283 34.1524V37.6607L208.77 34.4971V34.1524L207.881 33.8775V33.1224L211.232 33.0527V33.8775L210.066 34.1524Z" fill="#19191B"/>
<path d="M220.24 34.1524V39.2444L221.403 39.5891V40.3441H218.051V39.5891L218.94 39.2444V35.7362L215.453 38.8998V39.2444L216.342 39.5891V40.3441H212.994V39.5891L214.157 39.2444V34.1524L212.994 33.8775V33.1224L216.342 33.0527V33.8775L215.453 34.1524V37.6607L218.94 34.4971V34.1524L218.051 33.8775V33.1224L221.403 33.0527V33.8775L220.24 34.1524Z" fill="#19191B"/>
<path d="M56.0697 21.5739C56.0697 21.9622 55.9545 22.3418 55.7387 22.6646C55.5229 22.9875 55.2161 23.239 54.8573 23.3874C54.4985 23.5359 54.1037 23.5745 53.7229 23.4985C53.3421 23.4225 52.9924 23.2352 52.7181 22.9604C52.4438 22.6855 52.2571 22.3355 52.1818 21.9546C52.1065 21.5736 52.1459 21.1789 52.295 20.8204C52.4441 20.4618 52.6962 20.1555 53.0194 19.9403C53.3426 19.7251 53.7224 19.6106 54.1107 19.6113C54.6306 19.6123 55.1289 19.8195 55.4961 20.1874C55.8634 20.5554 56.0697 21.054 56.0697 21.5739Z" fill="#19191B"/>
<path d="M14.66 16.6042C14.2457 17.0197 13.9455 17.535 13.7885 18.1004C13.6315 18.6658 13.6229 19.2621 13.7637 19.8317C14.3338 19.9708 14.9302 19.9604 15.4952 19.8017C16.0602 19.6429 16.5746 19.341 16.9889 18.9253C17.4031 18.5096 17.7032 17.9941 17.86 17.4286C18.0168 16.863 18.025 16.2666 17.884 15.697C17.3139 15.5586 16.7178 15.5694 16.1532 15.7283C15.5885 15.8872 15.0743 16.1888 14.66 16.6042Z" fill="#19191B"/>
<path d="M49.685 36.999C50.5358 36.3928 51.2158 35.5773 51.659 34.6313C52.1022 33.6853 52.2937 32.6409 52.215 31.5992C51.2552 31.1867 50.2052 31.0286 49.1664 31.1403C48.1277 31.252 47.1353 31.6296 46.2851 32.2367C45.4349 32.8439 44.7556 33.66 44.3128 34.6062C43.8701 35.5525 43.6788 36.597 43.7575 37.6387C44.7172 38.0505 45.7668 38.208 46.8051 38.0959C47.8434 37.9838 48.8352 37.606 49.685 36.999Z" fill="#19191B"/>
<path d="M22.0281 9.16992H21.9992C20.6729 9.20766 19.4139 9.76263 18.4914 10.7163C17.5688 11.6699 17.0558 12.9465 17.062 14.2733H19.1764C19.1733 13.4968 19.474 12.7497 20.0143 12.1919C20.5545 11.634 21.2916 11.3096 22.0679 11.2879H22.8233V15.1589C22.8266 16.8728 22.149 18.5179 20.9394 19.7322C19.7298 20.9465 18.0874 21.6306 16.3735 21.6339C14.6596 21.6373 13.0145 20.9596 11.8002 19.7501C10.5859 18.5405 9.9018 16.8981 9.89844 15.1842C9.20672 15.9506 8.62856 16.8124 8.18164 17.7431C8.81065 19.6813 10.1089 21.3324 11.8441 22.4009C13.5793 23.4693 15.6381 23.8853 17.652 23.5744C19.6659 23.2636 21.5034 22.2461 22.8357 20.7042C24.1679 19.1623 24.9079 17.1965 24.9232 15.1589V9.16992H22.0281Z" fill="#19191B"/>
<path d="M55.6721 12.1543H55.6143C53.1207 12.2221 50.7162 13.0963 48.7613 14.6459C46.8065 16.1954 45.4065 18.3369 44.7713 20.7491L47.7097 23.6876C47.7161 21.553 48.551 19.5042 50.0383 17.973C51.5257 16.4418 53.5494 15.5478 55.6829 15.4795H58.5057V25.8996C58.4459 30.3121 56.6523 34.5238 53.5125 37.6247C50.3727 40.7256 46.1389 42.4665 41.726 42.4712C37.3131 42.476 33.0755 40.7442 29.929 37.6501C26.7826 34.556 24.9799 30.3481 24.9106 25.9357C23.9146 26.6806 22.8275 27.2951 21.6758 27.7645C22.1558 32.9168 24.6022 37.6861 28.507 41.0815C32.4117 44.477 37.4745 46.2375 42.6435 45.9975C47.8124 45.7574 52.6902 43.5351 56.2634 39.7924C59.8366 36.0496 61.8305 31.0741 61.8309 25.8996V12.1651L55.6721 12.1543Z" fill="#19191B"/>
<path d="M47.257 10.575L48.2293 13.2604C49.129 12.5808 50.124 12.0377 51.1822 11.6485L49.7075 7.56788L49.6858 7.51367H45.88C42.5023 9.66996 39.9269 12.8765 38.5501 16.6398L34.7804 12.8701H32.1456C29.2765 16.5448 27.8502 21.1417 28.1351 25.7951C28.42 30.4484 30.3966 34.837 33.6925 38.1342H39.0525C37.973 37.4525 36.9654 36.6629 36.0454 35.7776C33.5548 33.2844 31.9696 30.0299 31.5419 26.5319C31.1143 23.0339 31.8687 19.4934 33.6852 16.4736L44.1668 26.9551C45.4377 26.7692 46.6824 26.4344 47.8751 25.9575L41.1994 19.2855C42.0766 15.7359 44.2289 12.633 47.2462 10.5678" fill="#19191B"/>
<path d="M51.6844 46.6646C50.627 47.4715 49.4797 48.1531 48.2653 48.6958L42.5041 51.262C42.3667 51.262 42.2258 51.28 42.0884 51.28C40.1636 51.2729 38.313 50.5368 36.9091 49.2199C36.7934 49.1114 36.685 49.003 36.5766 48.891H35.0513C34.3724 49.6164 33.5569 50.2006 32.6516 50.6099C31.7463 51.0192 30.769 51.2457 29.7759 51.2763C28.7828 51.3068 27.7935 51.1409 26.8647 50.788C25.9359 50.4351 25.086 49.9022 24.3638 49.2199C24.2481 49.1114 24.1361 49.003 24.0277 48.891H22.5024C21.5054 49.9376 20.2342 50.6827 18.8339 51.0415L13.5714 48.6958C12.0921 48.0411 10.7133 47.1795 9.47641 46.1369C10.1301 45.8754 10.7551 45.5472 11.3414 45.1574C12.9713 46.3859 14.9568 47.0504 16.9978 47.0504C19.0388 47.0504 21.0244 46.3859 22.6542 45.1574C23.8896 46.0924 25.3376 46.7063 26.8685 46.9441C28.3994 47.1819 29.9654 47.0362 31.4262 46.52C28.9929 45.3275 26.7826 43.726 24.8915 41.7852H21.4615C20.9129 42.374 20.2531 42.8483 19.5202 43.1809C18.7874 43.5134 17.996 43.6976 17.1916 43.7228C16.3872 43.748 15.5858 43.6137 14.8336 43.3277C14.0814 43.0417 13.3932 42.6096 12.8088 42.0563C12.7185 41.9696 12.6245 41.8792 12.5377 41.7852L10.0077 41.9406C9.41136 42.7322 7.26444 43.4767 6.00305 43.7261L5.07056 46.4513C7.03696 48.716 9.47775 50.52 12.2197 51.7354L22.0326 56.1052C24.9678 57.4174 27.5714 59.3713 29.6516 61.823H32.1816C34.2617 59.3713 36.8653 57.4174 39.8006 56.1052L49.6134 51.7354C52.3149 50.5305 54.7251 48.7579 56.6803 46.5382C58.6355 44.3186 60.0898 41.7039 60.9443 38.8721C58.5836 42.2295 55.3899 44.915 51.6772 46.6646H51.6844ZM30.9093 58.2846C28.7421 56.0934 26.1869 54.3237 23.3735 53.0655L21.5302 52.2451C22.1455 51.9163 22.7245 51.5238 23.2578 51.074C25.0044 52.5736 27.2303 53.398 29.5323 53.398C31.8343 53.398 34.0602 52.5736 35.8067 51.074C36.7272 51.854 37.7833 52.4581 38.9223 52.8559L38.4452 53.0655C35.6321 54.3242 33.0769 56.0938 30.9093 58.2846Z" fill="#19191B"/>
<path d="M9.83935e-06 0.758789V23.529C9.83935e-06 23.6844 9.83935e-06 23.8398 9.83935e-06 23.9953C-0.00531551 29.7821 2.15121 35.3623 6.04676 39.6416L7.87922 40.0717C9.05353 39.6148 10.1845 39.0536 11.2586 38.3947C12.8426 39.6191 14.7773 40.3036 16.7788 40.3478C18.7803 40.392 20.7433 39.7937 22.3799 38.6405C21.747 37.718 21.1806 36.7518 20.6848 35.749C19.6259 36.5651 18.3278 37.0097 16.9909 37.014C15.4342 37.0066 13.9383 36.4085 12.8055 35.3406C12.7116 35.2539 12.6212 35.1671 12.5309 35.0731H10.1346C9.72615 35.4996 8.68883 36.0598 7.74549 36.5008C6.87696 35.4272 6.12347 34.2655 5.49739 33.0347C7.43807 32.964 9.30093 32.2536 10.796 31.0143C12.3836 32.3423 14.3862 33.0725 16.456 33.078C17.4407 33.0787 18.4183 32.9125 19.3475 32.5865C19.1306 31.9178 18.9463 31.2347 18.7872 30.5408C18.0426 30.8184 17.2543 30.9604 16.4596 30.96C14.757 30.9472 13.1218 30.2929 11.8803 29.1276C11.7791 29.0336 11.6815 28.936 11.5839 28.8384H10.0587C9.42911 29.506 8.67022 30.0384 7.82824 30.4031C6.98627 30.7679 6.07884 30.9574 5.16126 30.96C4.9697 30.96 4.77452 30.96 4.58296 30.9347C3.46785 27.9213 3.09772 24.683 3.50413 21.4957C3.91053 18.3084 5.08142 15.2666 6.91703 12.6295C8.75264 9.99232 11.1986 7.83799 14.0464 6.35005C16.8942 4.86212 20.0595 4.08467 23.2726 4.08396H61.8374V0.758789H9.83935e-06ZM3.32518 12.0427V4.09119H11.2767C8.01977 6.05662 5.29061 8.78579 3.32518 12.0427Z" fill="#19191B"/>
</svg>
