<svg width="141" height="32" viewBox="0 0 141 32" fill="none" xmlns="http://www.w3.org/2000/svg">
<path d="M11.4636 0.202526C11.0137 0.202526 11.0497 0.607579 10.4378 0.607579C9.59202 0.607579 8.29628 0.0920574 6.69461 0.0920574C3.31132 0.0920574 0 3.07472 0 7.62236C0 10.918 2.08757 14.4714 6.7486 14.4714C9.43005 14.4714 10.8338 13.5509 11.5716 13.5509C11.9495 13.5509 11.9495 13.7534 12.2915 13.7534C12.6514 13.7534 12.3994 13.3483 12.5074 12.4094C12.5614 11.8386 12.7234 11.3967 12.7234 10.6787C12.7234 10.4577 12.6334 10.3657 12.5254 10.3657C12.1475 10.3657 12.2015 10.7339 11.7516 11.4335C10.5998 13.2747 8.36827 13.7902 7.10853 13.7902C3.4013 13.7902 1.58367 10.2 1.58367 6.64655C1.58367 2.89061 3.56326 0.791694 6.96456 0.791694C11.0497 0.791694 11.3916 4.17941 11.9675 4.17941C12.1295 4.17941 12.2555 4.12418 12.2555 3.94006C12.2555 3.62707 12.0215 3.12996 11.9135 2.33826C11.6616 0.736459 11.9135 0.202526 11.4636 0.202526Z" fill="#19191B"/>
<path d="M20.2244 9.13211C20.8543 9.02164 20.9623 9.02164 20.9623 8.78229C20.9623 8.59817 20.7463 8.56135 20.6743 8.30359C20.0985 6.57291 18.8747 5.68915 17.399 5.68915C15.1135 5.68915 13.6378 7.97218 13.6378 10.1816C13.6378 12.8328 15.4014 14.5451 17.471 14.5451C19.2886 14.5451 20.7283 13.1458 20.7283 12.7223C20.7283 12.5935 20.6564 12.5382 20.5304 12.5382C20.2784 12.5382 19.4866 13.5509 18.2988 13.5509C16.0133 13.5509 15.0955 11.1205 15.0955 10.3657C15.0955 10.0711 15.2935 9.99745 15.5634 9.96062L20.2244 9.13211ZM18.2449 8.81911L15.0595 9.31622C15.0595 7.45666 16.0313 6.27832 17.381 6.27832C18.4608 6.27832 19.1627 7.40142 19.1627 8.10106C19.1627 8.43247 18.8927 8.72705 18.2449 8.81911Z" fill="#19191B"/>
<path d="M23.266 7.78807V12.483C23.266 13.8639 22.3121 13.6797 22.3121 14.1032C22.3121 14.2321 22.3841 14.2873 22.5641 14.2873C22.96 14.2873 23.266 14.2321 23.8598 14.2321C24.5977 14.2321 25.2635 14.2873 25.8034 14.2873C26.0374 14.2873 26.1454 14.2321 26.1454 14.0664C26.1454 13.9007 26.0374 13.827 25.8034 13.7718C25.0656 13.5877 24.6337 13.4036 24.6337 12.17V8.76388C24.6337 7.78807 25.6055 6.57291 26.8652 6.57291C28.4489 6.57291 29.0787 7.89854 29.0787 9.51875V12.483C29.0787 13.8639 28.1249 13.6797 28.1249 14.1032C28.1249 14.2321 28.1789 14.2873 28.3769 14.2873C28.7728 14.2873 29.0787 14.2321 29.6546 14.2321C30.4105 14.2321 31.0763 14.2873 31.5982 14.2873C31.8502 14.2873 31.9582 14.2321 31.9582 14.0664C31.9582 13.9007 31.8502 13.827 31.5982 13.7718C30.8604 13.5877 30.4465 13.4036 30.4465 12.17V8.9664C30.4465 6.75702 29.0428 5.68915 27.4411 5.68915C26.3073 5.68915 25.4075 6.22309 24.6517 7.14366C24.6517 6.14944 24.8136 5.50504 24.4717 5.50504C24.1838 5.50504 24.2018 5.63392 23.086 6.02056C22.2402 6.29673 21.8802 6.22309 21.8802 6.5545C21.8802 6.7202 22.0242 6.81226 22.4021 6.81226C22.96 6.81226 23.266 6.97796 23.266 7.78807Z" fill="#19191B"/>
<path d="M35.185 5.96533C35.185 4.71334 35.239 4.17941 35.239 3.86641C35.239 3.70071 35.203 3.57183 35.023 3.57183C34.897 3.57183 34.843 3.64548 34.7891 3.81118C34.6091 4.27147 34.3751 4.8054 33.9972 5.30251C33.5653 5.89168 33.2774 6.14944 32.9714 6.35197C32.8095 6.48085 32.7015 6.5545 32.7015 6.7202C32.7015 6.95955 32.9354 6.95955 33.8173 6.92273V11.9491C33.8173 13.0906 34.1772 14.5451 36.0128 14.5451C37.3265 14.5451 38.3703 13.8639 38.3703 13.4772C38.3703 13.3483 38.3163 13.2931 38.2083 13.2931C37.9564 13.2931 37.4345 13.7902 36.6787 13.7902C36.0848 13.7902 35.185 13.3115 35.185 11.5072V6.92273H36.6427C37.6145 6.92273 37.7584 7.23572 37.9924 6.73861L38.2623 6.18626C38.3703 5.94692 38.3703 5.74439 38.1364 5.74439C37.9564 5.74439 37.4345 5.96533 36.5887 5.96533H35.185Z" fill="#19191B"/>
<path d="M45.2681 9.13211C45.898 9.02164 46.0059 9.02164 46.0059 8.78229C46.0059 8.59817 45.79 8.56135 45.718 8.30359C45.1421 6.57291 43.9184 5.68915 42.4427 5.68915C40.1571 5.68915 38.6814 7.97218 38.6814 10.1816C38.6814 12.8328 40.4451 14.5451 42.5147 14.5451C44.3323 14.5451 45.772 13.1458 45.772 12.7223C45.772 12.5935 45.7 12.5382 45.574 12.5382C45.3221 12.5382 44.5302 13.5509 43.3425 13.5509C41.057 13.5509 40.1391 11.1205 40.1391 10.3657C40.1391 10.0711 40.3371 9.99745 40.6071 9.96062L45.2681 9.13211ZM43.2885 8.81911L40.1032 9.31622C40.1032 7.45666 41.075 6.27832 42.4247 6.27832C43.5044 6.27832 44.2063 7.40142 44.2063 8.10106C44.2063 8.43247 43.9364 8.72705 43.2885 8.81911Z" fill="#19191B"/>
<path d="M48.3096 7.78807V12.4462C48.3096 13.9007 47.3558 13.6613 47.3558 14.1032C47.3558 14.2321 47.4278 14.2873 47.6257 14.2873C48.0217 14.2873 48.3096 14.2321 48.9215 14.2321C49.6593 14.2321 50.2892 14.2873 50.8291 14.2873C51.081 14.2873 51.189 14.2321 51.189 14.0664C51.189 13.9007 51.081 13.827 50.8291 13.7718C50.0552 13.5877 49.6773 13.3852 49.6773 12.1332V9.55557C49.6773 7.78807 50.9191 6.60973 51.9268 6.60973C52.5567 6.60973 52.5747 7.38301 52.8986 7.38301C53.0966 7.38301 53.1866 7.25413 53.1866 7.07002C53.1866 6.84908 53.0966 6.66496 53.0966 6.4072C53.0966 6.2415 53.1146 6.09421 53.1146 5.94692C53.1146 5.68916 52.9706 5.46822 52.4667 5.46822C51.4409 5.46822 50.5951 6.2415 49.6953 7.43825C49.6953 6.11262 49.8573 5.50504 49.5153 5.50504C49.2274 5.50504 49.2454 5.63392 48.1296 6.02056C47.2838 6.29673 46.9239 6.22309 46.9239 6.5545C46.9239 6.7202 47.0679 6.81226 47.4458 6.81226C48.0037 6.81226 48.3096 6.97796 48.3096 7.78807Z" fill="#19191B"/>
<path d="M59.6433 5.96533V4.56605C59.6433 1.84115 60.5611 0.828518 61.6589 0.828518C62.5047 0.828518 62.8826 1.4361 62.9906 1.95162C63.0266 2.13573 63.1166 2.2462 63.2605 2.2462C63.4585 2.2462 63.5485 2.15415 63.5485 1.87797C63.5485 1.25198 63.6384 0.975809 63.6384 0.589168C63.6384 0.147292 62.9726 0 62.3607 0C59.8052 0 58.2756 2.19097 58.2756 4.78699V5.96533C57.2858 5.94692 57.1778 5.79962 57.1058 6.16785L57.0158 6.68338C56.9438 7.10684 57.1958 6.92273 58.2756 6.92273V12.4462C58.2756 13.9007 57.3218 13.6613 57.3218 14.1032C57.3218 14.2321 57.3757 14.2873 57.5917 14.2873C57.9876 14.2873 58.2756 14.2321 58.8874 14.2321C59.6253 14.2321 60.2551 14.2873 60.777 14.2873C61.047 14.2873 61.155 14.2321 61.155 14.0664C61.155 13.9007 61.047 13.827 60.777 13.7718C60.0212 13.5877 59.6433 13.3852 59.6433 12.1332V6.92273H60.5071C61.6049 6.92273 61.6229 7.23572 61.8568 6.73861L62.1088 6.18626C62.3607 5.68915 61.6948 5.96533 60.4531 5.96533H59.6433Z" fill="#19191B"/>
<path d="M66.288 5.68915C64.3444 5.68915 62.0948 7.29096 62.0948 10.1447C62.0948 12.8144 64.1824 14.5451 66.5219 14.5451C69.0954 14.5451 70.859 12.5382 70.859 10.292C70.859 6.84908 68.2856 5.68915 66.288 5.68915ZM63.6605 9.62922C63.6605 7.34619 64.9023 6.29673 66.216 6.29673C68.3575 6.29673 69.3653 8.83752 69.3653 10.6787C69.3653 12.7039 68.2856 13.9927 66.6839 13.9927C64.8123 13.9927 63.6605 12.0227 63.6605 9.62922Z" fill="#19191B"/>
<path d="M73.1817 7.78807V12.4462C73.1817 13.9007 72.2279 13.6613 72.2279 14.1032C72.2279 14.2321 72.2999 14.2873 72.4978 14.2873C72.8937 14.2873 73.1817 14.2321 73.7935 14.2321C74.5314 14.2321 75.1613 14.2873 75.7011 14.2873C75.9531 14.2873 76.0611 14.2321 76.0611 14.0664C76.0611 13.9007 75.9531 13.827 75.7011 13.7718C74.9273 13.5877 74.5494 13.3852 74.5494 12.1332V9.55557C74.5494 7.78807 75.7911 6.60973 76.7989 6.60973C77.4288 6.60973 77.4468 7.38301 77.7707 7.38301C77.9687 7.38301 78.0587 7.25413 78.0587 7.07002C78.0587 6.84908 77.9687 6.66496 77.9687 6.4072C77.9687 6.2415 77.9867 6.09421 77.9867 5.94692C77.9867 5.68916 77.8427 5.46822 77.3388 5.46822C76.313 5.46822 75.4672 6.2415 74.5674 7.43825C74.5674 6.11262 74.7293 5.50504 74.3874 5.50504C74.0995 5.50504 74.1175 5.63392 73.0017 6.02056C72.1559 6.29673 71.796 6.22309 71.796 6.5545C71.796 6.7202 71.9399 6.81226 72.3178 6.81226C72.8757 6.81226 73.1817 6.97796 73.1817 7.78807Z" fill="#19191B"/>
<path d="M25.0924 17.4548C24.7314 17.4548 24.7856 17.9082 24.2621 17.9082C23.4318 17.9082 23.0347 17.4911 21.374 17.4911C19.8758 17.4911 17.7639 18.8513 17.7639 21.082C17.7639 23.0407 18.8469 23.9475 21.031 24.8181L22.1502 25.2715C23.7747 25.9244 24.93 26.5228 24.93 28.0281C24.93 29.9143 23.4498 30.8574 22.1502 30.8574C20.8325 30.8574 19.6411 30.2045 18.8289 29.1526C17.8361 27.883 18.1791 27.0488 17.7097 27.0488C17.5112 27.0488 17.457 27.1939 17.457 27.4115C17.457 27.7198 17.6014 28.1914 17.7639 29.5697C17.8541 30.3133 17.9083 30.8574 17.9263 31.1294C17.9624 31.4558 18.0166 31.5284 18.1971 31.5284C18.5942 31.5284 18.522 31.0931 18.9733 31.0931C19.6231 31.0931 20.1285 31.6553 21.735 31.6553C25.0744 31.6553 26.3199 29.3702 26.3199 27.339C26.3199 25.4165 25.0744 24.5097 23.0708 23.7662L22.1321 23.4034C20.2549 22.6961 19.1899 21.9526 19.1899 20.6649C19.1899 19.341 20.3451 18.3254 21.735 18.3254C22.9083 18.3254 24.1899 18.7425 24.8939 20.0664C25.2188 20.7012 25.2188 21.3541 25.5437 21.3541C25.7061 21.3541 25.8325 21.2815 25.8325 21.1183C25.8325 20.7919 25.652 20.3566 25.5076 19.3591C25.309 18.0171 25.5076 17.4548 25.0924 17.4548Z" fill="#19191B"/>
<path d="M31.4637 23.0045C29.5142 23.0045 27.2579 24.5823 27.2579 27.3934C27.2579 30.0231 29.3518 31.7279 31.6984 31.7279C34.2796 31.7279 36.0485 29.7511 36.0485 27.5385C36.0485 24.147 33.4673 23.0045 31.4637 23.0045ZM28.8283 26.8856C28.8283 24.6367 30.0738 23.6029 31.3915 23.6029C33.5395 23.6029 34.5504 26.1057 34.5504 27.9193C34.5504 29.9143 33.4673 31.1838 31.8608 31.1838C29.9836 31.1838 28.8283 29.2432 28.8283 26.8856Z" fill="#19191B"/>
<path d="M48.9558 26.2145V29.6966C48.9558 31.0569 47.9991 30.8755 47.9991 31.2926C47.9991 31.4196 48.0533 31.474 48.2519 31.474C48.649 31.474 48.9558 31.4196 49.5515 31.4196C50.2916 31.4196 50.9594 31.474 51.4829 31.474C51.7356 31.474 51.8439 31.4196 51.8439 31.2563C51.8439 31.0931 51.7356 31.0206 51.4829 30.9662C50.7428 30.7848 50.3277 30.6034 50.3277 29.3883V26.2327C50.3277 24.0019 48.9197 23.0045 47.3132 23.0045C46.176 23.0045 45.3277 23.6211 44.7139 24.4372C43.9739 23.3672 43.2338 23.0045 42.241 23.0045C41.4287 23.0045 40.454 23.4397 39.7681 24.2558C39.7681 23.5123 39.9305 22.8231 39.5876 22.8231C39.2988 22.8231 39.3168 22.95 38.1977 23.3309C37.3493 23.6029 36.9883 23.5304 36.9883 23.8569C36.9883 24.0201 37.1327 24.1108 37.5118 24.1108C38.0713 24.1108 38.3782 24.274 38.3782 25.072V29.6966C38.3782 31.0569 37.4215 30.8755 37.4215 31.2926C37.4215 31.4196 37.4937 31.474 37.6742 31.474C38.0713 31.474 38.3782 31.4196 38.9739 31.4196C39.7139 31.4196 40.3818 31.474 40.9233 31.474C41.158 31.474 41.2663 31.4196 41.2663 31.2563C41.2663 31.0931 41.158 31.0206 40.9233 30.9662C40.1833 30.7848 39.75 30.6034 39.75 29.3883V26.1057C39.75 24.5642 40.7428 23.875 41.8078 23.875C42.4937 23.875 43.667 24.1833 43.667 26.2145V29.6966C43.667 31.0569 42.7103 30.8755 42.7103 31.2926C42.7103 31.4196 42.7645 31.474 42.963 31.474C43.3602 31.474 43.667 31.4196 44.2627 31.4196C45.0028 31.4196 45.6706 31.474 46.2121 31.474C46.4468 31.474 46.5551 31.4196 46.5551 31.2563C46.5551 31.0931 46.4468 31.0206 46.2121 30.9662C45.454 30.7848 45.0389 30.6034 45.0389 29.3883V26.1057C45.0389 24.5642 46.0316 23.875 47.0966 23.875C47.7825 23.875 48.9558 24.1833 48.9558 26.2145Z" fill="#19191B"/>
<path d="M53.4685 23.0951C53.2519 23.0951 53.2338 23.2946 53.2519 23.6211C53.3421 24.7274 53.1616 24.9269 53.1616 25.3077C53.1616 25.471 53.2519 25.616 53.4324 25.616C53.5407 25.616 53.6851 25.5254 53.8656 25.072C54.3168 24.0382 54.8945 23.7299 55.7789 23.7299C56.9342 23.7299 57.5118 24.2558 57.5118 25.3259C57.5118 26.142 56.9883 26.3596 55.7789 26.7223L55.5262 26.7949C54.01 27.2301 52.7825 27.9375 52.7825 29.5697C52.7825 31.2563 54.2627 31.7279 55.3818 31.7279C56.2302 31.7279 56.7717 31.474 57.6562 30.5309C57.927 31.2382 58.1797 31.5647 58.9017 31.5647C59.4793 31.5647 60.1833 31.1657 60.1833 30.8392C60.1833 30.7304 60.1472 30.6579 60.0569 30.6579C59.8945 30.6579 59.8584 30.7304 59.4252 30.7304C58.8656 30.7304 58.7753 30.0956 58.7753 27.6291C58.7753 26.7042 58.8295 25.7249 58.8295 25.344C58.8295 23.6755 57.602 23.0045 56.3205 23.0045C55.6887 23.0045 55.2194 23.2402 54.4071 23.2402C53.9017 23.2402 53.6129 23.0951 53.4685 23.0951ZM54.1544 29.4427C54.1544 27.2483 56.4107 27.3571 57.5479 26.7042V28.808C57.5479 29.8599 56.9342 30.9843 55.5984 30.9843C54.7681 30.9843 54.1544 30.2589 54.1544 29.4427Z" fill="#19191B"/>
<path d="M63.3951 23.2765C63.3951 22.0432 63.4493 21.5173 63.4493 21.209C63.4493 21.0458 63.4132 20.9188 63.2327 20.9188C63.1063 20.9188 63.0522 20.9914 62.998 21.1546C62.8175 21.608 62.5829 22.1339 62.2038 22.6236C61.7706 23.204 61.4818 23.4579 61.1749 23.6574C61.0125 23.7843 60.9042 23.8569 60.9042 24.0201C60.9042 24.2558 61.1388 24.2558 62.0233 24.2196V29.1707C62.0233 30.2951 62.3843 31.7279 64.2255 31.7279C65.5432 31.7279 66.5901 31.0569 66.5901 30.676C66.5901 30.549 66.5359 30.4946 66.4276 30.4946C66.1749 30.4946 65.6515 30.9843 64.8933 30.9843C64.2977 30.9843 63.3951 30.5128 63.3951 28.7354V24.2196H64.8572C65.832 24.2196 65.9764 24.5279 66.211 24.0382L66.4818 23.4941C66.5901 23.2584 66.5901 23.0589 66.3554 23.0589C66.1749 23.0589 65.6515 23.2765 64.8031 23.2765H63.3951Z" fill="#19191B"/>
<path d="M70.0517 25.8881C70.0517 23.2946 70.2322 22.8231 69.8893 22.8231C69.6005 22.8231 69.6185 22.95 68.4994 23.3309C67.651 23.6029 67.29 23.5304 67.29 23.8569C67.29 24.0201 67.4344 24.1108 67.8134 24.1108C68.373 24.1108 68.6799 24.274 68.6799 25.072V29.6604C68.6799 31.0931 67.7232 30.8574 67.7232 31.2926C67.7232 31.4196 67.7954 31.474 67.994 31.474C68.3911 31.474 68.6799 31.4196 69.2936 31.4196C70.0337 31.4196 70.6654 31.474 71.207 31.474C71.4597 31.474 71.568 31.4196 71.568 31.2563C71.568 31.0931 71.4597 31.0206 71.207 30.9662C70.4308 30.7848 70.0517 30.5853 70.0517 29.3521V25.8881ZM70.1059 20.0301C70.1059 19.8307 69.9434 19.6856 69.7088 19.3954C69.438 18.9964 69.4199 18.7969 69.1672 18.7969C68.9145 18.7969 68.8784 18.9964 68.6077 19.3954C68.373 19.6856 68.2106 19.8307 68.2106 20.0301C68.2106 20.2296 68.373 20.3566 68.6077 20.6649C68.8784 21.0458 68.9145 21.2634 69.1672 21.2634C69.4199 21.2634 69.438 21.0458 69.7088 20.6649C69.9434 20.3566 70.1059 20.2296 70.1059 20.0301Z" fill="#19191B"/>
<path d="M78.6449 22.9138C78.3922 22.9138 78.2478 23.1314 77.8868 23.1314C77.4897 23.1314 77.1106 23.0045 76.4247 23.0045C74.4572 23.0045 72.5077 24.7818 72.5077 27.8105C72.5077 30.4765 74.3489 31.7279 76.2803 31.7279C78.0853 31.7279 79.7099 30.2951 79.7099 29.9324C79.7099 29.7511 79.6196 29.6966 79.5113 29.6966C79.0781 29.6966 78.5366 30.7485 76.7316 30.7485C75.0528 30.7485 73.7893 29.1707 73.7893 26.9762C73.7893 25.5616 74.4211 23.6392 76.6955 23.6392C78.3742 23.6392 78.7171 25.3803 79.2406 25.3803C79.3489 25.3803 79.4211 25.3077 79.4211 25.1808C79.4211 24.9269 79.2406 24.7455 79.0781 24.0745C78.8615 23.2584 78.9157 22.9138 78.6449 22.9138Z" fill="#19191B"/>
<path d="M92.8173 17.4548C92.4563 17.4548 92.5104 17.9082 91.987 17.9082C91.1566 17.9082 90.7595 17.4911 89.0989 17.4911C87.6007 17.4911 85.4888 18.8513 85.4888 21.082C85.4888 23.0407 86.5718 23.9475 88.7559 24.8181L89.875 25.2715C91.4996 25.9244 92.6548 26.5228 92.6548 28.0281C92.6548 29.9143 91.1747 30.8574 89.875 30.8574C88.5574 30.8574 87.366 30.2045 86.5537 29.1526C85.561 27.883 85.9039 27.0488 85.4346 27.0488C85.236 27.0488 85.1819 27.1939 85.1819 27.4115C85.1819 27.7198 85.3263 28.1914 85.4888 29.5697C85.579 30.3133 85.6332 30.8574 85.6512 31.1294C85.6873 31.4558 85.7415 31.5284 85.922 31.5284C86.3191 31.5284 86.2469 31.0931 86.6981 31.0931C87.348 31.0931 87.8534 31.6553 89.4599 31.6553C92.7992 31.6553 94.0447 29.3702 94.0447 27.339C94.0447 25.4165 92.7992 24.5097 90.7956 23.7662L89.857 23.4034C87.9797 22.6961 86.9147 21.9526 86.9147 20.6649C86.9147 19.341 88.07 18.3254 89.4599 18.3254C90.6332 18.3254 91.9148 18.7425 92.6187 20.0664C92.9436 20.7012 92.9436 21.3541 93.2685 21.3541C93.431 21.3541 93.5574 21.2815 93.5574 21.1183C93.5574 20.7919 93.3769 20.3566 93.2325 19.3591C93.0339 18.0171 93.2324 17.4548 92.8173 17.4548Z" fill="#19191B"/>
<path d="M97.2752 23.2765C97.2752 22.0432 97.3294 21.5173 97.3294 21.209C97.3294 21.0458 97.2933 20.9188 97.1128 20.9188C96.9864 20.9188 96.9323 20.9914 96.8781 21.1546C96.6976 21.608 96.4629 22.1339 96.0839 22.6236C95.6507 23.204 95.3619 23.4579 95.055 23.6574C94.8925 23.7843 94.7842 23.8569 94.7842 24.0201C94.7842 24.2558 95.0189 24.2558 95.9034 24.2196V29.1707C95.9034 30.2951 96.2644 31.7279 98.1055 31.7279C99.4232 31.7279 100.47 31.0569 100.47 30.676C100.47 30.549 100.416 30.4946 100.308 30.4946C100.055 30.4946 99.5315 30.9843 98.7734 30.9843C98.1777 30.9843 97.2752 30.5128 97.2752 28.7354V24.2196H98.7373C99.712 24.2196 99.8564 24.5279 100.091 24.0382L100.362 23.4941C100.47 23.2584 100.47 23.0589 100.236 23.0589C100.055 23.0589 99.5315 23.2765 98.6832 23.2765H97.2752Z" fill="#19191B"/>
<path d="M107.975 30.4402C107.975 30.8392 107.921 31.2019 107.921 31.4196C107.921 31.5828 108.011 31.6191 108.174 31.6191C108.517 31.6191 108.823 31.474 110.213 31.474C110.484 31.474 110.592 31.4196 110.592 31.2563C110.592 31.0931 110.484 31.0206 110.213 30.9662C109.6 30.8211 109.347 30.5853 109.347 29.3521V23.4216C109.347 23.2402 109.311 23.1677 109.166 23.1677C108.86 23.1677 108.769 23.349 107.307 23.349C107.018 23.349 106.874 23.4034 106.874 23.5667C106.874 24.0201 107.975 23.476 107.975 24.9087V27.7924C107.975 28.808 107.722 30.9662 105.737 30.9662C103.932 30.9662 103.625 29.3702 103.625 28.0825V23.4216C103.625 23.2402 103.589 23.1677 103.444 23.1677C103.156 23.1677 103.065 23.349 101.585 23.349C101.296 23.349 101.17 23.4034 101.17 23.5667C101.17 24.0201 102.253 23.476 102.253 24.9087V28.6085C102.253 30.3858 103.228 31.7279 105.051 31.7279C105.99 31.7279 107.018 31.3833 107.975 30.4402Z" fill="#19191B"/>
<path d="M112.763 27.0851C112.763 25.4347 113.575 23.6392 115.579 23.6392C116.951 23.6392 117.763 24.5823 118.106 25.1989V28.137C118.106 29.2795 117.546 30.7667 115.723 30.7667C114.135 30.7667 112.763 29.2614 112.763 27.0851ZM118.106 20.0301V23.875C117.312 23.2765 116.481 23.0045 115.687 23.0045C113.322 23.0045 111.517 25.1808 111.517 27.5747C111.517 30.2589 113.124 31.7279 115.037 31.7279C115.958 31.7279 117.005 31.3289 118.034 30.5128C118.034 31.1657 117.907 31.4921 117.907 31.6916C117.907 31.9092 117.943 31.9999 118.142 31.9999C118.485 31.9999 118.774 31.6735 120.272 31.4196C120.813 31.3289 120.813 31.2382 120.813 31.075C120.813 30.9118 120.633 30.8936 120.525 30.8936C119.604 30.8936 119.478 30.6216 119.478 29.3521V20.6286C119.478 18.0715 119.64 17.5999 119.297 17.5999C118.954 17.5999 118.846 17.8901 117.907 18.1621C117.276 18.3616 116.716 18.2165 116.716 18.5793C116.716 18.7606 116.86 18.815 117.221 18.8694C117.799 18.942 118.106 19.1415 118.106 20.0301Z" fill="#19191B"/>
<path d="M124.503 25.8881C124.503 23.2946 124.684 22.8231 124.341 22.8231C124.052 22.8231 124.07 22.95 122.951 23.3309C122.102 23.6029 121.741 23.5304 121.741 23.8569C121.741 24.0201 121.886 24.1108 122.265 24.1108C122.824 24.1108 123.131 24.274 123.131 25.072V29.6604C123.131 31.0931 122.175 30.8574 122.175 31.2926C122.175 31.4196 122.247 31.474 122.445 31.474C122.842 31.474 123.131 31.4196 123.745 31.4196C124.485 31.4196 125.117 31.474 125.658 31.474C125.911 31.474 126.019 31.4196 126.019 31.2563C126.019 31.0931 125.911 31.0206 125.658 30.9662C124.882 30.7848 124.503 30.5853 124.503 29.3521V25.8881ZM124.557 20.0301C124.557 19.8307 124.395 19.6856 124.16 19.3954C123.889 18.9964 123.871 18.7969 123.619 18.7969C123.366 18.7969 123.33 18.9964 123.059 19.3954C122.824 19.6856 122.662 19.8307 122.662 20.0301C122.662 20.2296 122.824 20.3566 123.059 20.6649C123.33 21.0458 123.366 21.2634 123.619 21.2634C123.871 21.2634 123.889 21.0458 124.16 20.6649C124.395 20.3566 124.557 20.2296 124.557 20.0301Z" fill="#19191B"/>
<path d="M133.566 26.3959C134.197 26.2871 134.306 26.2871 134.306 26.0513C134.306 25.8699 134.089 25.8337 134.017 25.5798C133.439 23.875 132.212 23.0045 130.732 23.0045C128.439 23.0045 126.959 25.2533 126.959 27.4296C126.959 30.0412 128.728 31.7279 130.804 31.7279C132.627 31.7279 134.071 30.3495 134.071 29.9324C134.071 29.8055 133.999 29.7511 133.872 29.7511C133.62 29.7511 132.826 30.7485 131.634 30.7485C129.342 30.7485 128.421 28.3546 128.421 27.611C128.421 27.3208 128.62 27.2483 128.89 27.212L133.566 26.3959ZM131.58 26.0876L128.385 26.5773C128.385 24.7455 129.36 23.5848 130.714 23.5848C131.797 23.5848 132.501 24.6911 132.501 25.3803C132.501 25.7067 132.23 25.9969 131.58 26.0876Z" fill="#19191B"/>
<path d="M139.938 23.0226C139.703 23.0226 139.685 23.204 139.414 23.204C138.963 23.204 138.62 23.0045 137.79 23.0045C136.165 23.0045 135.281 24.1652 135.281 25.2352C135.281 26.5773 136.021 27.0125 137.392 27.6291L137.681 27.7561C138.927 28.3002 139.486 28.6992 139.486 29.5334C139.486 30.6034 138.602 31.1294 138.006 31.1294C136.761 31.1294 136.165 30.3495 135.912 29.0619C135.804 28.5541 135.696 28.4634 135.497 28.4634C135.335 28.4634 135.226 28.5722 135.226 28.8443C135.226 29.3702 135.407 29.7692 135.407 30.4765C135.407 30.8392 135.335 31.1294 135.335 31.347C135.335 31.5103 135.407 31.6009 135.569 31.6009C135.786 31.6009 135.894 31.4558 136.093 31.4558C136.923 31.4558 137.284 31.7279 138.096 31.7279C139.161 31.7279 140.605 30.7848 140.605 28.9712C140.605 27.6654 139.847 27.1576 138.295 26.5228L137.988 26.3778C136.869 25.9244 136.364 25.6342 136.364 24.8362C136.364 24.0382 137.122 23.6211 137.808 23.6211C138.71 23.6211 139.288 23.9657 139.757 24.945C139.865 25.1989 139.956 25.2896 140.1 25.2896C140.281 25.2896 140.353 25.2171 140.353 24.945C140.353 24.6911 140.208 24.3647 140.208 23.5667C140.208 23.2584 140.136 23.0226 139.938 23.0226Z" fill="#19191B"/>
</svg>
