<svg width="24" height="24" viewBox="0 0 24 24" fill="none" xmlns="http://www.w3.org/2000/svg">
<g clip-path="url(#clip0_1004_2990)">
<path d="M0.927696 23.0769L2.4877 17.3446C1.45978 15.5825 0.91973 13.5784 0.923081 11.5385C0.923081 5.16577 6.08885 0 12.4615 0C18.8342 0 24 5.16577 24 11.5385C24 17.9111 18.8342 23.0769 12.4615 23.0769C10.4224 23.0802 8.41922 22.5406 6.65769 21.5135L0.927696 23.0769ZM8.29731 6.12461C8.1483 6.13386 8.0027 6.17311 7.86923 6.24C7.74406 6.31088 7.6298 6.39949 7.53 6.50307C7.39154 6.63346 7.31308 6.74653 7.22885 6.85615C6.8024 7.41115 6.57301 8.0924 6.57692 8.7923C6.57923 9.35769 6.72692 9.90807 6.95769 10.4227C7.42962 11.4635 8.20615 12.5654 9.23192 13.5865C9.47885 13.8323 9.72 14.0792 9.97961 14.3088C11.2528 15.4298 12.7699 16.2381 14.4104 16.6696L15.0669 16.77C15.2804 16.7815 15.4938 16.7654 15.7085 16.755C16.0445 16.7376 16.3726 16.6467 16.6696 16.4885C16.8207 16.4106 16.9682 16.3259 17.1115 16.2346C17.1115 16.2346 17.1611 16.2023 17.2558 16.1308C17.4115 16.0154 17.5073 15.9335 17.6365 15.7985C17.7323 15.6992 17.8154 15.5827 17.8788 15.45C17.9688 15.2619 18.0588 14.9031 18.0958 14.6042C18.1235 14.3758 18.1154 14.2511 18.1119 14.1738C18.1073 14.0504 18.0046 13.9223 17.8927 13.8681L17.2211 13.5669C17.2211 13.5669 16.2173 13.1296 15.6046 12.8504C15.54 12.8222 15.4708 12.8062 15.4004 12.8031C15.3214 12.795 15.2417 12.8038 15.1664 12.8291C15.0912 12.8544 15.0223 12.8955 14.9642 12.9496V12.9473C14.9585 12.9473 14.8811 13.0131 14.0469 14.0238C13.999 14.0882 13.9331 14.1368 13.8575 14.1635C13.7818 14.1902 13.7 14.1938 13.6223 14.1738C13.5471 14.1537 13.4735 14.1283 13.4019 14.0977C13.2588 14.0377 13.2092 14.0146 13.1112 13.9719L13.1054 13.9696C12.4453 13.6814 11.8341 13.2921 11.2938 12.8158C11.1485 12.6888 11.0135 12.5504 10.875 12.4165C10.4211 11.9818 10.0254 11.49 9.69808 10.9535L9.63 10.8438C9.5811 10.7702 9.54157 10.6907 9.51231 10.6073C9.46846 10.4377 9.58269 10.3015 9.58269 10.3015C9.58269 10.3015 9.86308 9.99461 9.99346 9.82846C10.102 9.69037 10.2033 9.54671 10.2969 9.39807C10.4331 9.17884 10.4758 8.95384 10.4042 8.77961C10.0812 7.99038 9.74654 7.20461 9.40269 6.42461C9.33461 6.27 9.13269 6.15923 8.94923 6.1373C8.88692 6.13038 8.82461 6.12346 8.76231 6.11884C8.60735 6.11114 8.45208 6.11269 8.29731 6.12346V6.12461Z" fill="black"/>
</g>
<defs>
<clipPath id="clip0_1004_2990">
<rect width="24" height="24" fill="white"/>
</clipPath>
</defs>
</svg>
