<svg width="794" height="193" viewBox="0 0 794 193" fill="none" xmlns="http://www.w3.org/2000/svg">
<g opacity="0.1">
<g clip-path="url(#clip0_868_6152)">
<path d="M721.987 35.8042C721.988 36.7297 721.713 37.6347 721.198 38.4047C720.683 39.1747 719.951 39.7751 719.094 40.13C718.236 40.4848 717.293 40.5782 716.382 40.3982C715.472 40.2183 714.635 39.7732 713.978 39.1191C713.322 38.465 712.874 37.6314 712.693 36.7237C712.511 35.8161 712.604 34.8752 712.959 34.02C713.314 33.1649 713.915 32.4339 714.687 31.9197C715.459 31.4054 716.366 31.1309 717.295 31.1309C718.538 31.1309 719.731 31.6231 720.611 32.4993C721.49 33.3756 721.985 34.5643 721.987 35.8042V35.8042Z" stroke="white" stroke-width="1.5" stroke-linejoin="bevel"/>
<path d="M603.161 36.5746C603.576 34.0242 601.839 31.6212 599.281 31.2072C596.724 30.7932 594.313 32.5251 593.898 35.0754C593.483 37.6258 595.22 40.029 597.778 40.4429C600.336 40.8569 602.746 39.125 603.161 36.5746Z" stroke="white" stroke-width="1.5" stroke-linejoin="bevel"/>
<path d="M762.851 59.1707V45.332H789.484V59.1707C789.485 60.8319 789.002 62.4576 788.095 63.8511C787.188 65.2445 785.895 66.3458 784.373 67.0216L779.908 69.0057C778.468 69.6464 777.191 70.6016 776.17 71.8006" stroke="white" stroke-width="1.5" stroke-linejoin="bevel"/>
<path d="M713.475 115.744V129.376C713.474 133.184 712.367 136.909 710.287 140.102C708.208 143.296 705.245 145.82 701.757 147.37L691.524 151.902C688.213 153.364 685.277 155.556 682.938 158.313C680.599 155.556 677.663 153.364 674.352 151.902L664.114 147.37C660.634 145.813 657.681 143.286 655.61 140.093C653.539 136.901 652.438 133.179 652.441 129.376V97.6504H731.315" stroke="white" stroke-width="1.5" stroke-linejoin="bevel"/>
<path d="M757.678 161.413C755.537 163.543 752.882 165.086 749.968 165.894C747.055 166.702 743.982 166.747 741.045 166.026C740.331 163.096 740.386 160.032 741.205 157.13C742.024 154.227 743.579 151.584 745.721 149.455C747.862 147.326 750.518 145.783 753.431 144.974C756.345 144.166 759.418 144.12 762.355 144.84C763.07 147.77 763.016 150.835 762.197 153.738C761.377 156.642 759.821 159.285 757.678 161.413V161.413Z" stroke="white" stroke-width="1.5" stroke-linejoin="bevel"/>
<path d="M498.545 161.415C500.687 163.544 503.343 165.088 506.258 165.896C509.172 166.704 512.246 166.749 515.183 166.027C515.897 163.097 515.842 160.032 515.023 157.129C514.204 154.226 512.648 151.582 510.506 149.453C508.364 147.324 505.708 145.781 502.793 144.973C499.879 144.165 496.805 144.12 493.868 144.842C493.153 147.772 493.207 150.837 494.026 153.74C494.846 156.643 496.402 159.286 498.545 161.415V161.415Z" stroke="white" stroke-width="1.5" stroke-linejoin="bevel"/>
<path d="M685.92 50.4318C683.807 52.5415 682.275 55.1591 681.474 58.0315C680.672 60.9039 680.627 63.9339 681.344 66.8286C684.25 67.5317 687.288 67.4767 690.166 66.6688C693.044 65.861 695.665 64.3275 697.776 62.2163C699.886 60.105 701.416 57.4872 702.218 54.6152C703.019 51.7431 703.065 48.7137 702.35 45.8189C699.445 45.1146 696.407 45.1691 693.528 45.9772C690.65 46.7852 688.03 48.3194 685.92 50.4318V50.4318Z" stroke="white" stroke-width="1.5" stroke-linejoin="bevel"/>
<path d="M431.109 50.4311C428.995 52.5408 427.464 55.1584 426.662 58.0308C425.861 60.9032 425.816 63.9333 426.533 66.828C429.438 67.5311 432.476 67.4761 435.354 66.6682C438.232 65.8603 440.853 64.3269 442.964 62.2156C445.075 60.1044 446.605 57.4866 447.406 54.6145C448.207 51.7425 448.253 48.7131 447.539 45.8183C444.634 45.1145 441.595 45.1692 438.717 45.9772C435.839 46.7852 433.219 48.3192 431.109 50.4311V50.4311Z" stroke="white" stroke-width="1.5" stroke-linejoin="bevel"/>
<path d="M748.289 133.258C751.469 133.246 754.613 132.59 757.532 131.332C760.451 130.073 763.083 128.238 765.27 125.936C765.598 126.278 765.941 126.61 766.28 126.943C768.508 129.036 771.128 130.671 773.99 131.754C776.852 132.836 779.9 133.345 782.96 133.252C786.02 133.158 789.031 132.464 791.821 131.208C794.612 129.953 797.126 128.161 799.221 125.936C799.555 126.278 799.893 126.61 800.231 126.943C802.459 129.036 805.079 130.671 807.941 131.754C810.804 132.836 813.852 133.345 816.912 133.252C819.971 133.158 822.983 132.464 825.773 131.208C828.563 129.953 831.078 128.161 833.173 125.936C833.506 126.278 833.845 126.61 834.183 126.943C836.411 129.036 839.032 130.671 841.894 131.754C844.757 132.836 847.805 133.346 850.866 133.252C853.926 133.158 856.938 132.464 859.728 131.209C862.519 129.953 865.034 128.161 867.129 125.936" stroke="white" stroke-width="1.5" stroke-linejoin="bevel"/>
<path d="M540.762 126.663C540.762 127.512 541.014 128.343 541.488 129.049C541.961 129.756 542.634 130.306 543.421 130.631C544.208 130.957 545.075 131.042 545.91 130.876C546.746 130.71 547.514 130.301 548.116 129.7C548.719 129.099 549.129 128.334 549.295 127.501C549.462 126.668 549.376 125.804 549.05 125.019C548.724 124.234 548.172 123.563 547.463 123.091C546.755 122.619 545.922 122.367 545.07 122.367C543.927 122.367 542.831 122.82 542.023 123.625C541.215 124.431 540.762 125.524 540.762 126.663Z" stroke="white" stroke-width="1.5" stroke-linejoin="bevel"/>
<path d="M555.468 104.699L558.165 97.2461C563.124 99.752 567.436 103.366 570.765 107.806C574.094 112.246 576.351 117.392 577.358 122.843" stroke="white" stroke-width="1.5" stroke-linejoin="bevel"/>
<path d="M782.244 98.3496H848.021" stroke="white" stroke-width="1.5" stroke-linejoin="bevel"/>
<path d="M782.244 166.531H849.97" stroke="white" stroke-width="1.5" stroke-linejoin="bevel"/>
<path d="M831.624 57.8709C831.622 43.2078 825.779 29.1457 815.38 18.7773C804.981 8.40886 790.877 2.58337 776.171 2.58203" stroke="white" stroke-width="1.5" stroke-linejoin="bevel"/>
<path d="M460.819 58.5659C460.819 49.1588 462.678 39.8439 466.288 31.153C469.899 22.462 475.191 14.5654 481.863 7.91381C488.535 1.26225 496.455 -4.01392 505.172 -7.61338C513.889 -11.2128 523.232 -13.0651 532.667 -13.0645" stroke="white" stroke-width="1.5" stroke-linejoin="bevel"/>
<path d="M681.89 -13.0645C669.335 -13.0645 657.295 -8.092 648.418 0.759013C639.541 9.61003 634.554 21.6146 634.554 34.1318" stroke="white" stroke-width="1.5" stroke-linejoin="bevel"/>
<path d="M443.005 162.883C446.185 162.871 449.33 162.217 452.248 160.958C455.167 159.7 457.799 157.863 459.986 155.561C460.314 155.903 460.657 156.235 460.996 156.568C465.318 160.62 471.023 162.883 476.956 162.898" stroke="white" stroke-width="1.5" stroke-linejoin="bevel"/>
<path d="M612.778 67.3203H459.991" stroke="white" stroke-width="1.5" stroke-linejoin="bevel"/>
<path d="M489.161 101.607C487.898 102.868 486.983 104.433 486.504 106.149C486.025 107.866 485.999 109.677 486.429 111.407C488.166 111.83 489.983 111.799 491.705 111.317C493.427 110.835 494.995 109.918 496.258 108.655C497.521 107.393 498.435 105.827 498.914 104.109C499.393 102.391 499.419 100.579 498.99 98.8477C497.252 98.4251 495.434 98.4571 493.712 98.9405C491.99 99.424 490.423 100.343 489.161 101.607V101.607Z" stroke="white" stroke-width="1.5" stroke-linejoin="bevel"/>
<path d="M510.218 92.8623C510.218 93.3194 510.082 93.7663 509.827 94.1464C509.572 94.5266 509.21 94.8228 508.786 94.9978C508.363 95.1727 507.897 95.2185 507.447 95.1293C506.997 95.0401 506.584 94.82 506.26 94.4967C505.936 94.1734 505.715 93.7616 505.625 93.3132C505.536 92.8648 505.582 92.4001 505.757 91.9777C505.933 91.5553 506.23 91.1943 506.611 90.9403C506.992 90.6863 507.441 90.5508 507.899 90.5508C508.514 90.5508 509.104 90.7943 509.538 91.2278C509.973 91.6613 510.218 92.2492 510.218 92.8623Z" stroke="white" stroke-width="1.5" stroke-linejoin="bevel"/>
<path d="M576.545 2.5957H530.164V31.8592C530.16 35.3747 531.18 38.8158 533.098 41.7655C535.017 44.7151 537.752 47.0466 540.973 48.4776L550.418 52.6725C553.464 54.0268 556.166 56.0474 558.322 58.5846H612.77" stroke="white" stroke-width="1.5" stroke-linejoin="bevel"/>
<path d="M731.299 2.5957H680.846" stroke="white" stroke-width="1.5" stroke-linejoin="bevel"/>
<path d="M281.078 35.8042C281.079 36.7299 280.804 37.6351 280.289 38.4052C279.774 39.1753 279.041 39.7758 278.183 40.1305C277.326 40.4852 276.382 40.5782 275.471 40.3979C274.561 40.2175 273.724 39.7719 273.067 39.1173C272.411 38.4627 271.964 37.6287 271.783 36.7207C271.602 35.8127 271.696 34.8716 272.051 34.0166C272.407 33.1615 273.009 32.4309 273.782 31.9172C274.554 31.4035 275.462 31.1299 276.39 31.1309C277.634 31.1309 278.826 31.6232 279.705 32.4997C280.584 33.3761 281.078 34.5647 281.078 35.8042V35.8042Z" stroke="white" stroke-width="1.5" stroke-linejoin="bevel"/>
<path d="M162.288 35.8042C162.289 36.7297 162.014 37.6347 161.499 38.4047C160.984 39.1747 160.252 39.7751 159.394 40.13C158.537 40.4848 157.594 40.5782 156.683 40.3982C155.773 40.2183 154.936 39.7732 154.279 39.1191C153.623 38.465 153.175 37.6314 152.994 36.7237C152.812 35.8161 152.905 34.8752 153.26 34.02C153.615 33.1649 154.216 32.4339 154.988 31.9197C155.76 31.4054 156.667 31.1309 157.595 31.1309C158.839 31.1309 160.032 31.6231 160.911 32.4993C161.791 33.3756 162.286 34.5643 162.288 35.8042V35.8042Z" stroke="white" stroke-width="1.5" stroke-linejoin="bevel"/>
<path d="M321.952 59.1707V45.332H348.585V59.1707C348.585 60.8319 348.103 62.4576 347.196 63.8511C346.288 65.2445 344.996 66.3458 343.473 67.0216L339.009 69.0057C337.568 69.6464 336.291 70.6016 335.271 71.8006" stroke="white" stroke-width="1.5" stroke-linejoin="bevel"/>
<path d="M272.576 115.744V129.376C272.575 133.184 271.468 136.909 269.388 140.102C267.309 143.296 264.346 145.82 260.858 147.37L250.625 151.902C247.314 153.364 244.378 155.556 242.039 158.313C239.699 155.556 236.763 153.364 233.452 151.902L223.219 147.37C219.739 145.814 216.785 143.287 214.713 140.094C212.641 136.902 211.539 133.179 211.542 129.376V97.6504H290.385" stroke="white" stroke-width="1.5" stroke-linejoin="bevel"/>
<path d="M316.77 161.413C314.629 163.543 311.973 165.086 309.06 165.894C306.147 166.702 303.073 166.747 300.137 166.026C299.423 163.096 299.478 160.032 300.297 157.13C301.116 154.227 302.671 151.584 304.813 149.455C306.954 147.326 309.61 145.783 312.523 144.974C315.437 144.166 318.51 144.12 321.447 144.84C322.162 147.77 322.108 150.835 321.289 153.738C320.469 156.642 318.913 159.285 316.77 161.413V161.413Z" stroke="white" stroke-width="1.5" stroke-linejoin="bevel"/>
<path d="M57.6372 161.415C59.7789 163.544 62.435 165.088 65.3493 165.896C68.2636 166.704 71.3376 166.749 74.2745 166.027C74.989 163.097 74.934 160.032 74.1148 157.129C73.2957 154.226 71.74 151.582 69.5979 149.453C67.4557 147.324 64.7994 145.781 61.8852 144.973C58.9709 144.165 55.8971 144.12 52.9601 144.842C52.2444 147.772 52.2989 150.837 53.1182 153.74C53.9375 156.643 55.4939 159.286 57.6372 161.415V161.415Z" stroke="white" stroke-width="1.5" stroke-linejoin="bevel"/>
<path d="M245.011 50.4317C242.898 52.5413 241.366 55.1589 240.565 58.0313C239.763 60.9038 239.718 63.9338 240.435 66.8285C243.341 67.5316 246.379 67.4766 249.257 66.6687C252.135 65.8609 254.756 64.3274 256.867 62.2162C258.977 60.1049 260.507 57.4871 261.309 54.6151C262.11 51.743 262.156 48.7136 261.441 45.8188C258.536 45.1145 255.498 45.169 252.619 45.977C249.741 46.7851 247.121 48.3193 245.011 50.4317V50.4317Z" stroke="white" stroke-width="1.5" stroke-linejoin="bevel"/>
<path d="M-9.80081 50.4313C-11.9131 52.5415 -13.4439 55.1591 -14.2455 58.0313C-15.0471 60.9036 -15.0923 63.9334 -14.3768 66.8281C-11.4713 67.5312 -8.43301 67.4762 -5.55496 66.6683C-2.67691 65.8605 -0.056113 64.327 2.05479 62.2158C4.16569 60.1045 5.69551 57.4867 6.49678 54.6147C7.29805 51.7426 7.34376 48.7132 6.62949 45.8184C3.7241 45.1146 0.685823 45.1693 -2.19216 45.9774C-5.07014 46.7854 -7.69065 48.3193 -9.80081 50.4313V50.4313Z" stroke="white" stroke-width="1.5" stroke-linejoin="bevel"/>
<path d="M307.381 133.258C310.561 133.246 313.705 132.59 316.624 131.332C319.542 130.073 322.175 128.238 324.362 125.936C324.69 126.278 325.033 126.61 325.372 126.943C327.599 129.036 330.219 130.671 333.082 131.754C335.944 132.836 338.992 133.345 342.052 133.252C345.112 133.158 348.123 132.464 350.913 131.208C353.704 129.953 356.218 128.161 358.313 125.936C358.646 126.278 358.985 126.61 359.323 126.943C361.551 129.036 364.172 130.671 367.034 131.754C369.897 132.836 372.946 133.346 376.006 133.252C379.066 133.158 382.078 132.464 384.869 131.209C387.659 129.953 390.174 128.161 392.27 125.936C392.598 126.278 392.936 126.61 393.28 126.943C397.757 131.154 403.725 133.425 409.877 133.26C416.03 133.095 421.867 130.507 426.11 126.061C426.403 126.364 426.706 126.656 427.019 126.943C429.247 129.036 431.867 130.671 434.729 131.754C437.591 132.836 440.64 133.345 443.7 133.252C446.759 133.158 449.771 132.464 452.561 131.208C455.351 129.953 457.866 128.161 459.961 125.936C460.294 126.278 460.632 126.61 460.971 126.943C465.295 130.992 470.999 133.253 476.931 133.268" stroke="white" stroke-width="1.5" stroke-linejoin="bevel"/>
<path d="M-14.883 125.936C-14.5547 126.278 -14.2112 126.61 -13.8728 126.943C-11.6461 129.038 -9.02638 130.674 -6.16399 131.758C-3.30159 132.842 -0.25279 133.351 2.80759 133.258C5.86796 133.164 8.8797 132.469 11.6701 131.213C14.4605 129.956 16.9747 128.163 19.0686 125.936C19.4019 126.278 19.7403 126.61 20.0787 126.943C24.402 130.993 30.1067 133.256 36.0393 133.273" stroke="white" stroke-width="1.5" stroke-linejoin="bevel"/>
<path d="M99.8621 126.663C99.8621 127.512 100.115 128.343 100.588 129.049C101.062 129.756 101.734 130.306 102.522 130.631C103.309 130.957 104.175 131.042 105.011 130.876C105.847 130.71 106.614 130.301 107.217 129.7C107.819 129.099 108.23 128.334 108.396 127.501C108.562 126.668 108.477 125.804 108.151 125.019C107.825 124.234 107.273 123.563 106.564 123.091C105.856 122.619 105.023 122.367 104.17 122.367C103.028 122.367 101.932 122.82 101.124 123.625C100.316 124.431 99.8621 125.524 99.8621 126.663Z" stroke="white" stroke-width="1.5" stroke-linejoin="bevel"/>
<path d="M114.56 104.699L117.257 97.2461C122.217 99.752 126.529 103.366 129.858 107.806C133.187 112.246 135.443 117.392 136.451 122.843" stroke="white" stroke-width="1.5" stroke-linejoin="bevel"/>
<path d="M341.335 98.3496H407.106" stroke="white" stroke-width="1.5" stroke-linejoin="bevel"/>
<path d="M341.335 166.531H409.061" stroke="white" stroke-width="1.5" stroke-linejoin="bevel"/>
<path d="M390.714 57.8645C390.709 43.2044 384.864 29.1466 374.466 18.7823C364.067 8.41799 349.965 2.5957 335.262 2.5957" stroke="white" stroke-width="1.5" stroke-linejoin="bevel"/>
<path d="M19.9197 58.5659C19.9197 49.1588 21.7782 39.8439 25.3889 31.153C28.9997 22.462 34.292 14.5654 40.9638 7.91381C47.6355 1.26225 55.556 -4.01392 64.273 -7.61338C72.9899 -11.2128 82.3326 -13.0651 91.7675 -13.0645" stroke="white" stroke-width="1.5" stroke-linejoin="bevel"/>
<path d="M240.982 -13.0645C228.427 -13.0645 216.387 -8.092 207.51 0.759013C198.633 9.61003 193.645 21.6146 193.645 34.1318" stroke="white" stroke-width="1.5" stroke-linejoin="bevel"/>
<path d="M2.11407 162.883C5.29417 162.871 8.43888 162.217 11.3577 160.958C14.2766 159.7 16.9088 157.863 19.0949 155.561C19.4283 155.903 19.7667 156.235 20.1051 156.568C24.427 160.62 30.1326 162.883 36.0656 162.898" stroke="white" stroke-width="1.5" stroke-linejoin="bevel"/>
<path d="M171.878 67.3203H19.0906" stroke="white" stroke-width="1.5" stroke-linejoin="bevel"/>
<path d="M48.2504 101.611C46.9885 102.873 46.0741 104.437 45.5954 106.154C45.1168 107.87 45.0901 109.681 45.5179 111.411C47.2548 111.831 49.0709 111.798 50.7912 111.315C52.5115 110.832 54.078 109.915 55.3398 108.653C56.6015 107.391 57.5159 105.826 57.9949 104.11C58.4738 102.393 58.5012 100.582 58.0742 98.8515C56.337 98.4308 54.5202 98.4638 52.7994 98.9472C51.0786 99.4306 49.5119 100.348 48.2504 101.611V101.611Z" stroke="white" stroke-width="1.5" stroke-linejoin="bevel"/>
<path d="M69.3181 92.8623C69.3181 93.3194 69.1821 93.7663 68.9274 94.1464C68.6727 94.5266 68.3106 94.8228 67.887 94.9978C67.4633 95.1727 66.9972 95.2185 66.5475 95.1293C66.0978 95.0401 65.6847 94.82 65.3605 94.4967C65.0363 94.1734 64.8155 93.7616 64.726 93.3132C64.6366 92.8648 64.6825 92.4001 64.8579 91.9777C65.0334 91.5553 65.3305 91.1943 65.7118 90.9403C66.093 90.6863 66.5413 90.5508 66.9998 90.5508C67.6146 90.5508 68.2043 90.7943 68.6391 91.2278C69.0739 91.6613 69.3181 92.2492 69.3181 92.8623Z" stroke="white" stroke-width="1.5" stroke-linejoin="bevel"/>
<path d="M135.646 2.5957H89.2645V31.8592C89.2611 35.3747 90.2803 38.8158 92.1988 41.7655C94.1173 44.7151 96.8525 47.0466 100.073 48.4776L109.518 52.6725C112.565 54.0268 115.266 56.0474 117.423 58.5846H171.871" stroke="white" stroke-width="1.5" stroke-linejoin="bevel"/>
<path d="M290.399 2.5957H239.946" stroke="white" stroke-width="1.5" stroke-linejoin="bevel"/>
<path d="M702.024 39.3397C702.024 34.0026 704.104 28.8744 707.826 25.0386C711.548 21.2027 716.62 18.9596 721.97 18.7832H731.319V43.7964C731.319 53.9309 727.281 63.6504 720.094 70.8166C712.906 77.9827 703.158 82.0087 692.993 82.0087C682.829 82.0087 673.081 77.9827 665.893 70.8166C658.706 63.6504 654.668 53.9309 654.668 43.7964" stroke="white" stroke-width="1.5" stroke-linejoin="bevel"/>
<path d="M634.554 58.5659V-13.0645H753.273" stroke="white" stroke-width="1.5" stroke-linejoin="bevel"/>
<path d="M867.153 -13.0645V111.015C865.058 113.24 862.543 115.032 859.752 116.288C856.961 117.543 853.95 118.238 850.889 118.331C847.829 118.425 844.78 117.916 841.918 116.833C839.055 115.75 836.435 114.115 834.207 112.022C833.87 111.686 833.533 111.35 833.196 111.015C831.101 113.24 828.586 115.032 825.795 116.288C823.005 117.543 819.993 118.238 816.933 118.331C813.873 118.425 810.824 117.916 807.961 116.833C805.099 115.75 802.478 114.115 800.25 112.022C799.901 111.699 799.563 111.367 799.24 111.015C797.145 113.24 794.63 115.032 791.84 116.287C789.05 117.543 786.038 118.237 782.979 118.331C779.919 118.424 776.871 117.915 774.008 116.833C771.146 115.75 768.526 114.115 766.298 112.022C765.95 111.699 765.606 111.367 765.288 111.015C763.193 113.24 760.678 115.032 757.887 116.288C755.096 117.543 752.085 118.238 749.025 118.331C745.964 118.425 742.916 117.916 740.053 116.833C737.19 115.75 734.57 114.115 732.342 112.022C731.993 111.699 731.655 111.367 731.332 111.015V132.009C731.332 138.011 729.587 143.884 726.309 148.918C723.031 153.951 718.36 157.93 712.861 160.371L696.729 167.537C691.522 169.849 686.905 173.302 683.223 177.639C679.534 173.299 674.911 169.846 669.697 167.537L653.534 160.371C648.036 157.928 643.367 153.95 640.089 148.916C636.812 143.883 635.068 138.01 635.068 132.009V82.0079H776.163C777.915 79.9419 780.113 78.2978 782.592 77.1987L790.27 73.7843C792.888 72.6226 795.112 70.7289 796.672 68.3326C798.233 65.9363 799.064 63.1403 799.063 60.2831V36.4835H753.257V60.2831" stroke="white" stroke-width="1.5" stroke-linejoin="bevel"/>
<path d="M561.239 123.521C559.686 119.557 557.001 116.134 553.517 113.675C550.033 111.216 545.903 109.83 541.637 109.688H531.752V136.131C531.693 141.473 532.696 146.774 534.705 151.727C536.714 156.679 539.689 161.185 543.456 164.984C547.224 168.783 551.71 171.798 556.654 173.857C561.599 175.915 566.904 176.975 572.262 176.975C577.621 176.975 582.926 175.915 587.87 173.857C592.815 171.798 597.301 168.783 601.069 164.984C604.836 161.185 607.811 156.679 609.82 151.727C611.829 146.774 612.832 141.473 612.772 136.131" stroke="white" stroke-width="1.5" stroke-linejoin="bevel"/>
<path d="M561.235 138.911L590.399 109.844C593.685 114.048 596.053 118.892 597.349 124.064C598.645 129.235 598.841 134.62 597.923 139.872C597.006 145.123 594.996 150.125 592.023 154.556C589.05 158.986 585.179 162.747 580.661 165.596" stroke="white" stroke-width="1.5" stroke-linejoin="bevel"/>
<path d="M848.013 58.5659C848.013 39.5683 840.443 21.3489 826.97 7.91559C813.497 -5.51771 795.224 -13.0645 776.17 -13.0645" stroke="white" stroke-width="1.5" stroke-linejoin="bevel"/>
<path d="M477.221 57.8676C477.222 46.0744 481.004 34.5903 488.014 25.0914C495.024 15.5926 504.895 8.57624 516.188 5.06641" stroke="white" stroke-width="1.5" stroke-linejoin="bevel"/>
<path d="M612.773 177.637H867.152V140.875C865.058 143.102 862.543 144.895 859.752 146.151C856.961 147.407 853.949 148.102 850.889 148.196C847.828 148.289 844.779 147.78 841.916 146.696C839.054 145.613 836.433 143.977 834.206 141.882C833.869 141.546 833.532 141.211 833.196 140.875C831.101 143.102 828.586 144.895 825.796 146.151C823.005 147.407 819.993 148.102 816.932 148.196C813.872 148.289 810.823 147.78 807.96 146.696C805.097 145.613 802.477 143.977 800.249 141.882C799.901 141.56 799.562 141.228 799.239 140.875C797.053 143.179 794.421 145.016 791.503 146.275C788.584 147.535 785.439 148.19 782.258 148.202" stroke="white" stroke-width="1.5" stroke-linejoin="bevel"/>
<path d="M531.76 177.64H425.485V166.531" stroke="white" stroke-width="1.5" stroke-linejoin="bevel"/>
<path d="M612.779 82.2871H531.759" stroke="white" stroke-width="1.5" stroke-linejoin="bevel"/>
<path d="M498.762 94.5747C498.762 91.384 500.006 88.3181 502.231 86.0251C504.457 83.7321 507.489 82.3917 510.687 82.2871H516.274V97.2336C516.274 103.291 513.86 109.099 509.565 113.382C505.269 117.665 499.443 120.071 493.368 120.071C487.293 120.071 481.467 117.665 477.172 113.382C472.876 109.099 470.463 103.291 470.463 97.2336" stroke="white" stroke-width="1.5" stroke-linejoin="bevel"/>
<path d="M470.463 82.2871H426.026V98.3516" stroke="white" stroke-width="1.5" stroke-linejoin="bevel"/>
<path d="M576.7 22.5291V30.6369C576.699 32.8987 576.041 35.1118 574.806 37.009C573.571 38.9062 571.811 40.4062 569.739 41.3281L563.679 44.0273C561.718 44.8993 559.979 46.2005 558.592 47.8344C557.203 46.2015 555.463 44.9004 553.501 44.0273L547.415 41.3281C545.343 40.4062 543.584 38.9062 542.349 37.009C541.114 35.1118 540.456 32.8987 540.455 30.6369V11.7876H612.778V-13.0645H558.835" stroke="white" stroke-width="1.5" stroke-linejoin="bevel"/>
<path d="M445.245 -30.5527L461.382 -23.3867C466.589 -21.0753 471.205 -17.6222 474.888 -13.2847L474.822 -13.0631H426.026V35.4576" stroke="white" stroke-width="1.5" stroke-linejoin="bevel"/>
<path d="M261.086 39.3397C261.086 34.0026 263.166 28.8744 266.888 25.0386C270.61 21.2027 275.682 18.9596 281.032 18.7832H290.381V43.7964C290.439 48.8511 289.491 53.8671 287.591 58.5538C285.691 63.2405 282.878 67.5048 279.313 71.0997C275.749 74.6946 271.504 77.5486 266.826 79.4965C262.147 81.4444 257.128 82.4474 252.058 82.4474C246.988 82.4474 241.968 81.4444 237.29 79.4965C232.611 77.5486 228.367 74.6946 224.802 71.0997C221.238 67.5048 218.424 63.2405 216.525 58.5538C214.625 53.8671 213.677 48.8511 213.735 43.7964" stroke="white" stroke-width="1.5" stroke-linejoin="bevel"/>
<path d="M193.645 58.5659V-13.0645H312.37" stroke="white" stroke-width="1.5" stroke-linejoin="bevel"/>
<path d="M312.37 60.28V36.4805H358.17V60.28C358.171 63.1372 357.341 65.9333 355.78 68.3295C354.219 70.7258 351.995 72.6195 349.377 73.7812L341.7 77.1956C339.22 78.2947 337.022 79.9388 335.27 82.0048H194.176V132.006C194.175 138.008 195.92 143.881 199.198 148.915C202.476 153.948 207.148 157.927 212.646 160.368L228.764 167.534C233.97 169.846 238.587 173.299 242.269 177.636C245.952 173.299 250.568 169.846 255.775 167.534L271.938 160.368C277.432 157.922 282.097 153.942 285.371 148.909C288.644 143.876 290.385 138.005 290.383 132.006V111.011C290.717 111.354 291.055 111.686 291.394 112.019C293.622 114.112 296.242 115.747 299.105 116.83C301.967 117.912 305.016 118.422 308.076 118.328C311.137 118.234 314.148 117.54 316.939 116.285C319.73 115.029 322.245 113.237 324.34 111.011C324.668 111.354 325.012 111.686 325.35 112.019C327.578 114.112 330.198 115.747 333.06 116.829C335.922 117.912 338.971 118.421 342.03 118.328C345.09 118.234 348.102 117.54 350.892 116.284C353.682 115.029 356.197 113.237 358.292 111.011C358.625 111.354 358.963 111.686 359.302 112.019C361.53 114.112 364.15 115.747 367.013 116.83C369.876 117.912 372.924 118.422 375.985 118.328C379.045 118.234 382.056 117.54 384.847 116.285C387.638 115.029 390.153 113.237 392.248 111.011C392.577 111.354 392.92 111.686 393.258 112.019C397.724 116.218 403.673 118.489 409.809 118.336C415.946 118.183 421.773 115.619 426.023 111.203C426.336 111.53 426.664 111.847 426.998 112.155C429.226 114.248 431.846 115.883 434.708 116.965C437.57 118.048 440.618 118.557 443.678 118.464C446.738 118.37 449.749 117.676 452.539 116.42C455.33 115.165 457.844 113.373 459.939 111.147" stroke="white" stroke-width="1.5" stroke-linejoin="bevel"/>
<path d="M120.332 123.521C118.779 119.557 116.094 116.134 112.61 113.675C109.126 111.216 104.996 109.83 100.73 109.688H90.8705V136.131C90.8107 141.473 91.8143 146.774 93.8233 151.727C95.8323 156.679 98.8067 161.185 102.574 164.984C106.342 168.783 110.828 171.798 115.773 173.857C120.717 175.915 126.022 176.975 131.381 176.975C136.739 176.975 142.044 175.915 146.988 173.857C151.933 171.798 156.419 168.783 160.187 164.984C163.954 161.185 166.929 156.679 168.938 151.727C170.947 146.774 171.95 141.473 171.891 136.131" stroke="white" stroke-width="1.5" stroke-linejoin="bevel"/>
<path d="M120.336 138.911L149.494 109.844C152.781 114.048 155.149 118.892 156.445 124.064C157.741 129.235 157.936 134.62 157.019 139.872C156.102 145.123 154.092 150.125 151.119 154.556C148.146 158.986 144.275 162.747 139.756 165.596" stroke="white" stroke-width="1.5" stroke-linejoin="bevel"/>
<path d="M359.809 82.2871H407.115" stroke="white" stroke-width="1.5" stroke-linejoin="bevel"/>
<path d="M407.104 58.5659C407.104 39.5683 399.535 21.3489 386.062 7.91559C372.589 -5.51771 354.315 -13.0645 335.262 -13.0645" stroke="white" stroke-width="1.5" stroke-linejoin="bevel"/>
<path d="M36.3211 57.8676C36.3225 46.0744 40.1042 34.5903 47.1143 25.0914C54.1244 15.5926 63.9959 8.57624 75.2881 5.06641" stroke="white" stroke-width="1.5" stroke-linejoin="bevel"/>
<path d="M341.335 148.181C344.515 148.17 347.661 147.515 350.58 146.255C353.499 144.996 356.13 143.158 358.316 140.854C358.649 141.196 358.987 141.528 359.326 141.861C361.553 143.956 364.173 145.591 367.036 146.675C369.899 147.758 372.948 148.268 376.009 148.174C379.069 148.081 382.081 147.386 384.872 146.13C387.663 144.873 390.178 143.08 392.272 140.854C392.601 141.196 392.939 141.528 393.282 141.861C397.706 146.034 403.597 148.308 409.686 148.194C415.775 148.08 421.576 145.587 425.84 141.251C430.104 145.587 435.905 148.08 441.994 148.194C448.083 148.308 453.973 146.034 458.397 141.861C458.746 141.538 459.084 141.206 459.408 140.854C461.593 143.157 464.225 144.994 467.144 146.254C470.063 147.513 473.208 148.169 476.388 148.181" stroke="white" stroke-width="1.5" stroke-linejoin="bevel"/>
<path d="M171.873 177.639H409.069" stroke="white" stroke-width="1.5" stroke-linejoin="bevel"/>
<path d="M90.8764 177.637H-15.423V140.875C-13.3292 143.102 -10.815 144.896 -8.0246 146.152C-5.23418 147.409 -2.22243 148.104 0.837944 148.197C3.89832 148.291 6.94712 147.781 9.80951 146.697C12.6719 145.614 15.2916 143.977 17.5184 141.882C17.8669 141.56 18.2053 141.227 18.5285 140.875C20.7142 143.178 23.3462 145.016 26.2651 146.275C29.184 147.535 32.3289 148.19 35.5094 148.202" stroke="white" stroke-width="1.5" stroke-linejoin="bevel"/>
<path d="M171.861 82.2871H90.8406" stroke="white" stroke-width="1.5" stroke-linejoin="bevel"/>
<path d="M57.862 94.5747C57.8616 91.3848 59.1048 88.3197 61.329 86.0268C63.5533 83.734 66.5844 82.393 69.7819 82.2871H75.3732V97.2336C75.3732 103.291 72.9599 109.099 68.6643 113.382C64.3687 117.665 58.5426 120.071 52.4677 120.071C46.3928 120.071 40.5668 117.665 36.2712 113.382C31.9756 109.099 29.5623 103.291 29.5623 97.2336" stroke="white" stroke-width="1.5" stroke-linejoin="bevel"/>
<path d="M29.5554 82.2871H-14.8918V111.153C-14.5635 111.495 -14.2251 111.828 -13.8816 112.16C-11.6539 114.253 -9.03393 115.888 -6.1717 116.971C-3.30948 118.053 -0.261201 118.562 2.79861 118.469C5.85842 118.375 8.86969 117.681 11.66 116.426C14.4503 115.17 16.9649 113.378 19.0598 111.153" stroke="white" stroke-width="1.5" stroke-linejoin="bevel"/>
<path d="M135.79 22.5291V30.6369C135.789 32.8987 135.132 35.1118 133.896 37.009C132.661 38.9062 130.902 40.4062 128.83 41.3281L122.769 44.0273C120.794 44.8941 119.041 46.1957 117.643 47.8344C116.264 46.2063 114.539 44.9056 112.592 44.0273L106.506 41.3281C104.434 40.4062 102.675 38.9062 101.44 37.009C100.204 35.1118 99.5467 32.8987 99.5457 30.6369V11.7876H171.868V-13.0645H117.926" stroke="white" stroke-width="1.5" stroke-linejoin="bevel"/>
<path d="M104.06 -130.637V-154.441H149.865V-130.637C149.865 -127.78 149.035 -124.984 147.474 -122.588C145.913 -120.192 143.69 -118.298 141.072 -117.136L133.395 -113.726C130.916 -112.625 128.718 -110.982 126.965 -108.917H-14.1345V-58.9158C-14.1347 -52.9141 -12.3901 -47.0409 -9.11197 -42.0073C-5.8338 -36.9736 -1.16257 -32.9953 4.33632 -30.5537L20.4989 -23.3876C25.7058 -21.0762 30.3224 -17.6231 34.0048 -13.2856L33.9391 -13.0641H-14.882V35.4566" stroke="white" stroke-width="1.5" stroke-linejoin="bevel"/>
</g>
</g>
<defs>
<clipPath id="clip0_868_6152">
<rect y="-204" width="1029" height="397" rx="198.5" fill="white"/>
</clipPath>
</defs>
</svg>
